<?xml version="1.0" encoding="UTF-8"?>
<svg id="SystemLight" xmlns="http://www.w3.org/2000/svg" viewBox="0 0 1080 1080">
  <defs>
    <style>
      .cls-1 {
        fill: #fff;
      }

      .cls-2 {
        fill: #d8d8d8;
      }

      .cls-3 {
        opacity: .5;
      }

      .cls-4 {
        fill: #c9c9c9;
      }

      .cls-5 {
        fill: #655cfe;
      }

      .cls-6 {
        fill: #01112d;
      }

      .cls-7 {
        fill: #695bf9;
      }

      .cls-8 {
        fill: #ededed;
      }
    </style>
  </defs>
  <g>
    <g>
      <path class="cls-6" d="M84.2,935.22s-7.39-3.53-18.37,4.58c-10.98,8.11-30.55,6.49-32.94-5.35-2.39-11.84,31.48-32.94,51.3,.76Z"/>
      <path class="cls-6" d="M89.72,959.44s-5.75-22.63,10.48-37.84c16.23-15.21,30.07-5.66,27.21,10.33-2.86,15.99-36.23,5.61-37.69,27.51Z"/>
      <path class="cls-6" d="M94.35,999.47s-4.76-29,13.92-40.04c18.67-11.04,33.75,8.59,19.53,20.02-14.22,11.43-30.71,4.27-33.44,20.02Z"/>
      <path class="cls-6" d="M81.23,924.49s-16.83-14.29-19.21-27.89c-2.39-13.6,15.73-21.27,22.18-3.59,6.46,17.67-2.97,31.48-2.97,31.48Z"/>
      <path class="cls-6" d="M93.8,990.88s-6.01-15.75-22.24-15.28c-16.23,.48-26.25-4.49-24.82-19.43,1.43-14.94,47.83-7.78,47.07,34.7Z"/>
      <path class="cls-2" d="M94.56,994.94c-.18,0-.34-.13-.37-.31-6.86-35.01-47.07-38.05-47.48-38.07-.21-.01-.37-.19-.35-.4,.01-.21,.2-.37,.4-.35,.41,.03,41.2,3.1,48.17,38.68,.04,.21-.09,.4-.3,.44-.02,0-.05,0-.07,0Z"/>
      <path class="cls-2" d="M94.71,998.2s-.02,0-.03,0c-.21-.02-.36-.2-.35-.41,2.35-32.03,37.33-34.65,37.68-34.68,.2,0,.39,.14,.4,.35,.01,.21-.15,.39-.35,.4-.35,.02-34.67,2.61-36.97,33.97-.01,.2-.18,.35-.38,.35Z"/>
      <path class="cls-2" d="M33.6,937.07c-.11,0-.22-.05-.3-.14-.13-.16-.1-.4,.06-.53,.28-.22,27.86-21.75,51.08-1.46,.16,.14,.17,.38,.04,.53-.14,.16-.38,.17-.54,.04-22.74-19.87-49.84,1.26-50.11,1.48-.07,.06-.15,.08-.24,.08Z"/>
      <path class="cls-2" d="M89.72,959.82c-.2,0-.37-.16-.38-.36-1.89-32.15,36.74-38.6,37.13-38.67,.2-.03,.4,.11,.43,.32,.03,.21-.11,.4-.32,.43-.38,.06-38.34,6.41-36.49,37.87,.01,.21-.15,.39-.36,.4,0,0-.01,0-.02,0Z"/>
      <path class="cls-6" d="M94.72,1025.78l-.75-.11c.05-.37,5.32-37.8-13.1-101.07l.73-.21c18.48,63.45,13.18,101.02,13.13,101.4Z"/>
      <path class="cls-2" d="M81.23,924.87c-.16,0-.32-.11-.36-.27-.5-1.72-1.02-3.45-1.55-5.21l-10.87-35.87c-.06-.2,.05-.41,.25-.47,.2-.06,.41,.05,.47,.25l10.87,35.87c.54,1.76,1.06,3.5,1.56,5.22,.06,.2-.06,.41-.26,.47-.04,.01-.07,.02-.11,.02Z"/>
    </g>
    <g>
      <path class="cls-6" d="M136.78,928.7s7.92-3.79,19.69,4.91c11.77,8.7,32.75,6.96,35.31-5.73,2.56-12.69-33.75-35.31-55,.82Z"/>
      <path class="cls-6" d="M130.85,954.66s6.17-24.27-11.23-40.57c-17.4-16.3-32.24-6.07-29.17,11.08,3.07,17.14,38.84,6.01,40.4,29.49Z"/>
      <path class="cls-6" d="M125.9,997.58s5.1-31.09-14.92-42.92c-20.02-11.84-36.18,9.21-20.93,21.46,15.25,12.25,32.92,4.57,35.85,21.46Z"/>
      <path class="cls-6" d="M153.18,875.12s18.04-15.32,20.6-29.9c2.56-14.59-16.86-22.8-23.78-3.85-6.92,18.95,3.18,33.75,3.18,33.75Z"/>
      <path class="cls-6" d="M126.48,988.37s6.45-16.89,23.85-16.38c17.4,.51,28.15-4.81,26.61-20.83-1.54-16.02-51.28-8.34-50.46,37.2Z"/>
      <path class="cls-2" d="M125.67,992.69s-.05,0-.07,0c-.21-.04-.34-.24-.3-.44,3.9-19.93,17.74-30.14,28.66-35.2,11.81-5.47,22.85-6.24,22.96-6.25,.2,0,.39,.14,.4,.35,.01,.21-.14,.39-.35,.4-.11,0-11.03,.78-22.71,6.19-10.75,4.98-24.37,15.04-28.21,34.65-.03,.18-.19,.31-.37,.31Z"/>
      <path class="cls-2" d="M125.51,996.19c-.2,0-.36-.15-.38-.35-2.47-33.65-39.29-36.42-39.66-36.45-.21-.01-.37-.19-.35-.4,.01-.21,.22-.36,.4-.35,.38,.02,37.85,2.83,40.37,37.15,.01,.21-.14,.39-.35,.41,0,0-.02,0-.03,0Z"/>
      <path class="cls-2" d="M191.02,930.65c-.08,0-.17-.03-.24-.08-.29-.23-29.37-22.9-53.76-1.58-.16,.14-.4,.12-.54-.04-.14-.16-.12-.4,.04-.53,24.87-21.74,54.43,1.33,54.73,1.56,.16,.13,.19,.37,.06,.53-.07,.09-.19,.14-.3,.14Z"/>
      <path class="cls-6" d="M144.73,899.62s3.37-5.35,13.89-4.57c10.52,.78,22.64-8.34,19.33-17.06-3.31-8.72-34.14-8.57-33.22,21.62Z"/>
      <path class="cls-2" d="M144.73,900s-.07,0-.11-.02c-.2-.06-.31-.27-.25-.47,6.84-22.89,33.81-20.17,34.08-20.14,.21,.02,.36,.21,.34,.42-.02,.21-.21,.36-.42,.33-.27-.03-26.61-2.67-33.27,19.61-.05,.16-.2,.27-.36,.27Z"/>
      <path class="cls-2" d="M130.85,955.04s-.01,0-.02,0c-.21-.01-.37-.19-.36-.4,1.99-33.75-38.73-40.57-39.15-40.63-.21-.03-.35-.23-.32-.43,.03-.21,.23-.35,.43-.32,.1,.02,10.56,1.71,20.63,7.63,9.32,5.48,20.22,15.79,19.16,33.8-.01,.2-.18,.36-.38,.36Z"/>
      <path class="cls-6" d="M141.56,911.66s9.69-17.73-.64-33.96c-10.33-16.23-23.98-11.21-25.02,2.8-1.04,14.01,29.15,12.49,25.66,31.15Z"/>
      <path class="cls-2" d="M141.56,912.04s-.08,0-.12-.02c-.2-.06-.31-.28-.25-.48,8.3-25.91-22.09-39.38-22.4-39.52-.19-.08-.28-.31-.2-.5,.08-.19,.31-.28,.5-.2,.31,.14,31.33,13.87,22.82,40.44-.05,.16-.2,.26-.36,.26Z"/>
      <path class="cls-6" d="M125.52,1025.78c-.06-.42-6.04-42.88,15.74-114.29l11.01-36.34,.73,.22-11.01,36.34c-21.73,71.25-15.78,113.54-15.72,113.96l-.75,.11Z"/>
      <path class="cls-2" d="M152.64,875.65s-.07,0-.11-.02c-.2-.06-.31-.27-.25-.47l.64-2.12,11.06-42.66c.05-.2,.26-.33,.46-.27,.2,.05,.32,.26,.27,.46l-11.06,42.67-.65,2.13c-.05,.16-.2,.27-.36,.27Z"/>
    </g>
    <g>
      <path class="cls-1" d="M91.89,1042.14c-.09,0-.18-.03-.25-.1-6.28-5.56-9.88-13.53-9.88-21.86v-.08c.01-4.65,3.88-8.44,8.61-8.44h41.21c4.73,0,8.6,3.78,8.61,8.43v.09c0,8.34-3.6,16.3-9.88,21.86-.07,.06-.16,.1-.25,.1h-38.17Z"/>
      <path class="cls-6" d="M131.59,1012.04c4.48,0,8.22,3.58,8.23,8.06,0,.03,0,.06,0,.08,0,8.6-3.78,16.29-9.75,21.58h-38.18c-5.97-5.28-9.75-12.98-9.75-21.58,0-.03,0-.06,0-.08,.01-4.48,3.75-8.06,8.23-8.06h41.21m0-.76h-41.21c-4.94,0-8.98,3.95-8.99,8.81v.09c0,8.44,3.65,16.52,10.01,22.15,.14,.12,.32,.19,.5,.19h38.18c.19,0,.36-.07,.5-.19,6.36-5.63,10.01-13.7,10.01-22.15v-.09c-.01-4.86-4.05-8.81-8.99-8.81h0Z"/>
    </g>
    <g>
      <path class="cls-1" d="M98.84,1079.62c-10.45,0-19.01-8.38-19.08-18.69v-.21c0-8.31,3.22-16.15,9.07-22.07,.07-.07,.17-.11,.27-.11h44.11c.1,0,.2,.04,.27,.11,5.85,5.92,9.07,13.76,9.07,22.07v.21c-.07,10.31-8.63,18.69-19.08,18.69h-24.64Z"/>
      <path class="cls-6" d="M133.21,1038.92c5.54,5.6,8.96,13.3,8.96,21.8,0,.07,0,.14,0,.21-.07,10.18-8.52,18.31-18.7,18.31h-24.64c-10.18,0-18.63-8.13-18.7-18.31,0-.07,0-.14,0-.21,0-8.5,3.43-16.2,8.96-21.8h44.11m0-.76h-44.11c-.2,0-.4,.08-.54,.23-5.92,5.99-9.18,13.92-9.18,22.33v.21c.07,10.51,8.8,19.06,19.46,19.06h24.64c10.66,0,19.39-8.55,19.46-19.06v-.21c0-8.41-3.26-16.34-9.18-22.33-.14-.14-.34-.23-.54-.23h0Z"/>
    </g>
    <path class="cls-8" d="M89.1,1038.92h0c-4.33-5.04-6.97-11.58-6.97-18.75v-.08c.01-4.48,3.75-8.06,8.23-8.06h16.54c-2.65,2.04-14.06,11.26-15.3,26.02-1.43,17.1,11.37,34.78,31.86,41.18-8.21,0-16.43,0-24.64,0-10.18,0-18.63-8.13-18.7-18.31,0-.07,0-.14,0-.21,0-8.5,3.43-16.2,8.96-21.8Z"/>
  </g>
  <g>
    <g>
      <path class="cls-6" d="M944.19,935.22s-7.39-3.53-18.37,4.58c-10.98,8.11-30.55,6.49-32.94-5.35-2.39-11.84,31.48-32.94,51.3,.76Z"/>
      <path class="cls-6" d="M949.72,959.44s-5.75-22.63,10.48-37.84c16.23-15.21,30.07-5.66,27.21,10.33-2.86,15.99-36.23,5.61-37.69,27.51Z"/>
      <path class="cls-6" d="M954.34,999.47s-4.76-29,13.92-40.04c18.67-11.04,33.75,8.59,19.53,20.02-14.22,11.43-30.71,4.27-33.44,20.02Z"/>
      <path class="cls-6" d="M941.22,924.49s-16.83-14.29-19.21-27.89c-2.39-13.6,15.73-21.27,22.18-3.59,6.46,17.67-2.97,31.48-2.97,31.48Z"/>
      <path class="cls-6" d="M953.8,990.88s-6.01-15.75-22.24-15.28c-16.23,.48-26.25-4.49-24.82-19.43,1.43-14.94,47.83-7.78,47.07,34.7Z"/>
      <path class="cls-2" d="M954.55,994.94c-.18,0-.34-.13-.37-.31-6.86-35.01-47.07-38.05-47.48-38.07-.21-.01-.37-.19-.35-.4,.01-.21,.2-.37,.4-.35,.41,.03,41.2,3.1,48.17,38.68,.04,.21-.09,.4-.3,.44-.02,0-.05,0-.07,0Z"/>
      <path class="cls-2" d="M954.7,998.2s-.02,0-.03,0c-.21-.02-.36-.2-.35-.41,2.35-32.03,37.33-34.65,37.68-34.68,.2,0,.39,.14,.4,.35,.01,.21-.15,.39-.35,.4-.35,.02-34.67,2.61-36.97,33.97-.01,.2-.18,.35-.38,.35Z"/>
      <path class="cls-2" d="M893.59,937.07c-.11,0-.22-.05-.3-.14-.13-.16-.1-.4,.06-.53,.28-.22,27.86-21.75,51.08-1.46,.16,.14,.17,.38,.04,.53-.14,.16-.38,.17-.54,.04-22.74-19.87-49.84,1.26-50.11,1.48-.07,.06-.15,.08-.24,.08Z"/>
      <path class="cls-2" d="M949.72,959.82c-.2,0-.37-.16-.38-.36-1.89-32.15,36.74-38.6,37.13-38.67,.2-.03,.4,.11,.43,.32,.03,.21-.11,.4-.32,.43-.38,.06-38.34,6.41-36.49,37.87,.01,.21-.15,.39-.36,.4,0,0-.01,0-.02,0Z"/>
      <path class="cls-6" d="M954.71,1025.78l-.75-.11c.05-.37,5.32-37.8-13.1-101.07l.73-.21c18.48,63.45,13.18,101.02,13.13,101.4Z"/>
      <path class="cls-2" d="M941.22,924.87c-.16,0-.32-.11-.36-.27-.5-1.72-1.02-3.45-1.55-5.21l-10.87-35.87c-.06-.2,.05-.41,.25-.47,.2-.06,.41,.05,.47,.25l10.87,35.87c.54,1.76,1.06,3.5,1.56,5.22,.06,.2-.06,.41-.26,.47-.04,.01-.07,.02-.11,.02Z"/>
    </g>
    <g>
      <path class="cls-6" d="M996.77,928.7s7.92-3.79,19.69,4.91c11.77,8.7,32.75,6.96,35.31-5.73,2.56-12.69-33.75-35.31-55,.82Z"/>
      <path class="cls-6" d="M990.84,954.66s6.17-24.27-11.23-40.57c-17.4-16.3-32.24-6.07-29.17,11.08,3.07,17.14,38.84,6.01,40.4,29.49Z"/>
      <path class="cls-6" d="M985.89,997.58s5.1-31.09-14.92-42.92c-20.02-11.84-36.18,9.21-20.93,21.46,15.25,12.25,32.92,4.57,35.85,21.46Z"/>
      <path class="cls-6" d="M1013.17,875.12s18.04-15.32,20.6-29.9c2.56-14.59-16.86-22.8-23.78-3.85-6.92,18.95,3.18,33.75,3.18,33.75Z"/>
      <path class="cls-6" d="M986.47,988.37s6.45-16.89,23.85-16.38c17.4,.51,28.15-4.81,26.61-20.83-1.54-16.02-51.28-8.34-50.46,37.2Z"/>
      <path class="cls-2" d="M985.66,992.69s-.05,0-.07,0c-.21-.04-.34-.24-.3-.44,3.9-19.93,17.74-30.14,28.66-35.2,11.81-5.47,22.85-6.24,22.96-6.25,.2,0,.39,.14,.4,.35,.01,.21-.14,.39-.35,.4-.11,0-11.03,.78-22.71,6.19-10.75,4.98-24.37,15.04-28.21,34.65-.03,.18-.19,.31-.37,.31Z"/>
      <path class="cls-2" d="M985.5,996.19c-.2,0-.36-.15-.38-.35-2.47-33.65-39.29-36.42-39.66-36.45-.21-.01-.37-.19-.35-.4,.01-.21,.22-.36,.4-.35,.38,.02,37.85,2.83,40.37,37.15,.01,.21-.14,.39-.35,.41,0,0-.02,0-.03,0Z"/>
      <path class="cls-2" d="M1051.01,930.65c-.08,0-.17-.03-.24-.08-.29-.23-29.37-22.9-53.76-1.58-.16,.14-.4,.12-.54-.04-.14-.16-.12-.4,.04-.53,24.87-21.74,54.43,1.33,54.73,1.56,.16,.13,.19,.37,.06,.53-.07,.09-.19,.14-.3,.14Z"/>
      <path class="cls-6" d="M1004.72,899.62s3.37-5.35,13.89-4.57c10.52,.78,22.64-8.34,19.33-17.06-3.31-8.72-34.14-8.57-33.22,21.62Z"/>
      <path class="cls-2" d="M1004.72,900s-.07,0-.11-.02c-.2-.06-.31-.27-.25-.47,6.84-22.89,33.81-20.17,34.08-20.14,.21,.02,.36,.21,.34,.42-.02,.21-.21,.36-.42,.33-.27-.03-26.61-2.67-33.27,19.61-.05,.16-.2,.27-.36,.27Z"/>
      <path class="cls-2" d="M990.84,955.04s-.01,0-.02,0c-.21-.01-.37-.19-.36-.4,1.99-33.75-38.73-40.57-39.15-40.63-.21-.03-.35-.23-.32-.43,.03-.21,.23-.35,.43-.32,.1,.02,10.56,1.71,20.63,7.63,9.32,5.48,20.22,15.79,19.16,33.8-.01,.2-.18,.36-.38,.36Z"/>
      <path class="cls-6" d="M1001.55,911.66s9.69-17.73-.64-33.96c-10.33-16.23-23.98-11.21-25.02,2.8-1.04,14.01,29.15,12.49,25.66,31.15Z"/>
      <path class="cls-2" d="M1001.55,912.04s-.08,0-.12-.02c-.2-.06-.31-.28-.25-.48,8.3-25.91-22.09-39.38-22.4-39.52-.19-.08-.28-.31-.2-.5,.08-.19,.31-.28,.5-.2,.31,.14,31.33,13.87,22.82,40.44-.05,.16-.2,.26-.36,.26Z"/>
      <path class="cls-6" d="M985.52,1025.78c-.06-.42-6.04-42.88,15.74-114.29l11.01-36.34,.73,.22-11.01,36.34c-21.73,71.25-15.78,113.54-15.72,113.96l-.75,.11Z"/>
      <path class="cls-2" d="M1012.63,875.65s-.07,0-.11-.02c-.2-.06-.31-.27-.25-.47l.64-2.12,11.06-42.66c.05-.2,.26-.33,.46-.27,.2,.05,.32,.26,.27,.46l-11.06,42.67-.65,2.13c-.05,.16-.2,.27-.36,.27Z"/>
    </g>
    <g>
      <path class="cls-1" d="M951.88,1042.14c-.09,0-.18-.03-.25-.1-6.28-5.56-9.88-13.53-9.88-21.86v-.08c.01-4.65,3.88-8.44,8.61-8.44h41.21c4.73,0,8.6,3.78,8.61,8.43v.09c0,8.34-3.6,16.3-9.88,21.86-.07,.06-.16,.1-.25,.1h-38.17Z"/>
      <path class="cls-6" d="M991.58,1012.04c4.48,0,8.22,3.58,8.23,8.06,0,.03,0,.06,0,.08,0,8.6-3.78,16.29-9.75,21.58h-38.18c-5.97-5.28-9.75-12.98-9.75-21.58,0-.03,0-.06,0-.08,.01-4.48,3.75-8.06,8.23-8.06h41.21m0-.76h-41.21c-4.94,0-8.98,3.95-8.99,8.81v.09c0,8.44,3.65,16.52,10.01,22.15,.14,.12,.32,.19,.5,.19h38.18c.19,0,.36-.07,.5-.19,6.36-5.63,10.01-13.7,10.01-22.15v-.09c-.01-4.86-4.05-8.81-8.99-8.81h0Z"/>
    </g>
    <g>
      <path class="cls-1" d="M958.83,1079.62c-10.45,0-19.01-8.38-19.08-18.69v-.21c0-8.31,3.22-16.15,9.07-22.07,.07-.07,.17-.11,.27-.11h44.11c.1,0,.2,.04,.27,.11,5.85,5.92,9.07,13.76,9.07,22.07v.21c-.07,10.31-8.63,18.69-19.08,18.69h-24.64Z"/>
      <path class="cls-6" d="M993.2,1038.92c5.54,5.6,8.96,13.3,8.96,21.8,0,.07,0,.14,0,.21-.07,10.18-8.52,18.31-18.7,18.31h-24.64c-10.18,0-18.63-8.13-18.7-18.31,0-.07,0-.14,0-.21,0-8.5,3.43-16.2,8.96-21.8h44.11m0-.76h-44.11c-.2,0-.4,.08-.54,.23-5.92,5.99-9.18,13.92-9.18,22.33v.21c.07,10.51,8.8,19.06,19.46,19.06h24.64c10.66,0,19.39-8.55,19.46-19.06v-.21c0-8.41-3.26-16.34-9.18-22.33-.14-.14-.34-.23-.54-.23h0Z"/>
    </g>
    <path class="cls-8" d="M949.09,1038.92h0c-4.33-5.04-6.97-11.58-6.97-18.75v-.08c.01-4.48,3.75-8.06,8.23-8.06h16.54c-2.65,2.04-14.06,11.26-15.3,26.02-1.43,17.1,11.37,34.78,31.86,41.18-8.21,0-16.43,0-24.64,0-10.18,0-18.63-8.13-18.7-18.31,0-.07,0-.14,0-.21,0-8.5,3.43-16.2,8.96-21.8Z"/>
  </g>
  <g>
    <g>
      <path class="cls-6" d="M156.05,326.32c-1,0-1.8-.81-1.8-1.8v-38.12c0-18.67,15.19-33.85,33.85-33.85h59.11c1,0,1.8,.81,1.8,1.8s-.81,1.8-1.8,1.8h-59.11c-16.68,0-30.25,13.57-30.25,30.25v38.12c0,1-.81,1.8-1.8,1.8Z"/>
      <path class="cls-6" d="M156.05,543.27c-1,0-1.8-.81-1.8-1.8v-65.19c0-1,.81-1.8,1.8-1.8s1.8,.81,1.8,1.8v65.19c0,1-.81,1.8-1.8,1.8Z"/>
      <path class="cls-6" d="M520.57,659.75h-233.64c-1,0-1.8-.81-1.8-1.8s.81-1.8,1.8-1.8h233.64c1,0,1.8,.81,1.8,1.8s-.81,1.8-1.8,1.8Z"/>
      <path class="cls-6" d="M691.5,659.75h-35.98c-1,0-1.8-.81-1.8-1.8s.81-1.8,1.8-1.8h35.98c16.68,0,30.25-13.57,30.25-30.25v-20.79c0-1,.81-1.8,1.8-1.8s1.8,.81,1.8,1.8v20.79c0,18.67-15.19,33.85-33.85,33.85Z"/>
      <path class="cls-6" d="M723.55,431.36c-1,0-1.8-.81-1.8-1.8v-45.25c0-1,.81-1.8,1.8-1.8s1.8,.81,1.8,1.8v45.25c0,1-.81,1.8-1.8,1.8Z"/>
      <path class="cls-6" d="M605.87,256.15h-85.29c-1,0-1.8-.81-1.8-1.8s.81-1.8,1.8-1.8h85.29c1,0,1.8,.81,1.8,1.8s-.81,1.8-1.8,1.8Z"/>
    </g>
    <g>
      <rect class="cls-1" x="176.34" y="268.77" width="526.93" height="374.75" rx="24.92" ry="24.92"/>
      <path class="cls-6" d="M678.34,268.77c13.76,0,24.92,11.16,24.92,24.92v324.9c0,13.76-11.16,24.92-24.92,24.92H201.26c-13.76,0-24.92-11.16-24.92-24.92V293.7c0-13.76,11.16-24.92,24.92-24.92h477.08m0-3.61H201.26c-15.73,0-28.53,12.8-28.53,28.53v324.9c0,15.73,12.8,28.53,28.53,28.53h477.08c15.73,0,28.53-12.8,28.53-28.53V293.7c0-15.73-12.8-28.53-28.53-28.53h0Z"/>
    </g>
    <path class="cls-8" d="M678.34,268.77c-17.08,25.78-39.55,65.91-52.46,118.68-17.03,69.57,.38,88.24-19.03,112.36-44.17,54.87-156.06-14.75-253.37,39.91-46.58,26.16-71.67,70.61-85.55,103.81,25.94-.04,65.78-.07,114.61,0,83.3,.12,124.94,.17,126.83,.32,0,0,43,3.03,168.97-.32,2.27-.06,8.12-.29,13.56-4.01,7.42-5.08,10.22-14,11.36-20.91V293.7c0-13.76-11.16-24.92-24.92-24.92Z"/>
    <g>
      <rect class="cls-2" x="502.91" y="320.03" width="187.22" height="41.56" rx="20.78" ry="20.78"/>
      <g>
        <path class="cls-6" d="M661.89,336.96h4.57v16.35c0,1.26-1.02,2.28-2.28,2.28h0c-1.26,0-2.28-1.02-2.28-2.28v-16.35h0Z" transform="translate(-67.92 504.62) rotate(-39.74)"/>
        <g>
          <circle class="cls-2" cx="655.34" cy="336.26" r="8.84"/>
          <path class="cls-6" d="M655.34,346.08c-5.41,0-9.82-4.4-9.82-9.82s4.4-9.82,9.82-9.82,9.82,4.4,9.82,9.82-4.4,9.82-9.82,9.82Zm0-17.67c-4.33,0-7.86,3.52-7.86,7.86s3.52,7.86,7.86,7.86,7.86-3.52,7.86-7.86-3.52-7.86-7.86-7.86Z"/>
        </g>
      </g>
      <path class="cls-6" d="M278.37,334.15h-69.7c-1,0-1.8-.81-1.8-1.8s.81-1.8,1.8-1.8h69.7c1,0,1.8,.81,1.8,1.8s-.81,1.8-1.8,1.8Z"/>
      <path class="cls-6" d="M301.99,369.11h-93.32c-1,0-1.8-.81-1.8-1.8s.81-1.8,1.8-1.8h93.32c1,0,1.8,.81,1.8,1.8s-.81,1.8-1.8,1.8Z"/>
      <path class="cls-6" d="M346.81,351.08H208.67c-1,0-1.8-.81-1.8-1.8s.81-1.8,1.8-1.8h138.14c1,0,1.8,.81,1.8,1.8s-.81,1.8-1.8,1.8Z"/>
    </g>
    <g>
      <circle class="cls-6" cx="625.25" cy="292.04" r="8.16"/>
      <circle class="cls-6" cx="650.62" cy="292.04" r="8.16"/>
      <circle class="cls-6" cx="675.98" cy="292.04" r="8.16"/>
    </g>
    <g>
      <g>
        <rect class="cls-1" x="203.08" y="406.16" width="467.34" height="166.58" rx="16.84" ry="16.84"/>
        <path class="cls-6" d="M653.58,574.55H219.91c-10.28,0-18.64-8.36-18.64-18.64v-132.91c0-10.28,8.36-18.64,18.64-18.64h433.67c10.28,0,18.64,8.36,18.64,18.64v132.91c0,10.28-8.36,18.64-18.64,18.64ZM219.91,407.97c-8.29,0-15.03,6.74-15.03,15.03v132.91c0,8.29,6.74,15.03,15.03,15.03h433.67c8.29,0,15.03-6.74,15.03-15.03v-132.91c0-8.29-6.74-15.03-15.03-15.03H219.91Z"/>
      </g>
      <g>
        <path class="cls-1" d="M468.61,572.75h-145.51c19.17-37.46,38.34-74.91,57.51-112.37,6.02-11.76,22.8-11.85,28.94-.15,19.69,37.51,39.37,75.01,59.06,112.52Z"/>
        <path class="cls-6" d="M471.6,574.55h-151.44l58.85-114.99c3.14-6.14,9.13-9.82,16.02-9.85,.03,0,.07,0,.1,0,6.85,0,12.83,3.62,16.02,9.69l60.45,115.16Zm-145.55-3.61h139.58l-57.67-109.87c-2.55-4.86-7.34-7.76-12.83-7.76-.03,0-.05,0-.08,0-5.52,.03-10.32,2.98-12.83,7.89l-56.16,109.74Z"/>
      </g>
      <g>
        <path class="cls-1" d="M650.67,572.75h-182.05c23.98-46.86,47.97-93.72,71.95-140.58,7.53-14.72,28.53-14.83,36.21-.19,24.63,46.92,49.26,93.85,73.89,140.77Z"/>
        <path class="cls-6" d="M653.65,574.55h-187.99l73.29-143.21c3.85-7.52,11.19-12.04,19.65-12.08,.04,0,.08,0,.12,0,8.4,0,15.74,4.43,19.64,11.88l75.28,143.41Zm-182.09-3.61h176.12l-72.51-138.13c-3.27-6.24-9.42-9.95-16.45-9.95h-.1c-7.08,.04-13.23,3.82-16.45,10.12l-70.6,137.96Z"/>
      </g>
      <circle class="cls-6" cx="278.37" cy="455.61" r="28.55"/>
    </g>
    <g>
      <circle class="cls-6" cx="427.21" cy="591.61" r="6.18"/>
      <circle class="cls-6" cx="408.14" cy="591.61" r="6.18"/>
      <circle class="cls-6" cx="446.28" cy="591.61" r="6.18"/>
      <circle class="cls-6" cx="465.35" cy="591.61" r="6.18"/>
    </g>
  </g>
  <g>
    <path class="cls-6" d="M470.55,863.76h-50.43c-.83,0-1.5-.67-1.5-1.5s.67-1.5,1.5-1.5h50.43c.83,0,1.5,.67,1.5,1.5s-.67,1.5-1.5,1.5Z"/>
    <g>
      <path class="cls-1" d="M636.9,849.04v9.9c0,1.83-1.49,3.32-3.32,3.32h-41.11"/>
      <path class="cls-6" d="M633.58,863.76h-41.11c-.83,0-1.5-.67-1.5-1.5s.67-1.5,1.5-1.5h41.11c1,0,1.82-.82,1.82-1.82v-9.9c0-.83,.67-1.5,1.5-1.5s1.5,.67,1.5,1.5v9.9c0,2.66-2.16,4.82-4.82,4.82Z"/>
    </g>
    <path class="cls-6" d="M492.31,785.04h-45.45c-.83,0-1.5-.67-1.5-1.5s.67-1.5,1.5-1.5h45.45c.83,0,1.5,.67,1.5,1.5s-.67,1.5-1.5,1.5Z"/>
    <g>
      <path class="cls-1" d="M330.98,811.12v-24.26c0-1.83,1.49-3.32,3.32-3.32h11.86"/>
      <path class="cls-6" d="M330.98,812.62c-.83,0-1.5-.67-1.5-1.5v-24.26c0-2.66,2.16-4.82,4.82-4.82h11.86c.83,0,1.5,.67,1.5,1.5s-.67,1.5-1.5,1.5h-11.86c-1,0-1.82,.82-1.82,1.82v24.26c0,.83-.67,1.5-1.5,1.5Z"/>
    </g>
    <g>
      <rect class="cls-1" x="341.3" y="793.76" width="284.42" height="59.29" rx="3.32" ry="3.32"/>
      <path class="cls-6" d="M622.4,793.76c1.83,0,3.32,1.49,3.32,3.32v52.65c0,1.83-1.49,3.32-3.32,3.32H344.62c-1.83,0-3.32-1.49-3.32-3.32v-52.65c0-1.83,1.49-3.32,3.32-3.32h277.78m0-3H344.62c-3.48,0-6.32,2.83-6.32,6.32v52.65c0,3.48,2.83,6.32,6.32,6.32h277.78c3.48,0,6.32-2.83,6.32-6.32v-52.65c0-3.48-2.83-6.32-6.32-6.32h0Z"/>
    </g>
    <g>
      <rect class="cls-6" x="360.1" y="801.56" width="45.26" height="43.68" rx="3.67" ry="3.67"/>
      <rect class="cls-7" x="427.29" y="801.56" width="45.26" height="43.68" rx="3.67" ry="3.67"/>
      <rect class="cls-8" x="494.47" y="801.56" width="45.26" height="43.68" rx="3.67" ry="3.67"/>
      <rect class="cls-4" x="561.66" y="801.56" width="45.26" height="43.68" rx="3.67" ry="3.67"/>
    </g>
  </g>
  <g>
    <g>
      <g>
        <rect class="cls-5" x="792.82" y="534.57" width="196.09" height="62.78" rx="17.99" ry="17.99"/>
        <path class="cls-6" d="M970.91,598.85h-160.11c-10.75,0-19.49-8.74-19.49-19.49v-26.81c0-10.74,8.74-19.49,19.49-19.49h160.11c10.75,0,19.49,8.74,19.49,19.49v26.81c0,10.75-8.74,19.49-19.49,19.49Zm-160.11-62.78c-9.09,0-16.49,7.4-16.49,16.49v26.81c0,9.09,7.4,16.49,16.49,16.49h160.11c9.09,0,16.49-7.4,16.49-16.49v-26.81c0-9.09-7.4-16.49-16.49-16.49h-160.11Z"/>
      </g>
      <path class="cls-1" d="M951.85,567.46h-123.8c-.83,0-1.5-.67-1.5-1.5s.67-1.5,1.5-1.5h123.8c.83,0,1.5,.67,1.5,1.5s-.67,1.5-1.5,1.5Z"/>
    </g>
    <g>
      <g class="cls-3">
        <rect class="cls-5" x="791.91" y="630.69" width="196.09" height="62.78" rx="17.99" ry="17.99"/>
        <path class="cls-6" d="M970.01,694.97h-160.11c-10.75,0-19.49-8.74-19.49-19.49v-26.81c0-10.75,8.74-19.49,19.49-19.49h160.11c10.75,0,19.49,8.74,19.49,19.49v26.81c0,10.74-8.74,19.49-19.49,19.49Zm-160.11-62.78c-9.09,0-16.49,7.4-16.49,16.49v26.81c0,9.09,7.4,16.49,16.49,16.49h160.11c9.09,0,16.49-7.4,16.49-16.49v-26.81c0-9.09-7.4-16.49-16.49-16.49h-160.11Z"/>
      </g>
      <path class="cls-1" d="M950.95,663.58h-123.8c-.83,0-1.5-.67-1.5-1.5s.67-1.5,1.5-1.5h123.8c.83,0,1.5,.67,1.5,1.5s-.67,1.5-1.5,1.5Z"/>
    </g>
    <g>
      <g>
        <rect class="cls-1" x="791" y="726.8" width="196.09" height="62.78" rx="17.99" ry="17.99"/>
        <path class="cls-5" d="M969.1,791.08h-160.11c-10.75,0-19.49-8.74-19.49-19.49v-26.81c0-10.74,8.74-19.49,19.49-19.49h160.11c10.75,0,19.49,8.74,19.49,19.49v26.81c0,10.74-8.74,19.49-19.49,19.49Zm-160.11-62.78c-9.09,0-16.49,7.4-16.49,16.49v26.81c0,9.09,7.4,16.49,16.49,16.49h160.11c9.09,0,16.49-7.4,16.49-16.49v-26.81c0-9.09-7.4-16.49-16.49-16.49h-160.11Z"/>
      </g>
      <path class="cls-5" d="M948.4,759.69h-121.53c-.83,0-1.5-.67-1.5-1.5s.67-1.5,1.5-1.5h121.53c.83,0,1.5,.67,1.5,1.5s-.67,1.5-1.5,1.5Z"/>
    </g>
    <path class="cls-6" d="M942.09,801.56h-82.21c-.83,0-1.5-.67-1.5-1.5s.67-1.5,1.5-1.5h82.21c.83,0,1.5,.67,1.5,1.5s-.67,1.5-1.5,1.5Z"/>
    <path class="cls-6" d="M994.9,765.17c-.83,0-1.5-.67-1.5-1.5v-20.67c0-13.4-10.9-24.29-24.29-24.29h-7.4c-.83,0-1.5-.67-1.5-1.5s.67-1.5,1.5-1.5h7.4c15.05,0,27.29,12.24,27.29,27.29v20.67c0,.83-.67,1.5-1.5,1.5Z"/>
    <path class="cls-6" d="M843.24,715.99h-37.79c-.83,0-1.5-.67-1.5-1.5s.67-1.5,1.5-1.5h37.79c.83,0,1.5,.67,1.5,1.5s-.67,1.5-1.5,1.5Z"/>
    <path class="cls-6" d="M784.75,655.46c-.83,0-1.5-.67-1.5-1.5v-11.1c0-12.44,10.12-22.57,22.57-22.57h9.57c.83,0,1.5,.67,1.5,1.5s-.67,1.5-1.5,1.5h-9.57c-10.79,0-19.57,8.78-19.57,19.57v11.1c0,.83-.67,1.5-1.5,1.5Z"/>
    <path class="cls-6" d="M946.09,623.29h-67.66c-.83,0-1.5-.67-1.5-1.5s.67-1.5,1.5-1.5h67.66c.83,0,1.5,.67,1.5,1.5s-.67,1.5-1.5,1.5Z"/>
    <path class="cls-6" d="M901.67,526.33h-67.66c-.83,0-1.5-.67-1.5-1.5s.67-1.5,1.5-1.5h67.66c.83,0,1.5,.67,1.5,1.5s-.67,1.5-1.5,1.5Z"/>
  </g>
  <g>
    <g>
      <g>
        <path d="M704.04,165.48c-.54-3.86-1.8-8.8-3.5-13.56-5.39,.36-11.49,.45-17.51,.36-1.35,5.12-2.42,10.24-2.69,13.65-.27,2.25-1.35,2.69-2.69,2.69s-2.78-1.53-3.05-3.23c-1.53-9.88,7.54-38.79,17.15-38.79,7,0,16.52,25.05,18.5,38.16,.63,4.04-5.57,5.39-6.2,.72Zm-5.39-18.68c-2.69-6.64-5.57-11.94-7.09-11.94-2.07,0-4.67,5.39-6.83,11.85,4.58,0,9.97,0,13.92,.09Z"/>
        <path d="M740.5,150.21v7.9c0,13.38-26.31,15.09-26.31,0,0-8.53,11.05-11.13,20.83-8.26,0-5.93-5.21-7.81-16.7-7.27-4.31,.27-4.31-4.94-.72-5.57,11.49-2.07,22.9-.63,22.9,13.2Zm-5.48,5.75v-.99c-8.44-1.8-13.74-1.17-13.74,2.69,0,6.82,13.74,8.35,13.74-1.71Z"/>
      </g>
      <g>
        <path d="M779.98,163.81c-.27-17.24,0-18.23-.81-33.76-.09-1.44,1.26-1.89,2.51-2.07,26.4-2.42,28.29,13.74,22.72,20.83,6.83,8.98,6.65,21.46-15.98,21.28-5.12,0-8.35-.72-8.44-6.29Zm15.62-16.97c7.54-.81,8.8-12.84-5.93-12.84l-4.4,.09,.54,13.38c.72,0,3.86,0,9.79-.63Zm6.91,11.23c0-5.21-2.96-7.27-16.7-5.66l.45,12.21c12.57-.09,16.25-1.26,16.25-6.56Z"/>
        <path d="M842.12,155.28c0,8.35-3.95,14.82-14.37,14.82-11.67,0-13.38-3.05-13.38-15.54,0-10.42,.09-14.28,.09-23.71,0-4.4,1.62-5.57,2.87-5.57,2.6,0,3.14,.72,3.23,5.03v8.44c1.71-.72,3.95-1.17,6.02-1.17,7.54,0,15.54,3.77,15.54,17.69Zm-6.29,0c0-9.7-4.49-11.49-9.07-11.49-2.6,.09-4.85,.45-6.2,1.08-.09,5.84-.09,11.31-.09,12.12,0,7.27,1.89,7.27,7.9,7.27,5.3,0,7.45-3.5,7.45-8.98Z"/>
      </g>
      <g>
        <path d="M886.04,147.04c0-15.36,10.06-21.01,25.05-20.47,4.13,.18,4.4,6.56-.99,6.56-10.96,0-17.15,4.58-17.15,14.01,0,6.2,1.62,14.82,17.15,14.82,5.12,0,4.85,6.82-.54,6.82-17.69,0-23.53-10.96-23.53-21.73Z"/>
        <path d="M920.44,152.87c0-11.32,8.35-18.41,18.23-16.25,3.86,.81,3.14,7.27-1.71,6.65-7.27-.9-10.24,2.78-10.24,9.61,0,7.99,4.94,10.6,12.03,9.88,4.04-.45,3.86,5.66-.81,6.02-10.69,.9-17.51-4.49-17.51-15.89Z"/>
      </g>
    </g>
    <path class="cls-6" d="M647.18,139.57c-.83,0-1.5-.67-1.5-1.5v-16.98c0-8.07,6.57-14.64,14.64-14.64h14.1c.83,0,1.5,.67,1.5,1.5s-.67,1.5-1.5,1.5h-14.1c-6.42,0-11.64,5.22-11.64,11.64v16.98c0,.83-.67,1.5-1.5,1.5Z"/>
    <path class="cls-6" d="M775.59,195.99h-82.72c-.83,0-1.5-.67-1.5-1.5s.67-1.5,1.5-1.5h82.72c.83,0,1.5,.67,1.5,1.5s-.67,1.5-1.5,1.5Z"/>
    <path class="cls-6" d="M957.78,195.99h-20.32c-.83,0-1.5-.67-1.5-1.5s.67-1.5,1.5-1.5h20.32c6.42,0,11.64-5.22,11.64-11.64v-15.07c0-.83,.67-1.5,1.5-1.5s1.5,.67,1.5,1.5v15.07c0,8.07-6.57,14.64-14.64,14.64Z"/>
    <path class="cls-6" d="M941.63,109.45h-53.19c-.83,0-1.5-.67-1.5-1.5s.67-1.5,1.5-1.5h53.19c.83,0,1.5,.67,1.5,1.5s-.67,1.5-1.5,1.5Z"/>
  </g>
</svg>