<?xml version="1.0" encoding="UTF-8"?>
<svg id="MobileTempLight" xmlns="http://www.w3.org/2000/svg" viewBox="0 0 1080 1080">
  <defs>
    <style>
      .cls-1 {
        fill: #fff;
      }

      .cls-2 {
        fill: #655cfe;
      }

      .cls-3 {
        fill: #01112d;
      }

      .cls-4 {
        fill: #ededed;
      }
    </style>
  </defs>
  <g>
    <g>
      <g>
        <g>
          <rect class="cls-1" x="722.05" y="240.7" width="312.31" height="600.76" rx="25.27" ry="25.27"/>
          <path class="cls-3" d="M1009.1,240.7c13.95,0,25.27,11.31,25.27,25.27V816.19c0,13.95-11.31,25.27-25.27,25.27h-261.78c-13.95,0-25.27-11.31-25.27-25.27V265.97c0-13.95,11.31-25.27,25.27-25.27h261.78m0-3h-261.78c-15.59,0-28.27,12.68-28.27,28.27V816.19c0,15.59,12.68,28.27,28.27,28.27h261.78c15.59,0,28.27-12.68,28.27-28.27V265.97c0-15.59-12.68-28.27-28.27-28.27h0Z"/>
        </g>
        <path class="cls-4" d="M1009.1,240.7h-115.99c140.5,175,151.11,388.48,50.96,504.86-60.72,70.57-148.8,89.91-196.75,95.9,87.26,0,174.52,0,261.78,0,13.95,0,25.27-11.31,25.27-25.27V265.97c0-13.95-11.31-25.27-25.27-25.27Z"/>
      </g>
      <path class="cls-3" d="M794.86,240.7h166.71c0,15.48-12.57,28.05-28.05,28.05h-110.61c-15.48,0-28.05-12.57-28.05-28.05h0Z"/>
      <g>
        <g>
          <rect class="cls-1" x="753.37" y="366.61" width="249.68" height="206.09" rx="9.81" ry="9.81"/>
          <path class="cls-3" d="M993.23,573.65h-230.05c-5.94,0-10.77-4.83-10.77-10.77v-186.46c0-5.94,4.83-10.77,10.77-10.77h230.05c5.94,0,10.77,4.83,10.77,10.77v186.46c0,5.94-4.83,10.77-10.77,10.77Zm-230.05-206.09c-4.88,0-8.86,3.97-8.86,8.86v186.46c0,4.88,3.97,8.86,8.86,8.86h230.05c4.88,0,8.86-3.97,8.86-8.86v-186.46c0-4.88-3.97-8.86-8.86-8.86h-230.05Z"/>
        </g>
        <g>
          <path class="cls-1" d="M838.74,572.13l.54-1.16,64.68-140.18c6.68-14.47,26.2-14.16,32.47,.51l60.17,140.83h-157.86Z"/>
          <path class="cls-3" d="M996.6,573.07h-157.86c-.32,0-.62-.16-.79-.43-.17-.27-.2-.61-.06-.9l65.22-141.34c3.24-7.03,9.83-11.34,17.23-11.22,7.41,.11,13.91,4.61,16.96,11.76l60.17,140.82c.12,.29,.09,.63-.08,.89-.17,.26-.47,.42-.79,.42Zm-156.38-1.89h154.96l-59.61-139.51c-2.76-6.45-8.6-10.52-15.26-10.61-.08,0-.16,0-.24,0-6.54,0-12.37,3.86-15.26,10.13l-64.6,140Z"/>
        </g>
        <g>
          <path class="cls-1" d="M759.04,572.13l.43-.89,51.52-107.65c5.32-11.11,20.87-10.88,25.87,.39l47.93,108.14h-125.74Z"/>
          <path class="cls-3" d="M884.79,573.07h-125.74c-.32,0-.63-.17-.8-.44-.17-.27-.19-.62-.05-.91l51.95-108.54c2.59-5.4,7.82-8.73,13.68-8.73,.08,0,.15,0,.23,0,5.97,.09,11.21,3.59,13.67,9.15l47.93,108.14c.13,.29,.1,.63-.07,.9-.17,.27-.47,.43-.79,.43Zm-124.25-1.89h122.8l-47.34-106.82c-2.16-4.88-6.75-7.95-11.97-8.03-.07,0-.13,0-.2,0-5.14,0-9.71,2.92-11.98,7.66l-51.3,107.19Z"/>
        </g>
        <circle class="cls-3" cx="798.3" cy="409.35" r="22.68"/>
      </g>
      <g>
        <circle class="cls-3" cx="847.72" cy="600.97" r="7.49"/>
        <circle class="cls-3" cx="878.21" cy="600.97" r="7.49"/>
        <circle class="cls-3" cx="908.7" cy="600.97" r="7.49"/>
      </g>
    </g>
    <g>
      <path class="cls-3" d="M702.49,370.49c-.83,0-1.5-.67-1.5-1.5v-122.34c0-15,12.2-27.21,27.21-27.21h45.8c.83,0,1.5,.67,1.5,1.5s-.67,1.5-1.5,1.5h-45.8c-13.35,0-24.21,10.86-24.21,24.21v122.34c0,.83-.67,1.5-1.5,1.5Z"/>
      <path class="cls-3" d="M702.49,640.8c-.83,0-1.5-.67-1.5-1.5v-79.31c0-.83,.67-1.5,1.5-1.5s1.5,.67,1.5,1.5v79.31c0,.83-.67,1.5-1.5,1.5Z"/>
      <path class="cls-3" d="M891.06,862.72h-97.66c-.83,0-1.5-.67-1.5-1.5s.67-1.5,1.5-1.5h97.66c.83,0,1.5,.67,1.5,1.5s-.67,1.5-1.5,1.5Z"/>
      <path class="cls-3" d="M1028.22,862.72h-15.48c-.83,0-1.5-.67-1.5-1.5s.67-1.5,1.5-1.5h15.48c13.35,0,24.21-10.86,24.21-24.21v-31.17c0-.83,.67-1.5,1.5-1.5s1.5,.67,1.5,1.5v31.17c0,15-12.2,27.21-27.21,27.21Z"/>
      <path class="cls-3" d="M1053.92,408.17c-.83,0-1.5-.67-1.5-1.5v-62.92c0-.83,.67-1.5,1.5-1.5s1.5,.67,1.5,1.5v62.92c0,.83-.67,1.5-1.5,1.5Z"/>
      <path class="cls-3" d="M996.6,222.44h-86.81c-.83,0-1.5-.67-1.5-1.5s.67-1.5,1.5-1.5h86.81c.83,0,1.5,.67,1.5,1.5s-.67,1.5-1.5,1.5Z"/>
    </g>
  </g>
  <g>
    <g>
      <g>
        <g>
          <rect class="cls-1" x="51.59" y="244.7" width="312.31" height="600.76" rx="25.27" ry="25.27"/>
          <path class="cls-3" d="M338.63,244.7c13.95,0,25.27,11.31,25.27,25.27V820.19c0,13.95-11.31,25.27-25.27,25.27H76.85c-13.95,0-25.27-11.31-25.27-25.27V269.96c0-13.95,11.31-25.27,25.27-25.27H338.63m0-3H76.85c-15.59,0-28.27,12.68-28.27,28.27V820.19c0,15.59,12.68,28.27,28.27,28.27H338.63c15.59,0,28.27-12.68,28.27-28.27V269.96c0-15.59-12.68-28.27-28.27-28.27h0Z"/>
        </g>
        <path class="cls-4" d="M338.63,244.7h-115.99c140.5,175,151.11,388.48,50.96,504.86-60.72,70.57-148.8,89.91-196.75,95.9,87.26,0,174.52,0,261.78,0,13.95,0,25.27-11.31,25.27-25.27V269.96c0-13.95-11.31-25.27-25.27-25.27Z"/>
      </g>
      <path class="cls-3" d="M124.39,244.7h166.71c0,15.48-12.57,28.05-28.05,28.05h-110.61c-15.48,0-28.05-12.57-28.05-28.05h0Z"/>
      <g>
        <path class="cls-3" d="M219.83,345.36H76.85c-1.84,0-3.33-1.49-3.33-3.33s1.49-3.33,3.33-3.33H219.83c1.84,0,3.33,1.49,3.33,3.33s-1.49,3.33-3.33,3.33Z"/>
        <path class="cls-3" d="M181.15,363.83H76.85c-.83,0-1.5-.67-1.5-1.5s.67-1.5,1.5-1.5h104.29c.83,0,1.5,.67,1.5,1.5s-.67,1.5-1.5,1.5Z"/>
        <path class="cls-3" d="M208.98,372H76.85c-.83,0-1.5-.67-1.5-1.5s.67-1.5,1.5-1.5H208.98c.83,0,1.5,.67,1.5,1.5s-.67,1.5-1.5,1.5Z"/>
        <g>
          <path class="cls-3" d="M105.92,439.31h-24.08c-.59,0-1.06-.48-1.06-1.06v-24.08c0-.59,.47-1.06,1.06-1.06h24.08c.59,0,1.06,.48,1.06,1.06v24.08c0,.59-.47,1.06-1.06,1.06Zm-23.02-2.12h21.96v-21.96h-21.96v21.96Z"/>
          <path class="cls-3" d="M204.13,427.71H111.96c-.83,0-1.5-.67-1.5-1.5s.67-1.5,1.5-1.5h92.17c.83,0,1.5,.67,1.5,1.5s-.67,1.5-1.5,1.5Z"/>
        </g>
        <g>
          <path class="cls-3" d="M105.92,493.8h-24.08c-.59,0-1.06-.48-1.06-1.06v-24.08c0-.59,.47-1.06,1.06-1.06h24.08c.59,0,1.06,.48,1.06,1.06v24.08c0,.59-.47,1.06-1.06,1.06Zm-23.02-2.12h21.96v-21.96h-21.96v21.96Z"/>
          <path class="cls-3" d="M230.51,482.2H111.96c-.83,0-1.5-.67-1.5-1.5s.67-1.5,1.5-1.5h118.55c.83,0,1.5,.67,1.5,1.5s-.67,1.5-1.5,1.5Z"/>
          <path class="cls-2" d="M90.77,488.93c-.54,0-1.06-.22-1.44-.61l-9.57-9.96c-.77-.8-.74-2.06,.05-2.83,.8-.76,2.06-.74,2.83,.06l8.04,8.37,21.04-24.62c.72-.84,1.98-.94,2.82-.22,.84,.72,.94,1.98,.22,2.82l-22.47,26.3c-.37,.43-.9,.68-1.46,.7-.02,0-.04,0-.06,0Z"/>
        </g>
        <g>
          <path class="cls-3" d="M105.92,548.3h-24.08c-.59,0-1.06-.48-1.06-1.06v-24.08c0-.59,.47-1.06,1.06-1.06h24.08c.59,0,1.06,.48,1.06,1.06v24.08c0,.59-.47,1.06-1.06,1.06Zm-23.02-2.12h21.96v-21.96h-21.96v21.96Z"/>
          <path class="cls-3" d="M191.36,536.7H111.96c-.83,0-1.5-.67-1.5-1.5s.67-1.5,1.5-1.5h79.4c.83,0,1.5,.67,1.5,1.5s-.67,1.5-1.5,1.5Z"/>
        </g>
        <g>
          <path class="cls-3" d="M105.92,602.79h-24.08c-.59,0-1.06-.48-1.06-1.06v-24.08c0-.59,.47-1.06,1.06-1.06h24.08c.59,0,1.06,.48,1.06,1.06v24.08c0,.59-.47,1.06-1.06,1.06Zm-23.02-2.12h21.96v-21.96h-21.96v21.96Z"/>
          <path class="cls-3" d="M204.13,591.19H111.96c-.83,0-1.5-.67-1.5-1.5s.67-1.5,1.5-1.5h92.17c.83,0,1.5,.67,1.5,1.5s-.67,1.5-1.5,1.5Z"/>
        </g>
      </g>
    </g>
    <g>
      <path class="cls-3" d="M32.03,374.48c-.83,0-1.5-.67-1.5-1.5v-122.34c0-15,12.2-27.21,27.21-27.21h45.8c.83,0,1.5,.67,1.5,1.5s-.67,1.5-1.5,1.5H57.73c-13.35,0-24.21,10.86-24.21,24.21v122.34c0,.83-.67,1.5-1.5,1.5Z"/>
      <path class="cls-3" d="M32.03,644.79c-.83,0-1.5-.67-1.5-1.5v-79.31c0-.83,.67-1.5,1.5-1.5s1.5,.67,1.5,1.5v79.31c0,.83-.67,1.5-1.5,1.5Z"/>
      <path class="cls-3" d="M220.6,866.72H122.94c-.83,0-1.5-.67-1.5-1.5s.67-1.5,1.5-1.5h97.66c.83,0,1.5,.67,1.5,1.5s-.67,1.5-1.5,1.5Z"/>
      <path class="cls-3" d="M357.75,866.72h-15.48c-.83,0-1.5-.67-1.5-1.5s.67-1.5,1.5-1.5h15.48c13.35,0,24.21-10.86,24.21-24.21v-31.17c0-.83,.67-1.5,1.5-1.5s1.5,.67,1.5,1.5v31.17c0,15-12.2,27.21-27.21,27.21Z"/>
      <path class="cls-3" d="M383.46,412.17c-.83,0-1.5-.67-1.5-1.5v-62.92c0-.83,.67-1.5,1.5-1.5s1.5,.67,1.5,1.5v62.92c0,.83-.67,1.5-1.5,1.5Z"/>
      <path class="cls-3" d="M326.14,226.43h-86.81c-.83,0-1.5-.67-1.5-1.5s.67-1.5,1.5-1.5h86.81c.83,0,1.5,.67,1.5,1.5s-.67,1.5-1.5,1.5Z"/>
    </g>
  </g>
  <g>
    <g>
      <rect class="cls-1" x="327.72" y="151.72" width="403.7" height="776.55" rx="32.66" ry="32.66"/>
      <path class="cls-3" d="M698.76,151.72c18.04,0,32.66,14.62,32.66,32.66V895.62c0,18.04-14.62,32.66-32.66,32.66H360.38c-18.04,0-32.66-14.62-32.66-32.66V184.38c0-18.04,14.62-32.66,32.66-32.66h338.38m0-3H360.38c-19.66,0-35.66,16-35.66,35.66V895.62c0,19.66,16,35.66,35.66,35.66h338.38c19.66,0,35.66-16,35.66-35.66V184.38c0-19.66-16-35.66-35.66-35.66h0Z"/>
    </g>
    <g>
      <g>
        <rect class="cls-1" x="367.38" y="449.04" width="324.37" height="65.87" rx="32.94" ry="32.94"/>
        <path class="cls-3" d="M658.82,449.04c18.19,0,32.94,14.75,32.94,32.94h0c0,18.19-14.75,32.94-32.94,32.94H400.32c-18.19,0-32.94-14.75-32.94-32.94h0c0-18.19,14.75-32.94,32.94-32.94h258.5m0-3H400.32c-19.82,0-35.94,16.12-35.94,35.94s16.12,35.94,35.94,35.94h258.5c19.82,0,35.94-16.12,35.94-35.94s-16.12-35.94-35.94-35.94h0Z"/>
      </g>
      <g>
        <rect class="cls-1" x="367.38" y="550.15" width="324.37" height="65.87" rx="32.94" ry="32.94"/>
        <path class="cls-3" d="M658.82,550.15c18.19,0,32.94,14.75,32.94,32.94h0c0,18.19-14.75,32.94-32.94,32.94H400.32c-18.19,0-32.94-14.75-32.94-32.94h0c0-18.19,14.75-32.94,32.94-32.94h258.5m0-3H400.32c-19.82,0-35.94,16.12-35.94,35.94s16.12,35.94,35.94,35.94h258.5c19.82,0,35.94-16.12,35.94-35.94s-16.12-35.94-35.94-35.94h0Z"/>
      </g>
      <rect class="cls-3" x="420.8" y="664.79" width="217.53" height="55.15" rx="24.68" ry="24.68"/>
    </g>
    <path class="cls-4" d="M698.76,151.72h-149.93c181.62,226.21,195.33,502.15,65.87,652.6-78.49,91.22-192.34,116.22-254.33,123.96,112.79,0,225.59,0,338.38,0,18.04,0,32.66-14.62,32.66-32.66V184.38c0-18.04-14.62-32.66-32.66-32.66Z"/>
    <g>
      <g>
        <path class="cls-1" d="M593.91,337.85c0,16.81-6.45,32.13-17.03,43.59-11.75,12.76-28.6,20.75-47.31,20.75s-35.57-7.99-47.32-20.75c-10.57-11.46-17.02-26.78-17.02-43.59,0-35.53,28.8-64.34,64.34-64.34s64.34,28.81,64.34,64.34Z"/>
        <path class="cls-3" d="M529.57,273.51c35.53,0,64.34,28.81,64.34,64.34,0,16.81-6.45,32.13-17.03,43.59-11.75,12.76-28.6,20.75-47.31,20.75s-35.57-7.99-47.32-20.75c-10.57-11.46-17.02-26.78-17.02-43.59,0-35.53,28.8-64.34,64.34-64.34m0-3c-37.13,0-67.34,30.21-67.34,67.34,0,16.97,6.33,33.17,17.81,45.62,12.71,13.8,30.76,21.72,49.53,21.72s36.81-7.92,49.52-21.72c11.49-12.45,17.82-28.65,17.82-45.62,0-37.13-30.21-67.34-67.34-67.34h0Z"/>
      </g>
      <g>
        <path class="cls-2" d="M576.88,381.44c-11.75,12.76-28.6,20.75-47.31,20.75s-35.57-7.99-47.32-20.75c1.43-10.61,6.35-20.11,13.56-27.32,4.81-4.81,10.64-8.6,17.13-11.01,5.18-1.93,10.78-2.98,16.63-2.98s11.45,1.05,16.63,2.98c16.24,6.03,28.3,20.65,30.68,38.33Z"/>
        <circle class="cls-2" cx="529.56" cy="321.35" r="27.39"/>
      </g>
    </g>
    <path class="cls-3" d="M421.82,151.72h215.49c0,20.01-16.25,36.26-36.26,36.26h-142.98c-20.01,0-36.26-16.25-36.26-36.26h0Z"/>
    <g>
      <path class="cls-3" d="M306.32,322.85c-.83,0-1.5-.67-1.5-1.5V165.91c0-18.83,15.32-34.16,34.16-34.16h58.19c.83,0,1.5,.67,1.5,1.5s-.67,1.5-1.5,1.5h-58.19c-17.18,0-31.16,13.98-31.16,31.16v155.44c0,.83-.67,1.5-1.5,1.5Z"/>
      <path class="cls-3" d="M306.32,666.29c-.83,0-1.5-.67-1.5-1.5v-100.76c0-.83,.67-1.5,1.5-1.5s1.5,.67,1.5,1.5v100.76c0,.83-.67,1.5-1.5,1.5Z"/>
      <path class="cls-3" d="M545.9,948.25h-124.07c-.83,0-1.5-.67-1.5-1.5s.67-1.5,1.5-1.5h124.07c.83,0,1.5,.67,1.5,1.5s-.67,1.5-1.5,1.5Z"/>
      <path class="cls-3" d="M720.16,948.25h-19.67c-.83,0-1.5-.67-1.5-1.5s.67-1.5,1.5-1.5h19.67c17.18,0,31.16-13.98,31.16-31.16v-39.61c0-.83,.67-1.5,1.5-1.5s1.5,.67,1.5,1.5v39.61c0,18.84-15.32,34.16-34.16,34.16Z"/>
      <path class="cls-3" d="M752.82,370.73c-.83,0-1.5-.67-1.5-1.5v-79.95c0-.83,.67-1.5,1.5-1.5s1.5,.67,1.5,1.5v79.95c0,.83-.67,1.5-1.5,1.5Z"/>
      <path class="cls-3" d="M687.18,134.75h-110.3c-.83,0-1.5-.67-1.5-1.5s.67-1.5,1.5-1.5h110.3c.83,0,1.5,.67,1.5,1.5s-.67,1.5-1.5,1.5Z"/>
    </g>
  </g>
</svg>