<?xml version="1.0" encoding="UTF-8"?>
<svg id="UiCompLight" xmlns="http://www.w3.org/2000/svg" viewBox="0 0 1080 1080">
  <defs>
    <style>
      .cls-1 {
        fill: #fff;
      }

      .cls-2 {
        fill: #d8d8d8;
      }

      .cls-3 {
        fill: #655cfe;
      }

      .cls-4 {
        fill: #01112d;
      }

      .cls-5 {
        fill: #ededed;
      }
    </style>
  </defs>
  <g>
    <g>
      <path class="cls-4" d="M192.25,849.61s9.75-4.66,24.24,6.05c14.49,10.71,40.31,8.56,43.46-7.06,3.15-15.62-41.54-43.46-67.7,1.01Z"/>
      <path class="cls-4" d="M184.96,881.56s7.59-29.87-13.83-49.93c-21.42-20.07-39.68-7.47-35.9,13.63,3.78,21.1,47.81,7.4,49.73,36.3Z"/>
      <path class="cls-4" d="M178.86,934.4s6.28-38.26-18.36-52.83c-24.64-14.57-44.53,11.34-25.77,26.42,18.77,15.08,40.52,5.63,44.13,26.42Z"/>
      <path class="cls-4" d="M196.17,835.45s22.21-18.85,25.36-36.8c3.15-17.95-20.75-28.06-29.27-4.74-8.52,23.32,3.92,41.54,3.92,41.54Z"/>
      <path class="cls-4" d="M179.58,923.06s7.94-20.79,29.35-20.16c21.42,.63,34.64-5.92,32.76-25.64-1.89-19.72-63.11-10.27-62.11,45.79Z"/>
      <path class="cls-2" d="M178.57,928.41s-.06,0-.1,0c-.27-.05-.45-.32-.39-.59,9.2-46.95,63.02-51.01,63.57-51.05,.26,0,.51,.19,.53,.47,.02,.28-.19,.51-.47,.53-.54,.04-53.6,4.05-62.65,50.24-.05,.24-.26,.4-.49,.4Z"/>
      <path class="cls-2" d="M178.38,932.72c-.26,0-.48-.2-.5-.46-3.04-41.39-48.33-44.8-48.79-44.83-.28-.02-.48-.26-.47-.53,.02-.28,.26-.48,.53-.47,.47,.03,46.61,3.49,49.72,45.76,.02,.28-.19,.52-.46,.54-.01,0-.03,0-.04,0Z"/>
      <path class="cls-2" d="M259.02,852.05c-.11,0-.22-.04-.31-.11-.36-.29-36.12-28.17-66.13-1.95-.21,.18-.52,.16-.71-.05-.18-.21-.16-.52,.05-.71,30.64-26.78,67.04,1.63,67.41,1.92,.22,.17,.25,.49,.08,.7-.1,.12-.24,.19-.39,.19Z"/>
      <path class="cls-2" d="M184.96,882.06s-.02,0-.03,0c-.28-.02-.49-.25-.47-.53,2.44-41.51-47.65-49.9-48.15-49.98-.27-.04-.46-.3-.42-.57,.04-.27,.3-.46,.57-.42,.51,.08,51.49,8.6,49,51.02-.02,.27-.24,.47-.5,.47Z"/>
      <path class="cls-4" d="M178.37,969.12c-.07-.49-7.06-50.07,17.32-133.8l.96,.28c-24.33,83.53-17.37,132.88-17.29,133.37l-.99,.15Z"/>
      <path class="cls-2" d="M196.17,835.95s-.09,0-.14-.02c-.27-.08-.42-.35-.34-.62,.66-2.27,1.35-4.57,2.05-6.89l14.35-47.33c.08-.26,.36-.41,.62-.33,.26,.08,.41,.36,.33,.62l-14.35,47.33c-.71,2.32-1.39,4.61-2.05,6.88-.06,.22-.26,.36-.48,.36Z"/>
    </g>
    <g>
      <path class="cls-4" d="M122.87,841s-10.45-5-25.98,6.48c-15.53,11.48-43.22,9.18-46.6-7.57-3.38-16.75,44.54-46.6,72.58,1.08Z"/>
      <path class="cls-4" d="M130.69,875.26s-8.14-32.02,14.82-53.53c22.96-21.51,42.54-8.01,38.49,14.62-4.05,22.62-51.26,7.94-53.32,38.92Z"/>
      <path class="cls-4" d="M137.22,931.9s-6.73-41.02,19.69-56.64c26.42-15.62,47.74,12.16,27.63,28.32-20.12,16.16-43.44,6.04-47.31,28.32Z"/>
      <path class="cls-4" d="M101.22,770.31s-23.81-20.21-27.18-39.46c-3.38-19.25,22.25-30.09,31.39-5.08,9.13,25-4.2,44.54-4.2,44.54Z"/>
      <path class="cls-4" d="M136.46,919.74s-8.51-22.29-31.47-21.61c-22.96,.68-37.14-6.35-35.12-27.48,2.03-21.14,67.66-11.01,66.58,49.09Z"/>
      <path class="cls-2" d="M137.53,925.44c-.23,0-.44-.17-.49-.4-9.71-49.56-66.63-53.85-67.2-53.89-.28-.02-.48-.26-.47-.53,.02-.28,.29-.48,.53-.47,.15,0,14.71,1.04,30.3,8.25,14.41,6.67,32.67,20.15,37.82,46.45,.05,.27-.12,.53-.39,.59-.03,0-.06,0-.1,0Z"/>
      <path class="cls-2" d="M137.74,930.06s-.03,0-.04,0c-.28-.02-.48-.26-.46-.54,3.33-45.28,52.77-48.99,53.27-49.02,.26,0,.51,.19,.53,.47,.02,.28-.19,.51-.47,.53-.49,.03-49.08,3.69-52.34,48.1-.02,.26-.24,.46-.5,.46Z"/>
      <path class="cls-2" d="M51.29,843.58c-.15,0-.29-.06-.39-.19-.17-.22-.14-.53,.08-.7,.39-.31,39.4-30.75,72.22-2.06,.21,.18,.23,.5,.05,.71-.18,.21-.5,.23-.71,.05-32.2-28.15-70.56,1.78-70.94,2.09-.09,.07-.2,.11-.31,.11Z"/>
      <path class="cls-4" d="M112.38,802.63s-4.45-7.06-18.33-6.03c-13.88,1.03-29.88-11-25.5-22.51,4.37-11.51,45.05-11.3,43.84,28.54Z"/>
      <path class="cls-2" d="M112.38,803.13c-.22,0-.41-.14-.48-.36-8.79-29.4-43.56-25.91-43.9-25.87-.27,.03-.52-.17-.55-.44s.17-.52,.44-.55c.36-.04,35.95-3.63,44.97,26.58,.08,.26-.07,.54-.34,.62-.05,.01-.1,.02-.14,.02Z"/>
      <path class="cls-2" d="M130.69,875.76c-.26,0-.48-.21-.5-.47-1.4-23.77,12.97-37.37,25.28-44.6,13.28-7.8,27.08-10.04,27.22-10.06,.26-.04,.53,.14,.57,.42,.04,.27-.14,.53-.42,.57-.54,.09-54.28,9.08-51.66,53.62,.02,.28-.19,.51-.47,.53,0,0-.02,0-.03,0Z"/>
      <path class="cls-4" d="M116.56,818.51s-12.78-23.39,.84-44.81c13.63-21.42,31.64-14.79,33.01,3.7,1.37,18.49-38.46,16.48-33.86,41.11Z"/>
      <path class="cls-2" d="M116.56,819.01c-.21,0-.41-.14-.48-.35-11.23-35.06,29.7-53.19,30.11-53.37,.25-.11,.55,0,.66,.26,.11,.25,0,.55-.26,.66-.41,.18-40.51,17.95-29.56,52.14,.08,.26-.06,.54-.32,.63-.05,.02-.1,.02-.15,.02Z"/>
      <path class="cls-4" d="M137.72,969.12l-.99-.15c.08-.55,7.93-56.38-20.74-150.38l-14.53-47.95,.96-.29,14.53,47.95c28.74,94.24,20.85,150.26,20.77,150.81Z"/>
      <path class="cls-2" d="M101.94,771c-.21,0-.41-.14-.48-.35l-.85-2.79-14.6-56.33c-.07-.27,.09-.54,.36-.61,.27-.07,.54,.09,.61,.36l14.6,56.31,.84,2.77c.08,.26-.07,.54-.33,.62-.05,.01-.1,.02-.14,.02Z"/>
    </g>
    <g>
      <path class="cls-1" d="M131.72,990.69c-.12,0-.24-.04-.33-.13-8.29-7.33-13.04-17.85-13.04-28.85v-.11c.02-6.14,5.12-11.13,11.36-11.13h54.38c6.25,0,11.34,4.99,11.36,11.13v.11c0,11-4.75,21.51-13.04,28.85-.09,.08-.21,.13-.33,.13h-50.38Z"/>
      <path class="cls-4" d="M184.1,950.97c5.91,0,10.85,4.72,10.86,10.63,0,.04,0,.07,0,.11,0,11.35-4.99,21.5-12.87,28.47h-50.38c-7.88-6.97-12.87-17.13-12.87-28.47,0-.04,0-.07,0-.11,.02-5.91,4.95-10.63,10.86-10.63h54.38m0-1h-54.38c-6.52,0-11.84,5.22-11.86,11.63v.12c0,11.14,4.81,21.79,13.21,29.22,.18,.16,.42,.25,.66,.25h50.38c.24,0,.48-.09,.66-.25,8.39-7.43,13.21-18.08,13.21-29.22v-.06s0-.05,0-.05c-.02-6.42-5.34-11.63-11.86-11.63h0Z"/>
    </g>
    <g>
      <path class="cls-1" d="M140.42,1040.16c-13.79,0-25.08-11.06-25.17-24.66v-.28c0-10.97,4.25-21.31,11.97-29.12,.09-.09,.22-.15,.36-.15h58.21c.13,0,.26,.05,.36,.15,7.72,7.81,11.97,18.15,11.97,29.12v.28c-.09,13.59-11.38,24.66-25.17,24.66h-32.51Z"/>
      <path class="cls-4" d="M185.78,986.45c7.31,7.39,11.83,17.55,11.83,28.77,0,.09,0,.18,0,.27-.09,13.43-11.25,24.16-24.67,24.16h-32.51c-13.43,0-24.58-10.73-24.67-24.16,0-.09,0-.18,0-.27,0-11.22,4.52-21.37,11.83-28.77h58.21m0-1h-58.21c-.27,0-.52,.11-.71,.3-7.81,7.91-12.12,18.37-12.12,29.47v.28c.09,13.87,11.61,25.15,25.68,25.15h32.51c14.06,0,25.58-11.28,25.67-25.15v-.28c0-11.1-4.3-21.57-12.12-29.47-.19-.19-.44-.3-.71-.3h0Z"/>
    </g>
    <path class="cls-5" d="M185.78,986.45h-.01c5.72-6.65,9.2-15.28,9.2-24.74v-.11c-.02-5.91-4.95-10.63-10.86-10.63h-21.82c3.49,2.69,18.55,14.86,20.19,34.34,1.89,22.57-15,45.9-42.05,54.34,10.84,0,21.68,0,32.51,0,13.43,0,24.58-10.73,24.67-24.16,0-.09,0-.18,0-.27,0-11.22-4.52-21.37-11.83-28.77Z"/>
  </g>
  <g>
    <g>
      <path class="cls-4" d="M899.96,849.61s-9.75-4.66-24.24,6.05c-14.49,10.71-40.31,8.56-43.46-7.06-3.15-15.62,41.54-43.46,67.7,1.01Z"/>
      <path class="cls-4" d="M907.25,881.56s-7.59-29.87,13.83-49.93c21.42-20.07,39.68-7.47,35.9,13.63-3.78,21.1-47.81,7.4-49.73,36.3Z"/>
      <path class="cls-4" d="M913.35,934.4s-6.28-38.26,18.36-52.83c24.64-14.57,44.53,11.34,25.77,26.42s-40.52,5.63-44.13,26.42Z"/>
      <path class="cls-4" d="M896.04,835.45s-22.21-18.85-25.36-36.8c-3.15-17.95,20.75-28.06,29.27-4.74,8.52,23.32-3.92,41.54-3.92,41.54Z"/>
      <path class="cls-4" d="M912.63,923.06s-7.94-20.79-29.35-20.16c-21.42,.63-34.64-5.92-32.76-25.64,1.89-19.72,63.11-10.27,62.11,45.79Z"/>
      <path class="cls-2" d="M913.63,928.41c-.23,0-.44-.17-.49-.4-9.05-46.2-62.12-50.21-62.65-50.24-.28-.02-.48-.26-.47-.53,.02-.27,.27-.48,.53-.47,.54,.04,54.37,4.1,63.57,51.05,.05,.27-.12,.53-.39,.59-.03,0-.06,0-.1,0Z"/>
      <path class="cls-2" d="M913.83,932.72s-.03,0-.04,0c-.28-.02-.48-.26-.46-.54,3.11-42.27,49.26-45.73,49.72-45.76,.26-.01,.51,.19,.53,.47,.02,.28-.19,.51-.47,.53-.46,.03-45.75,3.44-48.79,44.83-.02,.26-.24,.46-.5,.46Z"/>
      <path class="cls-2" d="M833.19,852.05c-.15,0-.29-.06-.39-.19-.17-.22-.14-.53,.08-.7,.37-.29,36.77-28.7,67.41-1.92,.21,.18,.23,.5,.05,.71-.18,.21-.5,.23-.71,.05-30.01-26.22-65.77,1.67-66.13,1.95-.09,.07-.2,.11-.31,.11Z"/>
      <path class="cls-2" d="M907.25,882.06c-.26,0-.48-.21-.5-.47-2.5-42.42,48.48-50.94,49-51.02,.26-.04,.53,.14,.57,.42,.04,.27-.14,.53-.42,.57-.51,.08-50.6,8.46-48.15,49.98,.02,.28-.19,.51-.47,.53,0,0-.02,0-.03,0Z"/>
      <path class="cls-4" d="M913.84,969.12l-.99-.15c.07-.49,7.02-49.87-17.29-133.37l.96-.28c24.38,83.73,17.39,133.31,17.32,133.8Z"/>
      <path class="cls-2" d="M896.04,835.95c-.22,0-.42-.14-.48-.36-.66-2.27-1.34-4.56-2.05-6.88l-14.34-47.33c-.08-.26,.07-.54,.33-.62,.27-.08,.54,.07,.62,.33l14.34,47.33c.71,2.32,1.39,4.62,2.05,6.89,.08,.27-.08,.54-.34,.62-.05,.01-.09,.02-.14,.02Z"/>
    </g>
    <g>
      <path class="cls-4" d="M969.34,841s10.45-5,25.98,6.48c15.53,11.48,43.22,9.18,46.6-7.57,3.38-16.75-44.54-46.6-72.58,1.08Z"/>
      <path class="cls-4" d="M961.52,875.26s8.14-32.02-14.82-53.53c-22.96-21.51-42.54-8.01-38.49,14.62,4.05,22.62,51.26,7.94,53.32,38.92Z"/>
      <path class="cls-4" d="M954.98,931.9s6.73-41.02-19.69-56.64c-26.42-15.62-47.74,12.16-27.63,28.32,20.12,16.16,43.44,6.04,47.31,28.32Z"/>
      <path class="cls-4" d="M990.98,770.31s23.81-20.21,27.18-39.46c3.38-19.25-22.25-30.09-31.39-5.08-9.13,25,4.2,44.54,4.2,44.54Z"/>
      <path class="cls-4" d="M955.75,919.74s8.51-22.29,31.47-21.61c22.96,.68,37.14-6.35,35.12-27.48-2.03-21.14-67.66-11.01-66.58,49.09Z"/>
      <path class="cls-2" d="M954.68,925.44s-.06,0-.1,0c-.27-.05-.45-.32-.39-.59,5.15-26.3,23.41-39.77,37.82-46.45,15.58-7.22,30.15-8.24,30.3-8.25,.26-.01,.51,.19,.53,.47,.02,.28-.19,.51-.47,.53-.14,0-14.55,1.03-29.97,8.17-14.19,6.58-32.16,19.85-37.23,45.72-.05,.24-.26,.4-.49,.4Z"/>
      <path class="cls-2" d="M954.46,930.06c-.26,0-.48-.2-.5-.46-3.26-44.41-51.85-48.07-52.34-48.1-.28-.02-.48-.26-.47-.53,.02-.28,.29-.48,.53-.47,.5,.03,49.94,3.74,53.27,49.02,.02,.28-.19,.52-.46,.54-.01,0-.03,0-.04,0Z"/>
      <path class="cls-2" d="M1040.92,843.58c-.11,0-.22-.04-.31-.11-.38-.31-38.75-30.22-70.94-2.09-.21,.18-.52,.16-.71-.05-.18-.21-.16-.52,.05-.71,32.82-28.69,71.83,1.75,72.22,2.06,.22,.17,.25,.49,.08,.7-.1,.12-.24,.19-.39,.19Z"/>
      <path class="cls-4" d="M979.83,802.63s4.45-7.06,18.33-6.03c13.88,1.03,29.88-11,25.5-22.51-4.37-11.51-45.05-11.3-43.84,28.54Z"/>
      <path class="cls-2" d="M979.83,803.13s-.1,0-.14-.02c-.26-.08-.42-.36-.34-.62,9.03-30.21,44.62-26.62,44.97-26.58,.27,.03,.47,.28,.44,.55-.03,.27-.28,.47-.55,.44-.35-.04-35.12-3.53-43.91,25.87-.07,.22-.26,.36-.48,.36Z"/>
      <path class="cls-2" d="M961.52,875.76s-.02,0-.03,0c-.28-.02-.49-.25-.47-.53,2.62-44.54-51.11-53.53-51.66-53.62-.27-.04-.46-.3-.42-.57,.04-.27,.31-.46,.57-.42,.14,.02,13.94,2.26,27.22,10.06,12.3,7.23,26.68,20.83,25.28,44.6-.02,.27-.24,.47-.5,.47Z"/>
      <path class="cls-4" d="M975.65,818.51s12.78-23.39-.84-44.81c-13.63-21.42-31.64-14.79-33.01,3.7-1.37,18.49,38.46,16.48,33.86,41.11Z"/>
      <path class="cls-2" d="M975.65,819.01c-.05,0-.1,0-.15-.02-.26-.08-.41-.37-.32-.63,10.96-34.19-29.15-51.97-29.56-52.14-.25-.11-.37-.4-.26-.66,.11-.25,.4-.37,.66-.26,.42,.18,41.35,18.31,30.11,53.37-.07,.21-.26,.35-.48,.35Z"/>
      <path class="cls-4" d="M954.49,969.12c-.08-.55-7.97-56.58,20.77-150.82l14.53-47.95,.96,.29-14.53,47.95c-28.67,94.02-20.82,149.82-20.74,150.38l-.99,.15Z"/>
      <path class="cls-2" d="M990.27,771s-.1,0-.14-.02c-.26-.08-.41-.36-.33-.62l.85-2.79,14.59-56.29c.07-.27,.34-.43,.61-.36,.27,.07,.43,.34,.36,.61l-14.6,56.31-.85,2.81c-.07,.22-.26,.35-.48,.35Z"/>
    </g>
    <g>
      <path class="cls-1" d="M910.11,990.69c-.12,0-.24-.04-.33-.13-8.29-7.34-13.04-17.85-13.04-28.85v-.11c.02-6.14,5.12-11.13,11.36-11.13h54.38c6.25,0,11.34,4.99,11.36,11.13v.11c0,11-4.75,21.52-13.04,28.85-.09,.08-.21,.13-.33,.13h-50.38Z"/>
      <path class="cls-4" d="M962.49,950.97c5.91,0,10.85,4.72,10.86,10.63,0,.04,0,.07,0,.11,0,11.35-4.99,21.5-12.87,28.47h-50.38c-7.88-6.97-12.87-17.13-12.87-28.47,0-.04,0-.07,0-.11,.02-5.91,4.95-10.63,10.86-10.63h54.38m0-1h-54.38c-6.52,0-11.84,5.22-11.86,11.63v.12c0,11.14,4.81,21.79,13.21,29.22,.18,.16,.42,.25,.66,.25h50.38c.24,0,.48-.09,.66-.25,8.39-7.43,13.21-18.08,13.21-29.22v-.12c-.02-6.41-5.34-11.63-11.86-11.63h0Z"/>
    </g>
    <g>
      <path class="cls-1" d="M919.27,1040.16c-13.79,0-25.08-11.06-25.17-24.66v-.28c0-10.97,4.25-21.31,11.97-29.12,.09-.09,.22-.15,.36-.15h58.21c.13,0,.26,.05,.36,.15,7.72,7.81,11.97,18.15,11.97,29.12v.27c-.09,13.6-11.39,24.66-25.18,24.66h-32.51Z"/>
      <path class="cls-4" d="M964.63,986.45c7.31,7.39,11.83,17.55,11.83,28.77,0,.09,0,.18,0,.27-.09,13.43-11.25,24.16-24.67,24.16h-32.51c-13.43,0-24.58-10.73-24.67-24.16,0-.09,0-.18,0-.27,0-11.22,4.52-21.37,11.83-28.77h58.21m0-1h-58.21c-.27,0-.52,.11-.71,.3-7.81,7.91-12.12,18.37-12.12,29.47v.28c.09,13.87,11.61,25.16,25.68,25.16h32.51c14.06,0,25.58-11.28,25.67-25.15v-.28c0-11.1-4.3-21.57-12.12-29.47-.19-.19-.44-.3-.71-.3h0Z"/>
    </g>
    <path class="cls-5" d="M906.43,986.45h.01c-5.72-6.65-9.2-15.28-9.2-24.74v-.11c.02-5.91,4.95-10.63,10.86-10.63h21.82c-3.49,2.69-18.55,14.86-20.19,34.34-1.89,22.57,15,45.9,42.05,54.34-10.84,0-21.68,0-32.51,0-13.43,0-24.58-10.73-24.67-24.16,0-.09,0-.18,0-.27,0-11.22,4.52-21.37,11.83-28.77Z"/>
  </g>
  <g>
    <g>
      <rect class="cls-1" x="376.96" y="761.81" width="403.52" height="120.4" rx="12.86" ry="12.86"/>
      <path class="cls-4" d="M767.62,761.81c7.1,0,12.86,5.76,12.86,12.86v94.68c0,7.1-5.76,12.86-12.86,12.86H389.83c-7.1,0-12.86-5.76-12.86-12.86v-94.68c0-7.1,5.76-12.86,12.86-12.86h377.8m0-3H389.83c-8.75,0-15.86,7.12-15.86,15.86v94.68c0,8.75,7.12,15.86,15.86,15.86h377.8c8.75,0,15.86-7.12,15.86-15.86v-94.68c0-8.75-7.12-15.86-15.86-15.86h0Z"/>
    </g>
    <path class="cls-5" d="M767.62,761.81c-6.14,10.23-17.09,25-35.21,33.81-30.38,14.77-52.51-.98-89.28,1.9-51.9,4.07-47.13,38.56-103.09,51.32-60.32,13.76-101.39-18.2-134.02,10.26-9.06,7.9-13.77,17.23-16.2,23.11,125.93,0,251.86,0,377.8,0,7.1,0,12.86-5.76,12.86-12.86v-94.68c0-7.1-5.76-12.86-12.86-12.86Z"/>
    <g>
      <path class="cls-4" d="M503.49,751.27h-58.35c-.83,0-1.5-.67-1.5-1.5s.67-1.5,1.5-1.5h58.35c.83,0,1.5,.67,1.5,1.5s-.67,1.5-1.5,1.5Z"/>
      <path class="cls-4" d="M365.4,851.07c-.83,0-1.5-.67-1.5-1.5v-57.79c0-.83,.67-1.5,1.5-1.5s1.5,.67,1.5,1.5v57.79c0,.83-.67,1.5-1.5,1.5Z"/>
      <path class="cls-4" d="M692.65,895.76h-145.56c-.83,0-1.5-.67-1.5-1.5s.67-1.5,1.5-1.5h145.56c.83,0,1.5,.67,1.5,1.5s-.67,1.5-1.5,1.5Z"/>
      <path class="cls-4" d="M792.04,829.01c-.83,0-1.5-.67-1.5-1.5v-64.88c0-6.26-5.1-11.36-11.36-11.36h-25.61c-.83,0-1.5-.67-1.5-1.5s.67-1.5,1.5-1.5h25.61c7.92,0,14.36,6.44,14.36,14.36v64.88c0,.83-.67,1.5-1.5,1.5Z"/>
    </g>
    <g>
      <g>
        <rect class="cls-1" x="392.56" y="842.57" width="116.29" height="31.91" rx="4.1" ry="4.1"/>
        <path class="cls-4" d="M504.75,875.43h-108.1c-2.78,0-5.04-2.26-5.04-5.04v-23.72c0-2.78,2.26-5.04,5.04-5.04h108.1c2.78,0,5.04,2.26,5.04,5.04v23.72c0,2.78-2.26,5.04-5.04,5.04Zm-108.1-31.91c-1.74,0-3.15,1.41-3.15,3.15v23.72c0,1.74,1.41,3.15,3.15,3.15h108.1c1.74,0,3.15-1.41,3.15-3.15v-23.72c0-1.74-1.41-3.15-3.15-3.15h-108.1Z"/>
      </g>
      <rect class="cls-3" x="516.35" y="842.57" width="248.54" height="31.91" rx="4.1" ry="4.1"/>
    </g>
    <path class="cls-4" d="M557.81,787.18h-162.17c-1.7,0-3.08-1.38-3.08-3.08s1.38-3.08,3.08-3.08h162.17c1.7,0,3.08,1.38,3.08,3.08s-1.38,3.08-3.08,3.08Z"/>
    <path class="cls-2" d="M668.54,806.64H397.7c-2.84,0-5.14-1.51-5.14-3.38s2.3-3.38,5.14-3.38h270.84c2.84,0,5.14,1.51,5.14,3.38s-2.3,3.38-5.14,3.38Z"/>
    <g>
      <path class="cls-4" d="M762.65,778.23c-.24,0-.48-.09-.67-.28-.37-.37-.37-.97,0-1.34l7.5-7.49c.37-.37,.97-.37,1.34,0,.37,.37,.37,.97,0,1.34l-7.5,7.49c-.18,.18-.43,.28-.67,.28Z"/>
      <path class="cls-4" d="M770.15,778.23c-.24,0-.48-.09-.67-.28l-7.5-7.49c-.37-.37-.37-.97,0-1.34,.37-.37,.97-.37,1.34,0l7.5,7.49c.37,.37,.37,.97,0,1.34-.18,.18-.43,.28-.67,.28Z"/>
    </g>
  </g>
  <g>
    <g>
      <rect class="cls-1" x="617.22" y="144.7" width="358.96" height="509.88" rx="14.12" ry="14.12"/>
      <path class="cls-4" d="M962.07,144.7c7.8,0,14.12,6.32,14.12,14.12v481.65c0,7.8-6.32,14.12-14.12,14.12h-330.73c-7.8,0-14.12-6.32-14.12-14.12V158.81c0-7.8,6.32-14.12,14.12-14.12h330.73m0-3h-330.73c-9.44,0-17.12,7.68-17.12,17.12v481.65c0,9.44,7.68,17.12,17.12,17.12h330.73c9.44,0,17.12-7.68,17.12-17.12V158.81c0-9.44-7.68-17.12-17.12-17.12h0Z"/>
    </g>
    <path class="cls-5" d="M962.07,144.7c-14.92,.4-40,3.27-60.14,20.23-50.34,42.4-6.82,119.78-57.49,194.12-28.13,41.28-45.63,23.41-89.62,78.28-28.05,34.99-32.77,57-70.39,126.7-21.48,39.8-40.69,71.05-53.09,90.56h330.73c7.8,0,14.12-6.32,14.12-14.12V158.81c0-7.8-6.32-14.12-14.12-14.12Z"/>
    <path class="cls-4" d="M601.39,457.64c-.83,0-1.5-.67-1.5-1.5v-160.29c0-.83,.67-1.5,1.5-1.5s1.5,.67,1.5,1.5v160.29c0,.83-.67,1.5-1.5,1.5Z"/>
    <path class="cls-4" d="M861.1,667.52h-219.87c-.83,0-1.5-.67-1.5-1.5s.67-1.5,1.5-1.5h219.87c.83,0,1.5,.67,1.5,1.5s-.67,1.5-1.5,1.5Z"/>
    <path class="cls-4" d="M992.02,565.52c-.83,0-1.5-.67-1.5-1.5v-87.59c0-.83,.67-1.5,1.5-1.5s1.5,.67,1.5,1.5v87.59c0,.83-.67,1.5-1.5,1.5Z"/>
    <path class="cls-4" d="M992.02,260.06c-.83,0-1.5-.67-1.5-1.5v-111.19c0-6.96-5.66-12.62-12.62-12.62h-43.14c-.83,0-1.5-.67-1.5-1.5s.67-1.5,1.5-1.5h43.14c8.61,0,15.62,7.01,15.62,15.62v111.19c0,.83-.67,1.5-1.5,1.5Z"/>
    <g>
      <g>
        <circle class="cls-3" cx="664.42" cy="189.45" r="22.37"/>
        <path class="cls-4" d="M753.58,192.41h-56.29c-1.63,0-2.95-1.32-2.95-2.95s1.32-2.95,2.95-2.95h56.29c1.63,0,2.95,1.32,2.95,2.95s-1.32,2.95-2.95,2.95Z"/>
        <path class="cls-4" d="M874.51,239.36h-229.19c-2.72,0-4.92-2.2-4.92-4.92s2.2-4.92,4.92-4.92h229.19c2.72,0,4.92,2.2,4.92,4.92s-2.2,4.92-4.92,4.92Z"/>
        <path class="cls-3" d="M821.74,263.49h-176.42c-2.72,0-4.92-2.2-4.92-4.92s2.2-4.92,4.92-4.92h176.42c2.72,0,4.92,2.2,4.92,4.92s-2.2,4.92-4.92,4.92Z"/>
        <path class="cls-2" d="M931.81,295.19h-286.49c-1.63,0-2.95-1.32-2.95-2.95s1.32-2.95,2.95-2.95h286.49c1.63,0,2.95,1.32,2.95,2.95s-1.32,2.95-2.95,2.95Z"/>
        <path class="cls-2" d="M929.8,314.29h-284.48c-1.63,0-2.95-1.32-2.95-2.95s1.32-2.95,2.95-2.95h284.48c1.63,0,2.95,1.32,2.95,2.95s-1.32,2.95-2.95,2.95Z"/>
      </g>
      <g>
        <g>
          <rect class="cls-1" x="641.23" y="338.15" width="310.95" height="256.67" rx="12.22" ry="12.22"/>
          <path class="cls-4" d="M939.96,596h-286.51c-7.39,0-13.41-6.02-13.41-13.41v-232.22c0-7.39,6.02-13.41,13.41-13.41h286.51c7.39,0,13.41,6.02,13.41,13.41v232.22c0,7.39-6.02,13.41-13.41,13.41Zm-286.51-256.67c-6.08,0-11.03,4.95-11.03,11.03v232.22c0,6.08,4.95,11.03,11.03,11.03h286.51c6.08,0,11.03-4.95,11.03-11.03v-232.22c0-6.08-4.95-11.03-11.03-11.03h-286.51Z"/>
        </g>
        <g>
          <path class="cls-1" d="M747.56,594.11l.67-1.44,80.55-174.58c8.32-18.02,32.63-17.64,40.44,.64l74.94,175.39h-196.6Z"/>
          <path class="cls-4" d="M944.16,595.28h-196.6c-.4,0-.77-.2-.99-.54-.22-.34-.24-.76-.08-1.13l81.22-176.02c4.04-8.75,12.24-14.12,21.46-13.98,9.23,.13,17.32,5.74,21.13,14.64l74.94,175.39c.16,.36,.12,.78-.1,1.11-.22,.33-.59,.53-.98,.53Zm-194.76-2.35h192.99l-74.24-173.75c-3.43-8.03-10.71-13.1-19-13.22-.1,0-.2,0-.29,0-8.14,0-15.4,4.81-19,12.61l-80.45,174.36Z"/>
        </g>
        <g>
          <path class="cls-1" d="M648.29,594.11l.53-1.11,64.17-134.06c6.62-13.84,25.99-13.55,32.21,.49l59.69,134.68h-156.6Z"/>
          <path class="cls-4" d="M804.9,595.28h-156.6c-.4,0-.78-.21-.99-.55-.21-.34-.24-.77-.07-1.13l64.7-135.17c3.22-6.73,9.73-10.88,17.04-10.88,.09,0,.19,0,.28,0,7.43,.11,13.96,4.48,17.02,11.4l59.69,134.68c.16,.36,.13,.78-.09,1.12-.22,.33-.59,.53-.98,.53Zm-154.74-2.35h152.93l-58.96-133.03c-2.69-6.07-8.4-9.9-14.91-10-.08,0-.16,0-.25,0-6.4,0-12.1,3.64-14.92,9.54l-63.89,133.49Z"/>
        </g>
        <circle class="cls-4" cx="697.19" cy="391.38" r="28.25"/>
      </g>
      <g>
        <rect class="cls-2" x="640.04" y="609.07" width="78.08" height="23.13" rx="11.06" ry="11.06"/>
        <rect class="cls-2" x="875.29" y="609.07" width="78.08" height="23.13" rx="11.06" ry="11.06"/>
        <rect class="cls-2" x="800.58" y="609.07" width="70.66" height="23.13" rx="10.52" ry="10.52"/>
        <rect class="cls-2" x="722.17" y="609.07" width="70.66" height="23.13" rx="10.52" ry="10.52"/>
      </g>
    </g>
  </g>
  <g>
    <circle class="cls-4" cx="537.73" cy="123.31" r="41"/>
    <path class="cls-5" d="M543.09,158.55c-21.31,0-38.58-17.27-38.58-38.58,0-11.3,4.86-21.47,12.61-28.53-10.42,6.91-17.3,18.74-17.3,32.18,0,21.31,17.27,38.58,38.58,38.58,10.01,0,19.12-3.81,25.98-10.05-6.1,4.04-13.41,6.4-21.28,6.4Z"/>
    <path class="cls-5" d="M533.01,141.06c-.99,0-1.95-.39-2.67-1.08l-14.05-13.62c-1.52-1.47-1.56-3.9-.08-5.42,1.47-1.52,3.9-1.56,5.42-.08l11.1,10.76,20.84-24.69c1.36-1.62,3.78-1.82,5.4-.46,1.62,1.36,1.82,3.78,.46,5.4l-23.48,27.83c-.68,.81-1.68,1.3-2.74,1.36-.06,0-.13,0-.19,0Z"/>
  </g>
  <g>
    <g>
      <path class="cls-1" d="M81.15,586c-4.6,0-8.99-1.43-12.69-4.14-5.55-4.03-8.87-10.55-8.87-17.42V258.96c0-11.89,9.67-21.56,21.56-21.56h434.19c5.11,0,10.05,1.82,13.93,5.12,4.85,4.09,7.63,10.09,7.63,16.44v305.48c0,11.89-9.67,21.56-21.56,21.56H81.15Z"/>
      <path class="cls-4" d="M515.33,239.03c4.91,0,9.41,1.77,12.87,4.73,4.31,3.64,7.06,9.11,7.06,15.2v305.48c0,11.01-8.92,19.93-19.93,19.93H81.15c-4.39,0-8.44-1.42-11.73-3.83-4.98-3.62-8.2-9.49-8.2-16.1V258.96c0-11.01,8.92-19.93,19.93-19.93h434.19m0-3.26H81.15c-12.79,0-23.19,10.4-23.19,23.19v305.48c0,7.39,3.57,14.4,9.55,18.74,3.97,2.91,8.69,4.45,13.64,4.45h434.19c12.79,0,23.19-10.4,23.19-23.19V258.96c0-6.83-2.99-13.28-8.21-17.69-4.16-3.54-9.48-5.5-14.98-5.5h0Z"/>
    </g>
    <g>
      <path class="cls-4" d="M46.11,380.27c-.9,0-1.63-.73-1.63-1.63v-95.74c0-.9,.73-1.63,1.63-1.63s1.63,.73,1.63,1.63v95.74c0,.9-.73,1.63-1.63,1.63Z"/>
      <path class="cls-4" d="M289.8,602.85H127.24c-.9,0-1.63-.73-1.63-1.63s.73-1.63,1.63-1.63h162.56c.9,0,1.63,.73,1.63,1.63s-.73,1.63-1.63,1.63Z"/>
      <path class="cls-4" d="M546.2,300.14c-.9,0-1.63-.73-1.63-1.63v-52.1c0-5.98-2.53-11.61-6.95-15.46-3.52-3.09-8-4.79-12.62-4.79h-75.16c-.9,0-1.63-.73-1.63-1.63s.73-1.63,1.63-1.63h75.16c5.42,0,10.66,1.99,14.77,5.59,5.12,4.46,8.06,10.99,8.06,17.91v52.1c0,.9-.73,1.63-1.63,1.63Z"/>
    </g>
    <path class="cls-5" d="M535.26,258.96v305.48c0,11.01-8.92,19.93-19.93,19.93H81.15c-4.39,0-8.44-1.42-11.73-3.83,4.17-22.03,14.11-56.02,41.95-80.54,97.51-85.87,311.04,35.56,349.88-24.51,20.21-31.25-31.53-73.47-12.26-140.4,13.11-45.53,51.03-74.52,79.21-91.33,2.35,5.07,4.7,10.13,7.06,15.2Z"/>
    <g>
      <rect class="cls-1" x="101" y="383.18" width="412.06" height="54.01" rx="27.01" ry="27.01"/>
      <path class="cls-4" d="M486.06,438.82H128.01c-15.79,0-28.63-12.85-28.63-28.63s12.85-28.63,28.63-28.63H486.06c15.79,0,28.63,12.85,28.63,28.63s-12.85,28.63-28.63,28.63Zm-358.05-54.01c-13.99,0-25.38,11.38-25.38,25.38s11.38,25.38,25.38,25.38H486.06c13.99,0,25.38-11.38,25.38-25.38s-11.38-25.38-25.38-25.38H128.01Z"/>
    </g>
    <g>
      <rect class="cls-1" x="93.11" y="485.52" width="200.28" height="54.01" rx="11.54" ry="11.54"/>
      <path class="cls-4" d="M281.85,541.16H104.66c-7.26,0-13.17-5.91-13.17-13.17v-30.92c0-7.26,5.91-13.17,13.17-13.17h177.19c7.26,0,13.17,5.91,13.17,13.17v30.92c0,7.26-5.91,13.17-13.17,13.17Zm-177.19-54.01c-5.47,0-9.92,4.45-9.92,9.92v30.92c0,5.47,4.45,9.92,9.92,9.92h177.19c5.47,0,9.92-4.45,9.92-9.92v-30.92c0-5.47-4.45-9.92-9.92-9.92H104.66Z"/>
    </g>
    <g>
      <circle class="cls-3" cx="172.69" cy="411.04" r="20.74"/>
      <path class="cls-1" d="M165.67,403.21v15.67c4.67-2.59,9.35-5.19,14.02-7.78-4.67-2.63-9.35-5.26-14.02-7.9Z"/>
    </g>
    <g>
      <path class="cls-4" d="M215.69,422.36c-5.78,0-10.48-4.7-10.48-10.48s4.7-10.48,10.48-10.48c1.53,0,3.01,.32,4.39,.96,.82,.38,1.17,1.34,.8,2.16-.38,.82-1.35,1.17-2.16,.8-.95-.44-1.97-.66-3.02-.66-3.98,0-7.22,3.24-7.22,7.22s3.24,7.22,7.22,7.22c3.21,0,5.99-2.06,6.91-5.12,.26-.86,1.17-1.35,2.03-1.09,.86,.26,1.35,1.17,1.09,2.03-1.35,4.45-5.38,7.44-10.03,7.44Z"/>
      <path class="cls-4" d="M216.51,407.98c-.8,0-1.49-.58-1.61-1.39-.13-.89,.49-1.72,1.38-1.85l3.34-.49-.68-3.93c-.15-.89,.44-1.73,1.33-1.88,.89-.15,1.73,.44,1.88,1.33l.96,5.58c.07,.43-.03,.88-.29,1.23s-.65,.59-1.08,.66l-4.99,.73c-.08,.01-.16,.02-.24,.02Z"/>
    </g>
    <g>
      <path class="cls-4" d="M128.06,422.36c-4.65,0-8.68-2.99-10.03-7.44-.26-.86,.23-1.77,1.09-2.03,.86-.26,1.77,.22,2.03,1.09,.93,3.06,3.71,5.12,6.91,5.12,3.98,0,7.22-3.24,7.22-7.22s-3.24-7.22-7.22-7.22c-1.06,0-2.07,.22-3.02,.66-.82,.38-1.79,.02-2.16-.8-.38-.82-.02-1.78,.8-2.16,1.38-.64,2.86-.96,4.39-.96,5.78,0,10.48,4.7,10.48,10.48s-4.7,10.48-10.48,10.48Z"/>
      <path class="cls-4" d="M127.24,407.98c-.08,0-.16,0-.24-.02l-4.99-.73c-.43-.06-.83-.3-1.08-.66s-.36-.8-.29-1.23l.96-5.58c.15-.89,.99-1.48,1.88-1.33,.89,.15,1.48,.99,1.33,1.88l-.68,3.93,3.34,.49c.89,.13,1.51,.96,1.38,1.85-.12,.81-.81,1.39-1.61,1.39Z"/>
    </g>
    <rect class="cls-2" x="240.66" y="407.6" width="98.29" height="7.54" rx="3.77" ry="3.77"/>
    <rect class="cls-4" x="240.66" y="407.6" width="34.65" height="7.54" rx="3.77" ry="3.77"/>
    <path class="cls-4" d="M400.93,413.51h-54.45c-.9,0-1.63-.73-1.63-1.63s.73-1.63,1.63-1.63h54.45c.9,0,1.63,.73,1.63,1.63s-.73,1.63-1.63,1.63Z"/>
    <path class="cls-3" d="M379.72,516.9h-63.64c-1.53,0-2.77-1.24-2.77-2.77s1.24-2.77,2.77-2.77h63.64c1.53,0,2.77,1.24,2.77,2.77s-1.24,2.77-2.77,2.77Z"/>
    <path class="cls-4" d="M306.18,284.5H102.06c-1.53,0-2.77-1.24-2.77-2.77s1.24-2.77,2.77-2.77h204.12c1.53,0,2.77,1.24,2.77,2.77s-1.24,2.77-2.77,2.77Z"/>
    <path class="cls-3" d="M357.09,325.99H102.06c-1.53,0-2.77-1.24-2.77-2.77s1.24-2.77,2.77-2.77h255.03c1.53,0,2.77,1.24,2.77,2.77s-1.24,2.77-2.77,2.77Z"/>
    <path class="cls-4" d="M299.58,341.54H102.06c-1.53,0-2.77-1.24-2.77-2.77s1.24-2.77,2.77-2.77h197.52c1.53,0,2.77,1.24,2.77,2.77s-1.24,2.77-2.77,2.77Z"/>
  </g>
</svg>