<?xml version="1.0" encoding="UTF-8"?>
<svg id="WebLight" xmlns="http://www.w3.org/2000/svg" viewBox="0 0 1080 1080">
  <defs>
    <style>
      .cls-1 {
        fill: #fff;
      }

      .cls-2 {
        fill: #d8d8d8;
      }

      .cls-3 {
        fill: #655cfe;
      }

      .cls-4 {
        fill: #01112d;
      }

      .cls-5 {
        fill: #e6e7e8;
      }

      .cls-6 {
        fill: #ededed;
      }
    </style>
  </defs>
  <path class="cls-4" d="M867.81,813.89c-.83,0-1.5-.67-1.5-1.5s.67-1.5,1.5-1.5h15.19c.83,0,1.5,.67,1.5,1.5s-.67,1.5-1.5,1.5h-.11s-15.08,0-15.08,0Zm-25.1,0h-15.06c-.83,0-1.5-.67-1.5-1.5s.67-1.5,1.5-1.5h15.06c.83,0,1.5,.67,1.5,1.5s-.67,1.5-1.5,1.5Zm-40.17,0h-15.06c-.83,0-1.5-.67-1.5-1.5s.67-1.5,1.5-1.5h15.06c.83,0,1.5,.67,1.5,1.5s-.67,1.5-1.5,1.5Zm-40.17,0h-15.06c-.83,0-1.5-.67-1.5-1.5s.67-1.5,1.5-1.5h15.06c.83,0,1.5,.67,1.5,1.5s-.67,1.5-1.5,1.5Zm-40.17,0h-15.06c-.83,0-1.5-.67-1.5-1.5s.67-1.5,1.5-1.5h15.06c.83,0,1.5,.67,1.5,1.5s-.67,1.5-1.5,1.5Zm-40.17,0h-15.06c-.83,0-1.5-.67-1.5-1.5s.67-1.5,1.5-1.5h15.06c.83,0,1.5,.67,1.5,1.5s-.67,1.5-1.5,1.5Zm-40.17,0h-15.06c-.83,0-1.5-.67-1.5-1.5s.67-1.5,1.5-1.5h15.06c.83,0,1.5,.67,1.5,1.5s-.67,1.5-1.5,1.5Zm-40.17,0h-15.06c-.83,0-1.5-.67-1.5-1.5s.67-1.5,1.5-1.5h15.06c.83,0,1.5,.67,1.5,1.5s-.67,1.5-1.5,1.5Zm-40.17,0h-15.06c-.83,0-1.5-.67-1.5-1.5s.67-1.5,1.5-1.5h15.06c.83,0,1.5,.67,1.5,1.5s-.67,1.5-1.5,1.5Zm-40.17,0h-15.06c-.83,0-1.5-.67-1.5-1.5s.67-1.5,1.5-1.5h15.06c.83,0,1.5,.67,1.5,1.5s-.67,1.5-1.5,1.5Zm-40.17,0h-15.06c-.83,0-1.5-.67-1.5-1.5s.67-1.5,1.5-1.5h15.06c.83,0,1.5,.67,1.5,1.5s-.67,1.5-1.5,1.5Zm-40.17,0h-15.06c-.83,0-1.5-.67-1.5-1.5s.67-1.5,1.5-1.5h15.06c.83,0,1.5,.67,1.5,1.5s-.67,1.5-1.5,1.5Zm-40.17,0h-15.06c-.83,0-1.5-.67-1.5-1.5s.67-1.5,1.5-1.5h15.06c.83,0,1.5,.67,1.5,1.5s-.67,1.5-1.5,1.5Zm-40.17,0h-15.06c-.83,0-1.5-.67-1.5-1.5s.67-1.5,1.5-1.5h15.06c.83,0,1.5,.67,1.5,1.5s-.67,1.5-1.5,1.5Zm-40.17,0h-15.06c-.83,0-1.5-.67-1.5-1.5s.67-1.5,1.5-1.5h15.06c.83,0,1.5,.67,1.5,1.5s-.67,1.5-1.5,1.5Zm-40.17,0h-15.06c-.83,0-1.5-.67-1.5-1.5s.67-1.5,1.5-1.5h15.06c.83,0,1.5,.67,1.5,1.5s-.67,1.5-1.5,1.5Zm-40.17,0h-15.06c-.83,0-1.5-.67-1.5-1.5s.67-1.5,1.5-1.5h15.06c.83,0,1.5,.67,1.5,1.5s-.67,1.5-1.5,1.5Zm-40.17,0h-3.88c-3.95,0-7.81-.72-11.47-2.13-.77-.3-1.16-1.17-.86-1.94,.3-.77,1.17-1.15,1.94-.86,3.31,1.28,6.81,1.93,10.39,1.93h3.88c.83,0,1.5,.67,1.5,1.5s-.67,1.5-1.5,1.5Zm705.23-9.9c-.36,0-.72-.13-1.01-.39-.61-.56-.66-1.51-.1-2.12,3.23-3.54,5.54-7.86,6.68-12.49,.2-.8,1.01-1.3,1.81-1.1,.8,.2,1.3,1.01,1.1,1.82-1.26,5.11-3.81,9.88-7.38,13.79-.3,.32-.7,.49-1.11,.49Zm-737.34-9.33c-.6,0-1.16-.36-1.4-.95-1.46-3.71-2.2-7.62-2.2-11.64v-3.7c0-.83,.67-1.5,1.5-1.5s1.5,.67,1.5,1.5v3.7c0,3.64,.67,7.19,1.99,10.54,.3,.77-.08,1.64-.85,1.95-.18,.07-.37,.1-.55,.1Zm745.24-28.85c-.83,0-1.5-.67-1.5-1.5v-15.06c0-.83,.67-1.5,1.5-1.5s1.5,.67,1.5,1.5v15.06c0,.83-.67,1.5-1.5,1.5Zm-747.34-11.06c-.83,0-1.5-.67-1.5-1.5v-15.06c0-.83,.67-1.5,1.5-1.5s1.5,.67,1.5,1.5v15.06c0,.83-.67,1.5-1.5,1.5Zm747.34-29.11c-.83,0-1.5-.67-1.5-1.5v-15.06c0-.83,.67-1.5,1.5-1.5s1.5,.67,1.5,1.5v15.06c0,.83-.67,1.5-1.5,1.5Zm-747.34-11.06c-.83,0-1.5-.67-1.5-1.5v-15.06c0-.83,.67-1.5,1.5-1.5s1.5,.67,1.5,1.5v15.06c0,.83-.67,1.5-1.5,1.5Zm747.34-29.11c-.83,0-1.5-.67-1.5-1.5v-15.06c0-.83,.67-1.5,1.5-1.5s1.5,.67,1.5,1.5v15.06c0,.83-.67,1.5-1.5,1.5Zm-747.34-11.06c-.83,0-1.5-.67-1.5-1.5v-15.06c0-.83,.67-1.5,1.5-1.5s1.5,.67,1.5,1.5v15.06c0,.83-.67,1.5-1.5,1.5Zm747.34-29.11c-.83,0-1.5-.67-1.5-1.5v-15.06c0-.83,.67-1.5,1.5-1.5s1.5,.67,1.5,1.5v15.06c0,.83-.67,1.5-1.5,1.5Zm-747.34-11.06c-.83,0-1.5-.67-1.5-1.5v-15.06c0-.83,.67-1.5,1.5-1.5s1.5,.67,1.5,1.5v15.06c0,.83-.67,1.5-1.5,1.5Zm747.34-29.11c-.83,0-1.5-.67-1.5-1.5v-15.06c0-.83,.67-1.5,1.5-1.5s1.5,.67,1.5,1.5v15.06c0,.83-.67,1.5-1.5,1.5Zm-747.34-11.06c-.83,0-1.5-.67-1.5-1.5v-15.06c0-.83,.67-1.5,1.5-1.5s1.5,.67,1.5,1.5v15.06c0,.83-.67,1.5-1.5,1.5Zm747.34-29.11c-.83,0-1.5-.67-1.5-1.5v-15.06c0-.83,.67-1.5,1.5-1.5s1.5,.67,1.5,1.5v15.06c0,.83-.67,1.5-1.5,1.5Zm-747.34-11.06c-.83,0-1.5-.67-1.5-1.5v-15.06c0-.83,.67-1.5,1.5-1.5s1.5,.67,1.5,1.5v15.06c0,.83-.67,1.5-1.5,1.5Zm747.34-29.11c-.83,0-1.5-.67-1.5-1.5v-15.06c0-.83,.67-1.5,1.5-1.5s1.5,.67,1.5,1.5v15.06c0,.83-.67,1.5-1.5,1.5Zm-747.34-11.06c-.83,0-1.5-.67-1.5-1.5v-15.06c0-.83,.67-1.5,1.5-1.5s1.5,.67,1.5,1.5v15.06c0,.83-.67,1.5-1.5,1.5Zm747.34-29.11c-.83,0-1.5-.67-1.5-1.5v-15.06c0-.83,.67-1.5,1.5-1.5s1.5,.67,1.5,1.5v15.06c0,.83-.67,1.5-1.5,1.5Zm-747.34-11.06c-.83,0-1.5-.67-1.5-1.5v-15.06c0-.83,.67-1.5,1.5-1.5s1.5,.67,1.5,1.5v15.06c0,.83-.67,1.5-1.5,1.5Zm747.34-29.11c-.83,0-1.5-.67-1.5-1.5v-15.06c0-.83,.67-1.5,1.5-1.5s1.5,.67,1.5,1.5v15.06c0,.83-.67,1.5-1.5,1.5Zm-747.34-11.06c-.83,0-1.5-.67-1.5-1.5v-15.06c0-.83,.67-1.5,1.5-1.5s1.5,.67,1.5,1.5v15.06c0,.83-.67,1.5-1.5,1.5Zm747.34-29.11c-.83,0-1.5-.67-1.5-1.5v-15.06c0-.83,.67-1.5,1.5-1.5s1.5,.67,1.5,1.5v15.06c0,.83-.67,1.5-1.5,1.5Zm-747.34-11.06c-.83,0-1.5-.67-1.5-1.5v-15.06c0-.83,.67-1.5,1.5-1.5s1.5,.67,1.5,1.5v15.06c0,.83-.67,1.5-1.5,1.5Zm747.34-29.11c-.83,0-1.5-.67-1.5-1.5v-15.06c0-.83,.67-1.5,1.5-1.5s1.5,.67,1.5,1.5v15.06c0,.83-.67,1.5-1.5,1.5Zm-747.34-11.06c-.83,0-1.5-.67-1.5-1.5v-12.67c0-.84,.03-1.68,.1-2.51,.06-.83,.81-1.44,1.61-1.38,.83,.06,1.44,.79,1.38,1.61-.06,.75-.09,1.52-.09,2.27v12.67c0,.83-.67,1.5-1.5,1.5Zm743-28.31c-.51,0-1-.26-1.29-.73-2.47-4.09-5.95-7.54-10.07-9.97-.71-.42-.95-1.34-.53-2.05,.42-.71,1.34-.95,2.05-.53,4.54,2.68,8.39,6.49,11.11,11,.43,.71,.2,1.63-.51,2.06-.24,.15-.51,.22-.77,.22Zm-731.37-8.23c-.45,0-.89-.2-1.18-.57-.51-.65-.4-1.59,.25-2.11,4.16-3.26,9.11-5.45,14.31-6.32,.82-.14,1.59,.41,1.73,1.23,.14,.82-.41,1.59-1.23,1.73-4.71,.79-9.18,2.77-12.95,5.73-.27,.21-.6,.32-.92,.32Zm696.42-6.44h-15.06c-.83,0-1.5-.67-1.5-1.5s.67-1.5,1.5-1.5h15.06c.83,0,1.5,.67,1.5,1.5s-.67,1.5-1.5,1.5Zm-40.17,0h-15.06c-.83,0-1.5-.67-1.5-1.5s.67-1.5,1.5-1.5h15.06c.83,0,1.5,.67,1.5,1.5s-.67,1.5-1.5,1.5Zm-40.17,0h-15.06c-.83,0-1.5-.67-1.5-1.5s.67-1.5,1.5-1.5h15.06c.83,0,1.5,.67,1.5,1.5s-.67,1.5-1.5,1.5Zm-40.17,0h-15.06c-.83,0-1.5-.67-1.5-1.5s.67-1.5,1.5-1.5h15.06c.83,0,1.5,.67,1.5,1.5s-.67,1.5-1.5,1.5Zm-40.17,0h-15.06c-.83,0-1.5-.67-1.5-1.5s.67-1.5,1.5-1.5h15.06c.83,0,1.5,.67,1.5,1.5s-.67,1.5-1.5,1.5Zm-40.17,0h-15.06c-.83,0-1.5-.67-1.5-1.5s.67-1.5,1.5-1.5h15.06c.83,0,1.5,.67,1.5,1.5s-.67,1.5-1.5,1.5Zm-40.17,0h-15.06c-.83,0-1.5-.67-1.5-1.5s.67-1.5,1.5-1.5h15.06c.83,0,1.5,.67,1.5,1.5s-.67,1.5-1.5,1.5Zm-40.17,0h-15.06c-.83,0-1.5-.67-1.5-1.5s.67-1.5,1.5-1.5h15.06c.83,0,1.5,.67,1.5,1.5s-.67,1.5-1.5,1.5Zm-40.17,0h-15.06c-.83,0-1.5-.67-1.5-1.5s.67-1.5,1.5-1.5h15.06c.83,0,1.5,.67,1.5,1.5s-.67,1.5-1.5,1.5Zm-40.17,0h-15.06c-.83,0-1.5-.67-1.5-1.5s.67-1.5,1.5-1.5h15.06c.83,0,1.5,.67,1.5,1.5s-.67,1.5-1.5,1.5Zm-40.17,0h-15.06c-.83,0-1.5-.67-1.5-1.5s.67-1.5,1.5-1.5h15.06c.83,0,1.5,.67,1.5,1.5s-.67,1.5-1.5,1.5Zm-40.17,0h-15.06c-.83,0-1.5-.67-1.5-1.5s.67-1.5,1.5-1.5h15.06c.83,0,1.5,.67,1.5,1.5s-.67,1.5-1.5,1.5Zm-40.17,0h-15.06c-.83,0-1.5-.67-1.5-1.5s.67-1.5,1.5-1.5h15.06c.83,0,1.5,.67,1.5,1.5s-.67,1.5-1.5,1.5Zm-40.17,0h-15.06c-.83,0-1.5-.67-1.5-1.5s.67-1.5,1.5-1.5h15.06c.83,0,1.5,.67,1.5,1.5s-.67,1.5-1.5,1.5Zm-40.17,0h-15.06c-.83,0-1.5-.67-1.5-1.5s.67-1.5,1.5-1.5h15.06c.83,0,1.5,.67,1.5,1.5s-.67,1.5-1.5,1.5Zm-40.17,0h-15.06c-.83,0-1.5-.67-1.5-1.5s.67-1.5,1.5-1.5h15.06c.83,0,1.5,.67,1.5,1.5s-.67,1.5-1.5,1.5Zm-40.17,0h-15.06c-.83,0-1.5-.67-1.5-1.5s.67-1.5,1.5-1.5h15.06c.83,0,1.5,.67,1.5,1.5s-.67,1.5-1.5,1.5Z"/>
  <g>
    <g>
      <path class="cls-4" d="M278.23,182.79c-.83,0-1.5-.67-1.5-1.5v-37.9c0-18.39,14.96-33.36,33.36-33.36h58.75c.83,0,1.5,.67,1.5,1.5s-.67,1.5-1.5,1.5h-58.75c-16.74,0-30.36,13.62-30.36,30.36v37.9c0,.83-.67,1.5-1.5,1.5Z"/>
      <path class="cls-4" d="M278.23,398.45c-.83,0-1.5-.67-1.5-1.5v-64.8c0-.83,.67-1.5,1.5-1.5s1.5,.67,1.5,1.5v64.8c0,.83-.67,1.5-1.5,1.5Z"/>
      <path class="cls-4" d="M640.59,514.24h-232.25c-.83,0-1.5-.67-1.5-1.5s.67-1.5,1.5-1.5h232.25c.83,0,1.5,.67,1.5,1.5s-.67,1.5-1.5,1.5Z"/>
      <path class="cls-4" d="M810.5,514.24h-35.76c-.83,0-1.5-.67-1.5-1.5s.67-1.5,1.5-1.5h35.76c16.74,0,30.36-13.62,30.36-30.36v-20.66c0-.83,.67-1.5,1.5-1.5s1.5,.67,1.5,1.5v20.66c0,18.39-14.96,33.36-33.36,33.36Z"/>
      <path class="cls-4" d="M842.35,287.21c-.83,0-1.5-.67-1.5-1.5v-44.98c0-.83,.67-1.5,1.5-1.5s1.5,.67,1.5,1.5v44.98c0,.83-.67,1.5-1.5,1.5Z"/>
      <path class="cls-4" d="M725.38,113.04h-84.79c-.83,0-1.5-.67-1.5-1.5s.67-1.5,1.5-1.5h84.79c.83,0,1.5,.67,1.5,1.5s-.67,1.5-1.5,1.5Z"/>
    </g>
    <g>
      <rect class="cls-1" x="298.4" y="125.88" width="523.79" height="372.52" rx="39.06" ry="39.06"/>
      <path class="cls-4" d="M783.13,499.9H337.46c-22.37,0-40.56-18.2-40.56-40.56V164.94c0-22.37,18.2-40.56,40.56-40.56h445.66c22.37,0,40.56,18.2,40.56,40.56V459.33c0,22.37-18.2,40.56-40.56,40.56ZM337.46,127.38c-20.71,0-37.56,16.85-37.56,37.56V459.33c0,20.71,16.85,37.56,37.56,37.56h445.66c20.71,0,37.56-16.85,37.56-37.56V164.94c0-20.71-16.85-37.56-37.56-37.56H337.46Z"/>
    </g>
    <path class="cls-6" d="M782.06,127.4c10.36,133.86-22.16,186.2-54.2,209.12-56.96,40.75-126.21-1.57-212.43,40.74-58.94,28.93-92.75,81.2-111.87,119.79,126.21,.11,252.41,.21,378.62,.32,2.62,.07,15.71,.16,26.56-9.99,12.2-11.42,11.81-26.68,11.72-28.93,.06-98.09,.12-196.19,.19-294.28-.07-3.53-.74-13.7-8.2-22.91-11.15-13.78-28.11-13.88-30.38-13.85Z"/>
    <g>
      <rect class="cls-2" x="330.51" y="172.87" width="469.41" height="49.24" rx="24.62" ry="24.62"/>
      <g>
        <path class="cls-4" d="M767.07,192.92h5.58v19.96c0,1.54-1.25,2.79-2.79,2.79h0c-1.54,0-2.79-1.25-2.79-2.79v-19.96h0Z" transform="translate(47.26 539.38) rotate(-39.74)"/>
        <g>
          <circle class="cls-2" cx="759.07" cy="192.08" r="10.78"/>
          <path class="cls-4" d="M759.07,203.86c-6.5,0-11.78-5.29-11.78-11.78s5.29-11.78,11.78-11.78,11.78,5.29,11.78,11.78-5.29,11.78-11.78,11.78Zm0-21.56c-5.39,0-9.78,4.39-9.78,9.78s4.39,9.78,9.78,9.78,9.78-4.39,9.78-9.78-4.39-9.78-9.78-9.78Z"/>
        </g>
      </g>
    </g>
    <g>
      <circle class="cls-4" cx="744.64" cy="149.01" r="8.12"/>
      <circle class="cls-4" cx="769.86" cy="149.01" r="8.12"/>
      <circle class="cls-4" cx="795.07" cy="149.01" r="8.12"/>
    </g>
    <g>
      <g>
        <rect class="cls-1" x="328.02" y="262.45" width="464.56" height="165.59" rx="25.66" ry="25.66"/>
        <path class="cls-4" d="M766.91,429.54H353.68c-14.98,0-27.16-12.18-27.16-27.16v-114.27c0-14.98,12.18-27.16,27.16-27.16h413.24c14.98,0,27.16,12.18,27.16,27.16v114.27c0,14.98-12.18,27.16-27.16,27.16Zm-413.24-165.59c-13.32,0-24.16,10.84-24.16,24.16v114.27c0,13.32,10.84,24.16,24.16,24.16h413.24c13.32,0,24.16-10.84,24.16-24.16v-114.27c0-13.32-10.84-24.16-24.16-24.16H353.68Z"/>
      </g>
      <path class="cls-4" d="M527.1,312.62v65.26c0,3.05,3.27,4.97,5.93,3.49,19.46-10.79,38.92-21.59,58.39-32.38,2.73-1.52,2.75-5.44,.02-6.98-19.46-10.96-38.92-21.92-58.39-32.87-2.66-1.5-5.96,.43-5.96,3.48Z"/>
    </g>
    <rect class="cls-3" x="469.8" y="447.15" width="180.99" height="40.12" rx="20.06" ry="20.06"/>
  </g>
  <g>
    <g>
      <rect class="cls-1" x="734.27" y="650.81" width="216.17" height="307.06" rx="14.12" ry="14.12"/>
      <path class="cls-4" d="M936.32,650.81c7.8,0,14.12,6.32,14.12,14.12v278.82c0,7.8-6.32,14.12-14.12,14.12h-187.94c-7.8,0-14.12-6.32-14.12-14.12v-278.82c0-7.8,6.32-14.12,14.12-14.12h187.94m0-3h-187.94c-9.44,0-17.12,7.68-17.12,17.12v278.82c0,9.44,7.68,17.12,17.12,17.12h187.94c9.44,0,17.12-7.68,17.12-17.12v-278.82c0-9.44-7.68-17.12-17.12-17.12h0Z"/>
    </g>
    <path class="cls-6" d="M941.94,650.81c-8.99,.24-24.09,1.97-36.22,12.18-30.32,25.53-4.11,72.13-34.62,116.9-16.94,24.86-27.48,14.1-53.97,47.14-16.89,21.07-19.73,34.33-42.39,76.3-12.94,23.97-24.51,42.79-31.97,54.53h199.17c4.7,0,8.5-3.81,8.5-8.5v-290.05c0-4.7-3.81-8.5-8.5-8.5Z"/>
    <path class="cls-4" d="M724.73,839.87c-.83,0-1.5-.67-1.5-1.5v-96.53c0-.83,.67-1.5,1.5-1.5s1.5,.67,1.5,1.5v96.53c0,.83-.67,1.5-1.5,1.5Z"/>
    <path class="cls-4" d="M881.14,966.26h-132.41c-.83,0-1.5-.67-1.5-1.5s.67-1.5,1.5-1.5h132.41c.83,0,1.5,.67,1.5,1.5s-.67,1.5-1.5,1.5Z"/>
    <path class="cls-4" d="M959.98,904.84c-.83,0-1.5-.67-1.5-1.5v-52.75c0-.83,.67-1.5,1.5-1.5s1.5,.67,1.5,1.5v52.75c0,.83-.67,1.5-1.5,1.5Z"/>
    <path class="cls-4" d="M959.98,720.89c-.83,0-1.5-.67-1.5-1.5v-66.96c0-3.86-3.14-7-7-7h-25.98c-.83,0-1.5-.67-1.5-1.5s.67-1.5,1.5-1.5h25.98c5.51,0,10,4.49,10,10v66.96c0,.83-.67,1.5-1.5,1.5Z"/>
    <g>
      <g>
        <circle class="cls-3" cx="762.69" cy="677.77" r="13.47"/>
        <path class="cls-4" d="M816.38,679.55h-33.9c-.98,0-1.78-.8-1.78-1.78s.8-1.78,1.78-1.78h33.9c.98,0,1.78,.8,1.78,1.78s-.8,1.78-1.78,1.78Z"/>
        <path class="cls-4" d="M889.21,707.82h-138.02c-1.64,0-2.96-1.33-2.96-2.96s1.33-2.96,2.96-2.96h138.02c1.64,0,2.96,1.33,2.96,2.96s-1.33,2.96-2.96,2.96Z"/>
        <path class="cls-3" d="M857.43,722.35h-106.24c-1.64,0-2.96-1.33-2.96-2.96s1.33-2.96,2.96-2.96h106.24c1.64,0,2.96,1.33,2.96,2.96s-1.33,2.96-2.96,2.96Z"/>
        <path class="cls-2" d="M923.72,741.44h-172.53c-.98,0-1.78-.8-1.78-1.78s.8-1.78,1.78-1.78h172.53c.98,0,1.78,.8,1.78,1.78s-.8,1.78-1.78,1.78Z"/>
        <path class="cls-2" d="M922.51,752.95h-171.32c-.98,0-1.78-.8-1.78-1.78s.8-1.78,1.78-1.78h171.32c.98,0,1.78,.8,1.78,1.78s-.8,1.78-1.78,1.78Z"/>
      </g>
      <g>
        <g>
          <rect class="cls-1" x="748.73" y="767.31" width="187.26" height="154.57" rx="12.22" ry="12.22"/>
          <path class="cls-4" d="M928.62,922.6h-172.54c-4.45,0-8.08-3.62-8.08-8.08v-139.85c0-4.45,3.62-8.08,8.08-8.08h172.54c4.45,0,8.08,3.62,8.08,8.08v139.85c0,4.45-3.62,8.08-8.08,8.08Zm-172.54-154.57c-3.66,0-6.64,2.98-6.64,6.64v139.85c0,3.66,2.98,6.64,6.64,6.64h172.54c3.66,0,6.64-2.98,6.64-6.64v-139.85c0-3.66-2.98-6.64-6.64-6.64h-172.54Z"/>
        </g>
        <g>
          <path class="cls-1" d="M812.76,921.45l.4-.87,48.51-105.13c5.01-10.85,19.65-10.62,24.35,.38l45.13,105.62h-118.39Z"/>
          <path class="cls-4" d="M931.15,922.16h-118.39c-.24,0-.47-.12-.6-.33-.13-.2-.15-.46-.05-.68l48.91-106c2.43-5.27,7.37-8.5,12.92-8.42,5.56,.08,10.43,3.46,12.72,8.82l45.13,105.62c.09,.22,.07,.47-.06,.67-.13,.2-.35,.32-.59,.32Zm-117.29-1.41h116.22l-44.71-104.63c-2.07-4.84-6.45-7.89-11.44-7.96-.06,0-.12,0-.18,0-4.9,0-9.27,2.9-11.44,7.6l-48.45,105Z"/>
        </g>
        <g>
          <path class="cls-1" d="M752.98,921.45l.32-.67,38.64-80.73c3.99-8.33,15.65-8.16,19.4,.29l35.95,81.11h-94.31Z"/>
          <path class="cls-4" d="M847.29,922.16h-94.31c-.24,0-.47-.12-.6-.33-.13-.21-.14-.46-.04-.68l38.96-81.4c1.94-4.05,5.86-6.55,10.26-6.55,.06,0,.11,0,.17,0,4.48,.07,8.4,2.7,10.25,6.86l35.95,81.11c.1,.22,.08,.47-.05,.67-.13,.2-.35,.32-.59,.32Zm-93.19-1.41h92.1l-35.51-80.11c-1.62-3.66-5.06-5.96-8.98-6.02-.05,0-.1,0-.15,0-3.85,0-7.29,2.19-8.99,5.75l-38.48,80.39Z"/>
        </g>
        <circle class="cls-4" cx="782.42" cy="799.37" r="17.01"/>
      </g>
      <g>
        <rect class="cls-2" x="748.01" y="930.46" width="47.02" height="13.93" rx="6.96" ry="6.96"/>
        <rect class="cls-2" x="889.68" y="930.46" width="47.02" height="13.93" rx="6.96" ry="6.96"/>
        <rect class="cls-2" x="844.69" y="930.46" width="42.55" height="13.93" rx="6.96" ry="6.96"/>
        <rect class="cls-2" x="797.47" y="930.46" width="42.55" height="13.93" rx="6.96" ry="6.96"/>
      </g>
    </g>
  </g>
  <g>
    <g>
      <path class="cls-1" d="M118.33,879.2c-7.75,0-14.06-6.31-14.06-14.06v-197.19c0-7.75,6.31-14.06,14.06-14.06h213.53c6.16,0,11.54,3.93,13.4,9.79,.02,.04,.05,.15,.05,.16,.4,1.33,.61,2.71,.61,4.11v197.19c0,7.75-6.31,14.06-14.06,14.06H118.33Z"/>
      <path class="cls-4" d="M331.86,655.01c5.81,0,10.72,3.82,12.36,9.09,0,0,0,0,0,0,.38,1.22,.58,2.51,.58,3.85v197.19c0,7.15-5.8,12.95-12.95,12.95H118.33c-7.15,0-12.95-5.8-12.95-12.95v-197.19c0-7.15,5.8-12.95,12.95-12.95h213.53m0-2.22H118.33c-8.36,0-15.17,6.8-15.17,15.17v197.19c0,8.36,6.8,15.17,15.17,15.17h213.53c8.36,0,15.17-6.8,15.17-15.17v-197.19c0-1.5-.22-2.98-.65-4.41-.02-.08-.05-.16-.08-.24-2.02-6.3-7.81-10.52-14.44-10.52h0Z"/>
    </g>
    <path class="cls-6" d="M344.78,864.06c-.06,2.06-.3,6.41-3.31,9.76-2.64,2.93-6.31,3.88-8.73,4.25-7.6,0-24.65,.03-32.38,.03-35.73,.02-62.01,0-74.95,0-28.82-.02-64.59-.02-105.76,0,39-47.39,76.26-65.8,103.99-73.62,24.14-6.81,39.64-5.61,48.75-18.83,19.71-28.61-26.52-70.11-7.72-104.26,6.9-12.53,21.21-21.66,35.8-26.38h31.38c1.23,0,4.58,.2,7.75,2.57,4.58,3.43,5.11,8.7,5.18,9.57,.32,108.61,.26,187.91,0,196.91Z"/>
    <g>
      <g>
        <path class="cls-1" d="M200.22,598.1h138.73c3.35,0,6.07,2.72,6.07,6.07v37.88c0,3.35-2.72,6.07-6.07,6.07H200.22c-3.35,0-6.07-2.72-6.07-6.07v-37.88c0-3.35,2.72-6.07,6.07-6.07Z"/>
        <path class="cls-4" d="M338.95,599.21c2.74,0,4.96,2.22,4.96,4.96v37.88c0,2.74-2.22,4.96-4.96,4.96H200.22c-2.74,0-4.96-2.22-4.96-4.96v-37.88c0-2.74,2.22-4.96,4.96-4.96h138.72m0-2.22H200.22c-3.96,0-7.18,3.22-7.18,7.18v37.88c0,3.96,3.22,7.17,7.18,7.17h138.72c3.96,0,7.18-3.22,7.18-7.17v-37.88c0-3.96-3.22-7.18-7.18-7.18h0Z"/>
      </g>
      <g>
        <path class="cls-4" d="M193.62,651.09c-3.4,0-6.17-2.77-6.17-6.17v-33.48c0-.61,.5-1.11,1.11-1.11s1.11,.5,1.11,1.11v33.48c0,2.18,1.77,3.95,3.95,3.95,.61,0,1.11,.5,1.11,1.11s-.5,1.11-1.11,1.11Z"/>
        <path class="cls-4" d="M350.61,638.73c-.61,0-1.11-.5-1.11-1.11v-27.69c0-.61,.5-1.11,1.11-1.11s1.11,.5,1.11,1.11v27.69c0,.61-.5,1.11-1.11,1.11Z"/>
        <path class="cls-4" d="M295.97,593.92h-50.21c-.61,0-1.11-.5-1.11-1.11s.5-1.11,1.11-1.11h50.21c.61,0,1.11,.5,1.11,1.11s-.5,1.11-1.11,1.11Z"/>
      </g>
    </g>
    <g>
      <rect class="cls-5" x="121.65" y="715.83" width="208.04" height="49.29" rx="2.76" ry="2.76"/>
      <g>
        <rect class="cls-2" x="122.76" y="714.66" width="206.93" height="50.46" rx="2.24" ry="2.24"/>
        <path class="cls-4" d="M324.73,766.23H127.72c-3.35,0-6.07-2.72-6.07-6.07v-40.54c0-3.35,2.72-6.07,6.07-6.07h197.01c3.35,0,6.07,2.72,6.07,6.07v40.54c0,3.35-2.72,6.07-6.07,6.07Zm-197.01-50.46c-2.12,0-3.85,1.73-3.85,3.85v40.54c0,2.12,1.73,3.85,3.85,3.85h197.01c2.12,0,3.85-1.73,3.85-3.85v-40.54c0-2.12-1.73-3.85-3.85-3.85H127.72Z"/>
      </g>
    </g>
    <path class="cls-3" d="M304.26,794.97c-.35,0-.69-.14-.94-.38l-4.95-4.8c-.54-.52-.55-1.37-.03-1.91,.52-.54,1.37-.55,1.91-.03l3.91,3.79,7.34-8.7c.48-.57,1.33-.64,1.9-.16,.57,.48,.64,1.33,.16,1.9l-8.27,9.8c-.24,.29-.59,.46-.96,.48-.02,0-.05,0-.07,0Z"/>
    <path class="cls-4" d="M248.37,694.8h-107.85c-.61,0-1.11-.5-1.11-1.11s.5-1.11,1.11-1.11h107.85c.61,0,1.11,.5,1.11,1.11s-.5,1.11-1.11,1.11Z"/>
    <path class="cls-4" d="M264.9,790.59h-124.38c-.61,0-1.11-.5-1.11-1.11s.5-1.11,1.11-1.11h124.38c.61,0,1.11,.5,1.11,1.11s-.5,1.11-1.11,1.11Z"/>
    <path class="cls-4" d="M284.09,834.61H140.53c-.61,0-1.11-.5-1.11-1.11s.5-1.11,1.11-1.11h143.57c.61,0,1.11,.5,1.11,1.11s-.5,1.11-1.11,1.11Z"/>
    <path class="cls-4" d="M218.44,741h-77.92c-.61,0-1.11-.5-1.11-1.11s.5-1.11,1.11-1.11h77.92c.61,0,1.11,.5,1.11,1.11s-.5,1.11-1.11,1.11Z"/>
    <path class="cls-4" d="M277.14,888.65h-89.21c-.61,0-1.11-.5-1.11-1.11s.5-1.11,1.11-1.11h89.21c.61,0,1.11,.5,1.11,1.11s-.5,1.11-1.11,1.11Z"/>
    <path class="cls-4" d="M354.95,824.44c-.61,0-1.11-.5-1.11-1.11v-112.01c0-.61,.5-1.11,1.11-1.11s1.11,.5,1.11,1.11v112.01c0,.61-.5,1.11-1.11,1.11Z"/>
    <path class="cls-4" d="M95.24,732.75c-.61,0-1.11-.5-1.11-1.11v-72.03c0-8.36,6.8-15.15,15.16-15.15h21.64c.61,0,1.11,.5,1.11,1.11s-.5,1.11-1.11,1.11h-21.64c-7.13,0-12.94,5.8-12.94,12.94v72.03c0,.61-.5,1.11-1.11,1.11Z"/>
  </g>
  <g>
    <path class="cls-3" d="M912.91,488.46c-.43,0-.84-.19-1.13-.51l-21.95-25.15c-.54-.62-.48-1.57,.14-2.12,.62-.55,1.57-.48,2.12,.14l20.76,23.78,18.55-23.85c.51-.65,1.45-.77,2.1-.26,.65,.51,.77,1.45,.26,2.1l-19.67,25.29c-.27,.35-.69,.57-1.14,.58-.01,0-.03,0-.04,0Z"/>
    <path class="cls-3" d="M912.91,501.1c-.43,0-.84-.19-1.13-.51l-21.95-25.15c-.54-.62-.48-1.57,.14-2.12,.62-.55,1.57-.48,2.12,.14l20.76,23.78,18.55-23.85c.51-.65,1.45-.77,2.1-.26,.65,.51,.77,1.45,.26,2.1l-19.67,25.29c-.27,.35-.69,.57-1.14,.58-.01,0-.03,0-.04,0Z"/>
  </g>
  <g>
    <path class="cls-3" d="M145.85,452.5c-.32,0-.65-.1-.92-.32-.65-.51-.77-1.45-.26-2.1l19.67-25.29c.27-.35,.69-.57,1.14-.58,.44-.01,.88,.18,1.17,.51l21.95,25.15c.54,.62,.48,1.57-.14,2.12-.63,.55-1.57,.48-2.12-.14l-20.75-23.78-18.55,23.85c-.29,.38-.74,.58-1.18,.58Z"/>
    <path class="cls-3" d="M145.85,439.85c-.32,0-.65-.1-.92-.32-.65-.51-.77-1.45-.26-2.1l19.67-25.29c.27-.35,.69-.57,1.14-.58,.44-.01,.88,.18,1.17,.51l21.95,25.15c.54,.62,.48,1.57-.14,2.12-.63,.55-1.57,.48-2.12-.14l-20.75-23.78-18.55,23.85c-.29,.38-.74,.58-1.18,.58Z"/>
  </g>
  <g>
    <path class="cls-3" d="M604.53,833.22c-.32,0-.65-.1-.92-.32l-25.29-19.67c-.35-.28-.57-.69-.58-1.14s.17-.88,.51-1.17l25.15-21.95c.62-.55,1.57-.48,2.12,.14s.48,1.57-.14,2.12l-23.78,20.75,23.85,18.55c.65,.51,.77,1.45,.26,2.1-.29,.38-.74,.58-1.18,.58Z"/>
    <path class="cls-3" d="M591.89,833.22c-.32,0-.65-.1-.92-.32l-25.29-19.67c-.35-.28-.57-.69-.58-1.14s.17-.88,.51-1.17l25.15-21.95c.62-.55,1.57-.48,2.12,.14s.48,1.57-.14,2.12l-23.78,20.75,23.85,18.55c.65,.51,.77,1.45,.26,2.1-.29,.38-.74,.58-1.18,.58Z"/>
  </g>
</svg>