<svg width="322" height="240" viewBox="0 0 322 240" fill="none" xmlns="http://www.w3.org/2000/svg">
<path d="M79.137 190.757C79.2295 191.044 79.3304 191.34 79.4313 191.627C79.4229 191.652 79.4146 191.669 79.4229 191.694L79.137 190.757ZM79.4231 191.694L82.7711 202.748C81.7616 199.651 80.7436 196.563 79.7259 193.466C79.5407 192.892 79.3557 192.285 79.4231 191.694ZM127.5 210.941C126.507 212.957 124.312 214.037 122.242 214.898C114.78 217.978 106.932 219.995 99.1166 222.003C96.475 222.678 93.4971 223.311 91.1753 221.876C89.1647 220.636 88.2814 218.206 87.5327 215.961C86.2035 211.97 84.8744 207.971 83.5368 203.98C82.174 199.862 80.8028 195.744 79.4315 191.627C79.44 191.508 79.4653 191.39 79.5073 191.272C79.8101 190.412 80.7187 189.939 81.5431 189.56C90.5108 185.442 99.7728 181.966 109.237 179.181C111.163 178.616 113.325 178.093 115.092 179.038C115.916 179.477 116.539 180.169 117.052 180.962C117.431 181.535 117.759 182.16 118.062 182.776C121.376 189.459 124.329 196.327 126.911 203.33C127.82 205.794 128.661 208.595 127.5 210.941Z" fill="white"/>
<path d="M127.504 211.048C126.518 213.046 124.338 214.116 122.282 214.969C114.872 218.021 107.077 220.019 99.3152 222.009C96.6917 222.678 93.7342 223.305 91.4282 221.884C89.4314 220.655 88.5542 218.247 87.8106 216.023C86.4905 212.068 85.1705 208.104 83.842 204.15C87.9945 207.862 92.2889 211.608 97.4771 213.615C102.791 215.663 109.324 215.529 113.627 211.792C117.604 208.33 118.815 202.67 119.058 197.402C119.2 194.233 119.066 191.056 118.673 187.912C118.397 185.754 117.629 183.522 117.128 181.34C117.504 181.908 117.829 182.527 118.13 183.138C121.422 189.76 124.355 196.566 126.92 203.506C127.822 205.947 128.657 208.723 127.504 211.048Z" fill="#D8D8D8"/>
<path d="M241.649 234.413C237.162 239.336 229.593 239.687 222.879 239.678C199.792 239.662 185.45 239.637 162.355 239.612C159.332 239.612 156.267 239.603 153.338 238.844C150.409 238.085 147.59 236.474 146.023 233.921C144.381 231.235 144.322 227.93 144.305 224.793C144.296 220.98 144.279 217.167 144.262 213.353C144.229 204.884 144.195 214.238 144.161 205.769C144.152 204.05 144.144 202.339 144.144 200.62C144.127 198.101 144.118 195.581 144.11 193.061C144.101 191.108 144.203 189.114 144.169 187.178C144.127 185.193 143.847 183.399 144.415 181.429C144.965 179.519 146.133 177.733 147.844 176.657C149.791 175.43 152.212 175.238 154.523 175.113C164.116 174.596 173.725 174.704 183.317 175.013C191.741 175.288 200.063 175.697 208.487 175.647C217.097 175.589 216.953 175.539 225.563 175.48C231.032 175.447 237.153 175.656 241.005 179.494C244.332 182.806 244.916 187.779 245.052 192.518C245.069 193.061 245.077 193.595 245.086 194.129C245.28 207.93 245.475 203.9 245.67 217.7C245.755 223.566 245.619 230.041 241.649 234.413Z" fill="white"/>
<path d="M241.683 234.426C237.234 239.337 229.729 239.687 223.072 239.678C200.181 239.662 185.961 239.637 163.061 239.612C160.064 239.612 157.025 239.603 154.121 238.846C151.216 238.089 148.421 236.482 146.868 233.935C145.239 231.255 145.18 227.958 145.164 224.828C145.155 221.024 145.138 217.22 145.122 213.416C145.088 204.967 145.055 214.299 145.021 205.85C145.013 204.135 145.004 202.429 145.004 200.714C146.23 203.71 147.606 206.632 149.277 209.412C152.383 214.573 156.606 219.235 162.012 221.948C169.39 225.644 178.129 225.353 186.313 224.229C196.278 222.864 206.091 220.4 215.509 216.896C224.265 213.641 232.919 209.313 239.064 202.312C241.582 199.44 243.597 196.152 245.058 192.631C245.074 193.172 245.083 193.705 245.091 194.238C245.284 208.006 245.477 203.985 245.67 217.753C245.754 223.605 245.62 230.064 241.683 234.426Z" fill="#D8D8D8"/>
<path d="M244.744 186.986C244.234 184.161 243.226 181.524 241.196 179.504C237.335 175.663 231.209 175.452 225.722 175.486C217.099 175.54 217.239 175.594 208.617 175.648C200.172 175.701 191.835 175.29 183.393 175.016C173.781 174.704 164.153 174.595 154.547 175.113C152.23 175.238 149.804 175.434 147.848 176.664C146.14 177.739 144.969 179.526 144.415 181.446C144.03 182.778 144.035 184.032 144.09 185.32C144.13 186.252 144.913 186.986 145.859 186.986H244.744Z" fill="#01112D"/>
<path d="M257.918 62.4078V62.484L257.867 95.6145C257.194 119.947 254.931 152.046 249.058 157.979C240.905 166.211 228.302 167.234 216.742 167.226C176.987 167.183 137.225 167.149 97.4702 167.107C92.2538 167.107 86.9784 167.09 81.9302 165.755C76.8905 164.428 72.0358 161.597 69.3434 157.117C66.5081 152.401 66.4071 146.595 66.3818 141.101C66.3565 135.185 66.3398 129.261 66.3144 123.353C66.3144 122.575 66.306 121.806 66.306 121.029C66.2471 106.154 66.1966 71.8652 66.1377 56.9987C66.1039 49.561 66.0788 42.1236 66.0452 34.6947C66.0367 31.2633 66.205 27.7728 66.1461 24.3667C66.0788 20.8846 65.5909 17.7322 66.5668 14.2838C67.5175 10.9202 69.5369 7.79299 72.4648 5.90834C75.8302 3.7532 79.9949 3.40657 83.9829 3.18679C100.49 2.28244 117.032 2.47697 133.556 3.01772C148.061 3.49949 162.389 4.2178 176.903 4.12488C191.719 4.03196 206.535 3.93884 221.36 3.84592C230.783 3.78673 241.317 4.15013 247.947 10.8862C254.333 17.3601 256.815 26.6909 256.941 35.8103C256.975 38.3796 257.589 45.9691 257.918 62.4078Z" fill="white"/>
<path d="M119.76 63.6375C118.184 65.0999 115.7 65.4463 113.79 64.4743C111.881 63.5107 110.664 61.2795 110.872 59.124C111.081 56.9688 112.698 55.0246 114.758 54.4414L114.574 54.6442C115.083 54.4497 115.616 54.3315 116.158 54.3146C118.284 54.2469 120.36 55.6753 121.136 57.6869C121.911 59.6987 121.344 62.1752 119.76 63.6375ZM120.419 104.123L119.96 104.182C119.71 104.174 119.452 104.174 119.201 104.165C110.306 103.954 101.41 103.743 92.5055 103.531C89.9292 103.472 87.1029 103.32 85.1937 101.571C83.6847 100.184 83.1094 98.1729 82.901 96.0682V86.0526C86.3526 80.9306 89.846 75.7579 94.5063 71.388C96.3906 69.6215 98.7584 67.8973 101.543 67.9058C103.911 67.9143 106.062 69.2243 107.437 70.881C108.813 72.5377 109.547 74.5154 110.255 76.4595C113.64 85.6806 117.025 94.9018 120.419 104.123Z" fill="#01112D"/>
<path d="M156.295 86.8276C155.957 92.1997 154.857 97.6563 150.788 100.954C146.745 104.234 141.052 104.268 135.833 104.15C130.344 104.023 124.854 103.897 119.364 103.77L113.012 86.5575C117.089 79.077 122.358 72.0771 128.643 65.7943C130.513 63.922 132.78 61.9823 135.664 61.8475C138.515 61.7126 141.018 63.3824 143.023 65.1112C149.875 71.0064 154.561 78.681 156.295 86.8276Z" fill="#01112D"/>
<path d="M257.918 62.7809L257.867 95.8176C257.193 120.081 254.925 152.089 249.042 158.006C240.874 166.214 228.248 167.234 216.666 167.226C176.84 167.184 137.004 167.15 97.1775 167.108C91.9515 167.108 86.6665 167.091 81.6091 165.759C76.5602 164.436 71.6967 161.613 68.9994 157.146C66.1588 152.443 66.0577 146.654 66.0323 141.176C66.007 135.276 65.9902 129.368 65.9648 123.477C71.0222 130.102 78.3218 135.251 86.1522 138.285C99.0907 143.299 113.344 143.493 127.21 142.954C147.034 142.187 166.961 140.029 185.875 134.02C204.781 128.02 222.718 117.974 235.968 103.217C241.894 96.618 246.8 89.1427 250.719 81.2038C253.644 75.2708 256.013 69.1017 257.918 62.7809Z" fill="#D8D8D8"/>
<path d="M120.701 138.056C127.087 138.189 133.474 138.322 139.86 138.454C141.901 138.497 144.001 138.551 145.872 139.319C147.743 140.087 149.349 141.753 149.331 143.673C149.316 145.389 148.005 146.912 146.404 147.736C144.804 148.56 142.947 148.805 141.131 148.977C135.093 149.549 128.985 149.459 122.97 148.709C121.128 148.48 119.202 148.151 117.765 147.043C115.912 145.615 115.293 142.943 116.348 140.919C117.402 138.895 120.026 137.718 122.362 138.22M178.476 138.056C184.862 138.189 191.249 138.322 197.635 138.454C199.676 138.497 201.776 138.551 203.647 139.319C205.518 140.087 207.124 141.753 207.106 143.673C207.09 145.389 205.78 146.912 204.179 147.736C202.578 148.56 200.721 148.805 198.906 148.977C192.868 149.549 186.76 149.459 180.744 148.709C178.903 148.48 176.977 148.151 175.54 147.043C173.686 145.615 173.068 142.943 174.123 140.919C175.178 138.895 177.801 137.718 180.137 138.22" fill="white"/>
<path d="M243.025 63.4694C240.982 67.0448 237.69 69.741 234.393 72.2462C237.622 72.9688 242.333 75.7795 244.905 77.8359C246.499 73.0003 247.541 67.175 251.083 63.4793C251.719 62.8167 252.435 62.0088 252.237 61.1181C252.137 60.6673 251.814 60.3014 251.502 59.957C249.474 57.7146 247.095 53.9415 244.522 52.4304C243.723 53.2346 244.896 56.5224 244.803 57.7792C244.652 59.8258 243.946 61.6537 243.025 63.4694Z" fill="#D8D8D8"/>
<path d="M254.154 22.3201C253.166 18.1126 251.471 14.2308 248.514 11.147C241.858 4.20491 231.298 3.82242 221.838 3.8845C206.974 3.98221 192.11 4.07991 177.246 4.17741C162.688 4.27303 148.317 3.52952 133.762 3.03474C117.193 2.47143 100.596 2.27435 84.0359 3.21057C80.0408 3.4364 75.8591 3.79034 72.487 6.01423C69.5434 7.95541 67.5241 11.1857 66.569 14.6552C65.8432 17.2922 65.9245 19.7569 66.0415 22.3199L254.154 22.3201Z" fill="#01112D"/>
<path d="M213.791 197.753C213.791 196.882 216.929 196.176 220.8 196.176C224.671 196.176 227.809 196.882 227.809 197.753C227.809 198.624 224.671 199.33 220.8 199.33C216.929 199.33 213.791 198.624 213.791 197.753ZM205.332 197.753C205.332 196.882 206.036 196.176 206.903 196.176C207.771 196.176 208.474 196.882 208.474 197.753C208.474 198.624 207.771 199.33 206.903 199.33C206.036 199.33 205.332 198.624 205.332 197.753ZM190.831 197.753C190.831 196.882 193.212 196.176 196.148 196.176C199.085 196.176 201.465 196.882 201.465 197.753C201.465 198.624 199.085 199.33 196.148 199.33C193.212 199.33 190.831 198.624 190.831 197.753ZM157.238 197.031C157.238 196.16 163.838 195.454 171.98 195.454C180.122 195.454 186.723 196.16 186.723 197.031C186.723 197.902 180.122 198.608 171.98 198.608C163.838 198.608 157.238 197.902 157.238 197.031ZM171.255 207.75C171.255 208.621 168.117 209.327 164.246 209.327C160.376 209.327 157.238 208.621 157.238 207.75C157.238 206.879 160.376 206.173 164.246 206.173C168.117 206.173 171.255 206.879 171.255 207.75ZM179.714 207.75C179.714 208.621 179.011 209.327 178.143 209.327C177.275 209.327 176.572 208.621 176.572 207.75C176.572 206.879 177.275 206.173 178.143 206.173C179.011 206.173 179.714 206.879 179.714 207.75ZM194.215 207.75C194.215 208.621 191.834 209.327 188.898 209.327C185.961 209.327 183.581 208.621 183.581 207.75C183.581 206.879 185.961 206.173 188.898 206.173C191.834 206.173 194.215 206.879 194.215 207.75ZM208.474 207.991C208.474 208.862 206.202 209.568 203.399 209.568C200.596 209.568 198.324 208.862 198.324 207.991C198.324 207.12 200.596 206.414 203.399 206.414C206.202 206.414 208.474 207.12 208.474 207.991Z" fill="#0D0D0D"/>
<path d="M220.75 219.919C224.647 219.919 227.807 219.287 227.807 218.507C227.807 217.728 224.647 217.096 220.75 217.096C216.852 217.096 213.693 217.728 213.693 218.507C213.693 219.287 216.852 219.919 220.75 219.919Z" fill="#0D0D0D"/>
<path d="M204.933 218.387C204.933 217.541 205.63 216.856 206.491 216.856C207.351 216.856 208.049 217.541 208.049 218.387C208.049 219.233 207.351 219.919 206.491 219.919C205.63 219.919 204.933 219.233 204.933 218.387ZM190.552 218.387C190.552 217.541 192.913 216.856 195.825 216.856C198.737 216.856 201.098 217.541 201.098 218.387C201.098 219.233 198.737 219.919 195.825 219.919C192.913 219.919 190.552 219.233 190.552 218.387ZM157.238 217.686C157.238 216.84 163.783 216.155 171.858 216.155C179.932 216.155 186.478 216.84 186.478 217.686C186.478 218.532 179.932 219.218 171.858 219.218C163.783 219.218 157.238 218.532 157.238 217.686Z" fill="#0D0D0D"/>
<path d="M164.295 230.269C168.192 230.269 171.352 229.637 171.352 228.858C171.352 228.078 168.192 227.446 164.295 227.446C160.397 227.446 157.238 228.078 157.238 228.858C157.238 229.637 160.397 230.269 164.295 230.269Z" fill="#0D0D0D"/>
<path d="M179.799 228.452C179.799 229.322 179.097 230.028 178.232 230.028C177.367 230.028 176.665 229.322 176.665 228.452C176.665 227.581 177.367 226.875 178.232 226.875C179.097 226.875 179.799 227.581 179.799 228.452ZM194.261 228.452C194.261 229.322 191.887 230.028 188.959 230.028C186.03 230.028 183.656 229.322 183.656 228.452C183.656 227.581 186.03 226.875 188.959 226.875C191.887 226.875 194.261 227.581 194.261 228.452ZM218.762 228.692C218.762 229.563 214.195 230.269 208.561 230.269C202.926 230.269 198.359 229.563 198.359 228.692C198.359 227.821 202.926 227.115 208.561 227.115C214.195 227.115 218.762 227.821 218.762 228.692ZM244.682 186.707C244.682 186.925 241.698 187.132 236.303 187.321C230.907 187.51 223.1 187.68 213.452 187.822C203.805 187.965 192.317 188.08 179.56 188.16C173.182 188.19 166.487 188.22 159.546 188.252C156.076 188.26 152.544 188.268 148.96 188.276L147.613 188.278L146.938 188.279C146.688 188.271 146.579 188.3 146.066 188.251C145.213 188.148 144.412 187.699 143.878 187.029C143.61 186.695 143.406 186.305 143.284 185.891C143.222 185.684 143.181 185.47 143.164 185.257L143.151 185.097L143.147 185.009L143.14 184.833C143.105 183.89 143.106 182.855 143.285 181.794C143.466 180.722 143.811 179.71 144.294 178.749C144.78 177.789 145.414 176.89 146.204 176.116C146.988 175.339 147.965 174.713 148.958 174.294C150.969 173.458 152.97 173.324 154.785 173.213C158.396 173.02 161.945 172.918 165.436 172.884C172.414 172.818 179.133 173.012 185.517 173.274C191.899 173.539 197.94 173.843 203.587 173.974C209.225 174.102 214.512 174.061 219.336 174.082C221.751 174.101 224.052 174.119 226.228 174.137C228.416 174.167 230.512 174.261 232.468 174.554C236.377 175.064 239.75 176.648 241.65 178.809C243.578 180.951 244.183 183.129 244.501 184.513C244.793 185.931 244.779 186.69 244.682 186.707C244.565 186.729 244.366 186.003 243.89 184.69C243.394 183.406 242.616 181.44 240.77 179.667C238.946 177.879 235.948 176.635 232.247 176.304C230.4 176.109 228.389 176.095 226.234 176.143C224.064 176.197 221.771 176.253 219.362 176.312C214.54 176.434 209.259 176.604 203.552 176.589C197.854 176.571 191.782 176.363 185.416 176.179C179.051 175.997 172.379 175.867 165.476 175.974C162.026 176.028 158.513 176.145 154.966 176.346C153.22 176.447 151.552 176.614 150.192 177.193C148.852 177.745 147.813 178.795 147.117 180.169C146.401 181.569 146.209 182.981 146.295 184.72L146.302 184.884L146.305 184.965L146.307 184.975C146.307 184.987 146.309 184.998 146.313 185.007C146.319 185.026 146.328 185.045 146.342 185.063C146.372 185.101 146.416 185.127 146.46 185.132C147.297 185.134 148.13 185.136 148.96 185.139C152.545 185.147 156.076 185.155 159.547 185.163C166.488 185.194 173.183 185.225 179.561 185.254C192.317 185.334 203.805 185.45 213.453 185.592C223.1 185.735 230.908 185.905 236.303 186.093C241.698 186.282 244.682 186.49 244.682 186.707Z" fill="#0D0D0D"/>
<path d="M87.2235 16.9914C90.1163 14.9496 89.8192 11.32 88.5136 9.82708C87.208 8.33417 84.8967 7.79084 83.046 8.54176C81.1953 9.29268 79.9455 11.2808 80.0892 13.2452C80.2332 15.2095 81.76 17.0008 83.7009 17.4827C85.6419 17.9646 87.8502 17.1011 88.9246 15.4393M103.231 16.9914C106.123 14.9496 105.826 11.32 104.521 9.82708C103.215 8.33417 100.904 7.79084 99.053 8.54176C97.2023 9.29268 95.9524 11.2808 96.0962 13.2452C96.2402 15.2095 97.7669 17.0008 99.7079 17.4827C101.649 17.9646 103.857 17.1011 104.932 15.4393M119.238 16.9914C122.13 14.9496 121.833 11.32 120.528 9.82708C119.222 8.33417 116.911 7.79084 115.06 8.54176C113.209 9.29268 111.96 11.2808 112.103 13.2452C112.247 15.2095 113.774 17.0008 115.715 17.4827C117.656 17.9646 119.864 17.1011 120.939 15.4393" fill="white"/>
<path d="M258.499 95.6147C258.652 95.6189 258.753 97.8407 258.742 102.07C258.722 106.299 258.608 112.537 258.15 120.565C257.919 124.579 257.597 129.04 257.089 133.918C256.553 138.794 255.915 144.093 254.562 149.749C254.222 151.162 253.804 152.596 253.285 154.048C252.741 155.495 252.148 156.978 250.976 158.41C250.67 158.798 250.378 159.048 250.084 159.326L249.195 160.16C248.587 160.702 247.92 161.184 247.275 161.703C246.59 162.163 245.903 162.635 245.188 163.071C244.452 163.463 243.736 163.92 242.965 164.263C239.919 165.741 236.591 166.753 233.147 167.428C229.699 168.101 226.131 168.42 222.499 168.584C218.852 168.748 215.182 168.704 211.437 168.74C207.685 168.76 203.852 168.78 199.94 168.801C192.115 168.835 183.976 168.871 175.548 168.908C158.691 168.957 140.679 169.01 121.726 169.065C116.987 169.074 112.19 169.083 107.337 169.092C104.911 169.096 102.47 169.1 100.016 169.103C97.5665 169.102 95.0939 169.129 92.5531 169.061C90.0172 168.99 87.4231 168.82 84.8073 168.377C82.2005 167.939 79.5439 167.208 77.0415 166.045C74.5414 164.889 72.1508 163.315 70.1555 161.22C68.1443 159.143 66.6556 156.465 65.8366 153.736C64.9921 150.995 64.696 148.216 64.5689 145.523C64.4486 142.815 64.4821 140.214 64.4579 137.592C64.4327 132.344 64.4073 127.053 64.3819 121.724C64.3491 111.065 64.3155 100.251 64.2816 89.3064C64.2559 78.3615 64.2305 67.5462 64.2053 56.8869C64.1894 51.5573 64.1737 46.2667 64.158 41.0185C64.1553 38.3837 64.1527 35.7598 64.1501 33.1466C64.1811 30.5061 64.2772 27.9286 64.2609 25.4135C64.2806 22.9585 63.9513 20.4094 64.1429 17.5396C64.2412 16.124 64.5092 14.6484 64.9566 13.276C65.3997 11.9072 65.9901 10.5858 66.7444 9.34979C68.2245 6.88491 70.4486 4.71674 73.1089 3.4455C75.7467 2.17365 78.4996 1.71168 81.0777 1.46356C83.6739 1.2366 86.1052 1.15941 88.5811 1.04553C91.0459 0.939303 93.4976 0.868152 95.9352 0.808288C100.81 0.690577 105.628 0.661349 110.383 0.687148C129.41 0.763136 147.423 1.90961 164.219 2.34478C168.419 2.45241 172.546 2.51731 176.594 2.52175C180.659 2.51953 184.649 2.51752 188.56 2.5153C196.385 2.51631 203.895 2.51711 211.062 2.51792C214.646 2.52195 218.144 2.52578 221.554 2.52961C224.976 2.53888 228.351 2.5804 231.645 2.91963C234.935 3.24615 238.157 3.84277 241.16 4.95679C244.169 6.02365 246.911 7.71393 249.09 9.83636C251.252 11.9294 252.884 14.3253 254.182 16.7481C255.473 19.1789 256.388 21.6629 257.024 24.0889C257.664 26.5157 258.046 28.8832 258.259 31.1451C258.367 32.2765 258.425 33.3824 258.458 34.4595C258.476 35.5167 258.494 36.5465 258.511 37.548C258.806 45.5593 258.886 51.811 258.851 56.0353C258.819 60.2643 258.701 62.4851 258.549 62.4881C258.389 62.4913 258.203 60.2762 257.941 56.0607C257.681 51.8407 257.32 45.6403 256.755 37.6295C256.723 37.1254 256.691 36.616 256.672 36.0813C256.649 35.5736 256.625 35.059 256.601 34.5373C256.536 33.5001 256.448 32.4383 256.312 31.3563C256.043 29.1932 255.615 26.9456 254.95 24.668C254.29 22.3903 253.371 20.0875 252.125 17.8683C250.876 15.6616 249.319 13.4894 247.341 11.6603C245.399 9.85349 242.991 8.41637 240.248 7.5029C237.522 6.54791 234.518 6.03816 231.382 5.78258C228.245 5.5133 224.968 5.52378 221.573 5.56832C218.164 5.61549 214.666 5.66387 211.082 5.71365C203.915 5.80576 196.406 5.90232 188.582 6.00269C184.669 6.04865 180.676 6.09561 176.609 6.14338C172.524 6.18248 168.366 6.1591 164.14 6.09158C147.23 5.81504 129.262 4.81188 110.372 4.85158C105.651 4.85461 100.873 4.91043 96.0452 5.05233C93.6313 5.12429 91.2042 5.20673 88.7664 5.32363C86.3409 5.44558 83.8378 5.54272 81.4923 5.76001C79.1487 5.98999 76.9069 6.42395 75.0164 7.35214C73.1458 8.26117 71.6112 9.7503 70.4848 11.6192C69.9222 12.5469 69.4731 13.5606 69.1361 14.6131C68.8001 15.6637 68.6114 16.715 68.5326 17.8502C68.3725 20.0925 68.6831 22.6737 68.6855 25.3781C68.7095 28.0237 68.6186 30.6275 68.5959 33.1917C68.6047 35.7838 68.6136 38.3867 68.6225 41.0004C68.6476 46.2486 68.673 51.5391 68.6984 56.8688C68.7312 67.5281 68.7645 78.3434 68.7981 89.2883C68.8241 100.232 68.8497 111.047 68.8751 121.706C68.891 127.035 68.9067 132.326 68.9224 137.574C68.9778 142.841 68.7171 148.011 70.0671 152.437C70.7354 154.645 71.8104 156.576 73.3478 158.188C74.8758 159.806 76.7959 161.101 78.8807 162.073C83.0587 164.039 87.8566 164.594 92.6816 164.745C95.0999 164.821 97.5629 164.808 100.02 164.82C102.474 164.829 104.914 164.837 107.341 164.846C112.194 164.864 116.991 164.882 121.729 164.9C159.613 165.084 193.73 165.25 222.383 165.39C225.91 165.281 229.335 165.022 232.592 164.439C235.846 163.854 238.936 162.962 241.727 161.668C242.438 161.368 243.083 160.965 243.759 160.625C244.409 160.243 245.032 159.829 245.657 159.429C246.239 158.972 246.848 158.554 247.4 158.079L248.209 157.348C248.478 157.106 248.767 156.858 248.929 156.642C249.72 155.736 250.338 154.419 250.838 153.124C251.336 151.812 251.761 150.468 252.116 149.119C253.532 143.714 254.296 138.47 254.951 133.664C255.581 128.846 256.032 124.42 256.396 120.434C257.122 112.46 257.519 106.246 257.832 102.035C258.137 97.8238 258.34 95.6104 258.499 95.6147Z" fill="#0D0D0D"/>
<path d="M254.106 21.9509C254.106 22.2623 248.542 22.5589 238.48 22.8288C228.418 23.0984 213.858 23.3416 195.867 23.5455C177.876 23.7496 156.453 23.9147 132.664 24.0287C120.77 24.0706 108.285 24.1146 95.341 24.16C88.8691 24.1713 82.2829 24.1826 75.5987 24.1942C73.9276 24.1959 72.2505 24.1977 70.5675 24.1993C69.7258 24.1999 68.883 24.2007 68.0386 24.2013L65.8663 24.2021L63.3533 24.177C63.2505 23.4067 63.2574 22.5243 63.2052 21.7038L63.1577 20.4509L63.1419 19.4394C63.1387 18.532 63.1809 17.5898 63.2926 16.6358C63.4115 15.683 63.5966 14.7113 63.8807 13.7749C64.1542 12.8493 64.4985 11.9421 64.9151 11.0625C65.7482 9.30525 66.8671 7.65842 68.2892 6.25775C69.6979 4.84762 71.4697 3.73292 73.2773 3.0172C76.9352 1.5757 80.5878 1.42426 83.9223 1.23804C90.6375 0.892546 97.2576 0.723025 103.757 0.687832C116.756 0.609805 129.277 1.0307 141.167 1.52722C153.056 2.02435 164.32 2.51122 174.852 2.57376C185.427 2.60835 195.278 2.64073 204.272 2.67029C208.77 2.69804 213.054 2.72439 217.106 2.74932C221.149 2.78854 224.992 2.76582 228.623 3.00674C232.244 3.2555 235.645 3.71642 238.684 4.62439C241.718 5.51608 244.402 6.77761 246.491 8.37677C248.595 9.95441 250.137 11.7446 251.193 13.4351C252.264 15.1231 252.898 16.6837 253.327 17.9538C254.153 20.5119 254.231 21.9226 254.106 21.9509C253.929 21.9978 253.546 20.6518 252.475 18.2871C251.927 17.114 251.191 15.688 250.078 14.1898C248.977 12.6866 247.461 11.1423 245.467 9.8068C243.486 8.45217 240.979 7.41349 238.116 6.69897C235.252 5.97018 232.004 5.6478 228.497 5.52513C224.987 5.4093 221.184 5.54504 217.124 5.61784C213.072 5.69406 208.789 5.7745 204.291 5.85916C195.293 5.99792 185.437 6.15017 174.856 6.31346C164.228 6.41301 152.896 6.06248 141.013 5.67998C129.132 5.29789 116.684 4.96868 103.793 5.10604C97.3493 5.17079 90.7975 5.36164 84.1623 5.71819C80.8554 5.88993 77.6524 6.11236 74.9761 7.19227C73.6408 7.73143 72.4841 8.46183 71.4819 9.45849C70.4783 10.4463 69.646 11.6579 69.0175 12.9852C68.7032 13.6491 68.4405 14.3402 68.232 15.0463C68.0204 15.7387 67.8879 16.4422 67.7947 17.171C67.7097 17.9016 67.6719 18.6533 67.6743 19.436L67.6747 19.6968L67.6741 19.6988C70.3338 19.7016 72.9758 19.7046 75.5987 19.7075C82.2829 19.7189 88.8691 19.7304 95.341 19.7416C108.285 19.7873 120.77 19.8311 132.664 19.873C156.453 19.987 177.876 20.1523 195.867 20.3562C213.858 20.5603 228.418 20.8033 238.48 21.0729C248.542 21.343 254.106 21.6394 254.106 21.9509Z" fill="#0D0D0D"/>
<path d="M89.4904 15.3041C89.556 15.3398 89.4352 15.8221 88.8499 16.4604C88.2796 17.0831 87.183 17.8722 85.5844 17.9995C84.7967 18.0678 83.8856 17.9154 83.0354 17.4831C82.1911 17.046 81.4062 16.3457 80.8471 15.4178C80.2876 14.5006 79.9662 13.3125 80.1138 12.1096C80.2524 10.9152 80.7959 9.74924 81.6676 8.84078C82.536 7.9305 83.7467 7.36756 84.9249 7.28346C86.1035 7.18599 87.2395 7.48062 88.1666 8.02959C88.6307 8.30437 89.0435 8.64503 89.3866 9.03127C89.735 9.42278 90.013 9.89433 90.1701 10.3428C90.5073 11.25 90.5609 12.1427 90.4835 12.9305C90.3141 14.527 89.5386 15.6365 88.9307 16.2152C88.2952 16.7934 87.8459 16.9484 87.8059 16.8876C87.7391 16.797 88.0786 16.4912 88.5378 15.8646C88.9757 15.234 89.505 14.2123 89.5344 12.8655C89.5448 12.2024 89.4418 11.46 89.1385 10.773C88.9893 10.42 88.7897 10.1282 88.524 9.85137C88.2502 9.57071 87.9243 9.32306 87.5585 9.12407C86.1045 8.30356 83.9508 8.36922 82.6282 9.79523C81.9653 10.4852 81.5392 11.3833 81.4218 12.274C81.2976 13.1634 81.5054 14.0441 81.9159 14.7815C82.3249 15.5201 82.9206 16.105 83.5633 16.4872C84.2118 16.8624 84.9023 17.0349 85.5522 17.0357C86.865 17.0487 87.8933 16.5078 88.5022 16.063C89.1279 15.6117 89.3996 15.2429 89.4904 15.3041ZM105.341 15.3041C105.406 15.3398 105.285 15.8221 104.7 16.4604C104.13 17.0831 103.033 17.8722 101.435 17.9995C100.647 18.0678 99.7357 17.9154 98.8857 17.4831C98.0414 17.046 97.2565 16.3457 96.6974 15.4178C96.1379 14.5006 95.8165 13.3125 95.9641 12.1096C96.1027 10.9152 96.6462 9.74924 97.5179 8.84078C98.3861 7.9305 99.5969 7.36756 100.775 7.28346C101.954 7.18599 103.09 7.48062 104.017 8.02959C104.481 8.30437 104.894 8.64503 105.237 9.03127C105.585 9.42278 105.863 9.89433 106.02 10.3428C106.358 11.25 106.411 12.1427 106.334 12.9305C106.164 14.527 105.389 15.6365 104.781 16.2152C104.145 16.7934 103.696 16.9484 103.656 16.8876C103.589 16.797 103.929 16.4912 104.388 15.8646C104.826 15.234 105.355 14.2123 105.384 12.8655C105.395 12.2024 105.292 11.46 104.989 10.773C104.839 10.42 104.64 10.1282 104.374 9.85137C104.1 9.57071 103.774 9.32306 103.409 9.12407C101.955 8.30356 99.8009 8.36922 98.4783 9.79523C97.8154 10.4852 97.3893 11.3833 97.2719 12.274C97.1477 13.1634 97.3555 14.0441 97.766 14.7815C98.1748 15.5201 98.7707 16.105 99.4134 16.4872C100.062 16.8624 100.752 17.0349 101.402 17.0357C102.715 17.0487 103.743 16.5078 104.352 16.063C104.978 15.6117 105.25 15.2429 105.341 15.3041ZM121.191 15.3041C121.256 15.3398 121.135 15.8221 120.55 16.4604C119.98 17.0831 118.883 17.8722 117.285 17.9995C116.497 18.0678 115.586 17.9154 114.736 17.4831C113.892 17.046 113.107 16.3457 112.548 15.4178C111.988 14.5006 111.667 13.3125 111.814 12.1096C111.953 10.9152 112.496 9.74924 113.368 8.84078C114.237 7.9305 115.447 7.36756 116.625 7.28346C117.804 7.18599 118.94 7.48062 119.867 8.02959C120.331 8.30437 120.744 8.64503 121.087 9.03127C121.435 9.42278 121.714 9.89433 121.871 10.3428C122.208 11.25 122.261 12.1427 122.184 12.9305C122.014 14.527 121.239 15.6365 120.631 16.2152C119.996 16.7934 119.546 16.9484 119.506 16.8876C119.44 16.797 119.779 16.4912 120.238 15.8646C120.676 15.234 121.206 14.2123 121.235 12.8655C121.245 12.2024 121.142 11.46 120.839 10.773C120.69 10.42 120.49 10.1282 120.225 9.85137C119.951 9.57071 119.625 9.32306 119.259 9.12407C117.805 8.30356 115.652 8.36922 114.329 9.79523C113.666 10.4852 113.24 11.3833 113.123 12.274C112.998 13.1634 113.206 14.0441 113.617 14.7815C114.025 15.5201 114.621 16.105 115.264 16.4872C115.913 16.8624 116.603 17.0349 117.253 17.0357C118.566 17.0487 119.594 16.5078 120.203 16.063C120.828 15.6117 121.1 15.2429 121.191 15.3041ZM83.5967 73.5572C83.3801 73.5603 83.1199 69.7092 82.8352 62.7425C82.7136 59.2578 82.5648 54.9958 82.3921 50.0479C82.3749 49.4418 82.3409 48.7738 82.4023 48.0555C82.4682 47.3452 82.6124 46.5314 83.1277 45.7638C83.3845 45.3863 83.7327 45.0505 84.1328 44.8063C84.5329 44.5686 84.9613 44.4194 85.3664 44.3378C86.1831 44.1688 86.9322 44.2046 87.6077 44.1977C90.3779 44.1965 93.3061 44.1955 96.3806 44.1943C108.679 44.2038 123.323 44.2699 139.582 44.3923C141.605 44.4204 143.673 44.3769 145.859 44.5501C148.022 44.7396 150.315 45.1139 152.508 46.2416C153.596 46.8056 154.636 47.5862 155.476 48.5708C156.328 49.5449 156.959 50.719 157.355 51.9148C158.163 54.3265 158.19 56.7461 158.173 59.0254C158.084 63.5112 157.994 68.0763 157.901 72.7094C157.853 75.024 157.804 77.3554 157.755 79.7024C157.73 80.8759 157.705 82.0533 157.68 83.2343C157.636 84.4348 157.592 85.6391 157.548 86.8469C157.413 89.2731 157.147 91.7397 156.494 94.1688C155.848 96.5853 154.781 99.0061 153.057 100.985C151.341 102.965 149.007 104.329 146.652 105.047C144.284 105.783 141.911 105.979 139.629 106.049C137.337 106.101 135.145 106.004 132.977 105.955C130.805 105.897 128.654 105.839 126.525 105.782C122.27 105.664 118.104 105.548 114.04 105.435C109.977 105.315 106.016 105.199 102.167 105.086C100.242 105.027 98.3455 104.97 96.4786 104.913C94.5955 104.844 92.8139 104.824 90.9174 104.713C89.0489 104.578 86.9896 104.262 85.2154 103.029C84.339 102.419 83.6157 101.596 83.1118 100.701C82.607 99.8052 82.2899 98.8598 82.0963 97.9406C81.8985 97.0164 81.7999 96.1156 81.7929 95.259C81.7659 94.3964 81.7262 93.5292 81.7152 92.6976C81.7294 91.0669 81.7431 89.4719 81.7565 87.9142C81.8709 75.4514 82.0177 65.3656 82.1901 58.3954C82.3625 51.4253 82.5602 47.5705 82.777 47.5699C82.9938 47.5693 83.2087 51.4232 83.4119 58.393C83.6151 65.3627 83.8067 75.4483 83.9762 87.9116C83.9966 89.4695 84.0174 91.0645 84.0388 92.6952C84.0786 93.4798 84.1188 94.2732 84.1596 95.0748C84.1794 95.885 84.2858 96.6621 84.4584 97.3971C84.7959 98.8776 85.4872 100.17 86.6342 100.924C87.7753 101.703 89.3698 101.995 91.0792 102.08C98.2953 102.213 106.005 102.355 114.119 102.505C118.183 102.583 122.348 102.663 126.603 102.745C128.73 102.788 130.878 102.831 133.048 102.875C135.222 102.912 137.414 102.994 139.546 102.934C141.676 102.861 143.795 102.659 145.737 102.042C147.678 101.434 149.404 100.398 150.718 98.889C152.027 97.3783 152.909 95.44 153.469 93.338C154.034 91.2313 154.288 88.971 154.415 86.6564C154.458 85.4887 154.501 84.3246 154.543 83.164C154.569 81.983 154.595 80.8056 154.621 79.6321C154.675 77.2851 154.727 74.9537 154.78 72.6393C154.888 68.0141 154.994 63.4566 155.099 58.9784C155.136 56.7957 155.074 54.688 154.478 52.9098C153.909 51.1257 152.735 49.7848 151.128 48.9386C149.52 48.0875 147.575 47.7094 145.609 47.528C143.643 47.3521 141.589 47.3705 139.549 47.3237C123.289 47.0404 108.646 46.7413 96.35 46.4438C93.2763 46.3658 90.3489 46.2917 87.5793 46.2215C86.8732 46.2029 86.2455 46.1719 85.7372 46.2659C85.2206 46.3567 84.9013 46.5409 84.6609 46.8643C84.4186 47.1859 84.2738 47.6897 84.2104 48.2431C84.1434 48.7998 84.1492 49.3939 84.1474 50.0244C84.1122 54.975 84.082 59.2392 84.0574 62.7259C83.9662 69.6975 83.8135 73.5542 83.5967 73.5572Z" fill="#0D0D0D"/>
<path d="M120.446 104.178C120.031 104.33 118.281 100.825 115.786 95.0366C114.538 92.1422 113.105 88.6768 111.559 84.8115C110.796 82.875 109.996 80.8425 109.166 78.7356C108.315 76.6124 107.618 74.4045 106.428 72.7281C105.29 71.0583 103.513 69.9226 101.753 69.6762C100.001 69.4236 98.2164 70.1131 96.6549 71.1934C95.0995 72.2658 93.6683 73.6528 92.3728 74.9024C91.0827 76.178 89.9364 77.4348 88.9066 78.6043C86.8512 80.9485 85.255 82.9406 84.0828 84.2716C82.9156 85.6078 82.1879 86.2963 82.0046 86.1723C81.8229 86.0495 82.2006 85.1292 83.0565 83.5724C83.9185 82.0194 85.2419 79.8147 87.1277 77.2198C88.0732 75.9251 89.1612 74.5336 90.4322 73.112C91.072 72.4052 91.745 71.6804 92.4786 70.9687C93.1964 70.2524 94.0082 69.5125 94.928 68.8311C95.8513 68.1514 96.905 67.519 98.1296 67.081C99.3512 66.6489 100.75 66.4299 102.155 66.6054C104.96 66.9501 107.48 68.6323 109.061 70.9258C109.856 72.053 110.416 73.2439 110.877 74.3793C111.337 75.5239 111.713 76.5907 112.108 77.6551C112.878 79.7843 113.62 81.8382 114.327 83.7953C115.72 87.7163 116.934 91.2624 117.91 94.2567C119.861 100.245 120.861 104.026 120.446 104.178Z" fill="#0D0D0D"/>
<path d="M155.958 88.1842C155.457 88.289 154.67 84.4386 151.729 79.066C150.243 76.4004 148.215 73.3668 145.47 70.4328C144.112 68.9693 142.553 67.5001 140.901 66.1478C139.265 64.843 137.41 63.8013 135.564 63.7942C133.723 63.7532 131.964 64.8005 130.4 66.192C129.617 66.8748 128.852 67.6683 128.089 68.4228C127.339 69.186 126.612 69.9411 125.912 70.6869C123.121 73.6781 120.767 76.5246 118.867 78.9814C115.072 83.9 112.999 87.1954 112.585 86.9697C112.228 86.7855 113.618 83.0754 117.037 77.6903C118.747 75.0049 120.986 71.9265 123.744 68.7328C124.435 67.9363 125.158 67.1325 125.91 66.3235C126.671 65.5276 127.427 64.7004 128.331 63.8774C129.225 63.0619 130.244 62.2652 131.457 61.6375C132.67 61.021 134.113 60.5958 135.595 60.6241C137.075 60.6395 138.48 61.0517 139.673 61.6408C140.879 62.2254 141.915 62.9648 142.847 63.7298C144.665 65.2731 146.239 66.8524 147.646 68.4878C150.46 71.7401 152.428 75.1182 153.735 78.0724C155.044 81.036 155.666 83.5936 155.947 85.3647C156.229 87.1411 156.15 88.1503 155.958 88.1842ZM111.114 58.1156C110.923 58.0767 110.778 57.4363 111.218 56.3924C111.651 55.3915 112.759 53.9467 114.873 53.3623C116.984 52.7697 119.907 53.5717 121.62 56.0289C123.393 58.5139 123.165 62.4777 120.525 64.9021C117.848 67.2828 113.878 67.0893 111.599 65.071C109.336 63.1156 108.836 60.1618 109.55 58.1229C110.261 56.0747 111.708 55.0296 112.707 54.6128C113.744 54.1905 114.378 54.3187 114.422 54.5112C114.485 54.7364 114.002 55.028 113.368 55.6544C112.748 56.2641 111.935 57.3018 111.716 58.6906C111.615 59.3706 111.678 60.11 111.965 60.8527C112.247 61.5887 112.76 62.3072 113.439 62.8042C114.108 63.2978 114.942 63.5686 115.87 63.5309C116.787 63.502 117.733 63.1532 118.407 62.5457C119.077 61.9393 119.525 61.0355 119.646 60.1249C119.78 59.205 119.6 58.3388 119.179 57.6293C118.756 56.9061 118.096 56.3273 117.397 55.9814C116.694 55.632 115.968 55.5052 115.3 55.5633C113.922 55.6859 112.859 56.4651 112.25 57.0677C111.622 57.6857 111.341 58.1748 111.114 58.1156ZM172.184 73.777C171.747 73.7831 171.292 69.5656 170.91 62.742C170.718 59.3302 170.546 55.2669 170.402 50.7542C170.402 49.6703 170.194 48.398 170.717 46.7781C170.976 45.98 171.617 45.0795 172.496 44.6021C173.366 44.1172 174.222 44.0188 174.935 43.9782C175.67 43.9465 176.246 43.9708 176.878 43.9708C177.502 43.9768 178.13 43.9827 178.764 43.9887C180.03 44.0049 181.316 44.0213 182.616 44.038C203.429 44.3482 220.291 45.3095 220.279 46.1848C220.268 47.0601 203.388 47.5183 182.577 47.2081C180.006 47.1647 177.495 47.1223 175.07 47.0813C174.565 47.0938 174.183 47.1768 173.992 47.283C173.806 47.3858 173.684 47.5025 173.557 47.818C173.297 48.4554 173.321 49.5576 173.319 50.7134C173.302 55.2283 173.243 59.2951 173.148 62.7107C172.957 69.5422 172.621 73.7709 172.184 73.777Z" fill="#0D0D0D"/>
<path d="M229.949 51.6759C230.167 51.6808 230.333 53.8717 230.446 57.8294C230.56 61.7873 230.622 67.5119 230.63 74.5843C230.618 78.1351 230.663 81.9613 230.566 86.1842C230.482 88.2998 230.34 90.5161 229.872 92.8048C229.418 95.0826 228.636 97.4681 227.183 99.6372C226.459 100.721 225.535 101.698 224.498 102.555C223.448 103.402 222.253 104.08 221.003 104.58C218.489 105.58 215.82 105.914 213.208 106.023C210.576 106.124 208.006 106.014 205.389 105.959C202.77 105.891 200.106 105.799 197.413 105.665C192.038 105.361 186.86 105.147 181.798 105.017C180.525 104.981 179.192 104.936 177.824 104.691C176.467 104.447 175.018 103.981 173.786 103.037C172.557 102.1 171.678 100.765 171.22 99.4432C170.735 98.1155 170.562 96.8049 170.474 95.5627C170.388 94.3192 170.411 93.1211 170.417 91.9954C170.427 90.8566 170.436 89.7332 170.444 88.6259C170.466 86.4114 170.488 84.2615 170.508 82.1825C170.568 78.0254 170.623 74.1527 170.674 70.6167C170.8 63.5456 170.957 57.8231 171.136 53.8682C171.316 49.9134 171.518 47.7263 171.736 47.7257C171.954 47.7251 172.166 49.9114 172.364 53.8652C172.562 57.8191 172.746 63.5409 172.905 70.6113C172.973 74.1471 173.046 78.0193 173.125 82.1762C173.156 84.255 173.187 86.4047 173.219 88.6192C173.233 89.7265 173.248 90.8499 173.262 91.9887C173.277 93.1398 173.279 94.2528 173.373 95.3406C173.541 97.5093 174.131 99.563 175.594 100.613C177.049 101.714 179.392 101.88 181.871 101.911C186.93 101.997 192.225 102.195 197.568 102.496C200.236 102.629 202.872 102.726 205.478 102.805C208.085 102.871 210.666 102.993 213.094 102.918C215.525 102.84 217.864 102.545 219.901 101.76C221.945 100.99 223.598 99.6592 224.792 97.9724C225.976 96.2739 226.707 94.2663 227.159 92.2223C227.626 90.1787 227.816 88.0902 227.953 86.059C228.158 81.9732 228.246 78.0524 228.399 74.5348C228.676 67.4687 228.955 61.7515 229.218 57.8019C229.482 53.8529 229.731 51.6711 229.949 51.6759Z" fill="#0D0D0D"/>
<path d="M174.194 100.387C173.917 100.061 176.539 97.1152 180.931 92.4759C185.33 87.8499 191.529 81.5869 198.508 74.8069C205.488 68.0265 211.93 62.017 216.721 57.8018C221.5 53.5779 224.681 51.1853 224.965 51.5206C225.242 51.8475 222.619 54.7928 218.228 59.4322C213.829 64.0584 207.629 70.3216 200.65 77.102C193.67 83.8823 187.229 89.8913 182.437 94.1065C177.659 98.3301 174.478 100.723 174.194 100.387Z" fill="#0D0D0D"/>
<path d="M226.847 99.9434C226.558 100.272 223.088 97.7352 217.711 93.3679C215.023 91.1841 211.858 88.5428 208.375 85.5733C204.875 82.6142 201.102 79.1697 197.377 75.3913C189.906 67.8262 183.705 60.4935 179.358 55.0855C175.022 49.6659 172.549 46.146 172.875 45.863C173.21 45.5731 176.287 48.5796 181.042 53.6083C185.809 58.6257 192.24 65.6816 199.62 73.1534C203.314 76.8982 206.918 80.3073 210.302 83.3786C213.678 86.4686 216.69 89.2846 219.189 91.6836C224.188 96.4822 227.135 99.6147 226.847 99.9434ZM121.95 138.088C121.889 138.435 120.706 138.293 119.165 139.173C118.421 139.61 117.59 140.33 117.17 141.339C116.739 142.305 116.734 143.668 117.339 144.852C117.641 145.442 118.068 145.938 118.628 146.287C119.207 146.656 119.963 146.913 120.864 147.086C121.757 147.26 122.824 147.346 123.94 147.45C125.048 147.543 126.189 147.621 127.36 147.679C129.702 147.787 132.162 147.818 134.706 147.723C135.979 147.677 137.272 147.602 138.582 147.497C139.882 147.385 141.263 147.27 142.44 147.063C143.618 146.857 144.653 146.5 145.35 146.006C146.082 145.501 146.588 144.774 146.698 144.201C146.816 143.651 146.673 143.047 146.177 142.407C145.935 142.1 145.63 141.806 145.284 141.568C144.939 141.328 144.582 141.147 144.138 140.979C142.41 140.331 140.147 140.333 137.986 140.186C135.847 140.057 133.855 139.92 132.037 139.777C124.765 139.205 120.274 138.539 120.288 137.913C120.301 137.287 124.817 136.821 132.108 136.572C133.93 136.51 135.926 136.461 138.069 136.427C139.142 136.415 140.229 136.381 141.462 136.415C142.685 136.456 144.041 136.575 145.464 137.019C146.16 137.238 146.92 137.566 147.608 138.004C148.297 138.438 148.935 138.984 149.501 139.646C150.066 140.304 150.548 141.109 150.849 142.041C151.159 142.966 151.227 144.041 151.045 145.041C150.655 147.071 149.417 148.619 147.959 149.679C146.438 150.764 144.781 151.243 143.237 151.525C141.675 151.795 140.313 151.887 138.918 151.995C137.53 152.091 136.159 152.146 134.812 152.164C132.119 152.202 129.521 152.077 127.06 151.846C125.83 151.726 124.634 151.579 123.476 151.41C122.33 151.23 121.192 151.068 120 150.744C118.823 150.422 117.607 149.929 116.576 149.116C115.52 148.296 114.784 147.182 114.391 146.09C113.589 143.886 113.948 141.624 114.972 140.089C115.991 138.546 117.403 137.835 118.525 137.529C119.675 137.233 120.597 137.336 121.168 137.52C121.744 137.703 121.984 137.949 121.95 138.088ZM179.777 138.088C179.715 138.435 178.532 138.293 176.991 139.173C176.248 139.61 175.416 140.33 174.996 141.339C174.566 142.305 174.561 143.668 175.165 144.852C175.467 145.442 175.894 145.938 176.454 146.287C177.033 146.656 177.789 146.913 178.69 147.086C179.582 147.26 180.65 147.346 181.766 147.45C182.874 147.543 184.015 147.621 185.186 147.679C187.528 147.787 189.988 147.818 192.532 147.723C193.805 147.677 195.098 147.602 196.408 147.497C197.708 147.385 199.088 147.27 200.266 147.063C201.444 146.857 202.479 146.5 203.176 146.006C203.908 145.501 204.413 144.774 204.524 144.201C204.642 143.651 204.499 143.047 204.003 142.407C203.761 142.1 203.456 141.806 203.11 141.568C202.765 141.328 202.408 141.147 201.964 140.979C200.236 140.331 197.973 140.333 195.812 140.186C193.673 140.057 191.681 139.92 189.863 139.777C182.591 139.205 178.1 138.539 178.114 137.913C178.127 137.287 182.643 136.821 189.934 136.572C191.756 136.51 193.752 136.461 195.894 136.427C196.967 136.415 198.055 136.381 199.288 136.415C200.511 136.456 201.866 136.575 203.29 137.019C203.986 137.238 204.746 137.566 205.433 138.004C206.123 138.438 206.761 138.984 207.327 139.646C207.892 140.304 208.373 141.109 208.675 142.041C208.984 142.966 209.053 144.041 208.87 145.041C208.481 147.071 207.242 148.619 205.784 149.679C204.263 150.764 202.607 151.243 201.062 151.525C199.501 151.795 198.138 151.887 196.743 151.995C195.355 152.091 193.984 152.146 192.638 152.164C189.944 152.202 187.346 152.077 184.886 151.846C183.656 151.726 182.46 151.579 181.302 151.41C180.156 151.23 179.017 151.068 177.825 150.744C176.649 150.422 175.432 149.929 174.401 149.116C173.345 148.296 172.61 147.182 172.217 146.09C171.415 143.886 171.773 141.624 172.798 140.089C173.816 138.546 175.228 137.835 176.35 137.529C177.501 137.233 178.423 137.336 178.994 137.52C179.571 137.703 179.81 137.949 179.777 138.088Z" fill="#0D0D0D"/>
<path d="M83.3016 203.274C83.0957 203.342 82.2114 201.3 80.7887 197.548C80.4383 196.608 80.0491 195.564 79.623 194.421C79.4269 193.855 79.1285 193.195 79.1371 192.282C79.1443 191.829 79.2908 191.314 79.558 190.902C79.823 190.485 80.171 190.172 80.5184 189.922C81.235 189.423 81.9102 189.152 82.582 188.809C83.2666 188.481 83.9728 188.141 84.6999 187.792C86.1596 187.106 87.7099 186.395 89.3527 185.681C92.6341 184.245 96.2764 182.779 100.237 181.34C102.218 180.623 104.279 179.914 106.415 179.222C107.49 178.884 108.581 178.542 109.687 178.195C110.839 177.868 112.098 177.529 113.565 177.581C114.291 177.612 115.074 177.747 115.813 178.082C116.558 178.406 117.217 178.912 117.736 179.465C118.777 180.585 119.366 181.831 119.921 182.933C121.036 185.167 122.132 187.47 123.2 189.836C124.27 192.202 125.311 194.631 126.317 197.118C126.823 198.36 127.313 199.619 127.8 200.889C128.279 202.172 128.768 203.407 129.221 204.806C129.653 206.195 130.023 207.709 129.935 209.382C129.877 211.043 129.111 212.843 127.921 213.999C126.753 215.181 125.413 215.883 124.154 216.457C122.883 217.021 121.694 217.47 120.466 217.94C115.588 219.761 110.783 221.122 106.209 222.312C103.919 222.886 101.686 223.447 99.5164 223.992C98.4051 224.258 97.2586 224.497 96.0625 224.59C94.8708 224.674 93.6016 224.62 92.3819 224.187C91.1574 223.784 90.0755 222.952 89.3271 222.016C88.5636 221.077 88.0843 220.061 87.6893 219.092C86.9444 217.13 86.4818 215.376 85.9252 213.655C83.8067 206.805 82.1437 201.244 81.0619 197.379C79.9798 193.513 79.4792 191.343 79.6849 191.273C79.8906 191.204 80.7833 193.242 82.2218 196.988C83.6603 200.733 85.6442 206.186 88.0323 212.945C88.6426 214.611 89.2224 216.474 89.9246 218.146C90.6453 219.822 91.6607 221.247 93.2076 221.695C94.7605 222.198 96.7701 221.847 98.8492 221.288C100.993 220.706 103.2 220.106 105.463 219.491C109.975 218.235 114.672 216.838 119.383 215.035C121.699 214.09 124.283 213.246 125.691 211.792C126.392 211.072 126.741 210.242 126.803 209.201C126.863 208.164 126.611 206.977 126.228 205.767C125.84 204.564 125.334 203.268 124.87 202.022C124.384 200.773 123.901 199.534 123.421 198.303C122.44 195.85 121.43 193.45 120.395 191.111C119.361 188.771 118.304 186.492 117.233 184.276C116.702 183.162 116.2 182.169 115.588 181.504C114.982 180.841 114.338 180.555 113.43 180.497C112.537 180.439 111.501 180.659 110.453 180.943C109.364 181.261 108.29 181.574 107.232 181.883C105.111 182.519 103.06 183.169 101.086 183.824C97.1388 185.138 93.4942 186.466 90.1946 187.754C88.543 188.394 86.9795 189.028 85.503 189.637C84.7665 189.945 84.0509 190.245 83.3571 190.536C82.6641 190.837 81.9634 191.098 81.4998 191.39C81.0127 191.704 80.8085 191.974 80.7641 192.371C80.7169 192.794 80.8736 193.361 81.0459 193.948C81.3765 195.122 81.6789 196.196 81.9508 197.162C83.0159 201.033 83.5076 203.206 83.3016 203.274Z" fill="#0D0D0D"/>
<path d="M97.8297 188.306C97.7814 188.245 97.9411 187.906 98.4395 187.528C98.9272 187.152 99.8292 186.826 100.907 187.07C101.175 187.128 101.45 187.227 101.732 187.37C102.012 187.508 102.324 187.747 102.555 188.019C103.043 188.571 103.399 189.334 103.538 190.197C103.828 191.926 103.104 194.038 101.475 194.998C99.8629 195.923 97.899 195.374 96.9263 193.958C95.9451 192.59 95.8753 190.792 96.3868 189.624C96.887 188.445 97.707 187.893 98.2628 187.691C98.8356 187.486 99.1687 187.584 99.1738 187.668C99.1874 187.776 98.8906 187.875 98.4632 188.195C98.0449 188.506 97.469 189.09 97.1914 190.014C96.9059 190.898 97.0585 192.181 97.7857 193.099C98.4604 194.012 99.8387 194.347 100.925 193.722C102.001 193.106 102.577 191.604 102.417 190.409C102.346 189.798 102.123 189.241 101.815 188.835C101.526 188.43 101.116 188.212 100.696 188.048C99.8614 187.742 99.1234 187.85 98.6445 188.029C98.1588 188.208 97.8905 188.392 97.8297 188.306Z" fill="#0D0D0D"/>
<path d="M100.778 193.145C100.774 193.335 100.475 193.541 99.8864 193.572C99.5944 193.576 99.2086 193.54 98.792 193.286C98.3754 193.049 98.0005 192.503 97.9637 191.937C97.9118 191.375 98.1015 190.864 98.403 190.5C98.6986 190.147 99.056 189.959 99.3529 189.874C99.9617 189.709 100.327 189.885 100.349 190.07C100.381 190.269 100.11 190.473 99.8403 190.764C99.555 191.061 99.3651 191.423 99.4058 191.803C99.4274 191.985 99.4696 192.09 99.5854 192.225C99.6971 192.356 99.8952 192.476 100.082 192.578C100.467 192.778 100.784 192.944 100.778 193.145Z" fill="white"/>
<path d="M115.686 197.452C115.932 198.034 110.9 200.628 104.447 203.247C97.9942 205.865 92.5637 207.517 92.3177 206.935C92.0718 206.354 97.1035 203.76 103.557 201.141C110.009 198.522 115.44 196.871 115.686 197.452ZM118.647 204.674C118.893 205.255 113.861 207.849 107.408 210.468C100.955 213.086 95.5245 214.738 95.2785 214.156C95.0325 213.575 100.064 210.981 106.517 208.362C112.97 205.744 118.401 204.092 118.647 204.674Z" fill="#0D0D0D"/>
<path d="M106.978 150.816C106.942 150.918 106.245 150.697 104.963 150.575C103.683 150.443 101.817 150.505 99.5358 150.923C97.2523 151.297 94.5375 152.112 91.3013 152.186C89.6957 152.219 87.9329 151.957 86.2864 151.213C84.651 150.488 83.0533 149.183 82.265 147.324C81.492 145.474 81.5355 143.588 81.5297 141.912C81.5405 140.222 81.5508 138.592 81.5607 137.039C81.5897 133.934 81.6346 131.138 81.6918 128.789C81.8063 124.092 81.9709 121.186 82.158 121.186C82.3452 121.186 82.5196 124.091 82.6502 128.787C82.7154 131.136 82.7698 133.932 82.8095 137.037C82.8248 138.59 82.8407 140.22 82.8573 141.909C82.8714 143.584 82.879 145.305 83.511 146.792C84.1357 148.265 85.4174 149.354 86.839 150.006C88.2746 150.669 89.8073 150.934 91.3005 150.937C94.2953 150.942 97.0337 150.243 99.394 149.975C101.754 149.668 103.733 149.751 105.045 150.054C106.363 150.347 107.008 150.744 106.978 150.816Z" fill="#0D0D0D"/>
<path d="M218.854 232.059C218.866 231.964 219.434 231.95 220.447 231.979C221.459 232.001 222.922 232.078 224.693 231.976C226.447 231.863 228.579 231.545 230.484 230.347C231.431 229.752 232.298 228.944 233.007 227.95C233.724 226.96 234.258 225.777 234.659 224.518C235.462 221.978 235.584 219.384 235.531 217.025C235.475 214.655 235.325 212.487 235.336 210.654C235.305 206.966 236.04 204.74 236.2 204.793C236.403 204.836 236.021 207.037 236.294 210.625C236.404 212.419 236.652 214.557 236.779 216.982C236.901 219.398 236.824 222.166 235.952 224.925C235.514 226.298 234.914 227.61 234.084 228.727C233.263 229.848 232.235 230.768 231.13 231.415C228.895 232.724 226.554 232.936 224.721 232.933C222.864 232.915 221.395 232.687 220.391 232.504C219.388 232.313 218.844 232.15 218.854 232.059Z" fill="#0D0D0D"/>
</svg>
