<?xml version="1.0" encoding="UTF-8"?>
<svg id="HeaderLight" xmlns="http://www.w3.org/2000/svg" viewBox="0 0 736 414">
  <defs>
    <style>
      .cls-1 {
        fill: #fff;
      }

      .cls-2 {
        fill: #d8d8d8;
      }

      .cls-3 {
        fill: #655cfe;
      }

      .cls-4 {
        fill: #01112d;
      }

      .cls-5 {
        fill: #e0e1e2;
      }

      .cls-6 {
        fill: #c4c5c6;
      }

      .cls-7 {
        fill: #e6e7e8;
      }

      .cls-8 {
        fill: #ededed;
      }
    </style>
  </defs>
  <g>
    <g>
      <path class="cls-1" d="M201.23,143.7c-3.5,0-6.35-2.85-6.35-6.35V48.34c0-3.5,2.85-6.35,6.35-6.35h96.39c2.78,0,5.21,1.77,6.05,4.42,0,.02,.02,.07,.02,.07,.18,.6,.28,1.22,.28,1.86v89.01c0,3.5-2.85,6.35-6.35,6.35h-96.39Z"/>
      <path class="cls-4" d="M297.62,42.5c2.62,0,4.84,1.73,5.58,4.1,0,0,0,0,0,0,.17,.55,.26,1.13,.26,1.74v89.01c0,3.23-2.62,5.85-5.85,5.85h-96.39c-3.23,0-5.85-2.62-5.85-5.85V48.34c0-3.23,2.62-5.85,5.85-5.85h96.39m0-1h-96.39c-3.77,0-6.85,3.07-6.85,6.85v89.01c0,3.77,3.07,6.85,6.85,6.85h96.39c3.77,0,6.85-3.07,6.85-6.85V48.34c0-.68-.1-1.35-.29-1.99,0-.04-.02-.07-.03-.11-.91-2.84-3.52-4.75-6.52-4.75h0Z"/>
    </g>
    <path class="cls-8" d="M303.46,136.86c-.03,.93-.14,2.9-1.49,4.41-1.19,1.32-2.85,1.75-3.94,1.92-3.43,0-11.13,.01-14.61,.01-16.13,.01-27.99,0-33.83,0-13.01,0-29.15,0-47.74,0,17.6-21.39,34.43-29.7,46.94-33.23,10.9-3.08,17.9-2.53,22.01-8.5,8.9-12.91-11.97-31.65-3.49-47.06,3.11-5.66,9.57-9.78,16.16-11.91h14.16c.56,0,2.07,.09,3.5,1.16,2.07,1.55,2.31,3.93,2.34,4.32,.15,49.03,.12,84.82,0,88.89Z"/>
    <g>
      <g>
        <path class="cls-1" d="M238.2,16.81h62.62c1.51,0,2.74,1.23,2.74,2.74v17.1c0,1.51-1.23,2.74-2.74,2.74h-62.62c-1.51,0-2.74-1.23-2.74-2.74V19.55c0-1.51,1.23-2.74,2.74-2.74Z"/>
        <path class="cls-4" d="M300.82,17.31c1.24,0,2.24,1,2.24,2.24v17.1c0,1.24-1,2.24-2.24,2.24h-62.62c-1.24,0-2.24-1-2.24-2.24V19.55c0-1.24,1-2.24,2.24-2.24h62.62m0-1h-62.62c-1.79,0-3.24,1.45-3.24,3.24v17.1c0,1.79,1.45,3.24,3.24,3.24h62.62c1.79,0,3.24-1.45,3.24-3.24V19.55c0-1.79-1.45-3.24-3.24-3.24h0Z"/>
      </g>
      <g>
        <path class="cls-4" d="M235.22,40.73c-1.53,0-2.78-1.25-2.78-2.78v-15.12c0-.28,.22-.5,.5-.5s.5,.22,.5,.5v15.12c0,.98,.8,1.78,1.78,1.78,.28,0,.5,.22,.5,.5s-.22,.5-.5,.5Z"/>
        <path class="cls-4" d="M306.08,35.15c-.28,0-.5-.22-.5-.5v-12.5c0-.28,.22-.5,.5-.5s.5,.22,.5,.5v12.5c0,.28-.22,.5-.5,.5Z"/>
        <path class="cls-4" d="M281.42,14.92h-22.66c-.28,0-.5-.22-.5-.5s.22-.5,.5-.5h22.66c.28,0,.5,.22,.5,.5s-.22,.5-.5,.5Z"/>
      </g>
    </g>
    <g>
      <rect class="cls-7" x="202.73" y="69.95" width="93.91" height="22.25" rx="2.76" ry="2.76"/>
      <g>
        <rect class="cls-2" x="203.23" y="69.43" width="93.41" height="22.78" rx="2.24" ry="2.24"/>
        <path class="cls-4" d="M294.4,92.7h-88.93c-1.51,0-2.74-1.23-2.74-2.74v-18.3c0-1.51,1.23-2.74,2.74-2.74h88.93c1.51,0,2.74,1.23,2.74,2.74v18.3c0,1.51-1.23,2.74-2.74,2.74Zm-88.93-22.78c-.96,0-1.74,.78-1.74,1.74v18.3c0,.96,.78,1.74,1.74,1.74h88.93c.96,0,1.74-.78,1.74-1.74v-18.3c0-.96-.78-1.74-1.74-1.74h-88.93Z"/>
      </g>
    </g>
    <path class="cls-3" d="M285.16,105.67c-.16,0-.31-.06-.42-.17l-2.23-2.17c-.24-.23-.25-.62-.01-.86,.23-.24,.62-.25,.86-.01l1.77,1.71,3.31-3.93c.22-.26,.6-.29,.86-.07s.29,.6,.07,.86l-3.73,4.43c-.11,.13-.27,.21-.44,.22-.01,0-.02,0-.03,0Z"/>
    <path class="cls-4" d="M259.94,60.46h-48.68c-.28,0-.5-.22-.5-.5s.22-.5,.5-.5h48.68c.28,0,.5,.22,.5,.5s-.22,.5-.5,.5Z"/>
    <path class="cls-4" d="M267.4,103.7h-56.14c-.28,0-.5-.22-.5-.5s.22-.5,.5-.5h56.14c.28,0,.5,.22,.5,.5s-.22,.5-.5,.5Z"/>
    <path class="cls-4" d="M276.06,123.57h-64.81c-.28,0-.5-.22-.5-.5s.22-.5,.5-.5h64.81c.28,0,.5,.22,.5,.5s-.22,.5-.5,.5Z"/>
    <path class="cls-4" d="M246.43,81.31h-35.17c-.28,0-.5-.22-.5-.5s.22-.5,.5-.5h35.17c.28,0,.5,.22,.5,.5s-.22,.5-.5,.5Z"/>
    <path class="cls-4" d="M272.92,147.96h-40.27c-.28,0-.5-.22-.5-.5s.22-.5,.5-.5h40.27c.28,0,.5,.22,.5,.5s-.22,.5-.5,.5Z"/>
    <path class="cls-4" d="M308.05,118.98c-.28,0-.5-.22-.5-.5v-50.56c0-.28,.22-.5,.5-.5s.5,.22,.5,.5v50.56c0,.28-.22,.5-.5,.5Z"/>
    <path class="cls-4" d="M190.81,77.59c-.28,0-.5-.22-.5-.5V44.57c0-3.77,3.07-6.84,6.84-6.84h9.77c.28,0,.5,.22,.5,.5s-.22,.5-.5,.5h-9.77c-3.22,0-5.84,2.62-5.84,5.84v32.52c0,.28-.22,.5-.5,.5Z"/>
  </g>
  <g>
    <g>
      <rect class="cls-1" x="421.25" y="63.31" width="167.77" height="50.76" rx="5.82" ry="5.82"/>
      <path class="cls-4" d="M583.21,63.81c2.94,0,5.32,2.38,5.32,5.32v39.13c0,2.94-2.38,5.32-5.32,5.32h-156.14c-2.94,0-5.32-2.38-5.32-5.32v-39.13c0-2.94,2.38-5.32,5.32-5.32h156.14m0-1h-156.14c-3.48,0-6.32,2.83-6.32,6.32v39.13c0,3.48,2.83,6.32,6.32,6.32h156.14c3.48,0,6.32-2.83,6.32-6.32v-39.13c0-3.48-2.83-6.32-6.32-6.32h0Z"/>
    </g>
    <path class="cls-8" d="M583.21,63.81c-2.54,4.23-7.06,10.33-14.55,13.97-12.56,6.11-21.7-.41-36.9,.78-21.45,1.68-19.48,15.94-42.61,21.21-24.93,5.69-41.9-7.52-55.39,4.24-3.74,3.26-5.69,7.12-6.7,9.55,52.05,0,104.09,0,156.14,0,2.94,0,5.32-2.38,5.32-5.32v-39.13c0-2.94-2.38-5.32-5.32-5.32Z"/>
    <g>
      <path class="cls-4" d="M474.04,59.34h-24.12c-.28,0-.5-.22-.5-.5s.22-.5,.5-.5h24.12c.28,0,.5,.22,.5,.5s-.22,.5-.5,.5Z"/>
      <path class="cls-4" d="M416.97,100.58c-.28,0-.5-.22-.5-.5v-23.88c0-.28,.22-.5,.5-.5s.5,.22,.5,.5v23.88c0,.28-.22,.5-.5,.5Z"/>
      <path class="cls-4" d="M552.22,119.05h-60.16c-.28,0-.5-.22-.5-.5s.22-.5,.5-.5h60.16c.28,0,.5,.22,.5,.5s-.22,.5-.5,.5Z"/>
      <path class="cls-4" d="M593.3,91.46c-.28,0-.5-.22-.5-.5v-26.81c0-2.66-2.16-4.82-4.82-4.82h-10.59c-.28,0-.5-.22-.5-.5s.22-.5,.5-.5h10.59c3.21,0,5.82,2.61,5.82,5.82v26.81c0,.28-.22,.5-.5,.5Z"/>
    </g>
    <g>
      <g>
        <rect class="cls-1" x="428.2" y="97.19" width="48.06" height="13.19" rx="1.69" ry="1.69"/>
        <path class="cls-4" d="M474.57,110.77h-44.68c-1.15,0-2.08-.94-2.08-2.08v-9.8c0-1.15,.94-2.08,2.08-2.08h44.68c1.15,0,2.08,.94,2.08,2.08v9.8c0,1.15-.94,2.08-2.08,2.08Zm-44.68-13.19c-.72,0-1.3,.58-1.3,1.3v9.8c0,.72,.58,1.3,1.3,1.3h44.68c.72,0,1.3-.58,1.3-1.3v-9.8c0-.72-.58-1.3-1.3-1.3h-44.68Z"/>
      </g>
      <rect class="cls-3" x="479.36" y="97.19" width="102.72" height="13.19" rx="1.69" ry="1.69"/>
    </g>
    <path class="cls-4" d="M496.49,74.3h-67.02c-.7,0-1.27-.57-1.27-1.27s.57-1.27,1.27-1.27h67.02c.7,0,1.27,.57,1.27,1.27s-.57,1.27-1.27,1.27Z"/>
    <path class="cls-2" d="M542.26,82.34h-111.94c-1.17,0-2.12-.62-2.12-1.4s.95-1.4,2.12-1.4h111.94c1.17,0,2.12,.62,2.12,1.4s-.95,1.4-2.12,1.4Z"/>
    <g>
      <path class="cls-4" d="M581.15,70.6c-.1,0-.2-.04-.28-.11-.15-.15-.15-.4,0-.55l3.1-3.1c.15-.15,.4-.15,.55,0,.15,.15,.15,.4,0,.55l-3.1,3.1c-.08,.08-.18,.11-.28,.11Z"/>
      <path class="cls-4" d="M584.25,70.6c-.1,0-.2-.04-.28-.11l-3.1-3.1c-.15-.15-.15-.4,0-.55,.15-.15,.4-.15,.55,0l3.1,3.1c.15,.15,.15,.4,0,.55-.08,.08-.18,.11-.28,.11Z"/>
    </g>
  </g>
  <g>
    <g>
      <g>
        <path class="cls-1" d="M269.13,205.83c-1.82-1.95-3.66-3.9-5.54-5.86-3.01-3.15-6-6.23-8.98-9.24,0,0-2.57-9.56-4.56-12.16-2.57-3.36-6.15-8.3-8.35-9.02-2.2-.72-5.11-1.42-5.11-1.42,0,0-17.04-9.81-19.26-10.32-.44-.1-.85-.11-1.23-.06,0,0,0,0,0,0-.09,.01-.18,.03-.27,.05-.01,0-.02,0-.03,0-.09,.02-.17,.04-.25,.07,0,0-.02,0-.03,.01-.17,.06-.32,.13-.47,.2,0,0-.02,.01-.03,.02-.07,.04-.14,.08-.21,.13,0,0,0,0-.01,0-.07,.04-.13,.09-.19,.14,0,0-.01,0-.02,.01-.06,.05-.12,.1-.18,.15,0,0-.02,.01-.02,.02-.11,.1-.21,.21-.3,.32,0,0-.01,.02-.02,.02-.04,.05-.08,.11-.12,.16,0,0-.01,.02-.02,.02-.04,.05-.07,.1-.1,.15,0,0,0,0,0,.01-.03,.05-.06,.1-.09,.16,0,.01-.01,.02-.02,.03-.03,.05-.05,.1-.07,.15,0,0,0,.01,0,.02-.02,.05-.03,.09-.05,.13,0,0,0,.02,0,.02-.01,.04-.02,.09-.03,.13,0,0,0,.02,0,.03,0,.04-.01,.08-.01,.12,0,.11,0,.22,0,.33,0,.34,.05,.72,.22,1.12,.05,.13,.12,.27,.2,.41,.04,.07,.09,.14,.13,.21,.25,.35,.59,.71,1.09,1.08,.02,.02,.05,.03,.07,.05,0,0,.02,.02,.03,.02,.02,.01,.04,.03,.06,.04,.01,0,.03,.02,.04,.03,.02,.01,.04,.03,.06,.04,.02,.01,.03,.02,.05,.03,.02,.01,.04,.03,.06,.04,.02,.01,.04,.02,.05,.04,.02,.02,.04,.03,.07,.05,.02,.01,.04,.03,.06,.04,.02,.02,.05,.03,.07,.05,.02,.01,.04,.03,.06,.04,.03,.02,.05,.03,.08,.05,.02,.01,.04,.03,.07,.04,.03,.02,.05,.04,.08,.05,.02,.02,.05,.03,.07,.05,.03,.02,.07,.04,.1,.07,.02,.01,.04,.03,.06,.04,.04,.02,.07,.05,.11,.07,.04,.03,.08,.06,.13,.08,.04,.02,.07,.05,.11,.07,.02,.01,.04,.03,.06,.04,.04,.03,.08,.05,.12,.08,.03,.02,.06,.04,.08,.06,.04,.02,.07,.05,.11,.07,.03,.02,.06,.04,.1,.06,.03,.02,.06,.04,.1,.06,.03,.02,.07,.04,.1,.07,.04,.02,.07,.05,.11,.07,.03,.02,.06,.04,.09,.06,.04,.03,.08,.05,.12,.08,.03,.02,.07,.04,.1,.06,.03,.02,.07,.04,.1,.06,.04,.03,.08,.05,.12,.08,.03,.02,.06,.04,.1,.06,.04,.03,.08,.05,.12,.08,.13,.08,.26,.17,.39,.25,.07,.05,.14,.09,.22,.14,.02,.01,.05,.03,.07,.04,.05,.03,.1,.06,.15,.09,.03,.02,.06,.04,.1,.06,.04,.03,.08,.05,.13,.08,.04,.02,.08,.05,.12,.07,.05,.03,.1,.06,.14,.09,.03,.02,.06,.04,.09,.05,.05,.03,.1,.06,.15,.09,.04,.03,.08,.05,.12,.08,.04,.02,.08,.05,.12,.07,.04,.03,.08,.05,.12,.08,.04,.03,.09,.06,.13,.08,.04,.02,.07,.04,.11,.07,.05,.03,.1,.06,.15,.09,.03,.02,.06,.04,.08,.05,.06,.03,.11,.07,.17,.1,.08,.05,.16,.1,.24,.15,.03,.02,.07,.04,.1,.06,.05,.03,.09,.06,.14,.09,.05,.03,.1,.06,.15,.1,.03,.02,.07,.04,.1,.06,.05,.03,.09,.06,.14,.09,.04,.02,.08,.05,.12,.07,.03,.02,.07,.04,.1,.06,.05,.03,.1,.06,.15,.1,.04,.02,.08,.05,.11,.07,.04,.03,.08,.05,.12,.08,.04,.03,.08,.05,.13,.08,.04,.02,.07,.04,.11,.07,.06,.03,.11,.07,.17,.1,0,0,.02,.01,.03,.02,.07,.04,.13,.08,.2,.12,.02,.01,.04,.03,.06,.04,.13,.08,.27,.17,.4,.25,.02,.01,.05,.03,.07,.04,.19,.12,.37,.23,.55,.34,.03,.02,.05,.03,.08,.05,.04,.02,.07,.05,.11,.07,.03,.02,.07,.04,.1,.06,.03,.02,.06,.03,.08,.05,.06,.04,.12,.07,.18,.11,0,0,.01,0,.02,.01,.05,.03,.1,.06,.15,.09,.04,.02,.07,.04,.1,.07,.04,.02,.08,.05,.11,.07,.03,.02,.06,.04,.09,.06,.01,0,.03,.02,.04,.02,.2,.12,.38,.24,.56,.35,.11,.07,.22,.13,.32,.2,.09,.05,.17,.11,.25,.16,0,0,.02,.01,.03,.02,.18,.11,.34,.21,.47,.29,.02,0,.03,.02,.05,.03,.05,.03,.1,.06,.14,.09,.02,.01,.03,.02,.05,.03,.02,.01,.03,.02,.05,.03,.01,0,.03,.02,.05,.03-.03,.05-.05,.12-.03,.18-.49,.13-1.61,.57-2.32,1.99-.93,1.87,.4,3.4,.4,3.4,0,0-1.32-.41-2.58,2.09-.86,1.7,.45,2.64,.45,2.64-.45,.31-1,.81-1.37,1.57-.74,1.56-.35,3.57,.94,5.2,0,0,.64,.78,1.5,1.69,.1,.1,.19,.2,.3,.3,.06,.07,.12,.14,.18,.22,.01,.02,.03,.03,.04,.05,.15,.18,.31,.36,.47,.55,.02,.02,.04,.04,.05,.06,.07,.08,.14,.16,.22,.25,.02,.02,.03,.04,.05,.06,.09,.1,.18,.2,.28,.31,.01,.01,.02,.03,.04,.04,.08,.09,.17,.19,.26,.28,.02,.03,.05,.05,.07,.08,.09,.1,.18,.2,.28,.3,.01,.01,.02,.03,.04,.04,.11,.11,.22,.23,.33,.34,.03,.03,.05,.06,.08,.08,.09,.09,.18,.19,.27,.28,.03,.03,.06,.06,.09,.1,.12,.12,.24,.24,.37,.37,0,0,.01,.01,.02,.02,.12,.12,.24,.24,.36,.36,.04,.04,.07,.07,.11,.11,.1,.1,.21,.21,.32,.31,.03,.03,.06,.06,.1,.09,.14,.13,.28,.27,.42,.4,.03,.03,.06,.06,.09,.09,.12,.11,.23,.22,.35,.33,.04,.04,.09,.08,.13,.12,.13,.12,.27,.25,.4,.37,.02,.02,.04,.04,.06,.06,.16,.14,.31,.29,.48,.43,.05,.04,.09,.08,.14,.12,.13,.11,.25,.23,.38,.34,.05,.04,.1,.08,.14,.13,.17,.15,.34,.3,.52,.46,.02,.02,.05,.04,.07,.06,.16,.14,.31,.27,.48,.41,.06,.05,.11,.1,.17,.14,.15,.13,.3,.25,.45,.38,.04,.04,.08,.07,.13,.11,.19,.16,.39,.32,.58,.49,.05,.04,.1,.08,.15,.12,.16,.13,.31,.26,.48,.39,.06,.05,.12,.1,.19,.15,.19,.16,.39,.31,.59,.47,.02,.01,.04,.03,.06,.04,.22,.17,.44,.35,.66,.52,.06,.05,.13,.1,.19,.15,.17,.14,.35,.27,.53,.41,.06,.05,.12,.1,.19,.14,.23,.18,.47,.36,.71,.54,.04,.03,.08,.06,.12,.09,.2,.15,.41,.31,.62,.46,.07,.05,.15,.11,.22,.17,.2,.15,.41,.3,.62,.46,.05,.04,.1,.08,.16,.11,.26,.19,.52,.38,.78,.57,.07,.05,.13,.09,.2,.14,.21,.15,.42,.3,.63,.45,.08,.06,.16,.11,.24,.17,.28,.2,.56,.39,.84,.59,0,0,1.85,.96,2.97,2.45,1.3,1.74,2.02,2.95,2.95,4.58,.8,1.38,2.09,3.33,4.17,5.48,4.16,4.45,10.89,4.8,15.01,1.3,3.43-2.91,4.57-8.08,2.6-12.61Z"/>
        <path class="cls-4" d="M259.92,221.3c-3.17,0-6.41-1.3-8.76-3.82-1.68-1.74-3.11-3.61-4.24-5.57-.98-1.7-1.67-2.86-2.92-4.53-1.03-1.38-2.78-2.3-2.8-2.31l-4.37-3.16-.12-.09-6.08-4.95s-.11-.1-.11-.1l-2.58-2.38s-.1-.09-.1-.09l-.32-.31,.24-.46-.35,.36-1.12-1.14s-.08-.08-.08-.08l-.65-.68s-.08-.08-.08-.08l-.85-.94c-.22-.26-.38-.45-.53-.62l-.49-.54c-.77-.8-1.36-1.51-1.52-1.71-1.45-1.83-1.83-4.02-1.01-5.75,.25-.53,.61-1,1.07-1.41-.44-.59-.77-1.58-.15-2.81,.75-1.49,1.56-2.07,2.18-2.28-.35-.72-.66-1.89,0-3.21,.53-1.05,1.27-1.63,1.86-1.94l-1.53-.95s-.11-.07-.11-.07l.12-.52-.25,.43-.16-.1s-.1-.06-.1-.06l.17-.48-.26,.42,.15-.5-.26,.43s-.12-.08-.13-.08l-1.39-.87s-.08-.05-.09-.05l-.73-.45,.14-.5-.26,.42-.89-.55s-.16-.1-.16-.1-.09-.05-.09-.05l.12-.52-.26,.43-.21-.13,.17-.48-.27,.42-.45-.29,.18-.48-.3,.4-.11-.07s-.12-.08-.12-.08l.14-.5-.27,.42-.19-.12,.14-.5-.27,.42-.83-.53,.15-.5-.27,.42-.32-.21,.18-.48-.27,.42-.21-.14,.17-.49-.27,.42s-.1-.07-.1-.07l.17-.49-.26,.42-.36-.23,.12-.52-.27,.42-.58-.38,.2-.47-.32,.39s-.08-.06-.09-.06c0,0-.11-.07-.11-.07l.19-.47-.28,.42s-.08-.06-.09-.06l.21-.46-.31,.39s-.08-.06-.09-.06c-.54-.4-.94-.79-1.23-1.22-.06-.08-.11-.16-.16-.24-.1-.16-.17-.32-.24-.48-.16-.4-.24-.83-.25-1.3,0-.12,0-.25,0-.36,0-.06,.01-.12,.02-.18,.02-.09,.03-.15,.05-.21,.03-.09,.05-.14,.07-.2,.03-.08,.06-.14,.09-.2,.05-.1,.09-.16,.12-.22,.05-.07,.09-.13,.13-.19,.06-.09,.11-.15,.16-.21,.12-.15,.24-.27,.37-.39,.09-.08,.16-.14,.23-.19,.09-.07,.16-.12,.23-.17,.09-.06,.17-.11,.26-.16,.21-.11,.39-.19,.58-.26,.13-.04,.23-.07,.33-.1,.14-.03,.24-.05,.35-.07,.02,0,.05,0,.07,0,.43-.05,.88-.03,1.33,.08,2.22,.51,18.04,9.59,19.34,10.34,.46,.11,3.08,.75,5.08,1.41,2.14,.7,5.18,4.7,7.85,8.23l.74,.97c1.92,2.51,4.28,11.01,4.61,12.21,2.98,3.02,5.98,6.1,8.89,9.15,1.87,1.96,3.72,3.92,5.54,5.86,.04,.04,.07,.09,.09,.14,2.03,4.67,.9,10.1-2.73,13.19-1.96,1.66-4.43,2.48-6.93,2.48Zm-28.63-25.18l.45,.39s.08,.07,.08,.07l4.79,3.9,5.11,3.73s1.91,1,3.08,2.56c1.29,1.71,1.99,2.89,2.98,4.62,1.09,1.89,2.47,3.7,4.09,5.38,3.86,4.13,10.29,4.7,14.33,1.27,3.29-2.79,4.31-7.69,2.5-11.95-1.8-1.92-3.62-3.86-5.47-5.79-2.94-3.08-5.96-6.19-8.97-9.24-.06-.06-.1-.14-.13-.22-.03-.09-2.57-9.5-4.48-11.99l-.74-.97c-2.33-3.07-5.52-7.27-7.37-7.88-2.16-.71-5.04-1.4-5.07-1.4-.05-.01-.09-.03-.13-.05-4.72-2.72-17.36-9.86-19.13-10.27-.35-.08-.71-.1-1.04-.05-.02,0-.04,0-.06,0-.06,0-.11,.02-.16,.03-.1,.02-.17,.04-.24,.07-.17,.06-.3,.12-.42,.18-.08,.05-.14,.08-.2,.12-.06,.04-.12,.08-.17,.12-.07,.05-.12,.09-.17,.14-.11,.1-.2,.19-.28,.29-.06,.07-.09,.11-.12,.15l-.1,.15s-.05,.09-.07,.13l-.11,.25s-.03,.11-.03,.11c-.01,.16-.02,.26-.01,.36,0,.36,.06,.66,.18,.95,.04,.11,.1,.23,.17,.34,.03,.06,.07,.12,.11,.18,.23,.33,.56,.66,.98,.97l-.19,.48,.29-.41s.1,.07,.1,.07l-.18,.48,.28-.41-.17,.49,.27-.42s.11,.07,.11,.08l.1,.07-.14,.51,.27-.42s.15,.1,.15,.1l.43,.28s.15,.1,.15,.1l.18,.12s.08,.05,.08,.05l-.17,.49,.27-.42,.1,.06-.18,.48,.27-.42,.21,.14s.1,.06,.1,.06l.22,.14s.1,.07,.1,.07l-.15,.5,.27-.42,.82,.52s.13,.08,.13,.08c0,0,.09,.05,.09,.06l.09,.06s.13,.08,.13,.08l-.15,.5,.26-.43,.12,.08s.12,.07,.12,.07l.39,.25-.15,.5,.27-.42,.23,.15s.15,.09,.15,.09c0,0,.17,.11,.17,.11,0,0,.08,.05,.09,.05l.87,.55,.12,.08,.62,.39-.16,.49,.26-.43s.09,.05,.09,.05c0,0,.1,.06,.11,.07l1.28,.8-.14,.5,.26-.43s.12,.07,.12,.08c0,0,.09,.06,.09,.06l-.17,.48,.26-.42,.12,.07s.1,.06,.1,.06c0,0,.13,.08,.13,.08l1.92,1.19s.11,.07,.11,.07c0,0,.13,.08,.13,.08,.2,.13,.35,.41,.29,.64,.01,.23-.14,.45-.37,.51-.39,.1-1.38,.48-2,1.73-.77,1.55,.32,2.83,.33,2.85,.15,.17,.16,.42,.04,.6-.12,.19-.35,.27-.57,.2h0s-.97-.18-1.99,1.84c-.64,1.26,.2,1.93,.3,2.01,.13,.1,.21,.25,.2,.41,0,.16-.08,.31-.21,.4-.54,.38-.94,.84-1.2,1.38-.66,1.38-.32,3.17,.88,4.68,.16,.19,.73,.88,1.47,1.65l.5,.55c.19,.22,.34,.4,.51,.6l.88,.98-.29,.42,.37-.34,.64,.68-.28,.43,.36-.35,1.1,1.12s.11,.11,.11,.11l.31,.31-.25,.45,.35-.36,2.55,2.35-.22,.47,.33-.38Z"/>
      </g>
      <path d="M247.54,183.86c-1.02-.28-2.01-.69-2.94-1.21-2.39-1.34-4.06-3.22-5.04-4.57-.56-.76-.95-1.44-1.19-1.87-.13-.24-.23-.44-.28-.55-.03-.06-.05-.11-.07-.15l-.15-.34-.32,.05s-1.55,.23-4.66,.97c-.81,.19-1.54,.28-2.16,.24-.56-.03-1.03-.15-1.4-.36-.26-.15-.47-.33-.63-.56-.15-.22-.26-.48-.32-.78-.01-.05,0-.11,0-.18,.02-.08,.06-.17,.11-.27,.05-.1,.12-.2,.21-.31,.05,.12,.1,.23,.14,.34,.14,.31,.26,.56,.39,.77,.08,.13,.16,.24,.24,.34,.11,.12,.2,.21,.31,.27,.04,.02,.08,.04,.12,.05,.1,.04,.21,.06,.35,.06,.4,.02,.92-.07,1.43-.23,.27-.09,.5-.19,.7-.31,.17-.11,.39-.26,.53-.5,.06-.11,.1-.22,.1-.34,0-.17-.03-.33-.07-.47-.07-.23-.2-.5-.39-.84-.3-.54-.69-1.12-.94-1.49l.34-.23c.36-.24,.7-.47,.98-.67,.16-.12,.29-.22,.4-.3,.13-.11,.23-.2,.3-.29,.12-.15,.32-.31,.57-.46,.38-.24,.82-.42,1.13-.54,.17-.06,.31-.11,.42-.15,.05-.02,.09-.03,.12-.04h.04c.22-.08,.35-.3,.29-.52-.03-.11-.1-.2-.2-.25s-.21-.07-.32-.04c-.08,.02-.52,.15-1.03,.37-.33,.14-.62,.29-.87,.45-.07,.04-.13,.08-.19,.13-.24,.17-.43,.34-.58,.52-.03,.04-.13,.13-.29,.25-.27,.21-.67,.48-1.1,.77l-.13,.09c-.27,.18-.55,.37-.84,.57-.29-.11-.78-.3-1.32-.48-.47-.16-.88-.28-1.21-.35-.21-.05-.38-.08-.54-.09-.18-.02-.33-.02-.49,.03-.07,.03-.15,.07-.21,.14l-.03,.04c-.05,.09-.07,.19-.05,.29v.04c.04,.11,.11,.19,.21,.25,.1,.05,.21,.07,.32,.04,.01,0,.08,0,.18,0,.19,.02,.49,.08,.84,.18,.52,.15,1.09,.35,1.48,.49,0,0,.01,0,.02,0-.13,.1-.26,.19-.38,.29-.32,.25-.61,.49-.85,.72l-.05,.05s-.05,.05-.08,.08c-.32,.31-.55,.6-.7,.88-.09,.17-.16,.32-.19,.48-.04,.18-.05,.36-.01,.52,.08,.41,.23,.78,.45,1.09,.23,.33,.54,.6,.91,.81,.48,.27,1.07,.42,1.76,.46,.7,.04,1.51-.05,2.39-.26,1.11-.27,2.14-.49,3.05-.68,.29,.33,1.17,1.36,1.75,2.28,.03,.04,.04,.08,.05,.14,.01,.07,.01,.19-.04,.37-.04,.16-.12,.33-.23,.53-.31,.56-.87,1.21-1.5,1.75-.3,.26-.62,.49-.9,.65-.28,.16-.53,.27-.73,.31-.01,0-.06,0-.15-.01-.14-.03-.33-.09-.55-.19-.22-.1-.49-.23-.78-.39-1.37-.76-3.21-2.09-4.52-3.07-.74-.56-1.39-1.06-1.81-1.39-.23-.18-.41-.32-.54-.42l-.18-.15-.02-.02c-.08-.06-.19-.09-.29-.08-.11,.01-.21,.07-.28,.15-.07,.09-.1,.19-.09,.31,.01,.11,.07,.21,.15,.28,.05,.04,1.15,.92,2.56,1.98,1.93,1.44,3.48,2.5,4.61,3.13,.44,.24,.8,.42,1.11,.53,.16,.06,.31,.1,.44,.13,0,.21-.02,.48-.05,.79-.05,.44-.18,1.28-.52,1.89-.05,.09-.1,.17-.16,.25-.41,.55-.84,.9-1.31,1.08-.46,.17-.97,.19-1.56,.04-.05-.01-.15-.05-.3-.14-.39-.22-1.02-.67-1.8-1.3-1.13-.91-2.43-2.08-3.32-2.89-.49-.45-.91-.84-1.21-1.12l-.45-.42s-.02-.02-.03-.02h0c-.08-.08-.19-.12-.3-.11-.11,0-.21,.05-.29,.13-.16,.17-.15,.43,.02,.59,.05,.05,1.3,1.23,2.76,2.53,.87,.77,1.64,1.44,2.3,1.97,.84,.68,1.47,1.13,1.92,1.39,.1,.06,.19,.1,.27,.14,.06,.26,.07,.58,0,.93-.07,.42-.24,.88-.47,1.29-.23,.4-.5,.75-.8,1.01-.3,.26-.61,.41-.91,.44-.08,0-.19,0-.31-.04-.14-.04-.3-.11-.48-.21-.39-.22-.84-.56-1.36-1.01-.75-.66-1.48-1.43-1.97-1.97-.27-.3-.49-.55-.64-.73-.08-.09-.14-.16-.18-.21l-.06-.07c-.13-.16-.37-.2-.53-.09l-.05,.03c-.18,.15-.2,.41-.06,.59,.11,.14,.71,.86,1.51,1.69,.1,.1,.2,.2,.3,.3l.07,.07h0c.37,.38,.73,.72,1.07,1.01,.57,.5,1.07,.87,1.51,1.12,.23,.13,.44,.22,.64,.28,.24,.07,.45,.1,.65,.07,.46-.05,.92-.27,1.35-.63,.37-.32,.72-.75,.99-1.24,.28-.5,.47-1.04,.56-1.56,.05-.31,.07-.6,.04-.87,.49,.05,.98-.01,1.42-.18,.96-.35,1.48-1.09,1.68-1.37h0c.08-.11,.15-.22,.22-.34,.48-.83,.56-1.63,.63-2.27,.04-.35,.05-.66,.05-.89,.2-.07,.42-.17,.65-.31,.5-.29,1.02-.71,1.51-1.19,.51-.5,.92-1.03,1.2-1.52,.19-.34,.31-.65,.36-.94,.03-.17,.03-.33,0-.48-.02-.17-.08-.32-.17-.46,0,0,0-.02-.01-.02,.1,.14,.2,.29,.31,.44,.64,.88,1.35,1.69,2.11,2.42-1.34,2.5-1.93,4.95-1.77,7.31,.1,1.52,.53,3.01,1.25,4.42,.51,.98,1.16,1.94,1.95,2.83,.45,.51,.94,1,1.46,1.46l.06,.05c1.08,.94,1.92,1.44,2.01,1.5,.1,.06,.22,.07,.33,.04,.1-.03,.18-.09,.24-.19,.07-.13,.07-.29,0-.42-.04-.07-.09-.12-.15-.15-.03-.02-2.72-1.6-4.58-4.5-1.05-1.64-1.63-3.38-1.74-5.19-.12-2.11,.41-4.32,1.58-6.57,.81,.7,1.67,1.31,2.57,1.81,.99,.55,2.04,.99,3.13,1.29,.22,.06,.45-.07,.51-.29,.06-.22-.07-.45-.29-.51Zm-18.19-10.54s.1-.09,.15-.13c.37-.32,.83-.67,1.45-1.09,.18,.26,.45,.66,.69,1.07,.18,.3,.33,.57,.42,.78,.05,.11,.09,.21,.11,.3,.02,.07,.02,.11,.02,.12-.01,.03-.11,.12-.29,.22-.25,.14-.64,.27-1,.34-.17,.03-.34,.05-.47,.06-.12,0-.21,0-.23-.02,0,0-.04-.03-.09-.08-.08-.1-.19-.26-.29-.46-.16-.31-.3-.66-.4-.9-.03-.08-.05-.14-.08-.2Zm7.96,3.1c-.08-.1-.16-.2-.24-.29,.11-.02,.21-.04,.29-.05,.16,.32,.47,.92,.94,1.65-.28-.4-.61-.84-1-1.31Z"/>
    </g>
    <g>
      <g>
        <path class="cls-1" d="M319.52,223.8c-1.17-.72-2.6-1.24-5.45-2.32-11.85-4.46-15.62-2.38-24.13-5.31-8.59-2.96-14.29-8.38-18-11.9-3.88-3.68-6.84-7.46-9.09-10.88-7.67,5.44-15.41,10.33-23.93,16.13,9.71,12.97,14.96,29.19,21.88,43.95,10.07,21.49,24.99,38.12,40.86,37.65,5.79-.17,15.35-2.93,21.82-10.6,2.83-3.35,4.32-6.76,5.12-9.1,7.12-21,2.62-40.46-9.1-47.63Z"/>
        <path class="cls-4" d="M301.04,291.63c-14.36,0-29.52-14.12-40.69-37.95-1.95-4.16-3.8-8.51-5.59-12.72-4.57-10.75-9.3-21.87-16.24-31.14-.08-.11-.12-.25-.09-.38s.1-.25,.21-.33c3.42-2.33,6.74-4.53,9.94-6.65,4.83-3.2,9.4-6.23,13.98-9.48,.11-.08,.25-.11,.38-.08,.13,.03,.25,.1,.33,.22,2.6,3.95,5.63,7.58,9.02,10.8,3.73,3.54,9.34,8.86,17.82,11.79,3.72,1.28,6.54,1.6,9.53,1.93,3.73,.41,7.95,.88,14.61,3.39l.33,.12c2.69,1.01,4.04,1.52,5.21,2.24h0c12.32,7.53,16.23,27.81,9.31,48.21-1.19,3.45-2.94,6.56-5.22,9.26-6.47,7.67-16,10.6-22.19,10.78-.21,0-.43,0-.64,0Zm-61.41-81.99c6.84,9.28,11.52,20.29,16.05,30.93,1.79,4.2,3.63,8.54,5.58,12.69,11.16,23.81,26.25,37.74,40.4,37.36,5.99-.17,15.2-3.01,21.46-10.42,2.19-2.6,3.89-5.61,5.03-8.94,6.77-19.96,3.04-39.75-8.88-47.04h0c-1.09-.67-2.41-1.16-5.04-2.15l-.33-.12c-6.54-2.46-10.52-2.9-14.37-3.33-3.04-.34-5.92-.66-9.74-1.98-8.69-3-14.39-8.41-18.17-12-3.33-3.16-6.32-6.71-8.9-10.55-4.45,3.15-8.89,6.09-13.59,9.2-3.07,2.03-6.23,4.13-9.5,6.35Z"/>
      </g>
      <g>
        <g>
          <line class="cls-1" x1="243.94" y1="217.6" x2="269.99" y2="203.08"/>
          <path class="cls-4" d="M243.94,218.1c-.18,0-.35-.09-.44-.26-.13-.24-.05-.54,.19-.68l26.04-14.52c.24-.13,.55-.05,.68,.19,.13,.24,.05,.54-.19,.68l-26.04,14.52c-.08,.04-.16,.06-.24,.06Z"/>
        </g>
        <g>
          <path class="cls-1" d="M242.82,208.11s4.7,5.86,4.87,7.06"/>
          <path class="cls-4" d="M247.69,215.67c-.24,0-.46-.18-.49-.43-.1-.67-2.5-3.99-4.77-6.82-.17-.22-.14-.53,.08-.7,.22-.17,.53-.14,.7,.08,.8,1,4.79,6.03,4.98,7.3,.04,.27-.15,.53-.42,.57-.02,0-.05,0-.07,0Z"/>
        </g>
        <g>
          <path class="cls-1" d="M249.43,204.31s5,6.8,4.97,7.69"/>
          <path class="cls-4" d="M254.4,212.5h-.02c-.28,0-.49-.24-.48-.52-.09-.58-2.55-4.22-4.88-7.37-.16-.22-.12-.54,.11-.7,.22-.17,.54-.12,.7,.11,1.91,2.59,5.1,7.08,5.07,8,0,.27-.23,.48-.5,.48Z"/>
        </g>
        <g>
          <path class="cls-1" d="M255.12,200.9s4.02,7.79,4.7,8"/>
          <path class="cls-4" d="M259.83,209.4c-.06,0-.11,0-.16-.02-.22-.07-.87-.27-4.99-8.25-.13-.25-.03-.55,.21-.67,.24-.13,.55-.03,.67,.21,1.83,3.54,4.01,7.42,4.48,7.79,.26,.08,.37,.34,.29,.61-.07,.21-.28,.33-.5,.33Z"/>
        </g>
        <g>
          <path class="cls-1" d="M261.36,197.14s4.87,6.6,5.11,7.9"/>
          <path class="cls-4" d="M266.48,205.53c-.24,0-.45-.17-.49-.41-.16-.87-3.17-5.18-5.02-7.69-.16-.22-.12-.54,.11-.7,.22-.16,.53-.12,.7,.11,.82,1.12,4.95,6.75,5.2,8.1,.05,.27-.13,.53-.4,.58-.03,0-.06,0-.09,0Z"/>
        </g>
      </g>
    </g>
    <path class="cls-4" d="M454.42,414h-65.35c-1.61-20.66-3.23-41.32-4.84-61.98-.4,20.66-.81,41.32-1.21,61.98h-71.4c3.07-30.42,6.15-60.84,9.22-91.27,6.24,1.13,14.74,2.49,24.89,3.62,7.1,.79,22.23,2.27,41.85,2.27,12.46,0,18.69,0,27.58-1.33,10.78-1.61,19.48-4.25,25.43-6.38,4.61,31.03,9.22,62.06,13.82,93.08Z"/>
    <g>
      <path class="cls-1" d="M361.23,107.56v51.78c4.03,6.74,11.36,10.84,19.17,10.7,11.88-.21,18.02-10.1,18.38-10.7v-51.78c-1.63-7.9-7.25-14.14-14.24-15.73-9.41-2.14-20.25,4.37-23.3,15.73Z"/>
      <path class="cls-4" d="M380.01,170.54c-7.83,0-15.16-4.17-19.21-10.94l-.07-.12,.02-52.05c3.01-11.19,13.73-18.41,23.9-16.09,7.2,1.64,12.94,7.97,14.62,16.12v.1s.01,51.92,.01,51.92l-.07,.12c-.26,.44-6.53,10.72-18.8,10.94-.13,0-.27,0-.4,0Zm-18.28-11.34c3.95,6.52,11.06,10.49,18.66,10.34,11.18-.2,17.14-9.15,17.89-10.34v-51.59c-1.61-7.75-7.05-13.75-13.85-15.3-9.63-2.19-19.8,4.67-22.69,15.31v51.58Z"/>
    </g>
    <path class="cls-4" d="M361.23,124.8c1.34,.44,2.85,.85,4.5,1.19,2.97,.6,5.65,.78,7.9,.76-1.48,1.8-2.98,3.83-4.42,6.12-4.14,6.55-6.4,12.89-7.69,17.96-.09-8.68-.19-17.36-.28-26.04Z"/>
    <g>
      <path class="cls-1" d="M392.47,124.48c1.16-.8,3.23-2.45,4.73-5.28,2.09-3.95,1.77-7.71,1.58-9.09v-7.58c3.53,.5,9.03-5.34,8.15-10.54-.37-2.21-1.98-4.88-4.35-5.33-1.29-.24-2.62,.2-3.8,1.07v-12.29c0-9.06-7.35-16.41-16.41-16.41h-13.81c-9.06,0-16.41,7.35-16.41,16.41v34.67c0,9.06,7.35,16.41,16.41,16.41h4.54"/>
      <path class="cls-4" d="M373.1,127.02h-4.54c-9.32,0-16.91-7.59-16.91-16.91v-34.67c0-9.32,7.59-16.91,16.91-16.91h13.81c9.32,0,16.91,7.59,16.91,16.91v11.37c1.14-.63,2.3-.86,3.39-.65,2.57,.49,4.34,3.25,4.75,5.74,.55,3.32-1.28,6.58-3.19,8.54-1.61,1.65-3.42,2.59-4.96,2.62v7.05c.25,1.8,.38,5.51-1.63,9.32-1.15,2.16-2.83,4.05-4.89,5.46-.22,.16-.54,.1-.7-.13-.16-.23-.1-.54,.13-.7,1.92-1.32,3.5-3.09,4.57-5.11,1.89-3.56,1.76-7.03,1.52-8.78v-8.23s.57,.08,.57,.08c1.32,.18,3.11-.69,4.68-2.29,1.73-1.78,3.41-4.73,2.92-7.67-.35-2.09-1.85-4.52-3.95-4.92-1.36-.26-2.61,.39-3.41,.98l-.79,.58v-13.27c0-8.77-7.14-15.91-15.91-15.91h-13.81c-8.77,0-15.91,7.14-15.91,15.91v34.67c0,8.77,7.14,15.91,15.91,15.91h4.54c.28,0,.5,.22,.5,.5s-.22,.5-.5,.5Z"/>
    </g>
    <circle cx="379.4" cy="89.99" r="1.24"/>
    <path class="cls-4" d="M383.94,89.89c-.18,0-.36-.1-.45-.28-.42-.83-1.02-1.55-1.75-2.09-1.45-1.06-3.01-1.16-3.8-1.11-.27,.04-.51-.2-.53-.47s.2-.51,.47-.53c.95-.05,2.75,.06,4.45,1.3,.86,.63,1.57,1.48,2.05,2.45,.12,.25,.02,.55-.22,.67-.07,.04-.15,.05-.22,.05Z"/>
    <circle cx="360.91" cy="89.99" r="1.24"/>
    <path class="cls-4" d="M356.36,89.89c-.07,0-.15-.02-.22-.05-.25-.12-.35-.42-.23-.67,.48-.97,1.19-1.82,2.05-2.45,1.7-1.25,3.52-1.35,4.45-1.3,.28,.01,.49,.25,.47,.53-.01,.28-.26,.51-.53,.47-.8-.04-2.36,.05-3.8,1.11-.73,.54-1.33,1.26-1.75,2.09-.09,.18-.26,.28-.45,.28Z"/>
    <path class="cls-4" d="M365.03,103.66c-.1,0-.21-.03-.29-.09-.15-.11-.23-.29-.21-.47l2.04-16.78c.03-.27,.28-.47,.56-.44,.27,.03,.47,.28,.44,.56l-1.93,15.88,3.44-1.65c.25-.12,.55-.01,.67,.24,.12,.25,.01,.55-.24,.67l-4.26,2.04c-.07,.03-.14,.05-.22,.05Z"/>
    <path class="cls-4" d="M369.67,106.72c-.22,0-.43-.15-.49-.38-.07-.27,.1-.54,.36-.61,.04,0,4-1.02,6.29-2.96,.21-.18,.53-.15,.71,.06,.18,.21,.15,.53-.06,.71-2.47,2.09-6.52,3.12-6.69,3.16-.04,0-.08,.01-.12,.01Z"/>
    <g>
      <path class="cls-1" d="M394.48,92.72c.43-3.87,.34-7.75-.27-11.55-.74-4.57-2.46-15.29-8.09-17.23-1.07-.37-2.01-.54-2.95-.54-3.19,0-7.25,2.1-14.03,7.25-3.68,2.8-7.9,4.34-11.89,4.34-3.03,0-5.69-.93-7.49-2.61-1.57-1.48-3.32-4.31-3.49-7.85-.08-1.59,.12-3.98,1.51-6.38,2.35-4.05,6.48-5.31,8.15-5.66,.61-3.39,2-5.95,4.13-7.61,1.73-1.35,3.93-2.03,6.55-2.03,5.16,0,10.97,2.68,14.44,4.28,7.23,3.33,13.5,8.45,18.7,15.23,1.02,1.33,1.63,2.91,1.76,4.58,.37,4.53,.3,9.1-.21,13.58-.26,2.26-.64,4.53-1.12,6.76l-.03,.12-5.85,6.98,.18-1.64Z"/>
      <path class="cls-4" d="M366.6,43.34c5.07,0,10.73,2.62,14.27,4.25,8.34,3.84,14.32,9.65,18.47,15.06,.96,1.25,1.53,2.75,1.66,4.32,.33,3.95,.36,8.5-.21,13.49-.28,2.4-.66,4.64-1.11,6.71-1.57,1.87-3.14,3.74-4.71,5.61,.3-2.75,.5-6.84-.28-11.68-.78-4.87-2.51-15.58-8.43-17.63-1.02-.35-2.02-.57-3.11-.57-3.15,0-7.05,1.81-14.33,7.35-3.8,2.89-7.97,4.24-11.58,4.24-2.88,0-5.42-.86-7.14-2.47-1.53-1.44-3.17-4.17-3.34-7.51-.06-1.25,.03-3.67,1.44-6.11,2.56-4.42,7.39-5.35,8.15-5.48,.37-2.29,1.33-5.55,4-7.64,1.79-1.4,3.95-1.93,6.24-1.93m0-1h0c-2.73,0-5.03,.72-6.85,2.14-2.16,1.68-3.59,4.23-4.25,7.59-1.9,.45-5.85,1.84-8.15,5.82-1.45,2.51-1.66,5.01-1.58,6.66,.19,3.68,2.01,6.65,3.65,8.19,1.89,1.77,4.67,2.75,7.83,2.75,4.09,0,8.42-1.58,12.19-4.44,6.68-5.07,10.65-7.15,13.72-7.14,.88,0,1.77,.16,2.79,.51,5.35,1.85,7.04,12.35,7.76,16.84,.6,3.75,.69,7.59,.27,11.41l-.36,3.28,2.12-2.53,2.28-2.71,2.43-2.9,.16-.19,.05-.24c.49-2.24,.87-4.53,1.13-6.8,.52-4.52,.59-9.12,.21-13.68-.15-1.76-.79-3.44-1.87-4.84-5.24-6.85-11.59-12.02-18.85-15.36-3.55-1.63-9.42-4.34-14.68-4.34h0Z"/>
    </g>
    <path class="cls-5" d="M374.41,66.26c-6.66,4.81-14.44,4.89-18.3,1.23-1.64-1.56-3.18-4.38-3.34-7.51-.06-1.25,.03-3.66,1.44-6.11,.1-.17,.2-.32,.31-.48-1.85,.63-4.59,2.02-6.31,5-1.42,2.44-1.51,4.85-1.44,6.11,.04,.84,.24,4.75,3.34,7.51,2.95,2.62,6.7,2.5,8.48,2.41,3.91-.18,6.84-1.96,7.88-2.59,.95-.58,1.16-.84,4.97-3.5,1.25-.88,2.29-1.59,2.98-2.07Z"/>
    <g>
      <g>
        <path class="cls-1" d="M322.06,305.7l-1.22,17.04s83.96,15.8,119.62-2.71c-.85-5.54-1.69-11.09-2.54-16.63"/>
        <path class="cls-4" d="M387.88,329.46c-33.4,0-66.6-6.13-67.13-6.23-.25-.05-.42-.27-.41-.53l1.22-17.04c.02-.28,.25-.49,.53-.46,.28,.02,.48,.26,.46,.53l-1.18,16.59c6.58,1.18,84.6,14.71,118.54-2.58l-2.48-16.27c-.04-.27,.15-.53,.42-.57,.27-.04,.53,.15,.57,.42l2.54,16.63c.03,.21-.07,.42-.26,.52-13.17,6.84-33.03,8.99-52.82,8.99Z"/>
      </g>
      <g>
        <path class="cls-1" d="M426.84,307c1.28,5.65,2.57,11.29,3.85,16.94"/>
        <path class="cls-4" d="M430.7,324.44c-.23,0-.43-.16-.49-.39l-3.85-16.94c-.06-.27,.11-.54,.38-.6,.28-.07,.54,.11,.6,.38l3.85,16.94c.06,.27-.11,.54-.38,.6-.04,0-.08,.01-.11,.01Z"/>
      </g>
      <g>
        <path class="cls-1" d="M325.47,306.96s1.24,14.62,0,17.09"/>
        <path class="cls-4" d="M325.47,324.55c-.08,0-.15-.02-.22-.05-.25-.12-.35-.42-.22-.67,.97-1.93,.29-12.8-.05-16.83-.02-.27,.18-.52,.46-.54,.29,0,.52,.18,.54,.46,.13,1.51,1.22,14.83-.05,17.36-.09,.18-.26,.28-.45,.28Z"/>
      </g>
      <g>
        <path class="cls-1" d="M343.59,309.49s-1.25,15.45-1.23,16.56"/>
        <path class="cls-4" d="M342.36,326.55c-.27,0-.5-.22-.5-.49-.02-1.13,1.18-15.98,1.23-16.61,.02-.28,.26-.47,.54-.46,.28,.02,.48,.26,.46,.54-.43,5.33-1.24,15.65-1.23,16.52,0,.28-.22,.5-.49,.51h0Z"/>
      </g>
      <g>
        <path class="cls-1" d="M368.72,311.88s.47,15.03-.43,16.07"/>
        <path class="cls-4" d="M368.29,328.44c-.12,0-.23-.04-.33-.12-.21-.18-.23-.5-.05-.71,.47-.78,.53-8.61,.31-15.72,0-.28,.21-.51,.48-.52,.27-.02,.51,.21,.52,.48,.14,4.58,.38,15.34-.55,16.41-.1,.11-.24,.17-.38,.17Z"/>
      </g>
      <g>
        <path class="cls-1" d="M389.88,312.55s-.8,13.76-.4,16.07"/>
        <path class="cls-4" d="M389.48,329.12c-.24,0-.45-.17-.49-.42-.4-2.34,.36-15.62,.39-16.19,.02-.28,.25-.49,.53-.47,.28,.02,.49,.25,.47,.53,0,.14-.79,13.73-.41,15.96,.05,.27-.14,.53-.41,.58-.03,0-.06,0-.09,0Z"/>
      </g>
      <g>
        <path class="cls-1" d="M407.21,310.67s.97,14.36,1.75,17.28"/>
        <path class="cls-4" d="M408.96,328.44c-.22,0-.42-.15-.48-.37-.79-2.93-1.73-16.78-1.77-17.37-.02-.28,.19-.51,.47-.53,.26-.02,.51,.19,.53,.47,0,.14,.97,14.34,1.74,17.18,.07,.27-.09,.54-.35,.61-.04,.01-.09,.02-.13,.02Z"/>
      </g>
    </g>
    <g>
      <path class="cls-1" d="M431.44,162.48c-12.73-8.3-24.38-13.37-32.48-16.41-.06,4.42-.12,8.85-.18,13.27-.49,.81-6.32,10.05-17.57,10.67-8.02,.44-15.71-3.68-19.98-10.67,.06-3.44,.12-6.87,.18-10.31-4.87,1.89-11.22,4.9-17.92,9.71,0,0-8.58,6.16-14.93,13.88-7.51,9.13-11.62,21.35-14.36,58.22-.95,12.8-1.8,29.37-1.77,48.85-.3,1.54-2.6,14.25,5.24,21.26,1.08,.97,2.55,2,4.53,2.82-.05,.64-.09,1.28-.14,1.92,13.88,3.56,32.56,6.88,54.71,6.79,25.34-.11,46.32-4.65,61.16-9.09,.98,.05,3.56,.05,6.09-1.6,3.88-2.52,4.49-6.85,4.57-7.5,0,0,46.04-.9,51.01-20.76,7.92-31.69-26.07-83.59-68.16-111.05Z"/>
      <path class="cls-4" d="M375.86,312.99c-18.16,0-36.3-2.29-53.92-6.8-.23-.06-.39-.28-.37-.52l.11-1.57c-1.62-.71-3.08-1.63-4.34-2.76-7.82-6.99-5.87-19.33-5.4-21.73-.03-16.23,.56-32.68,1.76-48.8,2.83-38.02,7.09-49.53,14.48-58.5,6.32-7.68,14.94-13.91,15.03-13.97,5.57-4,11.63-7.29,18.03-9.77,.16-.06,.33-.04,.47,.06,.14,.1,.22,.25,.21,.42l-.18,10.16c4.2,6.79,11.63,10.73,19.45,10.3,10.57-.58,16.2-8.89,17.1-10.31l.18-13.13c0-.16,.08-.31,.22-.41,.14-.09,.31-.11,.46-.05,11.47,4.3,22.43,9.84,32.58,16.46h0c44.09,28.77,76.04,80.91,68.38,111.59-4.8,19.21-46.11,20.99-51.06,21.13-.27,1.57-1.25,5.17-4.73,7.43-2.44,1.58-4.96,1.74-6.3,1.68-19.9,5.94-40.5,9-61.22,9.08-.3,0-.61,0-.91,0Zm-53.27-7.67c17.71,4.5,35.94,6.73,54.18,6.67,20.65-.09,41.18-3.14,61.02-9.07,.06-.02,.11-.03,.17-.02,1.2,.06,3.54-.05,5.79-1.52,3.5-2.27,4.21-6.04,4.35-7.15,.03-.25,.24-.43,.49-.44,.46,0,45.72-1.12,50.53-20.39,7.58-30.31-24.17-81.95-67.95-110.51-9.89-6.45-20.56-11.87-31.72-16.11l-.17,12.55c0,.09-.03,.18-.07,.25-.64,1.05-6.55,10.28-17.97,10.91-8.22,.46-16.05-3.73-20.44-10.9-.05-.08-.07-.17-.07-.27l.17-9.56c-6.06,2.42-11.81,5.57-17.11,9.38-.09,.06-8.61,6.22-14.84,13.79-7.25,8.81-11.45,20.19-14.25,57.94-1.2,16.09-1.79,32.52-1.77,48.82-.46,2.41-2.34,14.26,5.07,20.89,1.27,1.13,2.74,2.05,4.39,2.73,.2,.08,.32,.28,.31,.5l-.11,1.51Z"/>
    </g>
    <path class="cls-4" d="M374.87,309.43c-12.25,0-24.52-1.24-36.54-3.68l-.4-.08v-18.74l.29-.14c.11-.05,11.2-5.56,10.21-25.93l-.03-.52h60l-.07,.57c-.03,.23-2.89,22.83,6.91,30.01l.2,.15v13.81l-.39,.09c-12.13,2.74-24.59,4.23-37.02,4.45-1.06,.02-2.11,.03-3.17,.03Zm-35.94-4.58c12.85,2.59,26,3.79,39.09,3.55,12.23-.21,24.48-1.67,36.43-4.34v-12.51c-9.27-7.09-7.58-26.57-7.17-30.23h-57.82c.75,19.07-8.69,25.21-10.52,26.21v17.3Z"/>
    <path class="cls-4" d="M407.5,265.58c-.22,0-.43-.15-.48-.38-.07-.27,.09-.54,.36-.61,12.63-3.19,24.42-7.28,35.04-12.17l.91-.42c4.69-2.17,10.5-4.91,18.4-4.82,5.75,.04,11.51,1.54,17.11,4.46,.25,.13,.34,.43,.21,.67-.13,.25-.43,.34-.67,.21-5.46-2.84-11.06-4.3-16.66-4.34-.08,0-.16,0-.24,0-7.53,0-13.18,2.62-17.73,4.73l-.91,.42c-10.68,4.91-22.53,9.02-35.22,12.23-.04,.01-.08,.02-.12,.02Z"/>
    <path class="cls-4" d="M440.25,254.45c-.21,0-.4-.13-.47-.34-.09-.26-8.77-26.17-12.46-46.28-3.7-20.2-.02-32.28,.02-32.4,.08-.26,.37-.41,.63-.33,.26,.08,.41,.36,.33,.63-.04,.12-3.64,11.99,.01,31.92,3.67,20.05,12.33,45.89,12.42,46.15,.09,.26-.05,.54-.31,.63-.05,.02-.11,.03-.16,.03Z"/>
    <g>
      <path class="cls-4" d="M422.02,297.5l-.15-.32c-6.47-13.84-2.53-34.86-2.49-35.07,.05-.27,.32-.45,.59-.4,.27,.05,.45,.31,.4,.59-.04,.21-3.86,20.59,2.26,34.14l25.91-2.63c.27-.03,.52,.17,.55,.45,.03,.28-.17,.52-.45,.55l-26.62,2.7Z"/>
      <path class="cls-4" d="M408.98,271.21c-.53,0-1.06-.03-1.59-.08-.27-.03-.47-.28-.44-.55,.03-.28,.28-.47,.55-.44,5.31,.58,11.29-2.32,11.34-2.35,.25-.12,.55-.02,.67,.23s.02,.55-.23,.67c-.23,.11-5.21,2.53-10.31,2.53Z"/>
      <path class="cls-4" d="M409.74,279.14c-.56,0-1.09-.04-1.58-.14-.27-.05-.45-.32-.4-.59,.05-.27,.32-.45,.59-.4,3.54,.69,10.04-1.81,10.11-1.84,.26-.1,.55,.03,.65,.29,.1,.26-.03,.55-.29,.65-.24,.09-5.27,2.03-9.08,2.03Z"/>
      <path class="cls-4" d="M412.54,288.14c-.35,0-.7-.02-1.06-.07-.27-.03-.47-.28-.43-.56,.03-.28,.29-.47,.56-.43,3.79,.48,7.2-2.2,7.24-2.22,.21-.17,.53-.14,.7,.08,.17,.22,.14,.53-.08,.7-.14,.11-3.18,2.5-6.92,2.5Z"/>
      <path class="cls-4" d="M414.95,295.84c-.28,0-.5-.22-.5-.5s.22-.5,.5-.5c2.07,0,5.78-1.72,5.82-1.74,.25-.12,.55,0,.67,.24s0,.55-.24,.67c-.16,.07-3.95,1.83-6.24,1.83Z"/>
    </g>
    <g>
      <line class="cls-1" x1="422.33" y1="296.96" x2="414.95" y2="299.33"/>
      <path class="cls-4" d="M414.95,299.83c-.21,0-.41-.13-.48-.35-.08-.26,.06-.54,.32-.63l7.38-2.36c.26-.08,.54,.06,.63,.32,.08,.26-.06,.54-.32,.63l-7.38,2.36c-.05,.02-.1,.02-.15,.02Z"/>
    </g>
    <path class="cls-4" d="M357.32,99.77c-5.23,0-9.49-4.26-9.49-9.49s4.26-9.49,9.49-9.49,9.49,4.26,9.49,9.49-4.26,9.49-9.49,9.49Zm0-17.98c-4.68,0-8.49,3.81-8.49,8.49s3.81,8.49,8.49,8.49,8.49-3.81,8.49-8.49-3.81-8.49-8.49-8.49Z"/>
    <path class="cls-4" d="M380,99.77c-5.23,0-9.49-4.26-9.49-9.49s4.26-9.49,9.49-9.49,9.49,4.26,9.49,9.49-4.26,9.49-9.49,9.49Zm0-17.98c-4.68,0-8.49,3.81-8.49,8.49s3.81,8.49,8.49,8.49,8.49-3.81,8.49-8.49-3.81-8.49-8.49-8.49Z"/>
    <path class="cls-4" d="M381.8,183.09c-7.09,0-12.55-2.18-14.1-2.87-15.2-6.78-18.92-22.06-19.3-23.78-.06-.27,.11-.54,.38-.59,.27-.06,.54,.11,.6,.38,.36,1.67,3.98,16.5,18.73,23.08,1.56,.7,15.63,6.55,29.49-1.41,14.19-8.15,15.99-23.53,16.15-25.25,.03-.28,.27-.47,.54-.45,.27,.03,.48,.27,.45,.54-.16,1.78-2.02,17.63-16.65,26.03-5.72,3.28-11.4,4.32-16.3,4.32Z"/>
    <path class="cls-4" d="M351.75,164.56c-.16,0-.32-.08-.42-.22-.15-.23-.09-.54,.14-.69l9.48-6.35c.23-.16,.54-.09,.69,.14,.15,.23,.09,.54-.14,.69l-9.48,6.35c-.09,.06-.18,.08-.28,.08Z"/>
    <path class="cls-4" d="M358.52,173.89c-.14,0-.28-.06-.38-.17-.18-.21-.16-.52,.05-.71l8.64-7.6c.21-.18,.52-.16,.71,.05s.16,.52-.05,.71l-8.64,7.6c-.09,.08-.21,.12-.33,.12Z"/>
    <path class="cls-4" d="M380,183.01h-.02c-.28,0-.49-.24-.48-.52l.4-12.48c0-.28,.24-.5,.52-.48,.28,0,.49,.24,.48,.52l-.4,12.48c0,.27-.23,.48-.5,.48Z"/>
    <path class="cls-4" d="M401,176.78c-.16,0-.32-.08-.42-.23l-7.28-11.27c-.15-.23-.08-.54,.15-.69s.54-.08,.69,.15l7.28,11.27c.15,.23,.08,.54-.15,.69-.08,.05-.18,.08-.27,.08Z"/>
    <path class="cls-4" d="M412.7,160.2c-.07,0-.14-.01-.2-.04l-13.84-6.16c-.25-.11-.37-.41-.25-.66,.11-.25,.41-.36,.66-.25l13.84,6.16c.25,.11,.37,.41,.25,.66-.08,.19-.27,.3-.46,.3Z"/>
    <g>
      <path class="cls-4" d="M464.63,185.69c-.13,0-.26-.05-.36-.15-9.76-10.07-20.26-18.79-31.19-25.93-4.14-2.7-8.46-5.26-12.84-7.6-.24-.13-.33-.43-.2-.68s.44-.34,.68-.2c4.41,2.36,8.75,4.93,12.91,7.65,11,7.17,21.55,15.95,31.37,26.07,.19,.2,.19,.51-.01,.71-.1,.09-.22,.14-.35,.14Z"/>
      <path class="cls-4" d="M476.04,294.95c-.23,0-.44-.16-.49-.39-.06-.27,.11-.54,.38-.6,11.53-2.56,25.82-7.82,28.46-18.37,2.07-8.26,1.47-18.04-1.78-29.06-.08-.27,.07-.54,.34-.62,.27-.07,.54,.07,.62,.34,3.3,11.19,3.9,21.15,1.79,29.58-2.22,8.86-12.04,15.29-29.21,19.1-.04,0-.07,.01-.11,.01Z"/>
      <path class="cls-4" d="M440.71,307.56c-.21,0-.4,0-.57-.01-.28-.01-.49-.25-.47-.53,.01-.28,.26-.49,.53-.47,1.25,.06,3.72-.06,6.09-1.59,3.68-2.39,4.43-6.36,4.57-7.52,.03-.27,.28-.47,.56-.43,.27,.03,.47,.28,.43,.56-.16,1.27-.98,5.61-5.02,8.23-2.28,1.48-4.64,1.77-6.12,1.77Z"/>
      <path class="cls-4" d="M313.2,218.73c-.26,0-.48-.2-.5-.46-.84-9.97,.2-19.74,3.08-29.04,1.27-4.1,2.91-8.12,4.88-11.95,.13-.25,.43-.34,.67-.22,.25,.13,.34,.43,.22,.67-1.94,3.78-3.56,7.75-4.82,11.79-2.85,9.17-3.87,18.82-3.04,28.66,.02,.28-.18,.52-.46,.54-.01,0-.03,0-.04,0Z"/>
      <path class="cls-4" d="M358.41,148.53c-.28,0-.5-.22-.5-.5v-10.01c0-.28,.22-.5,.5-.5s.5,.22,.5,.5v10.01c0,.28-.22,.5-.5,.5Z"/>
      <path class="cls-4" d="M349,98.26c-.09,0-.19-.03-.27-.08-2.92-1.91-4.66-5.03-4.66-8.35s1.74-6.44,4.66-8.35c.23-.15,.54-.09,.69,.14,.15,.23,.09,.54-.14,.69-2.64,1.73-4.21,4.54-4.21,7.52s1.57,5.79,4.21,7.52c.23,.15,.3,.46,.14,.69-.1,.15-.26,.23-.42,.23Z"/>
      <path class="cls-4" d="M346.25,55.45c-.12,0-.24-.04-.34-.13-.2-.19-.22-.5-.03-.71,2.79-3.03,6.58-4.03,8.12-4.33,.6-3.08,1.84-5.54,3.69-7.3,.2-.19,.52-.18,.71,.02,.19,.2,.18,.52-.02,.71-1.76,1.68-2.93,4.07-3.46,7.1-.04,.21-.2,.37-.41,.41-1.14,.19-5.08,1.03-7.9,4.08-.1,.11-.23,.16-.37,.16Z"/>
      <path class="cls-4" d="M404.22,71.26c-.27,0-.5-.22-.5-.5-.01-1.87-.1-3.77-.27-5.65-.14-1.6-.77-3.11-1.82-4.38-.93-1.13-1.91-2.24-2.92-3.29-.19-.2-.18-.52,.02-.71,.2-.19,.52-.18,.71,.02,1.02,1.07,2.02,2.19,2.96,3.34,1.18,1.43,1.88,3.13,2.04,4.93,.17,1.91,.26,3.84,.27,5.73,0,.28-.22,.5-.5,.5h0Z"/>
      <path class="cls-4" d="M402.02,145.06c-.28,0-.5-.22-.5-.5v-26.72c0-.28,.22-.5,.5-.5s.5,.22,.5,.5v26.72c0,.28-.22,.5-.5,.5Z"/>
      <path class="cls-4" d="M311.62,382.02s-.04,0-.05,0c-.27-.03-.47-.28-.44-.55l3.1-29.24c.03-.27,.27-.48,.55-.44,.27,.03,.47,.28,.44,.55l-3.1,29.24c-.03,.26-.24,.45-.5,.45Z"/>
      <path class="cls-4" d="M452.28,378.61c-.24,0-.46-.18-.49-.42l-7.81-50.17c-.04-.27,.14-.53,.42-.57,.27-.03,.53,.14,.57,.42l7.81,50.17c.04,.27-.14,.53-.42,.57-.03,0-.05,0-.08,0Z"/>
      <g>
        <path class="cls-4" d="M252.61,242.72c-.21,0-.4-.13-.47-.33-2.56-7.17-5.69-14.19-9.29-20.85-1.61-2.98-3.35-5.95-5.17-8.82-.15-.23-.08-.54,.15-.69,.23-.14,.54-.08,.69,.16,1.83,2.89,3.58,5.88,5.21,8.88,3.63,6.71,6.78,13.77,9.36,20.99,.09,.26-.04,.55-.3,.64-.06,.02-.11,.03-.17,.03Z"/>
        <path class="cls-4" d="M273.41,200.68c-.12,0-.24-.04-.34-.13-3.7-3.36-7-7.17-9.83-11.36-1.05,.76-2.09,1.51-3.14,2.25-.23,.16-.54,.11-.7-.12s-.11-.54,.12-.7c1.19-.84,2.37-1.69,3.56-2.55,.11-.08,.24-.11,.38-.09,.13,.02,.25,.1,.33,.22,2.84,4.28,6.19,8.18,9.96,11.6,.2,.19,.22,.5,.03,.71-.1,.11-.23,.16-.37,.16Z"/>
      </g>
    </g>
    <path class="cls-4" d="M399.08,66.14c-.14,0-.29-.06-.39-.18-.15-.18-15.1-18.2-28.2-19.27-.28-.02-.48-.26-.46-.54,.02-.28,.27-.48,.54-.46,13.53,1.1,28.28,18.87,28.9,19.63,.17,.21,.14,.53-.07,.7-.09,.08-.21,.11-.32,.11Z"/>
    <path class="cls-4" d="M358.08,72.95c-2.18,0-4.45-.57-6.8-1.71-.25-.12-.35-.42-.23-.67,.12-.25,.42-.35,.67-.23,2.97,1.44,5.8,1.92,8.43,1.42,2.35-.45,3.9-1.57,6.03-3.13,.7-.51,1.46-1.06,2.33-1.65,3.43-2.33,7.26-4.31,11.37-5.88,.26-.1,.55,.03,.65,.29s-.03,.55-.29,.65c-4.04,1.55-7.79,3.49-11.16,5.77-.86,.58-1.61,1.13-2.3,1.63-2.24,1.63-3.86,2.81-6.43,3.3-.74,.14-1.49,.21-2.26,.21Z"/>
  </g>
  <g>
    <g>
      <rect class="cls-1" x="526.27" y="164.87" width="118.16" height="167.41" rx="5.11" ry="5.11"/>
      <path class="cls-4" d="M639.32,165.37c2.54,0,4.61,2.06,4.61,4.61v157.2c0,2.54-2.06,4.61-4.61,4.61h-107.94c-2.54,0-4.61-2.06-4.61-4.61V169.97c0-2.54,2.06-4.61,4.61-4.61h107.94m0-1h-107.94c-3.09,0-5.61,2.52-5.61,5.61v157.2c0,3.09,2.52,5.61,5.61,5.61h107.94c3.09,0,5.61-2.52,5.61-5.61V169.97c0-3.09-2.52-5.61-5.61-5.61h0Z"/>
    </g>
    <path class="cls-8" d="M639.32,165.37c-4.87,.13-13.06,1.07-19.63,6.6-16.43,13.84-2.23,39.09-18.76,63.36-9.18,13.47-14.89,7.64-29.25,25.55-9.15,11.42-10.69,18.6-22.97,41.35-7.01,12.99-13.28,23.19-17.33,29.56h107.94c2.54,0,4.61-2.06,4.61-4.61V169.97c0-2.54-2.06-4.61-4.61-4.61Z"/>
    <path class="cls-4" d="M521.6,267.51c-.28,0-.5-.22-.5-.5v-52.31c0-.28,.22-.5,.5-.5s.5,.22,.5,.5v52.31c0,.28-.22,.5-.5,.5Z"/>
    <path class="cls-4" d="M606.37,336.01h-71.76c-.28,0-.5-.22-.5-.5s.22-.5,.5-.5h71.76c.28,0,.5,.22,.5,.5s-.22,.5-.5,.5Z"/>
    <path class="cls-4" d="M649.1,302.72c-.28,0-.5-.22-.5-.5v-28.59c0-.28,.22-.5,.5-.5s.5,.22,.5,.5v28.59c0,.28-.22,.5-.5,.5Z"/>
    <path class="cls-4" d="M649.1,203.03c-.28,0-.5-.22-.5-.5v-36.29c0-2.26-1.84-4.11-4.11-4.11h-14.08c-.28,0-.5-.22-.5-.5s.22-.5,.5-.5h14.08c2.82,0,5.11,2.29,5.11,5.11v36.29c0,.28-.22,.5-.5,.5Z"/>
    <g>
      <g>
        <circle class="cls-3" cx="542.18" cy="179.97" r="7.3"/>
        <path class="cls-4" d="M571.27,180.94h-18.37c-.53,0-.96-.43-.96-.96s.43-.96,.96-.96h18.37c.53,0,.96,.43,.96,.96s-.43,.96-.96,.96Z"/>
        <path class="cls-4" d="M610.74,196.26h-74.8c-.89,0-1.61-.72-1.61-1.61s.72-1.61,1.61-1.61h74.8c.89,0,1.61,.72,1.61,1.61s-.72,1.61-1.61,1.61Z"/>
        <path class="cls-3" d="M593.52,204.14h-57.58c-.89,0-1.61-.72-1.61-1.61s.72-1.61,1.61-1.61h57.58c.89,0,1.61,.72,1.61,1.61s-.72,1.61-1.61,1.61Z"/>
        <path class="cls-2" d="M629.44,214.48h-93.5c-.53,0-.96-.43-.96-.96s.43-.96,.96-.96h93.5c.53,0,.96,.43,.96,.96s-.43,.96-.96,.96Z"/>
        <path class="cls-2" d="M628.79,220.72h-92.85c-.53,0-.96-.43-.96-.96s.43-.96,.96-.96h92.85c.53,0,.96,.43,.96,.96s-.43,.96-.96,.96Z"/>
      </g>
      <g>
        <g>
          <rect class="cls-1" x="534.61" y="228.5" width="101.49" height="83.77" rx="3.99" ry="3.99"/>
          <path class="cls-4" d="M632.1,312.66h-93.51c-2.41,0-4.38-1.96-4.38-4.38v-75.79c0-2.41,1.96-4.38,4.38-4.38h93.51c2.41,0,4.38,1.96,4.38,4.38v75.79c0,2.41-1.96,4.38-4.38,4.38Zm-93.51-83.77c-1.99,0-3.6,1.62-3.6,3.6v75.79c0,1.99,1.62,3.6,3.6,3.6h93.51c1.99,0,3.6-1.62,3.6-3.6v-75.79c0-1.99-1.62-3.6-3.6-3.6h-93.51Z"/>
        </g>
        <g>
          <path class="cls-1" d="M569.31,312.04l.22-.47,26.29-56.98c2.71-5.88,10.65-5.76,13.2,.21l24.46,57.24h-64.17Z"/>
          <path class="cls-4" d="M633.47,312.43h-64.17c-.13,0-.25-.07-.32-.18-.07-.11-.08-.25-.03-.37l26.51-57.45c1.32-2.86,3.99-4.61,7-4.56,3.01,.04,5.65,1.87,6.9,4.78l24.46,57.24c.05,.12,.04,.25-.03,.36-.07,.11-.19,.17-.32,.17Zm-63.57-.77h62.99l-24.23-56.71c-1.12-2.62-3.5-4.28-6.2-4.31-.03,0-.06,0-.1,0-2.66,0-5.03,1.57-6.2,4.12l-26.26,56.91Z"/>
        </g>
        <g>
          <path class="cls-1" d="M536.91,312.04l.17-.36,20.94-43.75c2.16-4.52,8.48-4.42,10.51,.16l19.48,43.96h-51.11Z"/>
          <path class="cls-4" d="M588.02,312.43h-51.11c-.13,0-.25-.07-.32-.18-.07-.11-.08-.25-.02-.37l21.12-44.12c1.05-2.2,3.18-3.55,5.56-3.55,.03,0,.06,0,.09,0,2.43,.04,4.55,1.46,5.56,3.72l19.48,43.96c.05,.12,.04,.26-.03,.36-.07,.11-.19,.17-.32,.17Zm-50.5-.77h49.91l-19.24-43.42c-.88-1.98-2.74-3.23-4.87-3.26-.03,0-.05,0-.08,0-2.09,0-3.95,1.19-4.87,3.11l-20.85,43.57Z"/>
        </g>
        <circle class="cls-4" cx="552.87" cy="245.88" r="9.22"/>
      </g>
      <g>
        <rect class="cls-2" x="534.22" y="316.93" width="25.48" height="7.55" rx="3.61" ry="3.61"/>
        <rect class="cls-2" x="611" y="316.93" width="25.48" height="7.55" rx="3.61" ry="3.61"/>
        <rect class="cls-2" x="586.61" y="316.93" width="23.06" height="7.55" rx="3.43" ry="3.43"/>
        <rect class="cls-2" x="561.02" y="316.93" width="23.06" height="7.55" rx="3.43" ry="3.43"/>
      </g>
    </g>
  </g>
  <g>
    <g>
      <path class="cls-1" d="M76.07,287.94c-1.41,0-2.76-.44-3.89-1.27-1.7-1.24-2.72-3.24-2.72-5.35v-93.77c0-3.65,2.97-6.62,6.62-6.62H209.35c1.57,0,3.09,.56,4.28,1.57,1.49,1.26,2.34,3.1,2.34,5.05v93.77c0,3.65-2.97,6.62-6.62,6.62H76.07Z"/>
      <path class="cls-4" d="M209.35,181.43c1.51,0,2.89,.54,3.95,1.45,1.32,1.12,2.17,2.8,2.17,4.67v93.77c0,3.38-2.74,6.12-6.12,6.12H76.07c-1.35,0-2.59-.44-3.6-1.17-1.53-1.11-2.52-2.91-2.52-4.94v-93.77c0-3.38,2.74-6.12,6.12-6.12H209.35m0-1H76.07c-3.92,0-7.12,3.19-7.12,7.12v93.77c0,2.27,1.1,4.42,2.93,5.75,1.22,.89,2.67,1.37,4.19,1.37H209.35c3.92,0,7.12-3.19,7.12-7.12v-93.77c0-2.1-.92-4.08-2.52-5.43-1.28-1.09-2.91-1.69-4.6-1.69h0Z"/>
    </g>
    <g>
      <path class="cls-4" d="M65.31,224.78c-.28,0-.5-.22-.5-.5v-29.39c0-.28,.22-.5,.5-.5s.5,.22,.5,.5v29.39c0,.28-.22,.5-.5,.5Z"/>
      <path class="cls-4" d="M140.12,293.11h-49.9c-.28,0-.5-.22-.5-.5s.22-.5,.5-.5h49.9c.28,0,.5,.22,.5,.5s-.22,.5-.5,.5Z"/>
      <path class="cls-4" d="M218.83,200.19c-.28,0-.5-.22-.5-.5v-15.99c0-1.83-.78-3.56-2.13-4.75-1.08-.95-2.46-1.47-3.88-1.47h-23.07c-.28,0-.5-.22-.5-.5s.22-.5,.5-.5h23.07c1.66,0,3.27,.61,4.53,1.72,1.57,1.37,2.47,3.38,2.47,5.5v15.99c0,.28-.22,.5-.5,.5Z"/>
    </g>
    <path class="cls-8" d="M215.47,187.55v93.77c0,3.38-2.74,6.12-6.12,6.12H76.07c-1.35,0-2.59-.44-3.6-1.17,1.28-6.76,4.33-17.2,12.88-24.72,29.93-26.36,95.48,10.91,107.41-7.53,6.2-9.59-9.68-22.55-3.76-43.1,4.03-13.98,15.67-22.88,24.31-28.04,.72,1.56,1.44,3.11,2.17,4.67Z"/>
    <g>
      <rect class="cls-1" x="82.17" y="225.68" width="126.49" height="16.58" rx="8.29" ry="8.29"/>
      <path class="cls-4" d="M200.37,242.76H90.46c-4.85,0-8.79-3.94-8.79-8.79s3.94-8.79,8.79-8.79h109.91c4.85,0,8.79,3.94,8.79,8.79s-3.94,8.79-8.79,8.79Zm-109.91-16.58c-4.3,0-7.79,3.49-7.79,7.79s3.49,7.79,7.79,7.79h109.91c4.3,0,7.79-3.49,7.79-7.79s-3.49-7.79-7.79-7.79H90.46Z"/>
    </g>
    <g>
      <rect class="cls-1" x="79.74" y="257.09" width="61.48" height="16.58" rx="3.54" ry="3.54"/>
      <path class="cls-4" d="M137.68,274.17h-54.39c-2.23,0-4.04-1.81-4.04-4.04v-9.49c0-2.23,1.81-4.04,4.04-4.04h54.39c2.23,0,4.04,1.81,4.04,4.04v9.49c0,2.23-1.81,4.04-4.04,4.04Zm-54.39-16.58c-1.68,0-3.04,1.37-3.04,3.04v9.49c0,1.68,1.37,3.04,3.04,3.04h54.39c1.68,0,3.04-1.37,3.04-3.04v-9.49c0-1.68-1.37-3.04-3.04-3.04h-54.39Z"/>
    </g>
    <g>
      <circle class="cls-3" cx="104.17" cy="234.23" r="6.37"/>
      <path class="cls-1" d="M102.02,231.83v4.81c1.44-.8,2.87-1.59,4.31-2.39-1.44-.81-2.87-1.62-4.31-2.42Z"/>
    </g>
    <g>
      <path class="cls-4" d="M117.37,237.71c-1.77,0-3.22-1.44-3.22-3.22s1.44-3.22,3.22-3.22c.47,0,.92,.1,1.35,.29,.25,.12,.36,.41,.24,.66-.12,.25-.41,.36-.66,.24-.29-.13-.6-.2-.93-.2-1.22,0-2.22,.99-2.22,2.22s.99,2.22,2.22,2.22c.98,0,1.84-.63,2.12-1.57,.08-.27,.36-.42,.62-.33,.26,.08,.41,.36,.33,.62-.41,1.37-1.65,2.28-3.08,2.28Z"/>
      <path class="cls-4" d="M117.72,233.28c-.25,0-.5-.17-.54-.42-.04-.27,.1-.52,.37-.56h.1s.93-.15,.93-.15l-.21-1.21c-.05-.27,.14-.53,.41-.58,.27-.04,.53,.14,.58,.41l.3,1.71c.02,.13,0,.27-.09,.38-.08,.11-.2,.18-.33,.2l-1.44,.21s-.05,0-.08,0Z"/>
    </g>
    <g>
      <path class="cls-4" d="M90.47,237.71c-1.43,0-2.67-.92-3.08-2.28-.08-.26,.07-.54,.33-.62,.27-.08,.54,.07,.62,.33,.28,.94,1.14,1.57,2.12,1.57,1.22,0,2.22-.99,2.22-2.22s-.99-2.22-2.22-2.22c-.32,0-.64,.07-.93,.2-.25,.12-.55,0-.66-.24-.12-.25,0-.55,.24-.66,.42-.2,.88-.29,1.35-.29,1.77,0,3.22,1.44,3.22,3.22s-1.44,3.22-3.22,3.22Z"/>
      <path class="cls-4" d="M90.22,233.29s-.05,0-.07,0l-1.53-.22c-.13-.02-.25-.09-.33-.2-.08-.11-.11-.25-.09-.38l.29-1.71c.05-.27,.31-.45,.58-.41,.27,.05,.46,.31,.41,.58l-.21,1.21,1.02,.15c.27,.04,.46,.29,.42,.57-.04,.25-.25,.43-.49,.43Z"/>
    </g>
    <rect class="cls-2" x="125.04" y="233.17" width="30.17" height="2.32" rx="1.16" ry="1.16"/>
    <rect class="cls-4" x="125.04" y="233.17" width="10.64" height="2.32" rx="1.16" ry="1.16"/>
    <path class="cls-4" d="M174.24,234.99h-16.71c-.28,0-.5-.22-.5-.5s.22-.5,.5-.5h16.71c.28,0,.5,.22,.5,.5s-.22,.5-.5,.5Z"/>
    <path class="cls-3" d="M167.72,266.73h-19.54c-.47,0-.85-.38-.85-.85s.38-.85,.85-.85h19.54c.47,0,.85,.38,.85,.85s-.38,.85-.85,.85Z"/>
    <path class="cls-4" d="M145.15,195.39h-62.66c-.47,0-.85-.38-.85-.85s.38-.85,.85-.85h62.66c.47,0,.85,.38,.85,.85s-.38,.85-.85,.85Z"/>
    <path class="cls-3" d="M160.78,208.12H82.49c-.47,0-.85-.38-.85-.85s.38-.85,.85-.85h78.29c.47,0,.85,.38,.85,.85s-.38,.85-.85,.85Z"/>
    <path class="cls-4" d="M143.12,212.9h-60.63c-.47,0-.85-.38-.85-.85s.38-.85,.85-.85h60.63c.47,0,.85,.38,.85,.85s-.38,.85-.85,.85Z"/>
  </g>
  <g>
    <g>
      <path class="cls-1" d="M253.69,281.39h137.39c3.46,0,6.27,2.81,6.27,6.27v98.3c0,3.46-2.81,6.27-6.27,6.27H253.69c-3.46,0-6.27-2.81-6.27-6.27v-98.3c0-3.46,2.81-6.27,6.27-6.27Z"/>
      <path class="cls-4" d="M391.07,281.89c3.19,0,5.77,2.59,5.77,5.77v98.3c0,3.19-2.58,5.77-5.77,5.77H253.69c-3.19,0-5.77-2.58-5.77-5.77v-98.3c0-3.19,2.59-5.77,5.77-5.77h137.39m0-1H253.69c-3.74,0-6.77,3.04-6.77,6.77v98.3c0,3.74,3.04,6.77,6.77,6.77h137.39c3.74,0,6.77-3.04,6.77-6.77v-98.3c0-3.74-3.04-6.77-6.77-6.77h0Z"/>
    </g>
    <path class="cls-8" d="M391.07,281.89c-7.25-.75-17.38-.56-24.49,5.72-7.99,7.07-5.16,15.66-9.54,25.43-9.51,21.24-38.91,16.39-66.84,35.18-10.59,7.12-24.03,19.7-34.59,43.52h135.45c3.19,0,5.77-2.59,5.77-5.77v-98.3c0-3.19-2.59-5.77-5.77-5.77Z"/>
    <g>
      <path class="cls-4" d="M287.06,279.22h-17.2c-.28,0-.5-.22-.5-.5s.22-.5,.5-.5h17.2c.28,0,.5,.22,.5,.5s-.22,.5-.5,.5Z"/>
      <path class="cls-4" d="M244.76,379.2c-.28,0-.5-.22-.5-.5v-49.99c0-.28,.22-.5,.5-.5s.5,.22,.5,.5v49.99c0,.28-.22,.5-.5,.5Z"/>
      <path class="cls-4" d="M387.21,395.63h-68.5c-.28,0-.5-.22-.5-.5s.22-.5,.5-.5h68.5c.28,0,.5,.22,.5,.5s-.22,.5-.5,.5Z"/>
      <path class="cls-4" d="M399.79,314.04c-.28,0-.5-.22-.5-.5v-29.18c0-2.84-2.31-5.14-5.14-5.14h-9.62c-.28,0-.5-.22-.5-.5s.22-.5,.5-.5h9.62c3.39,0,6.14,2.76,6.14,6.14v29.18c0,.28-.22,.5-.5,.5Z"/>
    </g>
    <g>
      <g>
        <rect class="cls-1" x="361.19" y="288.61" width="25.59" height="7.89" rx="1.57" ry="1.57"/>
        <path class="cls-4" d="M385.21,296.99h-22.45c-1.14,0-2.07-.93-2.07-2.07v-4.75c0-1.14,.93-2.07,2.07-2.07h22.45c1.14,0,2.07,.93,2.07,2.07v4.75c0,1.14-.93,2.07-2.07,2.07Zm-22.45-7.89c-.59,0-1.07,.48-1.07,1.07v4.75c0,.59,.48,1.07,1.07,1.07h22.45c.59,0,1.07-.48,1.07-1.07v-4.75c0-.59-.48-1.07-1.07-1.07h-22.45Z"/>
      </g>
      <g>
        <path class="cls-4" d="M385.37,304.77h-121.4c-.32,0-.58-.26-.58-.58s.26-.58,.58-.58h121.4c.32,0,.58,.26,.58,.58s-.26,.58-.58,.58Z"/>
        <path class="cls-4" d="M385.37,316.91h-121.4c-.32,0-.58-.26-.58-.58s.26-.58,.58-.58h121.4c.32,0,.58,.26,.58,.58s-.26,.58-.58,.58Z"/>
        <path class="cls-4" d="M385.37,328.01h-121.4c-.32,0-.58-.26-.58-.58s.26-.58,.58-.58h121.4c.32,0,.58,.26,.58,.58s-.26,.58-.58,.58Z"/>
        <path class="cls-4" d="M385.37,340.89h-121.4c-.32,0-.58-.26-.58-.58s.26-.58,.58-.58h121.4c.32,0,.58,.26,.58,.58s-.26,.58-.58,.58Z"/>
        <path class="cls-4" d="M385.37,352.22h-121.4c-.32,0-.58-.26-.58-.58s.26-.58,.58-.58h121.4c.32,0,.58,.26,.58,.58s-.26,.58-.58,.58Z"/>
        <path class="cls-4" d="M385.37,364.88h-121.4c-.32,0-.58-.26-.58-.58s.26-.58,.58-.58h121.4c.32,0,.58,.26,.58,.58s-.26,.58-.58,.58Z"/>
        <path class="cls-4" d="M385.37,377.54h-121.4c-.32,0-.58-.26-.58-.58s.26-.58,.58-.58h121.4c.32,0,.58,.26,.58,.58s-.26,.58-.58,.58Z"/>
      </g>
      <g>
        <path class="cls-7" d="M262.69,354.42h-3.06c-.32,0-.58-.26-.58-.58s.26-.58,.58-.58h3.06c.32,0,.58,.26,.58,.58s-.26,.58-.58,.58Z"/>
        <path class="cls-7" d="M276.42,384.83h-3.06c-.32,0-.58-.26-.58-.58s.26-.58,.58-.58h3.06c.32,0,.58,.26,.58,.58s-.26,.58-.58,.58Z"/>
        <path class="cls-7" d="M289.08,384.83h-3.06c-.32,0-.58-.26-.58-.58s.26-.58,.58-.58h3.06c.32,0,.58,.26,.58,.58s-.26,.58-.58,.58Z"/>
        <path class="cls-7" d="M302.48,384.83h-3.06c-.32,0-.58-.26-.58-.58s.26-.58,.58-.58h3.06c.32,0,.58,.26,.58,.58s-.26,.58-.58,.58Z"/>
        <path class="cls-7" d="M315.13,384.83h-3.06c-.32,0-.58-.26-.58-.58s.26-.58,.58-.58h3.06c.32,0,.58,.26,.58,.58s-.26,.58-.58,.58Z"/>
        <path class="cls-7" d="M328.68,384.83h-3.06c-.32,0-.58-.26-.58-.58s.26-.58,.58-.58h3.06c.32,0,.58,.26,.58,.58s-.26,.58-.58,.58Z"/>
        <path class="cls-7" d="M341.34,384.83h-3.06c-.32,0-.58-.26-.58-.58s.26-.58,.58-.58h3.06c.32,0,.58,.26,.58,.58s-.26,.58-.58,.58Z"/>
        <path class="cls-7" d="M354.74,384.83h-3.06c-.32,0-.58-.26-.58-.58s.26-.58,.58-.58h3.06c.32,0,.58,.26,.58,.58s-.26,.58-.58,.58Z"/>
        <path class="cls-7" d="M367.39,384.83h-3.06c-.32,0-.58-.26-.58-.58s.26-.58,.58-.58h3.06c.32,0,.58,.26,.58,.58s-.26,.58-.58,.58Z"/>
        <path class="cls-7" d="M380.87,384.83h-3.06c-.32,0-.58-.26-.58-.58s.26-.58,.58-.58h3.06c.32,0,.58,.26,.58,.58s-.26,.58-.58,.58Z"/>
        <path class="cls-7" d="M262.69,365.77h-3.06c-.32,0-.58-.26-.58-.58s.26-.58,.58-.58h3.06c.32,0,.58,.26,.58,.58s-.26,.58-.58,.58Z"/>
        <path class="cls-7" d="M262.69,378.1h-3.06c-.32,0-.58-.26-.58-.58s.26-.58,.58-.58h3.06c.32,0,.58,.26,.58,.58s-.26,.58-.58,.58Z"/>
        <path class="cls-7" d="M262.69,342.41h-3.06c-.32,0-.58-.26-.58-.58s.26-.58,.58-.58h3.06c.32,0,.58,.26,.58,.58s-.26,.58-.58,.58Z"/>
        <path class="cls-7" d="M262.69,330.41h-3.06c-.32,0-.58-.26-.58-.58s.26-.58,.58-.58h3.06c.32,0,.58,.26,.58,.58s-.26,.58-.58,.58Z"/>
        <path class="cls-7" d="M262.69,318.85h-3.06c-.32,0-.58-.26-.58-.58s.26-.58,.58-.58h3.06c.32,0,.58,.26,.58,.58s-.26,.58-.58,.58Z"/>
        <path class="cls-7" d="M262.69,306.84h-3.06c-.32,0-.58-.26-.58-.58s.26-.58,.58-.58h3.06c.32,0,.58,.26,.58,.58s-.26,.58-.58,.58Z"/>
      </g>
      <rect class="cls-3" x="271.18" y="356.53" width="6.71" height="19.99"/>
      <rect class="cls-6" x="280.84" y="349.69" width="6.71" height="26.82"/>
      <rect class="cls-2" x="290.21" y="340.91" width="6.71" height="35.61"/>
      <rect class="cls-3" x="299.42" y="334" width="6.71" height="42.51"/>
      <rect class="cls-6" x="309.01" y="344.56" width="6.71" height="31.95"/>
      <rect class="cls-3" x="318.62" y="338.04" width="6.71" height="38.47"/>
      <rect class="cls-2" x="327.74" y="340.91" width="6.71" height="35.61"/>
      <rect class="cls-6" x="337.33" y="347.72" width="6.71" height="28.8"/>
      <rect class="cls-3" x="346.95" y="347.72" width="6.71" height="28.8"/>
      <rect class="cls-2" x="356.07" y="338.04" width="6.71" height="38.47"/>
      <rect class="cls-6" x="365.66" y="347.72" width="6.71" height="28.8"/>
      <rect class="cls-2" x="375.27" y="343.47" width="6.71" height="33.04"/>
      <g>
        <g>
          <rect class="cls-7" x="258.57" y="287.56" width="74.35" height="10.08" rx="1.57" ry="1.57"/>
          <path class="cls-4" d="M331.35,298.14h-71.21c-1.14,0-2.07-.93-2.07-2.07v-6.94c0-1.14,.93-2.07,2.07-2.07h71.21c1.14,0,2.07,.93,2.07,2.07v6.94c0,1.14-.93,2.07-2.07,2.07Zm-71.21-10.08c-.59,0-1.07,.48-1.07,1.07v6.94c0,.59,.48,1.07,1.07,1.07h71.21c.59,0,1.07-.48,1.07-1.07v-6.94c0-.59-.48-1.07-1.07-1.07h-71.21Z"/>
        </g>
        <g>
          <rect class="cls-4" x="277.48" y="287.71" width="1" height="10.31"/>
          <rect class="cls-4" x="295.24" y="287.71" width="1" height="10.31"/>
          <rect class="cls-4" x="313.01" y="287.71" width="1" height="10.31"/>
        </g>
        <path class="cls-4" d="M274.66,293.1h-13.54c-.28,0-.5-.22-.5-.5s.22-.5,.5-.5h13.54c.28,0,.5,.22,.5,.5s-.22,.5-.5,.5Z"/>
        <path class="cls-6" d="M293.83,293.1h-13.54c-.28,0-.5-.22-.5-.5s.22-.5,.5-.5h13.54c.28,0,.5,.22,.5,.5s-.22,.5-.5,.5Z"/>
        <path class="cls-6" d="M311.48,293.1h-13.54c-.28,0-.5-.22-.5-.5s.22-.5,.5-.5h13.54c.28,0,.5,.22,.5,.5s-.22,.5-.5,.5Z"/>
        <path class="cls-6" d="M330.35,293.1h-13.54c-.28,0-.5-.22-.5-.5s.22-.5,.5-.5h13.54c.28,0,.5,.22,.5,.5s-.22,.5-.5,.5Z"/>
      </g>
      <path class="cls-6" d="M383.51,293.13h-19.05c-.32,0-.58-.26-.58-.58s.26-.58,.58-.58h19.05c.32,0,.58,.26,.58,.58s-.26,.58-.58,.58Z"/>
    </g>
  </g>
</svg>