<svg width="164" height="40" viewBox="0 0 164 40" fill="none" xmlns="http://www.w3.org/2000/svg">
	<path d="M31.1086 40H12.7232C11.4422 40 10.6463 38.618 11.2959 37.5222L20.4879 22.0297C21.1277 20.9507 22.7012 20.9507 23.341 22.0297L32.5344 37.5222C33.1841 38.618 32.3882 40 31.1072 40H31.1086Z" fill="#655CFE" />
	<path d="M43.7332 27.178L39.0366 35.1574C38.4165 36.2099 36.8866 36.2183 36.2553 35.1699L23.3623 13.7377C22.7366 12.6977 21.2193 12.6963 20.5908 13.7349L7.64576 35.1657C7.01299 36.2141 5.47888 36.2016 4.86298 35.1448L0.217079 27.1738C-0.071182 26.6797 -0.0725909 26.0696 0.214264 25.5727L14.5246 0.805466C14.8129 0.307106 15.3472 0 15.9252 0H27.9717C28.5496 0 29.0825 0.305716 29.3708 0.80268L43.7388 25.5685C44.0285 26.0668 44.0257 26.6811 43.7332 27.178Z" fill="#fff" />
	<path d="M55.4241 16.9163L53.8056 22.7598H48.4454L55.441 0.00136325H62.2242L69.3604 22.7598H63.7766L62.0133 16.9163H55.4213H55.4241ZM61.247 13.083L59.8197 8.24593C59.426 6.90022 59.0196 5.19435 58.6681 3.864H58.5964C58.2603 5.20273 57.9144 6.92953 57.5474 8.25151L56.1764 13.0816H61.2484L61.247 13.083Z" fill="#fff" />
	<path d="M71.1647 19.979L82.0848 4.38054V4.26049H72.1602V0H88.7992V2.9762L78.1138 18.3779V18.4993H88.9679V22.7598H71.1618V19.979H71.1647Z" fill="#fff" />
	<path d="M97.8352 16.9163L96.2181 22.7598H90.8578L97.8534 0.00136325H104.637L111.773 22.7598H106.189L104.426 16.9163H97.8337H97.8352ZM103.659 13.083L102.232 8.24593C101.838 6.90022 101.432 5.19435 101.081 3.864H101.009C100.673 5.20273 100.327 6.92953 99.9598 8.25151L98.5888 13.0816H103.661L103.659 13.083Z" fill="#fff" />
	<path d="M120.017 0.00136325V22.7598H114.834V0.00136325H120.017Z" fill="#fff" />
	<path d="M123.064 19.979L133.984 4.38054V4.26049H124.06V0H140.699V2.9762L130.013 18.3779V18.4993H140.867V22.7598H123.061V19.979H123.064Z" fill="#fff" />
	<path d="M149.736 16.9163L148.119 22.7598H142.759L149.754 0.00136325H156.538L163.674 22.7598H158.09L156.327 16.9163H149.735H149.736ZM155.559 13.083L154.132 8.24593C153.738 6.90022 153.332 5.19435 152.98 3.864H152.908C152.572 5.20273 152.226 6.92953 151.859 8.25151L150.488 13.0816H155.56L155.559 13.083Z" fill="#fff" />
	<path d="M48.4034 30.4851C49.0952 30.3734 49.915 30.298 50.8023 30.298C52.4179 30.298 53.5752 30.6777 54.3388 31.3869C55.1192 32.089 55.5748 33.0927 55.5748 34.4887C55.5748 35.8847 55.1276 37.0601 54.3191 37.86C53.4937 38.6668 52.1438 39.1094 50.4536 39.1094C49.645 39.1094 48.9757 39.0786 48.402 39.013V30.4851H48.4034ZM49.5353 38.1531C49.8208 38.1992 50.2384 38.2062 50.6687 38.2062C53.0859 38.2117 54.3866 36.8758 54.3866 34.532C54.4006 32.4841 53.2335 31.1928 50.8557 31.1928C50.2722 31.1928 49.8348 31.2459 49.5339 31.3073V38.1531H49.5353Z" fill="#655CFE" />
	<path d="M64.1381 34.9703H60.7535V38.1015H64.5389V39.034H59.6201V30.3665H64.3392V31.299H60.7535V34.0434H64.1381V34.9703Z" fill="#655CFE" />
	<path d="M68.438 37.6702C68.9414 37.9829 69.6782 38.2314 70.453 38.2314C71.6061 38.2314 72.2838 37.6339 72.2838 36.7558C72.2838 35.9518 71.81 35.4785 70.633 35.0402C69.2086 34.539 68.3241 33.795 68.3241 32.5819C68.3241 31.2334 69.4532 30.2311 71.1547 30.2311C72.0405 30.2311 72.7 30.4349 73.0811 30.6499L72.7661 31.567C72.4877 31.4037 71.9042 31.1552 71.1181 31.1552C69.9187 31.1552 69.4659 31.8602 69.4659 32.4521C69.4659 33.2561 69.9974 33.654 71.2025 34.1161C72.6832 34.6926 73.4298 35.3976 73.4298 36.6693C73.4298 37.941 72.4427 39.1681 70.3743 39.1681C69.5306 39.1681 68.6095 38.9154 68.1441 38.6027L68.4408 37.6688L68.438 37.6702Z" fill="#655CFE" />
	<path d="M78.6932 30.3665V39.034H77.5598V30.3665H78.6932Z" fill="#655CFE" />
	<path d="M89.9016 38.6445C89.3954 38.8344 88.3928 39.1205 87.2173 39.1205C85.8941 39.1205 84.8015 38.7883 83.9522 37.9745C83.1999 37.2555 82.7359 36.1053 82.7387 34.7568C82.7429 32.1714 84.5329 30.2799 87.4591 30.2799C88.4673 30.2799 89.2675 30.5005 89.6429 30.6777L89.3617 31.5907C88.8962 31.3799 88.3141 31.2194 87.4324 31.2194C85.3148 31.2194 83.9255 32.5288 83.9255 34.6995C83.9255 36.8702 85.2529 38.1964 87.296 38.1964C88.0328 38.1964 88.5334 38.0931 88.7936 37.9633V35.3821H87.0274V34.4859H89.903V38.6459L89.9016 38.6445Z" fill="#655CFE" />
	<path d="M94.2043 39.034V30.3665H95.4445L98.2413 34.747C98.8797 35.7633 99.386 36.6748 99.7994 37.5696L99.8289 37.5557C99.7262 36.3984 99.7065 35.3417 99.7065 33.9988V30.3665H100.768V39.034H99.6222L96.8479 34.6409C96.246 33.6693 95.6596 32.681 95.2237 31.7387L95.1858 31.7527C95.2533 32.8513 95.2688 33.8955 95.2688 35.3277V39.034H94.2043Z" fill="#655CFE" />
	<path d="M110.509 37.6702C111.012 37.9829 111.749 38.2314 112.524 38.2314C113.677 38.2314 114.355 37.6339 114.355 36.7558C114.355 35.9518 113.881 35.4785 112.704 35.0402C111.279 34.539 110.395 33.795 110.395 32.5819C110.395 31.2334 111.524 30.2311 113.225 30.2311C114.111 30.2311 114.771 30.4349 115.152 30.6499L114.837 31.567C114.559 31.4037 113.975 31.1552 113.189 31.1552C111.989 31.1552 111.537 31.8602 111.537 32.4521C111.537 33.2561 112.068 33.654 113.273 34.1161C114.754 34.6926 115.501 35.3976 115.501 36.6693C115.501 37.941 114.514 39.1681 112.445 39.1681C111.601 39.1681 110.68 38.9154 110.215 38.6027L110.512 37.6688L110.509 37.6702Z" fill="#655CFE" />
	<path d="M118.639 31.3129V30.3678H125.105V31.3129H122.433V39.034H121.3V31.3129H118.639Z" fill="#655CFE" />
	<path d="M129.788 30.3665V35.5036C129.788 37.437 130.652 38.2578 131.83 38.2578C133.115 38.2578 133.953 37.4077 133.953 35.5036V30.3665H135.087V35.424C135.087 38.0889 133.676 39.1764 131.782 39.1764C130.001 39.1764 128.655 38.1671 128.655 35.4729V30.3679H129.788V30.3665Z" fill="#655CFE" />
	<path d="M139.63 30.4851C140.322 30.3734 141.142 30.298 142.029 30.298C143.645 30.298 144.802 30.6777 145.565 31.3869C146.346 32.089 146.801 33.0927 146.801 34.4887C146.801 35.8847 146.354 37.0601 145.546 37.86C144.72 38.6668 143.37 39.1094 141.68 39.1094C140.872 39.1094 140.202 39.0786 139.629 39.013V30.4851H139.63ZM140.763 38.1531C141.049 38.1992 141.467 38.2062 141.897 38.2062C144.314 38.2117 145.615 36.8758 145.615 34.532C145.629 32.4841 144.462 31.1928 142.084 31.1928C141.5 31.1928 141.063 31.2459 140.762 31.3073V38.1531H140.763Z" fill="#655CFE" />
	<path d="M151.982 30.3665V39.034H150.848V30.3665H151.982Z" fill="#655CFE" />
	<path d="M164 34.613C164 37.5864 162.175 39.175 159.949 39.175C157.723 39.175 156.024 37.3952 156.024 34.7763C156.024 32.1575 157.736 30.2255 160.067 30.2255C162.398 30.2255 163.999 32.0389 163.999 34.613H164ZM157.218 34.7498C157.218 36.6051 158.232 38.2635 160.011 38.2635C161.79 38.2635 162.808 36.6302 162.808 34.6619C162.808 32.9365 161.901 31.1343 160.025 31.1343C158.149 31.1343 157.218 32.8527 157.218 34.7484V34.7498Z" fill="#655CFE" />
</svg>
