<svg width="196" height="48" viewBox="0 0 196 48" fill="none" xmlns="http://www.w3.org/2000/svg">
<path d="M36.3003 47.6787H14.8466C13.3518 47.6787 12.4231 46.0549 13.1811 44.7673L23.9072 26.5637C24.6538 25.2957 26.4899 25.2957 27.2364 26.5637L37.9641 44.7673C38.7222 46.0549 37.7935 47.6787 36.2987 47.6787H36.3003Z" fill="white"/>
<path d="M51.0318 32.6129L45.5515 41.9886C44.8279 43.2254 43.0427 43.2352 42.3059 42.0034L27.2612 16.8205C26.5311 15.5985 24.7606 15.5969 24.0272 16.8172L8.92177 41.9985C8.1834 43.2303 6.39325 43.2155 5.67457 41.9739L0.253307 32.608C-0.0830617 32.0273 -0.0847057 31.3105 0.250022 30.7266L16.9487 1.62513C17.285 1.03956 17.9086 0.678711 18.5829 0.678711H32.6399C33.3142 0.678711 33.9361 1.03793 34.2725 1.62186L51.0384 30.7217C51.3764 31.3073 51.3731 32.029 51.0318 32.6129Z" fill="white"/>
<path d="M69.3038 20.5553L67.4152 27.4215H61.1604L69.3235 0.680313H77.2388L85.566 27.4215H79.0503L76.9927 20.5553H69.3005H69.3038ZM76.0984 16.0512L74.433 10.3677C73.9736 8.78647 73.4994 6.78207 73.0892 5.21891H73.0055C72.6133 6.79191 72.2097 8.82091 71.7814 10.3742L70.1816 16.0495H76.1001L76.0984 16.0512Z" fill="white"/>
<path d="M87.6713 24.1541L100.414 5.82584V5.68478H88.833V0.678711H108.249V4.17574L95.7802 22.2727V22.4154H108.446V27.4215H87.668V24.1541H87.6713Z" fill="white"/>
<path d="M118.793 20.5553L116.906 27.4215H110.651L118.814 0.680313H126.729L135.057 27.4215H128.541L126.483 20.5553H118.791H118.793ZM125.589 16.0512L123.924 10.3677C123.464 8.78647 122.99 6.78207 122.58 5.21891H122.496C122.104 6.79191 121.7 8.82091 121.272 10.3742L119.672 16.0495H125.591L125.589 16.0512Z" fill="white"/>
<path d="M144.677 0.680313V27.4215H138.629V0.680313H144.677Z" fill="white"/>
<path d="M148.232 24.1541L160.975 5.82584V5.68478H149.394V0.678711H168.81V4.17574L156.341 22.2727V22.4154H169.007V27.4215H148.229V24.1541H148.232Z" fill="white"/>
<path d="M179.355 20.5553L177.469 27.4215H171.214L179.377 0.680313H187.292L195.619 27.4215H189.104L187.046 20.5553H179.354H179.355ZM186.15 16.0512L184.485 10.3677C184.025 8.78647 183.551 6.78207 183.141 5.21891H183.057C182.665 6.79191 182.261 8.82091 181.833 10.3742L180.233 16.0495H186.152L186.15 16.0512Z" fill="white"/>
<path d="M61.1114 36.4987C61.9187 36.3675 62.8753 36.2789 63.9106 36.2789C65.7959 36.2789 67.1463 36.725 68.0373 37.5583C68.948 38.3833 69.4796 39.5627 69.4796 41.2029C69.4796 42.8432 68.9578 44.2243 68.0143 45.1642C67.0512 46.1122 65.476 46.6322 63.5037 46.6322C62.5602 46.6322 61.7792 46.5961 61.1098 46.519V36.4987H61.1114ZM62.4322 45.5086C62.7653 45.5628 63.2527 45.5709 63.7548 45.5709C66.5753 45.5775 68.0931 44.0078 68.0931 41.2538C68.1095 38.8475 66.7476 37.3303 63.973 37.3303C63.292 37.3303 62.7817 37.3926 62.4306 37.4648V45.5086H62.4322Z" fill="white"/>
<path d="M79.4721 41.7689H75.5226V45.448H79.9397V46.5437H74.2001V36.3593H79.7067V37.455H75.5226V40.6797H79.4721V41.7689Z" fill="white"/>
<path d="M84.4896 44.9412C85.077 45.3086 85.9368 45.6006 86.8409 45.6006C88.1864 45.6006 88.9772 44.8985 88.9772 43.8668C88.9772 42.922 88.4243 42.366 87.0509 41.8509C85.3888 41.2621 84.3567 40.3878 84.3567 38.9624C84.3567 37.378 85.6743 36.2002 87.6596 36.2002C88.6934 36.2002 89.4629 36.4397 89.9076 36.6923L89.54 37.77C89.2151 37.5781 88.5342 37.2861 87.617 37.2861C86.2174 37.2861 85.689 38.1144 85.689 38.8099C85.689 39.7547 86.3092 40.2222 87.7154 40.7651C89.4432 41.4425 90.3145 42.2708 90.3145 43.7651C90.3145 45.2594 89.1627 46.7012 86.749 46.7012C85.7645 46.7012 84.6898 46.4043 84.1466 46.0369L84.4929 44.9395L84.4896 44.9412Z" fill="white"/>
<path d="M96.4562 36.3593V46.5437H95.1338V36.3593H96.4562Z" fill="white"/>
<path d="M109.535 46.086C108.945 46.3091 107.775 46.6453 106.403 46.6453C104.859 46.6453 103.584 46.255 102.593 45.2987C101.715 44.454 101.174 43.1024 101.177 41.5179C101.182 38.4801 103.271 36.2576 106.685 36.2576C107.862 36.2576 108.795 36.5167 109.233 36.7251L108.905 37.7978C108.362 37.5501 107.683 37.3615 106.654 37.3615C104.183 37.3615 102.562 38.9 102.562 41.4506C102.562 44.0012 104.111 45.5595 106.495 45.5595C107.355 45.5595 107.939 45.4381 108.242 45.2856V42.2527H106.181V41.1997H109.537V46.0877L109.535 46.086Z" fill="white"/>
<path d="M114.556 46.5437V36.3593H116.003L119.267 41.5064C120.012 42.7005 120.602 43.7716 121.085 44.823L121.119 44.8066C121 43.4469 120.977 42.2052 120.977 40.6273V36.3593H122.215V46.5437H120.878L117.641 41.3818C116.939 40.2402 116.254 39.0788 115.746 37.9717L115.701 37.9881C115.78 39.279 115.798 40.5059 115.798 42.1888V46.5437H114.556Z" fill="white"/>
<path d="M133.582 44.9412C134.169 45.3086 135.029 45.6006 135.933 45.6006C137.278 45.6006 138.069 44.8985 138.069 43.8668C138.069 42.922 137.516 42.366 136.143 41.8509C134.481 41.2621 133.449 40.3878 133.449 38.9624C133.449 37.378 134.766 36.2002 136.752 36.2002C137.785 36.2002 138.555 36.4397 139 36.6923L138.632 37.77C138.307 37.5781 137.626 37.2861 136.709 37.2861C135.309 37.2861 134.781 38.1144 134.781 38.8099C134.781 39.7547 135.401 40.2222 136.807 40.7651C138.535 41.4425 139.407 42.2708 139.407 43.7651C139.407 45.2594 138.255 46.7012 135.841 46.7012C134.857 46.7012 133.782 46.4043 133.239 46.0369L133.585 44.9395L133.582 44.9412Z" fill="white"/>
<path d="M143.069 37.4714V36.3609H150.613V37.4714H147.496V46.5436H146.173V37.4714H143.069Z" fill="white"/>
<path d="M156.079 36.3593V42.3955C156.079 44.6672 157.086 45.6317 158.461 45.6317C159.961 45.6317 160.939 44.6328 160.939 42.3955V36.3593H162.261V42.302C162.261 45.4332 160.616 46.711 158.405 46.711C156.326 46.711 154.756 45.5251 154.756 42.3594V36.3609H156.079V36.3593Z" fill="white"/>
<path d="M167.563 36.4987C168.37 36.3675 169.327 36.2789 170.362 36.2789C172.247 36.2789 173.598 36.725 174.489 37.5583C175.4 38.3833 175.931 39.5627 175.931 41.2029C175.931 42.8432 175.409 44.2243 174.466 45.1642C173.503 46.1122 171.928 46.6322 169.955 46.6322C169.012 46.6322 168.231 46.5961 167.561 46.519V36.4987H167.563ZM168.885 45.5086C169.219 45.5628 169.706 45.5709 170.208 45.5709C173.029 45.5775 174.546 44.0078 174.546 41.2538C174.563 38.8475 173.201 37.3303 170.426 37.3303C169.745 37.3303 169.235 37.3926 168.884 37.4648V45.5086H168.885Z" fill="white"/>
<path d="M181.976 36.3593V46.5437H180.653V36.3593H181.976Z" fill="white"/>
<path d="M196 41.349C196 44.8428 193.87 46.7094 191.273 46.7094C188.675 46.7094 186.693 44.618 186.693 41.5409C186.693 38.4638 188.69 36.1937 191.411 36.1937C194.131 36.1937 195.998 38.3244 195.998 41.349H196ZM188.086 41.5098C188.086 43.6897 189.269 45.6383 191.345 45.6383C193.421 45.6383 194.609 43.7192 194.609 41.4064C194.609 39.3791 193.55 37.2615 191.361 37.2615C189.173 37.2615 188.086 39.2806 188.086 41.5081V41.5098Z" fill="white"/>
</svg>
