<svg width="88" height="37" viewBox="0 0 88 37" fill="none" xmlns="http://www.w3.org/2000/svg">
<path d="M2.11231 20.4075C1.55973 20.4075 1.06953 20.2736 0.641716 20.0057C0.213905 19.7378 0 19.2913 0 18.6662C0 17.6839 0.204992 16.6837 0.614977 15.6656C1.04279 14.6476 1.55973 13.6474 2.16579 12.6651C2.78968 11.6649 3.40466 10.6915 4.01072 9.74493C4.63461 8.79834 5.15155 7.89639 5.56154 7.03909C5.98935 6.1818 6.20325 5.38702 6.20325 4.65474C6.20325 4.06535 6.06065 3.77066 5.77544 3.77066C5.57936 3.77066 5.35654 3.9314 5.10699 4.25288C4.85743 4.55651 4.67918 5.01195 4.57222 5.6192L4.2781 5.56562C4.2781 4.54758 4.51875 3.69028 5.00003 2.99373C5.48132 2.27932 6.0963 1.74351 6.84497 1.3863C7.59363 1.0291 8.36013 0.850494 9.14445 0.850494C10.0535 0.850494 10.9003 1.10947 11.6846 1.62742C12.4867 2.14537 13.0393 2.96694 13.3423 4.09214C13.4671 4.53865 13.5562 5.03874 13.6097 5.59241C13.681 6.14608 13.7256 6.62831 13.7434 7.03909C13.7612 7.43202 13.7701 7.62849 13.7701 7.62849C13.8058 9.07517 13.8325 10.2986 13.8504 11.2988C13.886 12.299 13.9395 13.1384 14.0108 13.8171C14.0821 14.4958 14.1801 15.0673 14.3049 15.5317C14.4297 15.9782 14.5901 16.3443 14.7862 16.6301C15.0001 16.898 15.2675 17.0319 15.5883 17.0319C15.8914 17.0319 16.1498 16.9426 16.3637 16.764C16.5955 16.5854 16.747 16.4158 16.8183 16.255L17.0055 16.389C17.0055 17.2106 16.845 17.925 16.5242 18.5322C16.2033 19.1395 15.7844 19.6038 15.2675 19.9253C14.7505 20.2468 14.2069 20.4075 13.6365 20.4075C13.0839 20.4075 12.5402 20.2468 12.0054 19.9253C11.4885 19.586 11.0339 19.068 10.6418 18.3715C10.2496 17.6749 9.99115 16.773 9.86638 15.6656C9.31379 15.6299 8.77011 15.6031 8.23535 15.5853C7.71841 15.5495 7.24604 15.5317 6.81823 15.5317C6.53302 15.5317 6.25673 15.5406 5.98935 15.5585C5.73979 15.5585 5.49023 15.5674 5.24068 15.5853C5.08025 16.1389 4.94656 16.7015 4.8396 17.2731C4.75048 17.8267 4.70591 18.3715 4.70591 18.9073C4.70591 19.3181 4.43853 19.6753 3.90377 19.9789C3.36901 20.2647 2.77185 20.4075 2.11231 20.4075ZM6.12304 13.0937C6.56867 12.9687 7.04105 12.8884 7.54016 12.8526C8.03927 12.799 8.57403 12.7723 9.14445 12.7723H9.73269C9.69703 11.4506 9.64356 10.0932 9.57226 8.7001C9.51878 7.307 9.29596 6.01213 8.9038 4.81549C8.7612 6.10143 8.40469 7.44988 7.83428 8.86085C7.26386 10.2718 6.69345 11.6828 6.12304 13.0937Z" fill="black"/>
<path d="M20.7313 20.4879C20.0361 20.4522 19.43 20.2111 18.9131 19.7646C18.4139 19.3002 18.0664 18.4965 17.8703 17.3534C18.7259 17.0855 19.5726 16.5854 20.4104 15.8532C21.266 15.103 22.1038 14.2457 22.9238 13.2813C23.7616 12.299 24.5815 11.3434 25.3837 10.4147C25.0985 10.2361 24.8222 10.1111 24.5548 10.0396C24.2874 9.96819 24.0379 9.93246 23.8061 9.93246C23.3249 9.93246 22.9327 10.0664 22.6297 10.3343C22.3445 10.5844 22.2019 10.9237 22.2019 11.3524C22.2019 11.7453 22.3445 12.1918 22.6297 12.6919C22.4158 12.7276 22.2108 12.7544 22.0147 12.7723C21.8186 12.7901 21.6404 12.799 21.4799 12.799C20.3569 12.799 19.528 12.5044 18.9933 11.915C18.4585 11.3256 18.1911 10.6737 18.1911 9.95926C18.1911 9.44131 18.3159 8.94122 18.5655 8.45899C18.8328 7.9589 19.225 7.55704 19.7419 7.25342C20.2589 6.93193 20.8828 6.77119 21.6136 6.77119C22.291 6.77119 23.0486 6.94086 23.8864 7.28021C24.742 7.60169 25.6778 8.15537 26.6939 8.94122C27.2108 8.38755 27.7099 7.89639 28.1912 7.46774C28.6903 7.0391 29.1894 6.70868 29.6885 6.47649C30.6689 6.63724 31.3641 6.98551 31.7741 7.52132C32.2019 8.03927 32.4158 8.59294 32.4158 9.18233C32.4158 9.2895 32.4069 9.38773 32.3891 9.47703C32.3891 9.56633 32.3802 9.65563 32.3623 9.74493C31.275 10.1914 30.3392 10.7898 29.5548 11.5399C28.7884 12.2722 28.0753 13.0848 27.4158 13.9778C26.7563 14.853 26.0343 15.746 25.25 16.6569C25.5709 16.9248 25.8828 17.1212 26.1858 17.2463C26.4889 17.3534 26.7652 17.407 27.0147 17.407C27.496 17.407 27.8882 17.2463 28.1912 16.9248C28.4942 16.5854 28.6457 16.1925 28.6457 15.746C28.6457 15.6031 28.6279 15.4602 28.5923 15.3174C28.5744 15.1745 28.521 15.0316 28.4318 14.8887C28.6457 14.853 28.8507 14.8262 29.0468 14.8083C29.2607 14.7726 29.4657 14.7548 29.6618 14.7548C30.66 14.7548 31.3909 15.0137 31.8543 15.5317C32.3178 16.0318 32.5495 16.6122 32.5495 17.2731C32.5495 17.7731 32.4158 18.2732 32.1484 18.7733C31.8811 19.2734 31.4889 19.6842 30.972 20.0057C30.455 20.3272 29.8311 20.4879 29.1003 20.4879C28.4229 20.4879 27.6475 20.3004 26.7741 19.9253C25.9185 19.5502 24.9826 18.9251 23.9666 18.05C23.5209 18.4965 23.0307 18.9251 22.496 19.3359C21.9612 19.7467 21.373 20.1307 20.7313 20.4879Z" fill="black"/>
<path d="M43.7921 20.4343C43.1682 20.4343 42.6245 20.2289 42.161 19.8182C41.6976 19.4074 41.4659 18.7376 41.4659 17.8089C41.4659 17.7196 41.4659 17.6303 41.4659 17.541C41.4659 17.4517 41.4748 17.3624 41.4926 17.2731C40.9578 18.3447 40.3518 19.1395 39.6744 19.6574C39.0149 20.1575 38.3464 20.4075 37.669 20.4075C37.0451 20.4075 36.4569 20.1932 35.9043 19.7646C35.3517 19.3181 34.9061 18.6662 34.5674 17.8089C34.2287 16.9516 34.0594 15.9157 34.0594 14.7012C34.0594 13.4509 34.2287 12.3347 34.5674 11.3524C34.9239 10.37 35.3874 9.53954 35.9578 8.86085C36.5282 8.18216 37.1521 7.67314 37.8295 7.33379C38.5068 6.97658 39.1664 6.79798 39.8081 6.79798C40.5211 6.79798 41.1628 7.02124 41.7332 7.46774C42.3036 7.89639 42.6958 8.58401 42.9097 9.53061C42.9632 9.22698 42.9988 8.95015 43.0167 8.7001C43.0523 8.45006 43.0701 8.28039 43.0701 8.19109C43.088 7.70886 43.3286 7.35165 43.7921 7.11947C44.2734 6.88728 44.7992 6.77119 45.3696 6.77119C45.8687 6.77119 46.3411 6.86942 46.7867 7.06589C47.2324 7.26235 47.5354 7.59277 47.6958 8.05714L47.7493 8.21787C47.5354 8.7001 47.3215 9.28057 47.1076 9.95926C46.8937 10.638 46.6976 11.3524 46.5194 12.1025C46.3411 12.8348 46.1985 13.5581 46.0915 14.2725C45.9846 14.9691 45.9311 15.5853 45.9311 16.1211C45.9311 16.7105 45.9935 17.1212 46.1183 17.3534C46.2431 17.5678 46.3946 17.6749 46.5728 17.6749C46.8759 17.6749 47.1522 17.4606 47.4017 17.0319L47.6156 17.1391C47.6156 17.7464 47.4195 18.3 47.0274 18.8001C46.6352 19.3002 46.145 19.7021 45.5568 20.0057C44.9686 20.2915 44.3803 20.4343 43.7921 20.4343ZM39.4338 17.0319C39.8972 17.0319 40.4052 16.6212 40.9578 15.7996C41.5282 14.9601 42.0184 13.7635 42.4284 12.2097C42.4641 12.0489 42.4997 11.8971 42.5354 11.7542C42.571 11.5935 42.5978 11.4417 42.6156 11.2988C42.3304 10.638 42.0274 10.1736 41.7065 9.90568C41.4035 9.61991 41.1004 9.47703 40.7974 9.47703C40.3518 9.47703 39.9329 9.71814 39.5407 10.2004C39.1664 10.6647 38.8544 11.2541 38.6049 11.9685C38.3731 12.683 38.2573 13.3974 38.2573 14.1118C38.2573 15.0941 38.3642 15.8264 38.5781 16.3086C38.8099 16.7908 39.0951 17.0319 39.4338 17.0319Z" fill="black"/>
<path d="M54.1003 5.96748C53.3872 5.96748 52.799 5.75315 52.3355 5.3245C51.8899 4.878 51.6671 4.32433 51.6671 3.66349C51.6671 2.94908 51.9345 2.3329 52.4692 1.81495C53.004 1.297 53.6546 1.03803 54.4211 1.03803C55.1341 1.03803 55.7135 1.26128 56.1591 1.70779C56.6226 2.1543 56.8543 2.70797 56.8543 3.3688C56.8543 4.08321 56.5869 4.69939 56.0521 5.21734C55.5174 5.71743 54.8667 5.96748 54.1003 5.96748ZM52.2286 20.4075C51.5334 20.4075 50.9095 20.1664 50.3569 19.6842C49.8043 19.1841 49.528 18.3893 49.528 17.2999C49.528 16.6747 49.6082 16.0943 49.7687 15.5585C49.9469 15.0048 50.143 14.469 50.3569 13.951C50.5886 13.4331 50.7847 12.933 50.9452 12.4508C51.1234 11.9507 51.2125 11.4595 51.2125 10.9773C51.2125 10.5486 51.1412 10.245 50.9986 10.0664C50.856 9.86996 50.6867 9.77172 50.4906 9.77172C50.1876 9.77172 49.8934 9.96819 49.6082 10.3611L49.4211 10.254C49.4924 9.53954 49.7152 8.93229 50.0895 8.4322C50.4817 7.91425 50.9541 7.51239 51.5067 7.22663C52.0771 6.94086 52.6386 6.79798 53.1912 6.79798C53.8685 6.79798 54.4568 7.02124 54.9559 7.46774C55.455 7.89639 55.7045 8.60187 55.7045 9.58419C55.7045 10.1736 55.6154 10.7987 55.4372 11.4595C55.2767 12.1025 55.0807 12.7455 54.8489 13.3884C54.635 14.0314 54.4389 14.6297 54.2607 15.1834C54.1003 15.7371 54.02 16.2104 54.02 16.6033C54.02 16.9426 54.0824 17.1838 54.2072 17.3266C54.3498 17.4695 54.5013 17.541 54.6618 17.541C54.8222 17.541 54.9737 17.4963 55.1163 17.407C55.2767 17.2999 55.3926 17.1838 55.4639 17.0587L55.6511 17.1123C55.6511 17.7732 55.4728 18.3536 55.1163 18.8537C54.7776 19.3359 54.3498 19.7199 53.8329 20.0057C53.3159 20.2736 52.7812 20.4075 52.2286 20.4075Z" fill="black"/>
<path d="M60.3685 20.4879C59.6733 20.4522 59.0672 20.2111 58.5503 19.7646C58.0512 19.3002 57.7036 18.4965 57.5075 17.3534C58.3631 17.0855 59.2098 16.5854 60.0476 15.8532C60.9032 15.103 61.741 14.2457 62.561 13.2813C63.3988 12.299 64.2188 11.3434 65.0209 10.4147C64.7357 10.2361 64.4594 10.1111 64.192 10.0396C63.9246 9.96819 63.6751 9.93246 63.4434 9.93246C62.9621 9.93246 62.5699 10.0664 62.2669 10.3343C61.9817 10.5844 61.8391 10.9237 61.8391 11.3524C61.8391 11.7453 61.9817 12.1918 62.2669 12.6919C62.053 12.7276 61.848 12.7544 61.6519 12.7723C61.4558 12.7901 61.2776 12.799 61.1171 12.799C59.9941 12.799 59.1653 12.5044 58.6305 11.915C58.0957 11.3256 57.8283 10.6737 57.8283 9.95926C57.8283 9.44131 57.9531 8.94122 58.2027 8.45899C58.4701 7.9589 58.8622 7.55704 59.3792 7.25342C59.8961 6.93193 60.52 6.77119 61.2508 6.77119C61.9282 6.77119 62.6858 6.94086 63.5236 7.28021C64.3792 7.60169 65.315 8.15537 66.3311 8.94122C66.848 8.38755 67.3471 7.89639 67.8284 7.46774C68.3275 7.0391 68.8266 6.70868 69.3257 6.47649C70.3061 6.63724 71.0013 6.98551 71.4113 7.52132C71.8391 8.03927 72.053 8.59294 72.053 9.18233C72.053 9.2895 72.0441 9.38773 72.0263 9.47703C72.0263 9.56633 72.0174 9.65563 71.9996 9.74493C70.9122 10.1914 69.9764 10.7898 69.1921 11.5399C68.4256 12.2722 67.7125 13.0848 67.053 13.9778C66.3935 14.853 65.6715 15.746 64.8872 16.6569C65.2081 16.9248 65.52 17.1212 65.8231 17.2463C66.1261 17.3534 66.4024 17.407 66.6519 17.407C67.1332 17.407 67.5254 17.2463 67.8284 16.9248C68.1314 16.5854 68.283 16.1925 68.283 15.746C68.283 15.6031 68.2651 15.4602 68.2295 15.3174C68.2117 15.1745 68.1582 15.0316 68.0691 14.8887C68.283 14.853 68.4879 14.8262 68.684 14.8083C68.8979 14.7726 69.1029 14.7548 69.299 14.7548C70.2972 14.7548 71.0281 15.0137 71.4915 15.5317C71.955 16.0318 72.1867 16.6122 72.1867 17.2731C72.1867 17.7731 72.053 18.2732 71.7857 18.7733C71.5183 19.2734 71.1261 19.6842 70.6092 20.0057C70.0922 20.3272 69.4683 20.4879 68.7375 20.4879C68.0601 20.4879 67.2847 20.3004 66.4113 19.9253C65.5557 19.5502 64.6198 18.9251 63.6038 18.05C63.1581 18.4965 62.668 18.9251 62.1332 19.3359C61.5984 19.7467 61.0102 20.1307 60.3685 20.4879Z" fill="black"/>
<path d="M83.4293 20.4343C82.8054 20.4343 82.2617 20.2289 81.7983 19.8182C81.3348 19.4074 81.1031 18.7376 81.1031 17.8089C81.1031 17.7196 81.1031 17.6303 81.1031 17.541C81.1031 17.4517 81.112 17.3624 81.1298 17.2731C80.595 18.3447 79.989 19.1395 79.3116 19.6574C78.6521 20.1575 77.9836 20.4075 77.3063 20.4075C76.6824 20.4075 76.0941 20.1932 75.5415 19.7646C74.9889 19.3181 74.5433 18.6662 74.2046 17.8089C73.8659 16.9516 73.6966 15.9157 73.6966 14.7012C73.6966 13.4509 73.8659 12.3347 74.2046 11.3524C74.5611 10.37 75.0246 9.53954 75.595 8.86085C76.1654 8.18216 76.7893 7.67314 77.4667 7.33379C78.144 6.97658 78.8036 6.79798 79.4453 6.79798C80.1583 6.79798 80.8 7.02124 81.3705 7.46774C81.9409 7.89639 82.333 8.58401 82.5469 9.53061C82.6004 9.22698 82.6361 8.95015 82.6539 8.7001C82.6895 8.45006 82.7074 8.28039 82.7074 8.19109C82.7252 7.70886 82.9658 7.35165 83.4293 7.11947C83.9106 6.88728 84.4364 6.77119 85.0068 6.77119C85.5059 6.77119 85.9783 6.86942 86.424 7.06589C86.8696 7.26235 87.1726 7.59277 87.3331 8.05714L87.3865 8.21787C87.1726 8.7001 86.9587 9.28057 86.7448 9.95926C86.5309 10.638 86.3348 11.3524 86.1566 12.1025C85.9783 12.8348 85.8357 13.5581 85.7288 14.2725C85.6218 14.9691 85.5683 15.5853 85.5683 16.1211C85.5683 16.7105 85.6307 17.1212 85.7555 17.3534C85.8803 17.5678 86.0318 17.6749 86.2101 17.6749C86.5131 17.6749 86.7894 17.4606 87.0389 17.0319L87.2528 17.1391C87.2528 17.7464 87.0568 18.3 86.6646 18.8001C86.2724 19.3002 85.7822 19.7021 85.194 20.0057C84.6058 20.2915 84.0175 20.4343 83.4293 20.4343ZM79.071 17.0319C79.5344 17.0319 80.0424 16.6212 80.595 15.7996C81.1655 14.9601 81.6557 13.7635 82.0656 12.2097C82.1013 12.0489 82.1369 11.8971 82.1726 11.7542C82.2082 11.5935 82.235 11.4417 82.2528 11.2988C81.9676 10.638 81.6646 10.1736 81.3437 9.90568C81.0407 9.61991 80.7376 9.47703 80.4346 9.47703C79.989 9.47703 79.5701 9.71814 79.1779 10.2004C78.8036 10.6647 78.4916 11.2541 78.2421 11.9685C78.0104 12.683 77.8945 13.3974 77.8945 14.1118C77.8945 15.0941 78.0014 15.8264 78.2153 16.3086C78.4471 16.7908 78.7323 17.0319 79.071 17.0319Z" fill="black"/>
<path d="M69.3805 34.1937C68.936 34.1937 68.5625 34.1005 68.2599 33.9143C67.9636 33.728 67.7352 33.4734 67.5746 33.1506C67.4203 32.8277 67.3369 32.4676 67.3246 32.0702C67.3184 31.9771 67.3153 31.8467 67.3153 31.679C67.3153 31.5114 67.3184 31.381 67.3246 31.2878C67.3369 30.8843 67.4203 30.5241 67.5746 30.2075C67.7352 29.8846 67.9636 29.63 68.2599 29.4438C68.5625 29.2575 68.936 29.1644 69.3805 29.1644C69.8251 29.1644 70.1955 29.2575 70.4918 29.4438C70.7944 29.63 71.0228 29.8846 71.1772 30.2075C71.3377 30.5241 71.4241 30.8843 71.4365 31.2878C71.4426 31.381 71.4457 31.5114 71.4457 31.679C71.4457 31.8467 71.4426 31.9771 71.4365 32.0702C71.4241 32.4676 71.3377 32.8277 71.1772 33.1506C71.0228 33.4734 70.7944 33.728 70.4918 33.9143C70.1955 34.1005 69.8251 34.1937 69.3805 34.1937ZM69.3805 33.6535C69.8127 33.6535 70.1646 33.5138 70.4363 33.2344C70.7079 32.955 70.853 32.5514 70.8715 32.0236C70.8777 31.9305 70.8808 31.8156 70.8808 31.679C70.8808 31.5424 70.8777 31.4276 70.8715 31.3344C70.853 30.8004 70.7079 30.3969 70.4363 30.1237C70.1646 29.8442 69.8127 29.7045 69.3805 29.7045C68.9483 29.7045 68.5964 29.8442 68.3248 30.1237C68.0531 30.3969 67.908 30.8004 67.8895 31.3344C67.8833 31.4276 67.8802 31.5424 67.8802 31.679C67.8802 31.8156 67.8833 31.9305 67.8895 32.0236C67.908 32.5514 68.0531 32.955 68.3248 33.2344C68.5964 33.5138 68.9483 33.6535 69.3805 33.6535Z" fill="black"/>
<path d="M65.6885 34.1005C65.6268 34.1005 65.5774 34.0819 65.5404 34.0447C65.5033 34.0074 65.4848 33.9577 65.4848 33.8956V29.4624C65.4848 29.4003 65.5033 29.3506 65.5404 29.3134C65.5774 29.2761 65.6268 29.2575 65.6885 29.2575H65.846C65.9077 29.2575 65.9571 29.2761 65.9942 29.3134C66.0312 29.3506 66.0497 29.4003 66.0497 29.4624V33.8956C66.0497 33.9577 66.0312 34.0074 65.9942 34.0447C65.9571 34.0819 65.9077 34.1005 65.846 34.1005H65.6885ZM65.5867 28.2609C65.5249 28.2609 65.4755 28.2423 65.4385 28.2051C65.4015 28.1678 65.3829 28.1181 65.3829 28.056V27.7021C65.3829 27.64 65.4015 27.5904 65.4385 27.5531C65.4755 27.5096 65.5249 27.4879 65.5867 27.4879H65.9386C66.0003 27.4879 66.0497 27.5096 66.0868 27.5531C66.13 27.5904 66.1516 27.64 66.1516 27.7021V28.056C66.1516 28.1181 66.13 28.1678 66.0868 28.2051C66.0497 28.2423 66.0003 28.2609 65.9386 28.2609H65.5867Z" fill="black"/>
<path d="M61.8537 34.1937C61.4957 34.1937 61.19 34.1285 60.9369 33.9981C60.6899 33.8677 60.4893 33.6939 60.3349 33.4765C60.1806 33.2592 60.0664 33.0171 59.9923 32.7501C59.9244 32.4831 59.8842 32.213 59.8719 31.9398C59.8657 31.8467 59.8626 31.7597 59.8626 31.679C59.8626 31.5983 59.8657 31.5114 59.8719 31.4182C59.8842 31.145 59.9244 30.8749 59.9923 30.608C60.0664 30.341 60.1806 30.0988 60.3349 29.8815C60.4893 29.6642 60.6899 29.4903 60.9369 29.3599C61.19 29.2296 61.4957 29.1644 61.8537 29.1644C62.2365 29.1644 62.5514 29.2358 62.7984 29.3786C63.0515 29.5214 63.2552 29.6952 63.4096 29.9001V27.6928C63.4096 27.6307 63.4281 27.5811 63.4652 27.5438C63.5022 27.5065 63.5516 27.4879 63.6133 27.4879H63.7708C63.8325 27.4879 63.8819 27.5065 63.9189 27.5438C63.956 27.5811 63.9745 27.6307 63.9745 27.6928V33.8956C63.9745 33.9577 63.956 34.0074 63.9189 34.0447C63.8819 34.0819 63.8325 34.1005 63.7708 34.1005H63.6133C63.5516 34.1005 63.5022 34.0819 63.4652 34.0447C63.4281 34.0074 63.4096 33.9577 63.4096 33.8956V33.4579C63.2552 33.669 63.0515 33.846 62.7984 33.9888C62.5514 34.1254 62.2365 34.1937 61.8537 34.1937ZM61.9093 33.6535C62.2612 33.6535 62.5452 33.5697 62.7613 33.402C62.9774 33.2344 63.1379 33.0264 63.2429 32.778C63.3479 32.5234 63.4034 32.2689 63.4096 32.0143C63.4158 31.9212 63.4189 31.8001 63.4189 31.6511C63.4189 31.5021 63.4158 31.381 63.4096 31.2879C63.4034 31.0395 63.3448 30.7942 63.2336 30.5521C63.1287 30.3099 62.9682 30.1081 62.7521 29.9467C62.536 29.7853 62.2551 29.7045 61.9093 29.7045C61.5512 29.7045 61.2641 29.7853 61.048 29.9467C60.8381 30.1081 60.6869 30.3192 60.5943 30.58C60.5016 30.8408 60.4492 31.1202 60.4368 31.4182C60.4306 31.5921 60.4306 31.7659 60.4368 31.9398C60.4492 32.2378 60.5016 32.5172 60.5943 32.778C60.6869 33.0388 60.8381 33.2499 61.048 33.4113C61.2641 33.5728 61.5512 33.6535 61.9093 33.6535Z" fill="black"/>
<path d="M56.5013 34.1937C56.0815 34.1937 55.7326 34.1037 55.4548 33.9236C55.1832 33.7373 54.9794 33.4859 54.8436 33.1692C54.7139 32.8525 54.6491 32.4986 54.6491 32.1074V29.4624C54.6491 29.4003 54.6676 29.3506 54.7047 29.3134C54.7417 29.2761 54.7911 29.2575 54.8528 29.2575H55.0103C55.072 29.2575 55.1214 29.2761 55.1585 29.3134C55.1955 29.3506 55.214 29.4003 55.214 29.4624V32.0609C55.214 33.1226 55.674 33.6535 56.5939 33.6535C57.0323 33.6535 57.3842 33.5138 57.6497 33.2344C57.9151 32.9488 58.0479 32.5576 58.0479 32.0609V29.4624C58.0479 29.4003 58.0664 29.3506 58.1035 29.3134C58.1405 29.2761 58.1899 29.2575 58.2516 29.2575H58.4091C58.4708 29.2575 58.5202 29.2761 58.5572 29.3134C58.5943 29.3506 58.6128 29.4003 58.6128 29.4624V33.8956C58.6128 33.9577 58.5943 34.0074 58.5572 34.0447C58.5202 34.0819 58.4708 34.1005 58.4091 34.1005H58.2516C58.1899 34.1005 58.1405 34.0819 58.1035 34.0447C58.0664 34.0074 58.0479 33.9577 58.0479 33.8956V33.4579C57.8812 33.6752 57.6805 33.8522 57.4459 33.9888C57.2175 34.1254 56.9026 34.1937 56.5013 34.1937Z" fill="black"/>
<path d="M52.9879 34.1005C52.6668 34.1005 52.4137 34.0322 52.2285 33.8956C52.0433 33.759 51.9136 33.5728 51.8395 33.3368C51.7654 33.1009 51.7284 32.837 51.7284 32.5452V29.7977H51.006C50.9443 29.7977 50.8949 29.7791 50.8579 29.7418C50.8208 29.7045 50.8023 29.6549 50.8023 29.5928V29.4624C50.8023 29.4003 50.8208 29.3506 50.8579 29.3134C50.8949 29.2761 50.9443 29.2575 51.006 29.2575H51.7284V27.6928C51.7284 27.6307 51.7469 27.5811 51.784 27.5438C51.821 27.5065 51.8704 27.4879 51.9321 27.4879H52.0896C52.1513 27.4879 52.2007 27.5065 52.2377 27.5438C52.2748 27.5811 52.2933 27.6307 52.2933 27.6928V29.2575H53.4417C53.5034 29.2575 53.5528 29.2761 53.5899 29.3134C53.6269 29.3506 53.6454 29.4003 53.6454 29.4624V29.5928C53.6454 29.6549 53.6269 29.7045 53.5899 29.7418C53.5528 29.7791 53.5034 29.7977 53.4417 29.7977H52.2933V32.5079C52.2933 32.837 52.3458 33.0947 52.4508 33.281C52.5619 33.4672 52.7564 33.5604 53.0342 33.5604H53.5343C53.596 33.5604 53.6454 33.579 53.6825 33.6162C53.7195 33.6535 53.738 33.7032 53.738 33.7653V33.8956C53.738 33.9577 53.7195 34.0074 53.6825 34.0447C53.6454 34.0819 53.596 34.1005 53.5343 34.1005H52.9879Z" fill="black"/>
<path d="M47.8252 34.1937C47.3251 34.1937 46.8991 34.113 46.5472 33.9515C46.2014 33.7901 45.9359 33.5821 45.7507 33.3275C45.5655 33.073 45.4667 32.8029 45.4544 32.5172C45.4544 32.4676 45.4729 32.4241 45.5099 32.3869C45.547 32.3496 45.5933 32.331 45.6488 32.331H45.8341C45.8958 32.331 45.9421 32.3496 45.973 32.3869C46.01 32.4241 46.0316 32.4676 46.0378 32.5172C46.0625 32.6911 46.1397 32.8649 46.2693 33.0388C46.399 33.2064 46.5904 33.3493 46.8435 33.4672C47.0967 33.579 47.4239 33.6349 47.8252 33.6349C48.4302 33.6349 48.8717 33.5262 49.1495 33.3089C49.4273 33.0854 49.5662 32.7873 49.5662 32.4148C49.5662 32.1664 49.4922 31.9677 49.344 31.8187C49.202 31.6635 48.9828 31.5269 48.6865 31.4089C48.3901 31.2847 48.0104 31.1481 47.5474 30.9991C47.109 30.8563 46.7478 30.7104 46.4638 30.5614C46.1798 30.4062 45.9699 30.2199 45.8341 30.0026C45.7044 29.7853 45.6396 29.5059 45.6396 29.1644C45.6396 28.8477 45.7229 28.5652 45.8896 28.3168C46.0563 28.0623 46.2971 27.8605 46.612 27.7114C46.933 27.5624 47.322 27.4879 47.7789 27.4879C48.1431 27.4879 48.4611 27.5376 48.7328 27.6369C49.0044 27.7363 49.2298 27.8698 49.4088 28.0374C49.5879 28.1989 49.7237 28.3758 49.8163 28.5683C49.9089 28.7546 49.9583 28.9377 49.9645 29.1178C49.9645 29.1613 49.949 29.2047 49.9182 29.2482C49.8873 29.2854 49.8379 29.3041 49.77 29.3041H49.5848C49.5539 29.3041 49.5138 29.2916 49.4644 29.2668C49.4212 29.242 49.3934 29.1923 49.381 29.1178C49.344 28.8073 49.1804 28.5528 48.8902 28.3541C48.6062 28.1492 48.2358 28.0467 47.7789 28.0467C47.322 28.0467 46.9485 28.1368 46.6583 28.3168C46.3681 28.4969 46.223 28.7794 46.223 29.1644C46.223 29.4127 46.2879 29.6176 46.4175 29.7791C46.5472 29.9343 46.7509 30.074 47.0287 30.1982C47.3066 30.3161 47.6647 30.4465 48.103 30.5893C48.5661 30.7383 48.9489 30.8874 49.2514 31.0364C49.5539 31.1854 49.7793 31.3686 49.9274 31.5859C50.0756 31.797 50.1497 32.0733 50.1497 32.4148C50.1497 32.7935 50.054 33.1164 49.8626 33.3834C49.6774 33.6442 49.4119 33.846 49.0662 33.9888C48.7204 34.1254 48.3068 34.1937 47.8252 34.1937Z" fill="black"/>
<path d="M39.3484 34.1005C39.2867 34.1005 39.2373 34.0819 39.2002 34.0447C39.1632 34.0074 39.1447 33.9577 39.1447 33.8956V29.4624C39.1447 29.4003 39.1632 29.3506 39.2002 29.3134C39.2373 29.2761 39.2867 29.2575 39.3484 29.2575H39.5058C39.5676 29.2575 39.617 29.2761 39.654 29.3134C39.6911 29.3506 39.7096 29.4003 39.7096 29.4624V29.9001C39.8763 29.6828 40.0769 29.5059 40.3115 29.3693C40.5523 29.2327 40.8703 29.1644 41.2654 29.1644C41.6853 29.1644 42.0341 29.2575 42.3119 29.4438C42.5959 29.6238 42.8058 29.8722 42.9417 30.1888C43.0837 30.4993 43.1547 30.8532 43.1547 31.2506V33.8956C43.1547 33.9577 43.1361 34.0074 43.0991 34.0447C43.0621 34.0819 43.0127 34.1005 42.9509 34.1005H42.7935C42.7317 34.1005 42.6824 34.0819 42.6453 34.0447C42.6083 34.0074 42.5897 33.9577 42.5897 33.8956V31.2972C42.5897 30.8004 42.4694 30.4124 42.2286 30.133C41.9878 29.8474 41.6359 29.7045 41.1728 29.7045C40.7345 29.7045 40.3795 29.8474 40.1078 30.133C39.8423 30.4124 39.7096 30.8004 39.7096 31.2972V33.8956C39.7096 33.9577 39.6911 34.0074 39.654 34.0447C39.617 34.0819 39.5676 34.1005 39.5058 34.1005H39.3484Z" fill="black"/>
<path d="M35.5601 36.1495C35.165 36.1495 34.8409 36.0968 34.5877 35.9912C34.3408 35.8856 34.1463 35.7553 34.0043 35.6C33.8685 35.451 33.7728 35.2989 33.7172 35.1437C33.6616 34.9946 33.6308 34.8736 33.6246 34.7804C33.6184 34.7183 33.6369 34.6656 33.6801 34.6221C33.7234 34.5849 33.7728 34.5662 33.8283 34.5662H33.958C34.0074 34.5662 34.0506 34.5755 34.0876 34.5942C34.1247 34.619 34.1555 34.6749 34.1802 34.7618C34.2173 34.8612 34.2759 34.976 34.3562 35.1064C34.4426 35.243 34.5754 35.361 34.7544 35.4603C34.9396 35.5597 35.1928 35.6093 35.5138 35.6093C35.8534 35.6093 36.1374 35.5659 36.3658 35.479C36.5943 35.392 36.7671 35.2368 36.8845 35.0133C37.0079 34.796 37.0697 34.4917 37.0697 34.1005V33.4579C36.9153 33.669 36.7116 33.846 36.4584 33.9888C36.2115 34.1254 35.8966 34.1937 35.5138 34.1937C35.1557 34.1937 34.8501 34.1285 34.597 33.9981C34.35 33.8677 34.1494 33.6939 33.995 33.4765C33.8407 33.2592 33.7265 33.0171 33.6524 32.7501C33.5783 32.4831 33.5381 32.213 33.532 31.9398C33.5258 31.7659 33.5258 31.5921 33.532 31.4182C33.5381 31.145 33.5783 30.8749 33.6524 30.608C33.7265 30.341 33.8407 30.0988 33.995 29.8815C34.1494 29.6642 34.35 29.4903 34.597 29.3599C34.8501 29.2296 35.1557 29.1644 35.5138 29.1644C35.8966 29.1644 36.2115 29.2358 36.4584 29.3786C36.7116 29.5214 36.9153 29.6952 37.0697 29.9001V29.4717C37.0697 29.4096 37.0882 29.3599 37.1252 29.3227C37.1623 29.2792 37.2117 29.2575 37.2734 29.2575H37.4216C37.4833 29.2575 37.5327 29.2792 37.5698 29.3227C37.613 29.3599 37.6346 29.4096 37.6346 29.4717V34.0074C37.6346 34.4048 37.5759 34.7649 37.4586 35.0878C37.3413 35.4107 37.1314 35.6683 36.8289 35.8608C36.5325 36.0533 36.1096 36.1495 35.5601 36.1495ZM35.5694 33.6535C35.9213 33.6535 36.2053 33.5697 36.4214 33.402C36.6375 33.2344 36.7949 33.0264 36.8937 32.778C36.9987 32.5234 37.0573 32.2689 37.0697 32.0143C37.0758 31.9212 37.0789 31.8094 37.0789 31.679C37.0789 31.5486 37.0758 31.4369 37.0697 31.3437C37.0573 31.0892 36.9987 30.8377 36.8937 30.5893C36.7949 30.3348 36.6375 30.1237 36.4214 29.956C36.2053 29.7884 35.9213 29.7045 35.5694 29.7045C35.2113 29.7045 34.9242 29.7853 34.7081 29.9467C34.4982 30.1081 34.3469 30.3192 34.2543 30.58C34.1617 30.8408 34.1092 31.1202 34.0969 31.4182C34.0907 31.5921 34.0907 31.7659 34.0969 31.9398C34.1092 32.2378 34.1617 32.5172 34.2543 32.778C34.3469 33.0388 34.4982 33.2499 34.7081 33.4113C34.9242 33.5728 35.2113 33.6535 35.5694 33.6535Z" fill="black"/>
<path d="M31.9052 34.1005C31.8435 34.1005 31.7941 34.0819 31.757 34.0447C31.72 34.0074 31.7015 33.9577 31.7015 33.8956V29.4624C31.7015 29.4003 31.72 29.3506 31.757 29.3134C31.7941 29.2761 31.8435 29.2575 31.9052 29.2575H32.0626C32.1244 29.2575 32.1738 29.2761 32.2108 29.3134C32.2479 29.3506 32.2664 29.4003 32.2664 29.4624V33.8956C32.2664 33.9577 32.2479 34.0074 32.2108 34.0447C32.1738 34.0819 32.1244 34.1005 32.0626 34.1005H31.9052ZM31.8033 28.2609C31.7416 28.2609 31.6922 28.2423 31.6552 28.2051C31.6181 28.1678 31.5996 28.1181 31.5996 28.056V27.7021C31.5996 27.64 31.6181 27.5904 31.6552 27.5531C31.6922 27.5096 31.7416 27.4879 31.8033 27.4879H32.1553C32.217 27.4879 32.2664 27.5096 32.3034 27.5531C32.3466 27.5904 32.3683 27.64 32.3683 27.7021V28.056C32.3683 28.1181 32.3466 28.1678 32.3034 28.2051C32.2664 28.2423 32.217 28.2609 32.1553 28.2609H31.8033Z" fill="black"/>
<path d="M28.6714 34.1937C28.3503 34.1937 28.0725 34.1502 27.8379 34.0633C27.6094 33.9764 27.4211 33.8739 27.273 33.7559C27.1248 33.6318 27.0137 33.5107 26.9396 33.3927C26.8717 33.2747 26.8346 33.1847 26.8284 33.1226C26.8223 33.0543 26.8439 33.0047 26.8933 32.9736C26.9427 32.9364 26.989 32.9177 27.0322 32.9177H27.1711C27.2081 32.9177 27.239 32.9239 27.2637 32.9364C27.2946 32.9488 27.3316 32.9829 27.3748 33.0388C27.4551 33.1444 27.5477 33.2468 27.6527 33.3461C27.7576 33.4393 27.8904 33.5138 28.0509 33.5697C28.2176 33.6256 28.4244 33.6535 28.6714 33.6535C29.0418 33.6535 29.3474 33.5821 29.5882 33.4393C29.829 33.2965 29.9494 33.0854 29.9494 32.806C29.9494 32.6321 29.9 32.4924 29.8012 32.3869C29.7086 32.2813 29.5481 32.1882 29.3196 32.1074C29.0912 32.0267 28.7825 31.9429 28.3935 31.856C28.0046 31.7628 27.7051 31.6511 27.4952 31.5207C27.2915 31.3903 27.1526 31.2413 27.0785 31.0736C27.0044 30.8998 26.9674 30.7135 26.9674 30.5148C26.9674 30.2975 27.0291 30.0864 27.1526 29.8815C27.2761 29.6704 27.4582 29.4996 27.699 29.3693C27.9459 29.2327 28.2546 29.1644 28.6251 29.1644C28.9276 29.1644 29.1838 29.2047 29.3937 29.2854C29.6098 29.3662 29.7858 29.4655 29.9216 29.5835C30.0574 29.6952 30.1562 29.807 30.218 29.9188C30.2859 30.0305 30.3229 30.1205 30.3291 30.1888C30.3353 30.2509 30.3167 30.3006 30.2735 30.3379C30.2303 30.3751 30.1809 30.3937 30.1254 30.3937H29.9864C29.937 30.3937 29.8969 30.3844 29.866 30.3658C29.8352 30.341 29.8074 30.3099 29.7827 30.2727C29.721 30.1733 29.6469 30.0802 29.5604 29.9933C29.474 29.9063 29.3567 29.838 29.2085 29.7884C29.0665 29.7325 28.872 29.7045 28.6251 29.7045C28.2546 29.7045 27.9799 29.7822 27.8008 29.9374C27.6218 30.0864 27.5323 30.2789 27.5323 30.5148C27.5323 30.6514 27.5693 30.7725 27.6434 30.8781C27.7175 30.9774 27.8564 31.0705 28.0601 31.1575C28.2639 31.2382 28.5602 31.3251 28.9492 31.4182C29.3443 31.5052 29.6561 31.6138 29.8846 31.7442C30.113 31.8684 30.2735 32.0174 30.3661 32.1913C30.4649 32.3651 30.5143 32.57 30.5143 32.806C30.5143 33.0543 30.4433 33.2841 30.3013 33.4952C30.1655 33.7063 29.9587 33.877 29.6808 34.0074C29.4092 34.1316 29.0727 34.1937 28.6714 34.1937Z" fill="black"/>
<path d="M23.8751 34.1937C23.2762 34.1937 22.8008 33.9981 22.4489 33.6069C22.097 33.2095 21.8963 32.6911 21.8469 32.0516C21.8408 31.9584 21.8377 31.8342 21.8377 31.679C21.8377 31.5238 21.8408 31.3996 21.8469 31.3065C21.8778 30.8843 21.9766 30.5117 22.1433 30.1888C22.31 29.866 22.5384 29.6145 22.8286 29.4344C23.125 29.2544 23.4738 29.1644 23.8751 29.1644C24.3073 29.1644 24.6746 29.2606 24.9772 29.4531C25.2797 29.6456 25.5112 29.9219 25.6717 30.282C25.8384 30.6421 25.9218 31.0705 25.9218 31.5673V31.707C25.9218 31.7691 25.9002 31.8187 25.857 31.856C25.8199 31.8932 25.7705 31.9119 25.7088 31.9119H22.4119C22.4119 31.9119 22.4119 31.9243 22.4119 31.9491C22.4119 31.9739 22.4119 31.9926 22.4119 32.005C22.4242 32.2844 22.489 32.5514 22.6063 32.806C22.7237 33.0543 22.8904 33.2592 23.1064 33.4207C23.3225 33.5759 23.5788 33.6535 23.8751 33.6535C24.1406 33.6535 24.3598 33.6131 24.5326 33.5324C24.7117 33.4517 24.8537 33.3648 24.9586 33.2716C25.0636 33.1723 25.1315 33.0978 25.1624 33.0481C25.2179 32.9674 25.2612 32.9208 25.292 32.9084C25.3229 32.8898 25.3723 32.8805 25.4402 32.8805H25.5884C25.644 32.8805 25.6903 32.8991 25.7273 32.9364C25.7705 32.9674 25.789 33.0109 25.7829 33.0667C25.7767 33.1537 25.7273 33.2623 25.6347 33.3927C25.5483 33.5169 25.4217 33.6411 25.255 33.7653C25.0945 33.8894 24.8969 33.9919 24.6623 34.0726C24.4277 34.1533 24.1653 34.1937 23.8751 34.1937ZM22.4119 31.3903H25.3569V31.353C25.3569 31.0426 25.2982 30.7632 25.1809 30.5148C25.0636 30.2665 24.8938 30.0709 24.6715 29.9281C24.4493 29.7791 24.1838 29.7045 23.8751 29.7045C23.5664 29.7045 23.3009 29.7791 23.0787 29.9281C22.8626 30.0709 22.6959 30.2665 22.5786 30.5148C22.4674 30.7632 22.4119 31.0426 22.4119 31.353V31.3903Z" fill="black"/>
<path d="M16.1444 34.1005C16.0827 34.1005 16.0333 34.0819 15.9962 34.0447C15.9592 34.0074 15.9407 33.9577 15.9407 33.8956V27.7953C15.9407 27.727 15.9592 27.6742 15.9962 27.6369C16.0333 27.5997 16.0827 27.5811 16.1444 27.5811H18.117C18.7715 27.5811 19.2839 27.6773 19.6543 27.8698C20.0248 28.0623 20.2872 28.3479 20.4415 28.7266C20.602 29.0992 20.6854 29.5555 20.6916 30.0957C20.6977 30.3751 20.7008 30.6235 20.7008 30.8408C20.7008 31.0519 20.6977 31.2972 20.6916 31.5766C20.6792 32.1478 20.5959 32.6197 20.4415 32.9922C20.2872 33.3648 20.0279 33.6442 19.6636 33.8305C19.2993 34.0105 18.7992 34.1005 18.1633 34.1005H16.1444ZM16.5241 33.5417H18.117C18.6109 33.5417 18.9999 33.4765 19.2839 33.3461C19.5741 33.2095 19.7809 32.9953 19.9044 32.7035C20.034 32.4055 20.1019 32.0143 20.1081 31.53C20.1143 31.3437 20.1174 31.1823 20.1174 31.0457C20.1174 30.9029 20.1174 30.7632 20.1174 30.6266C20.1174 30.49 20.1143 30.3286 20.1081 30.1423C20.0958 29.4593 19.9383 28.9564 19.6358 28.6335C19.3333 28.3044 18.8116 28.1399 18.0707 28.1399H16.5241V33.5417Z" fill="black"/>
</svg>
