<svg width="88" height="37" viewBox="0 0 88 37" fill="none" xmlns="http://www.w3.org/2000/svg">
<path d="M2.11231 20.4076C1.55973 20.4076 1.06953 20.2737 0.641716 20.0058C0.213905 19.7379 0 19.2914 0 18.6663C0 17.6839 0.204992 16.6838 0.614977 15.6657C1.04279 14.6477 1.55973 13.6475 2.16579 12.6652C2.78968 11.665 3.40466 10.6916 4.01072 9.74503C4.63461 8.79843 5.15155 7.89648 5.56154 7.03919C5.98935 6.18189 6.20325 5.38711 6.20325 4.65483C6.20325 4.06544 6.06065 3.77075 5.77544 3.77075C5.57936 3.77075 5.35654 3.93149 5.10699 4.25298C4.85743 4.5566 4.67918 5.01204 4.57222 5.61929L4.2781 5.56571C4.2781 4.54767 4.51875 3.69038 5.00003 2.99382C5.48132 2.27941 6.0963 1.7436 6.84497 1.3864C7.59363 1.02919 8.36013 0.850586 9.14445 0.850586C10.0535 0.850586 10.9003 1.10956 11.6846 1.62751C12.4867 2.14546 13.0393 2.96703 13.3423 4.09223C13.4671 4.53874 13.5562 5.03883 13.6097 5.5925C13.681 6.14617 13.7256 6.6284 13.7434 7.03919C13.7612 7.43211 13.7701 7.62858 13.7701 7.62858C13.8058 9.07526 13.8325 10.2987 13.8504 11.2989C13.886 12.2991 13.9395 13.1385 14.0108 13.8172C14.0821 14.4959 14.1801 15.0674 14.3049 15.5318C14.4297 15.9783 14.5901 16.3444 14.7862 16.6302C15.0001 16.8981 15.2675 17.032 15.5883 17.032C15.8914 17.032 16.1498 16.9427 16.3637 16.7641C16.5955 16.5855 16.747 16.4159 16.8183 16.2551L17.0055 16.3891C17.0055 17.2106 16.845 17.9251 16.5242 18.5323C16.2033 19.1396 15.7844 19.6039 15.2675 19.9254C14.7505 20.2469 14.2069 20.4076 13.6365 20.4076C13.0839 20.4076 12.5402 20.2469 12.0054 19.9254C11.4885 19.5861 11.0339 19.0681 10.6418 18.3716C10.2496 17.675 9.99116 16.7731 9.86638 15.6657C9.31379 15.63 8.77011 15.6032 8.23535 15.5854C7.71841 15.5496 7.24604 15.5318 6.81823 15.5318C6.53302 15.5318 6.25673 15.5407 5.98935 15.5586C5.73979 15.5586 5.49023 15.5675 5.24068 15.5854C5.08025 16.139 4.94656 16.7016 4.83961 17.2732C4.75048 17.8268 4.70591 18.3716 4.70591 18.9074C4.70591 19.3182 4.43853 19.6754 3.90377 19.979C3.36901 20.2648 2.77185 20.4076 2.11231 20.4076ZM6.12304 13.0938C6.56867 12.9688 7.04105 12.8884 7.54016 12.8527C8.03927 12.7991 8.57403 12.7724 9.14445 12.7724H9.73269C9.69704 11.4507 9.64356 10.0933 9.57226 8.7002C9.51878 7.30709 9.29596 6.01222 8.9038 4.81558C8.7612 6.10152 8.40469 7.44997 7.83428 8.86094C7.26386 10.2719 6.69345 11.6829 6.12304 13.0938Z" fill="white"/>
<path d="M20.7313 20.488C20.0361 20.4523 19.43 20.2112 18.9131 19.7647C18.414 19.3003 18.0664 18.4966 17.8703 17.3535C18.7259 17.0856 19.5726 16.5855 20.4104 15.8533C21.266 15.1031 22.1038 14.2458 22.9238 13.2814C23.7616 12.2991 24.5816 11.3435 25.3837 10.4148C25.0985 10.2362 24.8222 10.1112 24.5548 10.0397C24.2874 9.96828 24.0379 9.93256 23.8061 9.93256C23.3249 9.93256 22.9327 10.0665 22.6297 10.3344C22.3445 10.5845 22.2019 10.9238 22.2019 11.3525C22.2019 11.7454 22.3445 12.1919 22.6297 12.692C22.4158 12.7277 22.2108 12.7545 22.0147 12.7724C21.8186 12.7902 21.6404 12.7991 21.4799 12.7991C20.3569 12.7991 19.528 12.5044 18.9933 11.9151C18.4585 11.3257 18.1911 10.6738 18.1911 9.95935C18.1911 9.4414 18.3159 8.94131 18.5655 8.45908C18.8328 7.95899 19.225 7.55714 19.7419 7.25351C20.2589 6.93203 20.8828 6.77128 21.6136 6.77128C22.291 6.77128 23.0486 6.94096 23.8864 7.2803C24.742 7.60179 25.6778 8.15546 26.6939 8.94131C27.2108 8.38764 27.7099 7.89648 28.1912 7.46783C28.6903 7.03919 29.1894 6.70877 29.6885 6.47659C30.6689 6.63733 31.3641 6.98561 31.7741 7.52142C32.2019 8.03936 32.4158 8.59303 32.4158 9.18243C32.4158 9.28959 32.4069 9.38782 32.3891 9.47712C32.3891 9.56642 32.3802 9.65572 32.3624 9.74503C31.275 10.1915 30.3392 10.7899 29.5548 11.54C28.7884 12.2723 28.0753 13.0849 27.4158 13.9779C26.7563 14.8531 26.0343 15.7461 25.25 16.657C25.5709 16.9249 25.8828 17.1213 26.1858 17.2464C26.4889 17.3535 26.7652 17.4071 27.0147 17.4071C27.496 17.4071 27.8882 17.2464 28.1912 16.9249C28.4942 16.5855 28.6457 16.1926 28.6457 15.7461C28.6457 15.6032 28.6279 15.4603 28.5923 15.3174C28.5744 15.1746 28.521 15.0317 28.4318 14.8888C28.6458 14.8531 28.8507 14.8263 29.0468 14.8084C29.2607 14.7727 29.4657 14.7548 29.6618 14.7548C30.66 14.7548 31.3909 15.0138 31.8543 15.5318C32.3178 16.0319 32.5495 16.6123 32.5495 17.2732C32.5495 17.7732 32.4158 18.2733 32.1484 18.7734C31.8811 19.2735 31.4889 19.6843 30.972 20.0058C30.455 20.3273 29.8311 20.488 29.1003 20.488C28.4229 20.488 27.6475 20.3005 26.7741 19.9254C25.9185 19.5503 24.9826 18.9252 23.9666 18.0501C23.5209 18.4966 23.0307 18.9252 22.496 19.336C21.9612 19.7468 21.373 20.1308 20.7313 20.488Z" fill="white"/>
<path d="M43.7921 20.4344C43.1682 20.4344 42.6245 20.229 42.161 19.8182C41.6976 19.4075 41.4659 18.7377 41.4659 17.809C41.4659 17.7197 41.4659 17.6304 41.4659 17.5411C41.4659 17.4518 41.4748 17.3625 41.4926 17.2732C40.9578 18.3448 40.3518 19.1396 39.6744 19.6575C39.0149 20.1576 38.3464 20.4076 37.669 20.4076C37.0452 20.4076 36.4569 20.1933 35.9043 19.7647C35.3517 19.3182 34.9061 18.6663 34.5674 17.809C34.2287 16.9517 34.0594 15.9158 34.0594 14.7013C34.0594 13.451 34.2287 12.3348 34.5674 11.3525C34.9239 10.3701 35.3874 9.53963 35.9578 8.86094C36.5282 8.18225 37.1521 7.67323 37.8295 7.33388C38.5068 6.97668 39.1664 6.79807 39.8081 6.79807C40.5211 6.79807 41.1628 7.02133 41.7332 7.46783C42.3036 7.89648 42.6958 8.58411 42.9097 9.5307C42.9632 9.22708 42.9988 8.95024 43.0167 8.7002C43.0523 8.45015 43.0701 8.28048 43.0701 8.19118C43.088 7.70895 43.3286 7.35174 43.7921 7.11956C44.2734 6.88737 44.7992 6.77128 45.3696 6.77128C45.8687 6.77128 46.3411 6.86951 46.7867 7.06598C47.2324 7.26244 47.5354 7.59286 47.6958 8.05723L47.7493 8.21797C47.5354 8.7002 47.3215 9.28066 47.1076 9.95935C46.8937 10.638 46.6976 11.3525 46.5194 12.1026C46.3411 12.8349 46.1985 13.5582 46.0916 14.2726C45.9846 14.9692 45.9311 15.5854 45.9311 16.1212C45.9311 16.7106 45.9935 17.1213 46.1183 17.3535C46.2431 17.5678 46.3946 17.675 46.5728 17.675C46.8759 17.675 47.1522 17.4607 47.4017 17.032L47.6156 17.1392C47.6156 17.7464 47.4196 18.3001 47.0274 18.8002C46.6352 19.3003 46.145 19.7022 45.5568 20.0058C44.9686 20.2915 44.3803 20.4344 43.7921 20.4344ZM39.4338 17.032C39.8972 17.032 40.4052 16.6212 40.9578 15.7997C41.5282 14.9602 42.0184 13.7636 42.4284 12.2098C42.4641 12.049 42.4997 11.8972 42.5354 11.7543C42.571 11.5936 42.5978 11.4418 42.6156 11.2989C42.3304 10.638 42.0274 10.1737 41.7065 9.90577C41.4035 9.62 41.1004 9.47712 40.7974 9.47712C40.3518 9.47712 39.9329 9.71824 39.5407 10.2005C39.1664 10.6648 38.8544 11.2542 38.6049 11.9686C38.3731 12.683 38.2573 13.3975 38.2573 14.1119C38.2573 15.0942 38.3642 15.8265 38.5781 16.3087C38.8099 16.7909 39.0951 17.032 39.4338 17.032Z" fill="white"/>
<path d="M54.1003 5.96757C53.3872 5.96757 52.799 5.75324 52.3355 5.3246C51.8899 4.87809 51.6671 4.32442 51.6671 3.66359C51.6671 2.94917 51.9345 2.33299 52.4692 1.81504C53.004 1.29709 53.6546 1.03812 54.4211 1.03812C55.1341 1.03812 55.7135 1.26137 56.1591 1.70788C56.6226 2.15439 56.8543 2.70806 56.8543 3.36889C56.8543 4.0833 56.5869 4.69949 56.0521 5.21743C55.5174 5.71752 54.8668 5.96757 54.1003 5.96757ZM52.2286 20.4076C51.5334 20.4076 50.9095 20.1665 50.3569 19.6843C49.8043 19.1842 49.528 18.3894 49.528 17.2999C49.528 16.6748 49.6082 16.0944 49.7687 15.5586C49.9469 15.0049 50.143 14.4691 50.3569 13.9511C50.5886 13.4332 50.7847 12.9331 50.9452 12.4509C51.1234 11.9508 51.2125 11.4596 51.2125 10.9774C51.2125 10.5487 51.1412 10.2451 50.9986 10.0665C50.856 9.87005 50.6867 9.77182 50.4906 9.77182C50.1876 9.77182 49.8935 9.96828 49.6082 10.3612L49.4211 10.254C49.4924 9.53963 49.7152 8.93238 50.0895 8.43229C50.4817 7.91434 50.9541 7.51249 51.5067 7.22672C52.0771 6.94096 52.6386 6.79807 53.1912 6.79807C53.8685 6.79807 54.4568 7.02133 54.9559 7.46783C55.455 7.89648 55.7045 8.60196 55.7045 9.58428C55.7045 10.1737 55.6154 10.7988 55.4372 11.4596C55.2767 12.1026 55.0807 12.7456 54.8489 13.3885C54.635 14.0315 54.4389 14.6298 54.2607 15.1835C54.1003 15.7372 54.02 16.2105 54.02 16.6034C54.02 16.9427 54.0824 17.1838 54.2072 17.3267C54.3498 17.4696 54.5013 17.5411 54.6618 17.5411C54.8222 17.5411 54.9737 17.4964 55.1163 17.4071C55.2767 17.2999 55.3926 17.1838 55.4639 17.0588L55.6511 17.1124C55.6511 17.7732 55.4728 18.3537 55.1163 18.8538C54.7776 19.336 54.3498 19.72 53.8329 20.0058C53.3159 20.2737 52.7812 20.4076 52.2286 20.4076Z" fill="white"/>
<path d="M60.3685 20.488C59.6733 20.4523 59.0672 20.2112 58.5503 19.7647C58.0512 19.3003 57.7036 18.4966 57.5075 17.3535C58.3631 17.0856 59.2098 16.5855 60.0476 15.8533C60.9032 15.1031 61.741 14.2458 62.561 13.2814C63.3988 12.2991 64.2188 11.3435 65.0209 10.4148C64.7357 10.2362 64.4594 10.1112 64.192 10.0397C63.9246 9.96828 63.6751 9.93256 63.4434 9.93256C62.9621 9.93256 62.5699 10.0665 62.2669 10.3344C61.9817 10.5845 61.8391 10.9238 61.8391 11.3525C61.8391 11.7454 61.9817 12.1919 62.2669 12.692C62.053 12.7277 61.848 12.7545 61.6519 12.7724C61.4558 12.7902 61.2776 12.7991 61.1171 12.7991C59.9941 12.7991 59.1653 12.5044 58.6305 11.9151C58.0957 11.3257 57.8283 10.6738 57.8283 9.95935C57.8283 9.4414 57.9531 8.94131 58.2027 8.45908C58.4701 7.95899 58.8622 7.55714 59.3792 7.25351C59.8961 6.93203 60.52 6.77128 61.2508 6.77128C61.9282 6.77128 62.6858 6.94096 63.5236 7.2803C64.3792 7.60179 65.315 8.15546 66.3311 8.94131C66.848 8.38764 67.3471 7.89648 67.8284 7.46783C68.3275 7.03919 68.8266 6.70877 69.3258 6.47659C70.3062 6.63733 71.0013 6.98561 71.4113 7.52142C71.8391 8.03936 72.053 8.59303 72.053 9.18243C72.053 9.28959 72.0441 9.38782 72.0263 9.47712C72.0263 9.56642 72.0174 9.65572 71.9996 9.74503C70.9122 10.1915 69.9764 10.7899 69.1921 11.54C68.4256 12.2723 67.7126 13.0849 67.053 13.9779C66.3935 14.8531 65.6715 15.7461 64.8872 16.657C65.2081 16.9249 65.52 17.1213 65.8231 17.2464C66.1261 17.3535 66.4024 17.4071 66.6519 17.4071C67.1332 17.4071 67.5254 17.2464 67.8284 16.9249C68.1315 16.5855 68.283 16.1926 68.283 15.7461C68.283 15.6032 68.2651 15.4603 68.2295 15.3174C68.2117 15.1746 68.1582 15.0317 68.0691 14.8888C68.283 14.8531 68.488 14.8263 68.684 14.8084C68.8979 14.7727 69.1029 14.7548 69.299 14.7548C70.2972 14.7548 71.0281 15.0138 71.4915 15.5318C71.955 16.0319 72.1867 16.6123 72.1867 17.2732C72.1867 17.7732 72.053 18.2733 71.7857 18.7734C71.5183 19.2735 71.1261 19.6843 70.6092 20.0058C70.0922 20.3273 69.4684 20.488 68.7375 20.488C68.0601 20.488 67.2847 20.3005 66.4113 19.9254C65.5557 19.5503 64.6198 18.9252 63.6038 18.0501C63.1582 18.4966 62.668 18.9252 62.1332 19.336C61.5984 19.7468 61.0102 20.1308 60.3685 20.488Z" fill="white"/>
<path d="M83.4293 20.4344C82.8054 20.4344 82.2617 20.229 81.7983 19.8182C81.3348 19.4075 81.1031 18.7377 81.1031 17.809C81.1031 17.7197 81.1031 17.6304 81.1031 17.5411C81.1031 17.4518 81.112 17.3625 81.1298 17.2732C80.595 18.3448 79.989 19.1396 79.3116 19.6575C78.6521 20.1576 77.9836 20.4076 77.3063 20.4076C76.6824 20.4076 76.0941 20.1933 75.5415 19.7647C74.989 19.3182 74.5433 18.6663 74.2046 17.809C73.866 16.9517 73.6966 15.9158 73.6966 14.7013C73.6966 13.451 73.866 12.3348 74.2046 11.3525C74.5611 10.3701 75.0246 9.53963 75.595 8.86094C76.1654 8.18225 76.7893 7.67323 77.4667 7.33388C78.1441 6.97668 78.8036 6.79807 79.4453 6.79807C80.1583 6.79807 80.8 7.02133 81.3705 7.46783C81.9409 7.89648 82.333 8.58411 82.5469 9.5307C82.6004 9.22708 82.6361 8.95024 82.6539 8.7002C82.6895 8.45015 82.7074 8.28048 82.7074 8.19118C82.7252 7.70895 82.9658 7.35174 83.4293 7.11956C83.9106 6.88737 84.4364 6.77128 85.0068 6.77128C85.506 6.77128 85.9783 6.86951 86.424 7.06598C86.8696 7.26244 87.1726 7.59286 87.3331 8.05723L87.3865 8.21797C87.1726 8.7002 86.9587 9.28066 86.7448 9.95935C86.5309 10.638 86.3348 11.3525 86.1566 12.1026C85.9783 12.8349 85.8357 13.5582 85.7288 14.2726C85.6218 14.9692 85.5683 15.5854 85.5683 16.1212C85.5683 16.7106 85.6307 17.1213 85.7555 17.3535C85.8803 17.5678 86.0318 17.675 86.2101 17.675C86.5131 17.675 86.7894 17.4607 87.0389 17.032L87.2528 17.1392C87.2528 17.7464 87.0568 18.3001 86.6646 18.8002C86.2724 19.3003 85.7822 19.7022 85.194 20.0058C84.6058 20.2915 84.0175 20.4344 83.4293 20.4344ZM79.071 17.032C79.5344 17.032 80.0425 16.6212 80.595 15.7997C81.1655 14.9602 81.6557 13.7636 82.0657 12.2098C82.1013 12.049 82.1369 11.8972 82.1726 11.7543C82.2083 11.5936 82.235 11.4418 82.2528 11.2989C81.9676 10.638 81.6646 10.1737 81.3437 9.90577C81.0407 9.62 80.7377 9.47712 80.4346 9.47712C79.989 9.47712 79.5701 9.71824 79.1779 10.2005C78.8036 10.6648 78.4916 11.2542 78.2421 11.9686C78.0104 12.683 77.8945 13.3975 77.8945 14.1119C77.8945 15.0942 78.0014 15.8265 78.2154 16.3087C78.4471 16.7909 78.7323 17.032 79.071 17.032Z" fill="white"/>
<path d="M69.3805 34.194C68.936 34.194 68.5625 34.1009 68.2599 33.9146C67.9636 33.7284 67.7352 33.4738 67.5746 33.1509C67.4203 32.8281 67.3369 32.4679 67.3246 32.0706C67.3184 31.9774 67.3153 31.847 67.3153 31.6794C67.3153 31.5117 67.3184 31.3814 67.3246 31.2882C67.3369 30.8846 67.4203 30.5245 67.5746 30.2078C67.7352 29.885 67.9636 29.6304 68.2599 29.4441C68.5625 29.2579 68.936 29.1647 69.3805 29.1647C69.8251 29.1647 70.1955 29.2579 70.4918 29.4441C70.7944 29.6304 71.0228 29.885 71.1772 30.2078C71.3377 30.5245 71.4241 30.8846 71.4365 31.2882C71.4426 31.3814 71.4457 31.5117 71.4457 31.6794C71.4457 31.847 71.4426 31.9774 71.4365 32.0706C71.4241 32.4679 71.3377 32.8281 71.1772 33.1509C71.0228 33.4738 70.7944 33.7284 70.4918 33.9146C70.1955 34.1009 69.8251 34.194 69.3805 34.194ZM69.3805 33.6539C69.8127 33.6539 70.1646 33.5142 70.4363 33.2348C70.7079 32.9553 70.853 32.5518 70.8715 32.024C70.8777 31.9309 70.8808 31.816 70.8808 31.6794C70.8808 31.5428 70.8777 31.4279 70.8715 31.3348C70.853 30.8008 70.7079 30.3972 70.4363 30.124C70.1646 29.8446 69.8127 29.7049 69.3805 29.7049C68.9483 29.7049 68.5964 29.8446 68.3248 30.124C68.0531 30.3972 67.908 30.8008 67.8895 31.3348C67.8833 31.4279 67.8802 31.5428 67.8802 31.6794C67.8802 31.816 67.8833 31.9309 67.8895 32.024C67.908 32.5518 68.0531 32.9553 68.3248 33.2348C68.5964 33.5142 68.9483 33.6539 69.3805 33.6539Z" fill="white"/>
<path d="M65.6885 34.1009C65.6268 34.1009 65.5774 34.0823 65.5404 34.045C65.5033 34.0078 65.4848 33.9581 65.4848 33.896V29.4628C65.4848 29.4007 65.5033 29.351 65.5404 29.3137C65.5774 29.2765 65.6268 29.2579 65.6885 29.2579H65.846C65.9077 29.2579 65.9571 29.2765 65.9942 29.3137C66.0312 29.351 66.0497 29.4007 66.0497 29.4628V33.896C66.0497 33.9581 66.0312 34.0078 65.9942 34.045C65.9571 34.0823 65.9077 34.1009 65.846 34.1009H65.6885ZM65.5867 28.2613C65.5249 28.2613 65.4755 28.2427 65.4385 28.2054C65.4015 28.1682 65.3829 28.1185 65.3829 28.0564V27.7025C65.3829 27.6404 65.4015 27.5907 65.4385 27.5535C65.4755 27.51 65.5249 27.4883 65.5867 27.4883H65.9386C66.0003 27.4883 66.0497 27.51 66.0868 27.5535C66.13 27.5907 66.1516 27.6404 66.1516 27.7025V28.0564C66.1516 28.1185 66.13 28.1682 66.0868 28.2054C66.0497 28.2427 66.0003 28.2613 65.9386 28.2613H65.5867Z" fill="white"/>
<path d="M61.8537 34.194C61.4957 34.194 61.19 34.1289 60.9369 33.9985C60.6899 33.8681 60.4893 33.6942 60.3349 33.4769C60.1806 33.2596 60.0664 33.0174 59.9923 32.7504C59.9244 32.4835 59.8842 32.2134 59.8719 31.9402C59.8657 31.847 59.8626 31.7601 59.8626 31.6794C59.8626 31.5987 59.8657 31.5117 59.8719 31.4186C59.8842 31.1454 59.9244 30.8753 59.9923 30.6083C60.0664 30.3413 60.1806 30.0992 60.3349 29.8819C60.4893 29.6646 60.6899 29.4907 60.9369 29.3603C61.19 29.2299 61.4957 29.1647 61.8537 29.1647C62.2365 29.1647 62.5514 29.2361 62.7984 29.3789C63.0515 29.5217 63.2552 29.6956 63.4096 29.9005V27.6932C63.4096 27.6311 63.4281 27.5814 63.4652 27.5442C63.5022 27.5069 63.5516 27.4883 63.6133 27.4883H63.7708C63.8325 27.4883 63.8819 27.5069 63.9189 27.5442C63.956 27.5814 63.9745 27.6311 63.9745 27.6932V33.896C63.9745 33.9581 63.956 34.0078 63.9189 34.045C63.8819 34.0823 63.8325 34.1009 63.7708 34.1009H63.6133C63.5516 34.1009 63.5022 34.0823 63.4652 34.045C63.4281 34.0078 63.4096 33.9581 63.4096 33.896V33.4583C63.2552 33.6694 63.0515 33.8463 62.7984 33.9892C62.5514 34.1257 62.2365 34.194 61.8537 34.194ZM61.9093 33.6539C62.2612 33.6539 62.5452 33.57 62.7613 33.4024C62.9774 33.2348 63.1379 33.0267 63.2429 32.7784C63.3479 32.5238 63.4034 32.2692 63.4096 32.0147C63.4158 31.9215 63.4189 31.8005 63.4189 31.6514C63.4189 31.5024 63.4158 31.3814 63.4096 31.2882C63.4034 31.0399 63.3448 30.7946 63.2336 30.5524C63.1287 30.3103 62.9682 30.1085 62.7521 29.9471C62.536 29.7856 62.2551 29.7049 61.9093 29.7049C61.5512 29.7049 61.2641 29.7856 61.048 29.9471C60.8381 30.1085 60.6869 30.3196 60.5943 30.5804C60.5016 30.8412 60.4492 31.1206 60.4368 31.4186C60.4306 31.5925 60.4306 31.7663 60.4368 31.9402C60.4492 32.2382 60.5016 32.5176 60.5943 32.7784C60.6869 33.0392 60.8381 33.2503 61.048 33.4117C61.2641 33.5731 61.5512 33.6539 61.9093 33.6539Z" fill="white"/>
<path d="M56.5013 34.194C56.0815 34.194 55.7326 34.104 55.4548 33.924C55.1832 33.7377 54.9794 33.4862 54.8436 33.1696C54.7139 32.8529 54.6491 32.499 54.6491 32.1078V29.4628C54.6491 29.4007 54.6676 29.351 54.7047 29.3137C54.7417 29.2765 54.7911 29.2579 54.8528 29.2579H55.0103C55.072 29.2579 55.1214 29.2765 55.1585 29.3137C55.1955 29.351 55.214 29.4007 55.214 29.4628V32.0612C55.214 33.123 55.674 33.6539 56.5939 33.6539C57.0323 33.6539 57.3842 33.5142 57.6497 33.2348C57.9151 32.9491 58.0479 32.558 58.0479 32.0612V29.4628C58.0479 29.4007 58.0664 29.351 58.1035 29.3137C58.1405 29.2765 58.1899 29.2579 58.2516 29.2579H58.4091C58.4708 29.2579 58.5202 29.2765 58.5572 29.3137C58.5943 29.351 58.6128 29.4007 58.6128 29.4628V33.896C58.6128 33.9581 58.5943 34.0078 58.5572 34.045C58.5202 34.0823 58.4708 34.1009 58.4091 34.1009H58.2516C58.1899 34.1009 58.1405 34.0823 58.1035 34.045C58.0664 34.0078 58.0479 33.9581 58.0479 33.896V33.4583C57.8812 33.6756 57.6805 33.8526 57.4459 33.9892C57.2175 34.1257 56.9026 34.194 56.5013 34.194Z" fill="white"/>
<path d="M52.9879 34.1009C52.6668 34.1009 52.4137 34.0326 52.2285 33.896C52.0433 33.7594 51.9136 33.5731 51.8395 33.3372C51.7654 33.1013 51.7284 32.8374 51.7284 32.5455V29.798H51.006C50.9443 29.798 50.8949 29.7794 50.8579 29.7422C50.8208 29.7049 50.8023 29.6552 50.8023 29.5931V29.4628C50.8023 29.4007 50.8208 29.351 50.8579 29.3137C50.8949 29.2765 50.9443 29.2579 51.006 29.2579H51.7284V27.6932C51.7284 27.6311 51.7469 27.5814 51.784 27.5442C51.821 27.5069 51.8704 27.4883 51.9321 27.4883H52.0896C52.1513 27.4883 52.2007 27.5069 52.2377 27.5442C52.2748 27.5814 52.2933 27.6311 52.2933 27.6932V29.2579H53.4417C53.5034 29.2579 53.5528 29.2765 53.5899 29.3137C53.6269 29.351 53.6454 29.4007 53.6454 29.4628V29.5931C53.6454 29.6552 53.6269 29.7049 53.5899 29.7422C53.5528 29.7794 53.5034 29.798 53.4417 29.798H52.2933V32.5083C52.2933 32.8374 52.3458 33.095 52.4508 33.2813C52.5619 33.4676 52.7564 33.5607 53.0342 33.5607H53.5343C53.596 33.5607 53.6454 33.5794 53.6825 33.6166C53.7195 33.6539 53.738 33.7035 53.738 33.7656V33.896C53.738 33.9581 53.7195 34.0078 53.6825 34.045C53.6454 34.0823 53.596 34.1009 53.5343 34.1009H52.9879Z" fill="white"/>
<path d="M47.8252 34.194C47.3251 34.194 46.8991 34.1133 46.5472 33.9519C46.2014 33.7905 45.9359 33.5825 45.7507 33.3279C45.5655 33.0733 45.4667 32.8032 45.4544 32.5176C45.4544 32.4679 45.4729 32.4245 45.5099 32.3872C45.547 32.35 45.5933 32.3313 45.6488 32.3313H45.8341C45.8958 32.3313 45.9421 32.35 45.973 32.3872C46.01 32.4245 46.0316 32.4679 46.0378 32.5176C46.0625 32.6915 46.1397 32.8653 46.2693 33.0392C46.399 33.2068 46.5904 33.3496 46.8435 33.4676C47.0967 33.5794 47.4239 33.6352 47.8252 33.6352C48.4302 33.6352 48.8717 33.5266 49.1495 33.3093C49.4273 33.0857 49.5662 32.7877 49.5662 32.4152C49.5662 32.1668 49.4922 31.9681 49.344 31.8191C49.202 31.6639 48.9828 31.5273 48.6865 31.4093C48.3901 31.2851 48.0104 31.1485 47.5474 30.9995C47.109 30.8567 46.7478 30.7108 46.4638 30.5618C46.1798 30.4065 45.9699 30.2203 45.8341 30.0029C45.7044 29.7856 45.6396 29.5062 45.6396 29.1647C45.6396 28.8481 45.7229 28.5656 45.8896 28.3172C46.0563 28.0626 46.2971 27.8608 46.612 27.7118C46.933 27.5628 47.322 27.4883 47.7789 27.4883C48.1431 27.4883 48.4611 27.538 48.7328 27.6373C49.0044 27.7366 49.2298 27.8701 49.4088 28.0378C49.5879 28.1992 49.7237 28.3762 49.8163 28.5687C49.9089 28.7549 49.9583 28.9381 49.9645 29.1182C49.9645 29.1616 49.949 29.2051 49.9182 29.2485C49.8873 29.2858 49.8379 29.3044 49.77 29.3044H49.5848C49.5539 29.3044 49.5138 29.292 49.4644 29.2672C49.4212 29.2423 49.3934 29.1927 49.381 29.1182C49.344 28.8077 49.1804 28.5531 48.8902 28.3544C48.6062 28.1495 48.2358 28.0471 47.7789 28.0471C47.322 28.0471 46.9485 28.1371 46.6583 28.3172C46.3681 28.4973 46.223 28.7798 46.223 29.1647C46.223 29.4131 46.2879 29.618 46.4175 29.7794C46.5472 29.9346 46.7509 30.0743 47.0287 30.1985C47.3066 30.3165 47.6647 30.4469 48.103 30.5897C48.5661 30.7387 48.9489 30.8877 49.2514 31.0367C49.5539 31.1858 49.7793 31.3689 49.9274 31.5863C50.0756 31.7974 50.1497 32.0737 50.1497 32.4152C50.1497 32.7939 50.054 33.1168 49.8626 33.3838C49.6774 33.6445 49.4119 33.8463 49.0662 33.9892C48.7204 34.1257 48.3068 34.194 47.8252 34.194Z" fill="white"/>
<path d="M39.3484 34.1009C39.2867 34.1009 39.2373 34.0823 39.2002 34.045C39.1632 34.0078 39.1447 33.9581 39.1447 33.896V29.4628C39.1447 29.4007 39.1632 29.351 39.2002 29.3137C39.2373 29.2765 39.2867 29.2579 39.3484 29.2579H39.5058C39.5676 29.2579 39.617 29.2765 39.654 29.3137C39.6911 29.351 39.7096 29.4007 39.7096 29.4628V29.9005C39.8763 29.6832 40.0769 29.5062 40.3115 29.3696C40.5523 29.233 40.8703 29.1647 41.2654 29.1647C41.6853 29.1647 42.0341 29.2579 42.3119 29.4441C42.5959 29.6242 42.8058 29.8726 42.9417 30.1892C43.0837 30.4997 43.1547 30.8536 43.1547 31.251V33.896C43.1547 33.9581 43.1361 34.0078 43.0991 34.045C43.0621 34.0823 43.0127 34.1009 42.9509 34.1009H42.7935C42.7317 34.1009 42.6824 34.0823 42.6453 34.045C42.6083 34.0078 42.5897 33.9581 42.5897 33.896V31.2975C42.5897 30.8008 42.4694 30.4127 42.2286 30.1333C41.9878 29.8477 41.6359 29.7049 41.1728 29.7049C40.7345 29.7049 40.3795 29.8477 40.1078 30.1333C39.8423 30.4127 39.7096 30.8008 39.7096 31.2975V33.896C39.7096 33.9581 39.6911 34.0078 39.654 34.045C39.617 34.0823 39.5676 34.1009 39.5058 34.1009H39.3484Z" fill="white"/>
<path d="M35.5601 36.1499C35.165 36.1499 34.8409 36.0971 34.5877 35.9916C34.3408 35.886 34.1463 35.7556 34.0043 35.6004C33.8685 35.4514 33.7728 35.2993 33.7172 35.144C33.6616 34.995 33.6308 34.8739 33.6246 34.7808C33.6184 34.7187 33.6369 34.6659 33.6801 34.6225C33.7234 34.5852 33.7728 34.5666 33.8283 34.5666H33.958C34.0074 34.5666 34.0506 34.5759 34.0876 34.5945C34.1247 34.6194 34.1555 34.6752 34.1802 34.7622C34.2173 34.8615 34.2759 34.9764 34.3562 35.1068C34.4426 35.2434 34.5754 35.3613 34.7544 35.4607C34.9396 35.56 35.1928 35.6097 35.5138 35.6097C35.8534 35.6097 36.1374 35.5662 36.3658 35.4793C36.5943 35.3924 36.7671 35.2372 36.8845 35.0136C37.0079 34.7963 37.0697 34.4921 37.0697 34.1009V33.4583C36.9153 33.6694 36.7116 33.8463 36.4584 33.9892C36.2115 34.1257 35.8966 34.194 35.5138 34.194C35.1557 34.194 34.8501 34.1289 34.597 33.9985C34.35 33.8681 34.1494 33.6942 33.995 33.4769C33.8407 33.2596 33.7265 33.0174 33.6524 32.7504C33.5783 32.4835 33.5381 32.2134 33.532 31.9402C33.5258 31.7663 33.5258 31.5925 33.532 31.4186C33.5381 31.1454 33.5783 30.8753 33.6524 30.6083C33.7265 30.3413 33.8407 30.0992 33.995 29.8819C34.1494 29.6646 34.35 29.4907 34.597 29.3603C34.8501 29.2299 35.1557 29.1647 35.5138 29.1647C35.8966 29.1647 36.2115 29.2361 36.4584 29.3789C36.7116 29.5217 36.9153 29.6956 37.0697 29.9005V29.4721C37.0697 29.41 37.0882 29.3603 37.1252 29.3231C37.1623 29.2796 37.2117 29.2579 37.2734 29.2579H37.4216C37.4833 29.2579 37.5327 29.2796 37.5698 29.3231C37.613 29.3603 37.6346 29.41 37.6346 29.4721V34.0078C37.6346 34.4052 37.5759 34.7653 37.4586 35.0882C37.3413 35.411 37.1314 35.6687 36.8289 35.8612C36.5325 36.0537 36.1096 36.1499 35.5601 36.1499ZM35.5694 33.6539C35.9213 33.6539 36.2053 33.57 36.4214 33.4024C36.6375 33.2348 36.7949 33.0267 36.8937 32.7784C36.9987 32.5238 37.0573 32.2692 37.0697 32.0147C37.0758 31.9215 37.0789 31.8098 37.0789 31.6794C37.0789 31.549 37.0758 31.4372 37.0697 31.3441C37.0573 31.0895 36.9987 30.8381 36.8937 30.5897C36.7949 30.3351 36.6375 30.124 36.4214 29.9564C36.2053 29.7887 35.9213 29.7049 35.5694 29.7049C35.2113 29.7049 34.9242 29.7856 34.7081 29.9471C34.4982 30.1085 34.3469 30.3196 34.2543 30.5804C34.1617 30.8412 34.1092 31.1206 34.0969 31.4186C34.0907 31.5925 34.0907 31.7663 34.0969 31.9402C34.1092 32.2382 34.1617 32.5176 34.2543 32.7784C34.3469 33.0392 34.4982 33.2503 34.7081 33.4117C34.9242 33.5731 35.2113 33.6539 35.5694 33.6539Z" fill="white"/>
<path d="M31.9052 34.1009C31.8435 34.1009 31.7941 34.0823 31.757 34.045C31.72 34.0078 31.7015 33.9581 31.7015 33.896V29.4628C31.7015 29.4007 31.72 29.351 31.757 29.3137C31.7941 29.2765 31.8435 29.2579 31.9052 29.2579H32.0626C32.1244 29.2579 32.1738 29.2765 32.2108 29.3137C32.2479 29.351 32.2664 29.4007 32.2664 29.4628V33.896C32.2664 33.9581 32.2479 34.0078 32.2108 34.045C32.1738 34.0823 32.1244 34.1009 32.0626 34.1009H31.9052ZM31.8033 28.2613C31.7416 28.2613 31.6922 28.2427 31.6552 28.2054C31.6181 28.1682 31.5996 28.1185 31.5996 28.0564V27.7025C31.5996 27.6404 31.6181 27.5907 31.6552 27.5535C31.6922 27.51 31.7416 27.4883 31.8033 27.4883H32.1553C32.217 27.4883 32.2664 27.51 32.3034 27.5535C32.3466 27.5907 32.3683 27.6404 32.3683 27.7025V28.0564C32.3683 28.1185 32.3466 28.1682 32.3034 28.2054C32.2664 28.2427 32.217 28.2613 32.1553 28.2613H31.8033Z" fill="white"/>
<path d="M28.6714 34.194C28.3503 34.194 28.0725 34.1506 27.8379 34.0637C27.6094 33.9767 27.4211 33.8743 27.273 33.7563C27.1248 33.6321 27.0137 33.5111 26.9396 33.3931C26.8717 33.2751 26.8346 33.1851 26.8284 33.123C26.8223 33.0547 26.8439 33.005 26.8933 32.974C26.9427 32.9367 26.989 32.9181 27.0322 32.9181H27.1711C27.2081 32.9181 27.239 32.9243 27.2637 32.9367C27.2946 32.9491 27.3316 32.9833 27.3748 33.0392C27.4551 33.1447 27.5477 33.2472 27.6527 33.3465C27.7576 33.4397 27.8904 33.5142 28.0509 33.57C28.2176 33.6259 28.4244 33.6539 28.6714 33.6539C29.0418 33.6539 29.3474 33.5825 29.5882 33.4397C29.829 33.2968 29.9494 33.0857 29.9494 32.8063C29.9494 32.6325 29.9 32.4928 29.8012 32.3872C29.7086 32.2817 29.5481 32.1885 29.3196 32.1078C29.0912 32.0271 28.7825 31.9433 28.3935 31.8563C28.0046 31.7632 27.7051 31.6514 27.4952 31.5211C27.2915 31.3907 27.1526 31.2416 27.0785 31.074C27.0044 30.9002 26.9674 30.7139 26.9674 30.5152C26.9674 30.2979 27.0291 30.0868 27.1526 29.8819C27.2761 29.6708 27.4582 29.5 27.699 29.3696C27.9459 29.233 28.2546 29.1647 28.6251 29.1647C28.9276 29.1647 29.1838 29.2051 29.3937 29.2858C29.6098 29.3665 29.7858 29.4659 29.9216 29.5838C30.0574 29.6956 30.1562 29.8074 30.218 29.9191C30.2859 30.0309 30.3229 30.1209 30.3291 30.1892C30.3353 30.2513 30.3167 30.301 30.2735 30.3382C30.2303 30.3755 30.1809 30.3941 30.1254 30.3941H29.9864C29.937 30.3941 29.8969 30.3848 29.866 30.3662C29.8352 30.3413 29.8074 30.3103 29.7827 30.273C29.721 30.1737 29.6469 30.0806 29.5604 29.9936C29.474 29.9067 29.3567 29.8384 29.2085 29.7887C29.0665 29.7329 28.872 29.7049 28.6251 29.7049C28.2546 29.7049 27.9799 29.7825 27.8008 29.9377C27.6218 30.0868 27.5323 30.2792 27.5323 30.5152C27.5323 30.6518 27.5693 30.7729 27.6434 30.8784C27.7175 30.9778 27.8564 31.0709 28.0601 31.1578C28.2639 31.2385 28.5602 31.3255 28.9492 31.4186C29.3443 31.5055 29.6561 31.6142 29.8846 31.7446C30.113 31.8688 30.2735 32.0178 30.3661 32.1916C30.4649 32.3655 30.5143 32.5704 30.5143 32.8063C30.5143 33.0547 30.4433 33.2844 30.3013 33.4955C30.1655 33.7066 29.9587 33.8774 29.6808 34.0078C29.4092 34.132 29.0727 34.194 28.6714 34.194Z" fill="white"/>
<path d="M23.8751 34.194C23.2762 34.194 22.8008 33.9985 22.4489 33.6073C22.097 33.2099 21.8963 32.6915 21.8469 32.0519C21.8408 31.9588 21.8377 31.8346 21.8377 31.6794C21.8377 31.5242 21.8408 31.4 21.8469 31.3068C21.8778 30.8846 21.9766 30.5121 22.1433 30.1892C22.31 29.8663 22.5384 29.6149 22.8286 29.4348C23.125 29.2548 23.4738 29.1647 23.8751 29.1647C24.3073 29.1647 24.6746 29.261 24.9772 29.4534C25.2797 29.6459 25.5112 29.9222 25.6717 30.2824C25.8384 30.6425 25.9218 31.0709 25.9218 31.5676V31.7073C25.9218 31.7694 25.9002 31.8191 25.857 31.8563C25.8199 31.8936 25.7705 31.9122 25.7088 31.9122H22.4119C22.4119 31.9122 22.4119 31.9246 22.4119 31.9495C22.4119 31.9743 22.4119 31.9929 22.4119 32.0054C22.4242 32.2848 22.489 32.5518 22.6063 32.8063C22.7237 33.0547 22.8904 33.2596 23.1064 33.421C23.3225 33.5762 23.5788 33.6539 23.8751 33.6539C24.1406 33.6539 24.3598 33.6135 24.5326 33.5328C24.7117 33.4521 24.8537 33.3651 24.9586 33.272C25.0636 33.1727 25.1315 33.0982 25.1624 33.0485C25.2179 32.9678 25.2612 32.9212 25.292 32.9088C25.3229 32.8901 25.3723 32.8808 25.4402 32.8808H25.5884C25.644 32.8808 25.6903 32.8995 25.7273 32.9367C25.7705 32.9678 25.789 33.0112 25.7829 33.0671C25.7767 33.154 25.7273 33.2627 25.6347 33.3931C25.5483 33.5173 25.4217 33.6414 25.255 33.7656C25.0945 33.8898 24.8969 33.9923 24.6623 34.073C24.4277 34.1537 24.1653 34.194 23.8751 34.194ZM22.4119 31.3907H25.3569V31.3534C25.3569 31.043 25.2982 30.7636 25.1809 30.5152C25.0636 30.2668 24.8938 30.0712 24.6715 29.9284C24.4493 29.7794 24.1838 29.7049 23.8751 29.7049C23.5664 29.7049 23.3009 29.7794 23.0787 29.9284C22.8626 30.0712 22.6959 30.2668 22.5786 30.5152C22.4674 30.7636 22.4119 31.043 22.4119 31.3534V31.3907Z" fill="white"/>
<path d="M16.1444 34.1009C16.0827 34.1009 16.0333 34.0823 15.9962 34.045C15.9592 34.0078 15.9407 33.9581 15.9407 33.896V27.7956C15.9407 27.7273 15.9592 27.6746 15.9962 27.6373C16.0333 27.6 16.0827 27.5814 16.1444 27.5814H18.117C18.7715 27.5814 19.2839 27.6777 19.6543 27.8701C20.0248 28.0626 20.2872 28.3482 20.4415 28.727C20.602 29.0995 20.6854 29.5559 20.6916 30.0961C20.6977 30.3755 20.7008 30.6238 20.7008 30.8412C20.7008 31.0523 20.6977 31.2975 20.6916 31.5769C20.6792 32.1482 20.5959 32.6201 20.4415 32.9926C20.2872 33.3651 20.0279 33.6445 19.6636 33.8308C19.2993 34.0109 18.7992 34.1009 18.1633 34.1009H16.1444ZM16.5241 33.5421H18.117C18.6109 33.5421 18.9999 33.4769 19.2839 33.3465C19.5741 33.2099 19.7809 32.9957 19.9044 32.7039C20.034 32.4058 20.1019 32.0147 20.1081 31.5304C20.1143 31.3441 20.1174 31.1827 20.1174 31.0461C20.1174 30.9033 20.1174 30.7636 20.1174 30.627C20.1174 30.4904 20.1143 30.3289 20.1081 30.1426C20.0958 29.4597 19.9383 28.9567 19.6358 28.6339C19.3333 28.3048 18.8116 28.1402 18.0707 28.1402H16.5241V33.5421Z" fill="white"/>
</svg>
