<svg width="88" height="21" viewBox="0 0 88 21" fill="none" xmlns="http://www.w3.org/2000/svg">
<path d="M2.11231 20.4076C1.55973 20.4076 1.06953 20.2737 0.641716 20.0058C0.213905 19.7379 0 19.2914 0 18.6663C0 17.6839 0.204992 16.6838 0.614977 15.6657C1.04279 14.6477 1.55973 13.6475 2.16579 12.6652C2.78968 11.665 3.40466 10.6916 4.01072 9.74503C4.63461 8.79843 5.15155 7.89648 5.56154 7.03919C5.98935 6.18189 6.20325 5.38711 6.20325 4.65483C6.20325 4.06544 6.06065 3.77075 5.77544 3.77075C5.57936 3.77075 5.35654 3.93149 5.10699 4.25298C4.85743 4.5566 4.67918 5.01204 4.57222 5.61929L4.2781 5.56571C4.2781 4.54767 4.51875 3.69038 5.00003 2.99382C5.48132 2.27941 6.0963 1.7436 6.84497 1.3864C7.59363 1.02919 8.36013 0.850586 9.14445 0.850586C10.0535 0.850586 10.9003 1.10956 11.6846 1.62751C12.4867 2.14546 13.0393 2.96703 13.3423 4.09223C13.4671 4.53874 13.5562 5.03883 13.6097 5.5925C13.681 6.14617 13.7256 6.6284 13.7434 7.03919C13.7612 7.43211 13.7701 7.62858 13.7701 7.62858C13.8058 9.07526 13.8325 10.2987 13.8504 11.2989C13.886 12.2991 13.9395 13.1385 14.0108 13.8172C14.0821 14.4959 14.1801 15.0674 14.3049 15.5318C14.4297 15.9783 14.5901 16.3444 14.7862 16.6302C15.0001 16.8981 15.2675 17.032 15.5883 17.032C15.8914 17.032 16.1498 16.9427 16.3637 16.7641C16.5955 16.5855 16.747 16.4159 16.8183 16.2551L17.0055 16.3891C17.0055 17.2106 16.845 17.9251 16.5242 18.5323C16.2033 19.1396 15.7844 19.6039 15.2675 19.9254C14.7505 20.2469 14.2069 20.4076 13.6365 20.4076C13.0839 20.4076 12.5402 20.2469 12.0054 19.9254C11.4885 19.5861 11.0339 19.0681 10.6418 18.3716C10.2496 17.675 9.99116 16.7731 9.86638 15.6657C9.31379 15.63 8.77011 15.6032 8.23535 15.5854C7.71841 15.5496 7.24604 15.5318 6.81823 15.5318C6.53302 15.5318 6.25673 15.5407 5.98935 15.5586C5.73979 15.5586 5.49023 15.5675 5.24068 15.5854C5.08025 16.139 4.94656 16.7016 4.83961 17.2732C4.75048 17.8268 4.70591 18.3716 4.70591 18.9074C4.70591 19.3182 4.43853 19.6754 3.90377 19.979C3.36901 20.2648 2.77185 20.4076 2.11231 20.4076ZM6.12304 13.0938C6.56867 12.9688 7.04105 12.8884 7.54016 12.8527C8.03927 12.7991 8.57403 12.7724 9.14445 12.7724H9.73269C9.69704 11.4507 9.64356 10.0933 9.57226 8.7002C9.51878 7.30709 9.29596 6.01222 8.9038 4.81558C8.7612 6.10152 8.40469 7.44997 7.83428 8.86094C7.26386 10.2719 6.69345 11.6829 6.12304 13.0938Z" fill="black"/>
<path d="M20.7313 20.488C20.0361 20.4523 19.43 20.2112 18.9131 19.7647C18.414 19.3003 18.0664 18.4966 17.8703 17.3535C18.7259 17.0856 19.5726 16.5855 20.4104 15.8533C21.266 15.1031 22.1038 14.2458 22.9238 13.2814C23.7616 12.2991 24.5816 11.3435 25.3837 10.4148C25.0985 10.2362 24.8222 10.1112 24.5548 10.0397C24.2874 9.96828 24.0379 9.93256 23.8061 9.93256C23.3249 9.93256 22.9327 10.0665 22.6297 10.3344C22.3445 10.5845 22.2019 10.9238 22.2019 11.3525C22.2019 11.7454 22.3445 12.1919 22.6297 12.692C22.4158 12.7277 22.2108 12.7545 22.0147 12.7724C21.8186 12.7902 21.6404 12.7991 21.4799 12.7991C20.3569 12.7991 19.528 12.5044 18.9933 11.9151C18.4585 11.3257 18.1911 10.6738 18.1911 9.95935C18.1911 9.4414 18.3159 8.94131 18.5655 8.45908C18.8328 7.95899 19.225 7.55714 19.7419 7.25351C20.2589 6.93203 20.8828 6.77128 21.6136 6.77128C22.291 6.77128 23.0486 6.94096 23.8864 7.2803C24.742 7.60179 25.6778 8.15546 26.6939 8.94131C27.2108 8.38764 27.7099 7.89648 28.1912 7.46783C28.6903 7.03919 29.1894 6.70877 29.6885 6.47659C30.6689 6.63733 31.3641 6.98561 31.7741 7.52142C32.2019 8.03936 32.4158 8.59303 32.4158 9.18243C32.4158 9.28959 32.4069 9.38782 32.3891 9.47712C32.3891 9.56642 32.3802 9.65572 32.3624 9.74503C31.275 10.1915 30.3392 10.7899 29.5548 11.54C28.7884 12.2723 28.0753 13.0849 27.4158 13.9779C26.7563 14.8531 26.0343 15.7461 25.25 16.657C25.5709 16.9249 25.8828 17.1213 26.1858 17.2464C26.4889 17.3535 26.7652 17.4071 27.0147 17.4071C27.496 17.4071 27.8882 17.2464 28.1912 16.9249C28.4942 16.5855 28.6457 16.1926 28.6457 15.7461C28.6457 15.6032 28.6279 15.4603 28.5923 15.3174C28.5744 15.1746 28.521 15.0317 28.4318 14.8888C28.6458 14.8531 28.8507 14.8263 29.0468 14.8084C29.2607 14.7727 29.4657 14.7548 29.6618 14.7548C30.66 14.7548 31.3909 15.0138 31.8543 15.5318C32.3178 16.0319 32.5495 16.6123 32.5495 17.2732C32.5495 17.7732 32.4158 18.2733 32.1484 18.7734C31.8811 19.2735 31.4889 19.6843 30.972 20.0058C30.455 20.3273 29.8311 20.488 29.1003 20.488C28.4229 20.488 27.6475 20.3005 26.7741 19.9254C25.9185 19.5503 24.9826 18.9252 23.9666 18.0501C23.5209 18.4966 23.0307 18.9252 22.496 19.336C21.9612 19.7468 21.373 20.1308 20.7313 20.488Z" fill="black"/>
<path d="M43.7921 20.4344C43.1682 20.4344 42.6245 20.229 42.161 19.8182C41.6976 19.4075 41.4659 18.7377 41.4659 17.809C41.4659 17.7197 41.4659 17.6304 41.4659 17.5411C41.4659 17.4518 41.4748 17.3625 41.4926 17.2732C40.9578 18.3448 40.3518 19.1396 39.6744 19.6575C39.0149 20.1576 38.3464 20.4076 37.669 20.4076C37.0452 20.4076 36.4569 20.1933 35.9043 19.7647C35.3517 19.3182 34.9061 18.6663 34.5674 17.809C34.2287 16.9517 34.0594 15.9158 34.0594 14.7013C34.0594 13.451 34.2287 12.3348 34.5674 11.3525C34.9239 10.3701 35.3874 9.53963 35.9578 8.86094C36.5282 8.18225 37.1521 7.67323 37.8295 7.33388C38.5068 6.97668 39.1664 6.79807 39.8081 6.79807C40.5211 6.79807 41.1628 7.02133 41.7332 7.46783C42.3036 7.89648 42.6958 8.58411 42.9097 9.5307C42.9632 9.22708 42.9988 8.95024 43.0167 8.7002C43.0523 8.45015 43.0701 8.28048 43.0701 8.19118C43.088 7.70895 43.3286 7.35174 43.7921 7.11956C44.2734 6.88737 44.7992 6.77128 45.3696 6.77128C45.8687 6.77128 46.3411 6.86951 46.7867 7.06598C47.2324 7.26244 47.5354 7.59286 47.6958 8.05723L47.7493 8.21797C47.5354 8.7002 47.3215 9.28066 47.1076 9.95935C46.8937 10.638 46.6976 11.3525 46.5194 12.1026C46.3411 12.8349 46.1985 13.5582 46.0916 14.2726C45.9846 14.9692 45.9311 15.5854 45.9311 16.1212C45.9311 16.7106 45.9935 17.1213 46.1183 17.3535C46.2431 17.5678 46.3946 17.675 46.5728 17.675C46.8759 17.675 47.1522 17.4607 47.4017 17.032L47.6156 17.1392C47.6156 17.7464 47.4196 18.3001 47.0274 18.8002C46.6352 19.3003 46.145 19.7022 45.5568 20.0058C44.9686 20.2915 44.3803 20.4344 43.7921 20.4344ZM39.4338 17.032C39.8972 17.032 40.4052 16.6212 40.9578 15.7997C41.5282 14.9602 42.0184 13.7636 42.4284 12.2098C42.4641 12.049 42.4997 11.8972 42.5354 11.7543C42.571 11.5936 42.5978 11.4418 42.6156 11.2989C42.3304 10.638 42.0274 10.1737 41.7065 9.90577C41.4035 9.62 41.1004 9.47712 40.7974 9.47712C40.3518 9.47712 39.9329 9.71824 39.5407 10.2005C39.1664 10.6648 38.8544 11.2542 38.6049 11.9686C38.3731 12.683 38.2573 13.3975 38.2573 14.1119C38.2573 15.0942 38.3642 15.8265 38.5781 16.3087C38.8099 16.7909 39.0951 17.032 39.4338 17.032Z" fill="black"/>
<path d="M54.1003 5.96757C53.3872 5.96757 52.799 5.75324 52.3355 5.3246C51.8899 4.87809 51.6671 4.32442 51.6671 3.66359C51.6671 2.94917 51.9345 2.33299 52.4692 1.81504C53.004 1.29709 53.6546 1.03812 54.4211 1.03812C55.1341 1.03812 55.7135 1.26137 56.1591 1.70788C56.6226 2.15439 56.8543 2.70806 56.8543 3.36889C56.8543 4.0833 56.5869 4.69949 56.0521 5.21743C55.5174 5.71752 54.8668 5.96757 54.1003 5.96757ZM52.2286 20.4076C51.5334 20.4076 50.9095 20.1665 50.3569 19.6843C49.8043 19.1842 49.528 18.3894 49.528 17.2999C49.528 16.6748 49.6082 16.0944 49.7687 15.5586C49.9469 15.0049 50.143 14.4691 50.3569 13.9511C50.5886 13.4332 50.7847 12.9331 50.9452 12.4509C51.1234 11.9508 51.2125 11.4596 51.2125 10.9774C51.2125 10.5487 51.1412 10.2451 50.9986 10.0665C50.856 9.87005 50.6867 9.77182 50.4906 9.77182C50.1876 9.77182 49.8935 9.96828 49.6082 10.3612L49.4211 10.254C49.4924 9.53963 49.7152 8.93238 50.0895 8.43229C50.4817 7.91434 50.9541 7.51249 51.5067 7.22672C52.0771 6.94096 52.6386 6.79807 53.1912 6.79807C53.8685 6.79807 54.4568 7.02133 54.9559 7.46783C55.455 7.89648 55.7045 8.60196 55.7045 9.58428C55.7045 10.1737 55.6154 10.7988 55.4372 11.4596C55.2767 12.1026 55.0807 12.7456 54.8489 13.3885C54.635 14.0315 54.4389 14.6298 54.2607 15.1835C54.1003 15.7372 54.02 16.2105 54.02 16.6034C54.02 16.9427 54.0824 17.1838 54.2072 17.3267C54.3498 17.4696 54.5013 17.5411 54.6618 17.5411C54.8222 17.5411 54.9737 17.4964 55.1163 17.4071C55.2767 17.2999 55.3926 17.1838 55.4639 17.0588L55.6511 17.1124C55.6511 17.7732 55.4728 18.3537 55.1163 18.8538C54.7776 19.336 54.3498 19.72 53.8329 20.0058C53.3159 20.2737 52.7812 20.4076 52.2286 20.4076Z" fill="black"/>
<path d="M60.3685 20.488C59.6733 20.4523 59.0672 20.2112 58.5503 19.7647C58.0512 19.3003 57.7036 18.4966 57.5075 17.3535C58.3631 17.0856 59.2098 16.5855 60.0476 15.8533C60.9032 15.1031 61.741 14.2458 62.561 13.2814C63.3988 12.2991 64.2188 11.3435 65.0209 10.4148C64.7357 10.2362 64.4594 10.1112 64.192 10.0397C63.9246 9.96828 63.6751 9.93256 63.4434 9.93256C62.9621 9.93256 62.5699 10.0665 62.2669 10.3344C61.9817 10.5845 61.8391 10.9238 61.8391 11.3525C61.8391 11.7454 61.9817 12.1919 62.2669 12.692C62.053 12.7277 61.848 12.7545 61.6519 12.7724C61.4558 12.7902 61.2776 12.7991 61.1171 12.7991C59.9941 12.7991 59.1653 12.5044 58.6305 11.9151C58.0957 11.3257 57.8283 10.6738 57.8283 9.95935C57.8283 9.4414 57.9531 8.94131 58.2027 8.45908C58.4701 7.95899 58.8622 7.55714 59.3792 7.25351C59.8961 6.93203 60.52 6.77128 61.2508 6.77128C61.9282 6.77128 62.6858 6.94096 63.5236 7.2803C64.3792 7.60179 65.315 8.15546 66.3311 8.94131C66.848 8.38764 67.3471 7.89648 67.8284 7.46783C68.3275 7.03919 68.8266 6.70877 69.3258 6.47659C70.3062 6.63733 71.0013 6.98561 71.4113 7.52142C71.8391 8.03936 72.053 8.59303 72.053 9.18243C72.053 9.28959 72.0441 9.38782 72.0263 9.47712C72.0263 9.56642 72.0174 9.65572 71.9996 9.74503C70.9122 10.1915 69.9764 10.7899 69.1921 11.54C68.4256 12.2723 67.7126 13.0849 67.053 13.9779C66.3935 14.8531 65.6715 15.7461 64.8872 16.657C65.2081 16.9249 65.52 17.1213 65.8231 17.2464C66.1261 17.3535 66.4024 17.4071 66.6519 17.4071C67.1332 17.4071 67.5254 17.2464 67.8284 16.9249C68.1315 16.5855 68.283 16.1926 68.283 15.7461C68.283 15.6032 68.2651 15.4603 68.2295 15.3174C68.2117 15.1746 68.1582 15.0317 68.0691 14.8888C68.283 14.8531 68.488 14.8263 68.684 14.8084C68.8979 14.7727 69.1029 14.7548 69.299 14.7548C70.2972 14.7548 71.0281 15.0138 71.4915 15.5318C71.955 16.0319 72.1867 16.6123 72.1867 17.2732C72.1867 17.7732 72.053 18.2733 71.7857 18.7734C71.5183 19.2735 71.1261 19.6843 70.6092 20.0058C70.0922 20.3273 69.4684 20.488 68.7375 20.488C68.0601 20.488 67.2847 20.3005 66.4113 19.9254C65.5557 19.5503 64.6198 18.9252 63.6038 18.0501C63.1582 18.4966 62.668 18.9252 62.1332 19.336C61.5984 19.7468 61.0102 20.1308 60.3685 20.488Z" fill="black"/>
<path d="M83.4293 20.4344C82.8054 20.4344 82.2617 20.229 81.7983 19.8182C81.3348 19.4075 81.1031 18.7377 81.1031 17.809C81.1031 17.7197 81.1031 17.6304 81.1031 17.5411C81.1031 17.4518 81.112 17.3625 81.1298 17.2732C80.595 18.3448 79.989 19.1396 79.3116 19.6575C78.6521 20.1576 77.9836 20.4076 77.3063 20.4076C76.6824 20.4076 76.0941 20.1933 75.5415 19.7647C74.989 19.3182 74.5433 18.6663 74.2046 17.809C73.866 16.9517 73.6966 15.9158 73.6966 14.7013C73.6966 13.451 73.866 12.3348 74.2046 11.3525C74.5611 10.3701 75.0246 9.53963 75.595 8.86094C76.1654 8.18225 76.7893 7.67323 77.4667 7.33388C78.1441 6.97668 78.8036 6.79807 79.4453 6.79807C80.1583 6.79807 80.8 7.02133 81.3705 7.46783C81.9409 7.89648 82.333 8.58411 82.5469 9.5307C82.6004 9.22708 82.6361 8.95024 82.6539 8.7002C82.6895 8.45015 82.7074 8.28048 82.7074 8.19118C82.7252 7.70895 82.9658 7.35174 83.4293 7.11956C83.9106 6.88737 84.4364 6.77128 85.0068 6.77128C85.506 6.77128 85.9783 6.86951 86.424 7.06598C86.8696 7.26244 87.1726 7.59286 87.3331 8.05723L87.3865 8.21797C87.1726 8.7002 86.9587 9.28066 86.7448 9.95935C86.5309 10.638 86.3348 11.3525 86.1566 12.1026C85.9783 12.8349 85.8357 13.5582 85.7288 14.2726C85.6218 14.9692 85.5683 15.5854 85.5683 16.1212C85.5683 16.7106 85.6307 17.1213 85.7555 17.3535C85.8803 17.5678 86.0318 17.675 86.2101 17.675C86.5131 17.675 86.7894 17.4607 87.0389 17.032L87.2528 17.1392C87.2528 17.7464 87.0568 18.3001 86.6646 18.8002C86.2724 19.3003 85.7822 19.7022 85.194 20.0058C84.6058 20.2915 84.0175 20.4344 83.4293 20.4344ZM79.071 17.032C79.5344 17.032 80.0425 16.6212 80.595 15.7997C81.1655 14.9602 81.6557 13.7636 82.0657 12.2098C82.1013 12.049 82.1369 11.8972 82.1726 11.7543C82.2083 11.5936 82.235 11.4418 82.2528 11.2989C81.9676 10.638 81.6646 10.1737 81.3437 9.90577C81.0407 9.62 80.7377 9.47712 80.4346 9.47712C79.989 9.47712 79.5701 9.71824 79.1779 10.2005C78.8036 10.6648 78.4916 11.2542 78.2421 11.9686C78.0104 12.683 77.8945 13.3975 77.8945 14.1119C77.8945 15.0942 78.0014 15.8265 78.2154 16.3087C78.4471 16.7909 78.7323 17.032 79.071 17.032Z" fill="black"/>
</svg>
