<svg width="51" height="48" viewBox="0 0 51 48" fill="none" xmlns="http://www.w3.org/2000/svg">
	<path d="M36.0952 47.5H14.7627C13.2763 47.5 12.3529 45.8761 13.1066 44.5885L23.7721 26.385C24.5144 25.117 26.3401 25.117 27.0825 26.385L37.7496 44.5885C38.5033 45.8761 37.5799 47.5 36.0935 47.5H36.0952Z" fill="#010A18" />
	<path d="M50.7434 32.4342L45.294 41.8099C44.5745 43.0467 42.7994 43.0565 42.0668 41.8247L27.1072 16.6418C26.3811 15.4198 24.6207 15.4182 23.8914 16.6385L8.87134 41.8198C8.13715 43.0516 6.35712 43.0368 5.6425 41.7952L0.251875 32.4293C-0.0825922 31.8486 -0.0842269 31.1318 0.248609 30.5479L16.8529 1.44642C17.1874 0.86085 17.8073 0.5 18.4779 0.5H32.4554C33.126 0.5 33.7443 0.859217 34.0788 1.44315L50.75 30.543C51.0861 31.1285 51.0828 31.8503 50.7434 32.4342Z" fill="white" />
</svg>
