<svg width="146" height="35" viewBox="0 0 146 35" fill="none" xmlns="http://www.w3.org/2000/svg">
	<path d="M27.04 35H11.0592C9.94572 35 9.25392 33.7907 9.8186 32.8319L17.8084 19.276C18.3645 18.3318 19.7322 18.3318 20.2884 19.276L28.2794 32.8319C28.8441 33.7907 28.1523 35 27.0388 35H27.04Z" fill="#655CFE" />
	<path d="M38.0135 23.7808L33.9312 30.7627C33.3922 31.6837 32.0624 31.691 31.5136 30.7737L20.3068 12.0205C19.7629 11.1105 18.4441 11.1093 17.8978 12.018L6.64581 30.77C6.0958 31.6874 4.76232 31.6764 4.22698 30.7517L0.188688 23.7771C-0.0618725 23.3447 -0.0630971 22.8109 0.186241 22.3761L12.625 0.704783C12.8756 0.268718 13.34 0 13.8424 0H24.3134C24.8157 0 25.2789 0.267502 25.5295 0.702345L38.0184 22.3724C38.2702 22.8085 38.2677 23.3459 38.0135 23.7808Z" fill="#010A18" />
	<path d="M51.6242 14.8017L50.2174 19.9148H45.5583L51.6389 0.00119284H57.535L63.7379 19.9148H58.8844L57.3517 14.8017H51.6218H51.6242ZM56.6856 11.4476L55.445 7.21519C55.1028 6.03769 54.7495 4.54506 54.444 3.381H54.3816C54.0895 4.55239 53.7888 6.06334 53.4698 7.22007L52.2782 11.4464H56.6868L56.6856 11.4476Z" fill="#010A18" />
	<path d="M65.3062 17.4817L74.7981 3.83297V3.72793H66.1715V0H80.6343V2.60417L71.3465 16.0806V16.1869H80.781V19.9148H65.3037V17.4817H65.3062Z" fill="#010A18" />
	<path d="M88.4885 14.8017L87.083 19.9148H82.4238L88.5044 0.00119284H94.4005L100.603 19.9148H95.7499L94.2172 14.8017H88.4873H88.4885ZM93.5511 11.4476L92.3105 7.21519C91.9683 6.03769 91.615 4.54506 91.3095 3.381H91.2471C90.955 4.55239 90.6544 6.06334 90.3353 7.22007L89.1437 11.4464H93.5523L93.5511 11.4476Z" fill="#010A18" />
	<path d="M107.769 0.00119284V19.9148H103.264V0.00119284H107.769Z" fill="#010A18" />
	<path d="M110.418 17.4817L119.91 3.83297V3.72793H111.283V0H125.746V2.60417L116.458 16.0806V16.1869H125.893V19.9148H110.416V17.4817H110.418Z" fill="#010A18" />
	<path d="M133.602 14.8017L132.196 19.9148H127.537L133.617 0.00119284H139.514L145.716 19.9148H140.863L139.33 14.8017H133.6H133.602ZM138.663 11.4476L137.422 7.21519C137.08 6.03769 136.727 4.54506 136.421 3.381H136.359C136.067 4.55239 135.766 6.06334 135.447 7.22007L134.255 11.4464H138.664L138.663 11.4476Z" fill="#010A18" />
	<path d="M45.5218 26.6744C46.1231 26.5767 46.8357 26.5108 47.6069 26.5108C49.0113 26.5108 50.0172 26.843 50.6808 27.4635C51.3592 28.0779 51.7552 28.9562 51.7552 30.1776C51.7552 31.3991 51.3665 32.4276 50.6637 33.1275C49.9463 33.8335 48.7729 34.2207 47.3038 34.2207C46.601 34.2207 46.0192 34.1938 45.5205 34.1364V26.6744H45.5218ZM46.5057 33.384C46.7538 33.4243 47.1168 33.4304 47.4908 33.4304C49.5918 33.4353 50.7224 32.2663 50.7224 30.2155C50.7346 28.4236 49.7202 27.2937 47.6533 27.2937C47.1461 27.2937 46.766 27.3401 46.5044 27.3939V33.384H46.5057Z" fill="#655CFE" />
	<path d="M59.1986 30.5991H56.2567V33.3388H59.5469V34.1548H55.2715V26.5707H59.3734V27.3866H56.2567V29.788H59.1986V30.5991Z" fill="#655CFE" />
	<path d="M62.9361 32.9614C63.3737 33.235 64.0141 33.4524 64.6876 33.4524C65.6898 33.4524 66.279 32.9297 66.279 32.1614C66.279 31.4578 65.8671 31.0437 64.8441 30.6602C63.6059 30.2217 62.8371 29.5706 62.8371 28.5092C62.8371 27.3292 63.8186 26.4522 65.2975 26.4522C66.0675 26.4522 66.6408 26.6305 66.972 26.8186L66.6982 27.6212C66.4562 27.4782 65.949 27.2608 65.2657 27.2608C64.2231 27.2608 63.8296 27.8777 63.8296 28.3956C63.8296 29.0991 64.2916 29.4473 65.3391 29.8516C66.6261 30.356 67.2751 30.9729 67.2751 32.0856C67.2751 33.1984 66.4171 34.2721 64.6192 34.2721C63.8858 34.2721 63.0852 34.051 62.6807 33.7774L62.9386 32.9602L62.9361 32.9614Z" fill="#655CFE" />
	<path d="M71.8501 26.5707V34.1548H70.8649V26.5707H71.8501Z" fill="#655CFE" />
	<path d="M81.5926 33.8139C81.1526 33.9801 80.2812 34.2305 79.2594 34.2305C78.1092 34.2305 77.1595 33.9398 76.4213 33.2276C75.7674 32.5986 75.364 31.5921 75.3665 30.4122C75.3701 28.15 76.9261 26.4949 79.4696 26.4949C80.3459 26.4949 81.0414 26.6879 81.3677 26.843L81.1233 27.6419C80.7187 27.4574 80.2127 27.317 79.4464 27.317C77.6057 27.317 76.3981 28.4627 76.3981 30.3621C76.3981 32.2615 77.5518 33.4219 79.3278 33.4219C79.9682 33.4219 80.4034 33.3315 80.6295 33.2179V30.9594H79.0943V30.1752H81.5938V33.8152L81.5926 33.8139Z" fill="#655CFE" />
	<path d="M85.3326 34.1548V26.5707H86.4106L88.8416 30.4036C89.3965 31.2929 89.8365 32.0905 90.1959 32.8734L90.2215 32.8612C90.1323 31.8486 90.1152 30.924 90.1152 29.7489V26.5707H91.038V34.1548H90.0419L87.6304 30.3108C87.1073 29.4607 86.5976 28.5958 86.2187 27.7714L86.1857 27.7836C86.2443 28.7449 86.2578 29.6585 86.2578 30.9118V34.1548H85.3326Z" fill="#655CFE" />
	<path d="M99.5047 32.9614C99.9422 33.235 100.583 33.4524 101.256 33.4524C102.258 33.4524 102.848 32.9297 102.848 32.1614C102.848 31.4578 102.436 31.0437 101.413 30.6602C100.174 30.2217 99.4057 29.5706 99.4057 28.5092C99.4057 27.3292 100.387 26.4522 101.866 26.4522C102.636 26.4522 103.209 26.6305 103.541 26.8186L103.267 27.6212C103.025 27.4782 102.518 27.2608 101.834 27.2608C100.792 27.2608 100.398 27.8777 100.398 28.3956C100.398 29.0991 100.86 29.4473 101.908 29.8516C103.195 30.356 103.844 30.9729 103.844 32.0856C103.844 33.1984 102.986 34.2721 101.188 34.2721C100.454 34.2721 99.6538 34.051 99.2492 33.7774L99.5071 32.9602L99.5047 32.9614Z" fill="#655CFE" />
	<path d="M106.572 27.3988V26.5718H112.192V27.3988H109.869V34.1547H108.884V27.3988H106.572Z" fill="#655CFE" />
	<path d="M116.263 26.5707V31.0657C116.263 32.7574 117.013 33.4756 118.037 33.4756C119.155 33.4756 119.883 32.7317 119.883 31.0657V26.5707H120.868V30.996C120.868 33.3278 119.642 34.2793 117.996 34.2793C116.447 34.2793 115.278 33.3962 115.278 31.0388V26.5719H116.263V26.5707Z" fill="#655CFE" />
	<path d="M124.817 26.6744C125.419 26.5767 126.131 26.5108 126.902 26.5108C128.307 26.5108 129.313 26.843 129.976 27.4635C130.655 28.0779 131.051 28.9562 131.051 30.1776C131.051 31.3991 130.662 32.4276 129.959 33.1275C129.242 33.8335 128.068 34.2207 126.599 34.2207C125.897 34.2207 125.315 34.1938 124.816 34.1364V26.6744H124.817ZM125.802 33.384C126.051 33.4243 126.414 33.4304 126.788 33.4304C128.889 33.4353 130.019 32.2663 130.019 30.2155C130.031 28.4236 129.017 27.2937 126.95 27.2937C126.443 27.2937 126.063 27.3401 125.801 27.3939V33.384H125.802Z" fill="#655CFE" />
	<path d="M135.553 26.5707V34.1548H134.568V26.5707H135.553Z" fill="#655CFE" />
	<path d="M146 30.2864C146 32.8881 144.414 34.2782 142.479 34.2782C140.544 34.2782 139.067 32.7208 139.067 30.4293C139.067 28.1378 140.555 26.4473 142.581 26.4473C144.608 26.4473 145.999 28.034 145.999 30.2864H146ZM140.105 30.4061C140.105 32.0294 140.986 33.4805 142.533 33.4805C144.079 33.4805 144.964 32.0514 144.964 30.3291C144.964 28.8194 144.175 27.2425 142.545 27.2425C140.914 27.2425 140.105 28.7461 140.105 30.4049V30.4061Z" fill="#655CFE" />
</svg>
