<svg width="175" height="55" viewBox="0 0 175 55" fill="none" xmlns="http://www.w3.org/2000/svg">
<path d="M55 27.5C55 42.6878 42.6878 55 27.5 55C12.3122 55 0 42.6878 0 27.5C0 12.3122 12.3122 0 27.5 0C42.6878 0 55 12.3122 55 27.5Z" fill="#D4F03C"/>
<path d="M45.3322 26.1168C45.3821 26.5654 45.407 27.014 45.407 27.4626V45.407H39.9489C38.4037 45.407 37.4815 44.4599 37.1825 42.5658C34.2914 44.4599 31.0764 45.407 27.5374 45.407C22.5528 45.407 18.316 43.6624 14.8268 40.1732C11.4872 36.7837 9.74256 32.5468 9.59302 27.4626C9.74256 22.4282 11.4872 18.2412 14.8268 14.9016C18.2163 11.5121 22.4282 9.74256 27.4626 9.59302C32.5468 9.69271 36.7837 11.4373 40.1732 14.8268C43.2138 17.8674 44.9334 21.6307 45.3322 26.1168Z" fill="#473BF0"/>
<path d="M32.4081 32.5171C31.1356 33.7896 29.5359 34.4622 27.6091 34.5349C25.5731 34.5349 23.8644 33.8623 22.4829 32.5171C21.1377 31.1356 20.4651 29.4632 20.4651 27.5C20.4651 25.5731 21.1377 23.9189 22.4829 22.5374C23.8644 21.1559 25.5368 20.4651 27.5 20.4651C29.4269 20.4651 31.0811 21.1559 32.4626 22.5374C33.8078 23.9189 34.4985 25.6277 34.5349 27.6636C34.4258 29.5905 33.7169 31.2083 32.4081 32.5171Z" fill="#D4F03C"/>
<path d="M78.4056 26.2318H71.1361L70.0311 29.5091H64.0411L71.5141 9.41781H78.0857L85.5296 29.5091H79.5105L78.4056 26.2318ZM76.9807 21.9571L74.7708 15.4595L72.59 21.9571H76.9807Z" fill="white"/>
<path d="M93.6099 24.9779H102.13V29.5091H87.2127V25.2629L95.6453 13.9205H87.2127V9.41781H102.13V13.6641L93.6099 24.9779Z" fill="white"/>
<path d="M118.189 26.2318H110.919L109.814 29.5091H103.824L111.297 9.41781H117.869L125.313 29.5091H119.294L118.189 26.2318ZM116.764 21.9571L114.554 15.4595L112.373 21.9571H116.764Z" fill="white"/>
<path d="M132.87 9.41781V29.5091H127.171V9.41781H132.87Z" fill="white"/>
<path d="M142.338 24.9779H150.858V29.5091H135.941V25.2629L144.373 13.9205H135.941V9.41781H150.858V13.6641L142.338 24.9779Z" fill="white"/>
<path d="M166.917 26.2318H159.648L158.543 29.5091H152.553L160.026 9.41781H166.597L174.041 29.5091H168.022L166.917 26.2318ZM165.492 21.9571L163.282 15.4595L161.101 21.9571H165.492Z" fill="white"/>
<path d="M67.1561 34.5633C69.0324 34.5633 70.4766 35.0444 71.4886 36.0066C72.5111 36.9689 73.0223 38.3087 73.0223 40.0262C73.0223 41.7437 72.5111 43.0784 71.4886 44.0302C70.4766 44.9821 69.0324 45.458 67.1561 45.458H64.0411V34.5633H67.1561ZM67.1561 44.8683C68.8321 44.8683 70.1076 44.4441 70.9826 43.5957C71.8575 42.7369 72.295 41.5471 72.295 40.0262C72.295 38.4949 71.8575 37.2999 70.9826 36.4412C70.1076 35.5824 68.8321 35.1531 67.1561 35.1531H64.7526V44.8683H67.1561Z" fill="white"/>
<path d="M75.8859 35.1531V39.7003H80.3133V40.29H75.8859V44.8683H80.7876V45.458H75.1744V34.5633H80.7876V35.1531H75.8859Z" fill="white"/>
<path d="M86.1512 45.5667C85.4344 45.5667 84.8072 45.4425 84.2696 45.1942C83.732 44.9459 83.3103 44.6096 83.0046 44.1854C82.7095 43.7612 82.5408 43.2905 82.4987 42.7732H83.2418C83.3262 43.3422 83.595 43.8492 84.0482 44.2941C84.5121 44.739 85.2131 44.9614 86.1512 44.9614C86.6994 44.9614 87.1737 44.8631 87.5743 44.6665C87.9854 44.47 88.3017 44.201 88.523 43.8595C88.7444 43.5181 88.8551 43.1405 88.8551 42.7266C88.8551 42.1989 88.7233 41.7799 88.4598 41.4695C88.2068 41.1591 87.8853 40.9263 87.4953 40.7711C87.1158 40.6159 86.5992 40.4504 85.9457 40.2745C85.2289 40.0883 84.6491 39.902 84.2064 39.7158C83.7742 39.5296 83.4052 39.245 83.0995 38.8622C82.8044 38.4691 82.6568 37.9362 82.6568 37.2637C82.6568 36.7464 82.7938 36.2756 83.0679 35.8514C83.3525 35.4169 83.7531 35.0755 84.2696 34.8272C84.7861 34.5788 85.3817 34.4547 86.0564 34.4547C87.0367 34.4547 87.8273 34.6927 88.4282 35.1686C89.029 35.6445 89.3874 36.2291 89.5034 36.9223H88.7444C88.6812 36.6429 88.5388 36.3584 88.3175 36.0687C88.1067 35.779 87.8009 35.5411 87.4004 35.3548C87.0104 35.1582 86.5413 35.06 85.9931 35.06C85.2552 35.06 84.6333 35.2617 84.1273 35.6652C83.6213 36.0584 83.3683 36.586 83.3683 37.2482C83.3683 37.7759 83.5001 38.2001 83.7636 38.5208C84.0272 38.8312 84.3487 39.0692 84.7281 39.2347C85.1182 39.3899 85.64 39.5503 86.2935 39.7158C87.0209 39.9124 87.5954 40.1038 88.0171 40.29C88.4492 40.4659 88.8129 40.7504 89.1081 41.1436C89.4138 41.5264 89.5666 42.0489 89.5666 42.7111C89.5666 43.1974 89.4349 43.6578 89.1713 44.0923C88.9078 44.5269 88.5178 44.8838 88.0012 45.1632C87.4953 45.4322 86.8786 45.5667 86.1512 45.5667Z" fill="white"/>
<path d="M92.4082 34.5633V45.458H91.6967V34.5633H92.4082Z" fill="white"/>
<path d="M104.14 37.7759C103.824 36.9585 103.297 36.3067 102.559 35.8204C101.832 35.3341 100.967 35.091 99.9658 35.091C99.0908 35.091 98.3002 35.2927 97.5939 35.6963C96.8877 36.0998 96.329 36.674 95.9179 37.4189C95.5068 38.1639 95.3012 39.0329 95.3012 40.0262C95.3012 41.0194 95.5068 41.8885 95.9179 42.6335C96.329 43.3784 96.8877 43.9526 97.5939 44.3561C98.3002 44.7493 99.0908 44.9459 99.9658 44.9459C100.809 44.9459 101.573 44.7597 102.258 44.3872C102.944 44.0147 103.492 43.4871 103.903 42.8042C104.314 42.111 104.541 41.304 104.583 40.3832H99.6337V39.7934H105.31V40.259C105.279 41.2729 105.031 42.1834 104.567 42.9904C104.103 43.7974 103.471 44.4286 102.67 44.8838C101.868 45.3391 100.967 45.5667 99.9658 45.5667C98.9432 45.5667 98.0209 45.3339 97.1986 44.8683C96.3764 44.3924 95.7334 43.7354 95.2696 42.8973C94.8058 42.0489 94.5738 41.0919 94.5738 40.0262C94.5738 38.9502 94.8058 37.9931 95.2696 37.1551C95.7334 36.3067 96.3764 35.6497 97.1986 35.1841C98.0209 34.7082 98.9432 34.4702 99.9658 34.4702C101.157 34.4702 102.185 34.7651 103.049 35.3548C103.924 35.9342 104.562 36.7412 104.962 37.7759H104.14Z" fill="white"/>
<path d="M115.4 45.458H114.688L108.174 35.7118V45.458H107.462V34.5788H108.174L114.688 44.2941V34.5788H115.4V45.458Z" fill="white"/>
<path d="M125.681 45.5667C124.964 45.5667 124.337 45.4425 123.8 45.1942C123.262 44.9459 122.84 44.6096 122.535 44.1854C122.24 43.7612 122.071 43.2905 122.029 42.7732H122.772C122.856 43.3422 123.125 43.8492 123.578 44.2941C124.042 44.739 124.743 44.9614 125.681 44.9614C126.229 44.9614 126.704 44.8631 127.104 44.6665C127.515 44.47 127.832 44.201 128.053 43.8595C128.274 43.5181 128.385 43.1405 128.385 42.7266C128.385 42.1989 128.253 41.7799 127.99 41.4695C127.737 41.1591 127.415 40.9263 127.025 40.7711C126.646 40.6159 126.129 40.4504 125.476 40.2745C124.759 40.0883 124.179 39.902 123.736 39.7158C123.304 39.5296 122.935 39.245 122.63 38.8622C122.334 38.4691 122.187 37.9362 122.187 37.2637C122.187 36.7464 122.324 36.2756 122.598 35.8514C122.883 35.4169 123.283 35.0755 123.8 34.8272C124.316 34.5788 124.912 34.4547 125.586 34.4547C126.567 34.4547 127.357 34.6927 127.958 35.1686C128.559 35.6445 128.917 36.2291 129.033 36.9223H128.274C128.211 36.6429 128.069 36.3584 127.848 36.0687C127.637 35.779 127.331 35.5411 126.93 35.3548C126.54 35.1582 126.071 35.06 125.523 35.06C124.785 35.06 124.163 35.2617 123.657 35.6652C123.151 36.0584 122.898 36.586 122.898 37.2482C122.898 37.7759 123.03 38.2001 123.294 38.5208C123.557 38.8312 123.879 39.0692 124.258 39.2347C124.648 39.3899 125.17 39.5503 125.824 39.7158C126.551 39.9124 127.125 40.1038 127.547 40.29C127.979 40.4659 128.343 40.7504 128.638 41.1436C128.944 41.5264 129.097 42.0489 129.097 42.7111C129.097 43.1974 128.965 43.6578 128.701 44.0923C128.438 44.5269 128.048 44.8838 127.531 45.1632C127.025 45.4322 126.409 45.5667 125.681 45.5667Z" fill="white"/>
<path d="M137.362 34.5633V35.1531H134.199V45.458H133.488V35.1531H130.325V34.5633H137.362Z" fill="white"/>
<path d="M139.704 34.5633V41.3764C139.704 42.6076 139.988 43.5129 140.558 44.0923C141.127 44.6614 141.902 44.9459 142.882 44.9459C143.852 44.9459 144.616 44.6614 145.175 44.0923C145.733 43.5233 146.013 42.618 146.013 41.3764V34.5633H146.724V41.3609C146.724 42.7783 146.376 43.8337 145.681 44.5269C144.985 45.2201 144.052 45.5667 142.882 45.5667C141.712 45.5667 140.768 45.2201 140.052 44.5269C139.345 43.8233 138.992 42.768 138.992 41.3609V34.5633H139.704Z" fill="white"/>
<path d="M152.362 34.5633C154.238 34.5633 155.682 35.0444 156.694 36.0066C157.717 36.9689 158.228 38.3087 158.228 40.0262C158.228 41.7437 157.717 43.0784 156.694 44.0302C155.682 44.9821 154.238 45.458 152.362 45.458H149.247V34.5633H152.362ZM152.362 44.8683C154.038 44.8683 155.313 44.4441 156.188 43.5957C157.063 42.7369 157.501 41.5471 157.501 40.0262C157.501 38.4949 157.063 37.2999 156.188 36.4412C155.313 35.5824 154.038 35.1531 152.362 35.1531H149.958V44.8683H152.362Z" fill="white"/>
<path d="M161.092 34.5633V45.458H160.38V34.5633H161.092Z" fill="white"/>
<path d="M168.649 45.5822C167.627 45.5822 166.704 45.3494 165.882 44.8838C165.06 44.4079 164.417 43.7457 163.953 42.8973C163.489 42.0489 163.257 41.0919 163.257 40.0262C163.257 38.9502 163.489 37.9931 163.953 37.1551C164.417 36.3067 165.06 35.6497 165.882 35.1841C166.704 34.7082 167.627 34.4702 168.649 34.4702C169.672 34.4702 170.594 34.7082 171.416 35.1841C172.239 35.6497 172.882 36.3067 173.345 37.1551C173.809 37.9931 174.041 38.9502 174.041 40.0262C174.041 41.0919 173.809 42.0489 173.345 42.8973C172.882 43.7457 172.239 44.4079 171.416 44.8838C170.594 45.3494 169.672 45.5822 168.649 45.5822ZM168.649 44.9614C169.524 44.9614 170.315 44.7597 171.021 44.3561C171.727 43.9526 172.281 43.3784 172.681 42.6335C173.092 41.8885 173.298 41.0194 173.298 40.0262C173.298 39.0226 173.092 38.1483 172.681 37.4034C172.281 36.6585 171.727 36.0842 171.021 35.6807C170.315 35.2772 169.524 35.0755 168.649 35.0755C167.774 35.0755 166.984 35.2772 166.277 35.6807C165.571 36.0842 165.012 36.6585 164.601 37.4034C164.19 38.1483 163.985 39.0226 163.985 40.0262C163.985 41.0194 164.19 41.8885 164.601 42.6335C165.012 43.3784 165.571 43.9526 166.277 44.3561C166.984 44.7597 167.774 44.9614 168.649 44.9614Z" fill="white"/>
</svg>
