<?xml version="1.0" encoding="UTF-8"?>
<svg id="SystemDark" xmlns="http://www.w3.org/2000/svg" viewBox="0 0 1080 1080">
  <defs>
    <style>
      .cls-1 {
        fill: #fff;
      }

      .cls-2 {
        fill: #d8d8d8;
      }

      .cls-3 {
        opacity: .5;
      }

      .cls-4 {
        fill: #c9c9c9;
      }

      .cls-5 {
        fill: #655cfe;
      }

      .cls-6 {
        fill: #f9f9f9;
      }

      .cls-7 {
        fill: #01112d;
      }

      .cls-8 {
        fill: #695bf9;
      }

      .cls-9 {
        fill: #ededed;
      }
    </style>
  </defs>
  <g>
    <g>
      <g>
        <rect class="cls-5" x="791.96" y="534.26" width="196.09" height="62.78" rx="17.99" ry="17.99"/>
        <path class="cls-1" d="M970.06,598.54h-160.11c-10.75,0-19.49-8.74-19.49-19.49v-26.81c0-10.74,8.74-19.49,19.49-19.49h160.11c10.75,0,19.49,8.74,19.49,19.49v26.81c0,10.74-8.74,19.49-19.49,19.49Zm-160.11-62.78c-9.09,0-16.49,7.4-16.49,16.49v26.81c0,9.09,7.4,16.49,16.49,16.49h160.11c9.09,0,16.49-7.4,16.49-16.49v-26.81c0-9.09-7.4-16.49-16.49-16.49h-160.11Z"/>
      </g>
      <path class="cls-1" d="M951,567.15h-123.8c-.83,0-1.5-.67-1.5-1.5s.67-1.5,1.5-1.5h123.8c.83,0,1.5,.67,1.5,1.5s-.67,1.5-1.5,1.5Z"/>
    </g>
    <g>
      <g class="cls-3">
        <rect class="cls-5" x="791.05" y="630.37" width="196.09" height="62.78" rx="17.99" ry="17.99"/>
        <path class="cls-1" d="M969.15,694.65h-160.11c-10.75,0-19.49-8.74-19.49-19.49v-26.81c0-10.74,8.74-19.49,19.49-19.49h160.11c10.75,0,19.49,8.74,19.49,19.49v26.81c0,10.75-8.74,19.49-19.49,19.49Zm-160.11-62.78c-9.09,0-16.49,7.4-16.49,16.49v26.81c0,9.09,7.4,16.49,16.49,16.49h160.11c9.09,0,16.49-7.4,16.49-16.49v-26.81c0-9.09-7.4-16.49-16.49-16.49h-160.11Z"/>
      </g>
      <path class="cls-1" d="M950.09,663.26h-123.8c-.83,0-1.5-.67-1.5-1.5s.67-1.5,1.5-1.5h123.8c.83,0,1.5,.67,1.5,1.5s-.67,1.5-1.5,1.5Z"/>
    </g>
    <g>
      <g>
        <rect class="cls-1" x="790.15" y="726.48" width="196.09" height="62.78" rx="17.99" ry="17.99"/>
        <path class="cls-5" d="M968.25,790.76h-160.11c-10.75,0-19.49-8.74-19.49-19.49v-26.81c0-10.75,8.74-19.49,19.49-19.49h160.11c10.75,0,19.49,8.74,19.49,19.49v26.81c0,10.75-8.74,19.49-19.49,19.49Zm-160.11-62.78c-9.09,0-16.49,7.4-16.49,16.49v26.81c0,9.09,7.4,16.49,16.49,16.49h160.11c9.09,0,16.49-7.4,16.49-16.49v-26.81c0-9.09-7.4-16.49-16.49-16.49h-160.11Z"/>
      </g>
      <path class="cls-5" d="M947.54,759.37h-121.53c-.83,0-1.5-.67-1.5-1.5s.67-1.5,1.5-1.5h121.53c.83,0,1.5,.67,1.5,1.5s-.67,1.5-1.5,1.5Z"/>
    </g>
    <path class="cls-1" d="M941.24,801.24h-82.21c-.83,0-1.5-.67-1.5-1.5s.67-1.5,1.5-1.5h82.21c.83,0,1.5,.67,1.5,1.5s-.67,1.5-1.5,1.5Z"/>
    <path class="cls-1" d="M994.05,764.85c-.83,0-1.5-.67-1.5-1.5v-20.67c0-13.4-10.9-24.29-24.29-24.29h-7.4c-.83,0-1.5-.67-1.5-1.5s.67-1.5,1.5-1.5h7.4c15.05,0,27.29,12.24,27.29,27.29v20.67c0,.83-.67,1.5-1.5,1.5Z"/>
    <path class="cls-1" d="M842.39,715.67h-37.79c-.83,0-1.5-.67-1.5-1.5s.67-1.5,1.5-1.5h37.79c.83,0,1.5,.67,1.5,1.5s-.67,1.5-1.5,1.5Z"/>
    <path class="cls-1" d="M783.9,655.15c-.83,0-1.5-.67-1.5-1.5v-11.1c0-12.44,10.12-22.57,22.57-22.57h9.57c.83,0,1.5,.67,1.5,1.5s-.67,1.5-1.5,1.5h-9.57c-10.79,0-19.57,8.78-19.57,19.57v11.1c0,.83-.67,1.5-1.5,1.5Z"/>
    <path class="cls-1" d="M945.24,622.97h-67.66c-.83,0-1.5-.67-1.5-1.5s.67-1.5,1.5-1.5h67.66c.83,0,1.5,.67,1.5,1.5s-.67,1.5-1.5,1.5Z"/>
    <path class="cls-1" d="M900.81,526.01h-67.66c-.83,0-1.5-.67-1.5-1.5s.67-1.5,1.5-1.5h67.66c.83,0,1.5,.67,1.5,1.5s-.67,1.5-1.5,1.5Z"/>
  </g>
  <g>
    <g>
      <path class="cls-1" d="M84.02,935.35s-7.39-3.53-18.37,4.58c-10.98,8.11-30.55,6.49-32.94-5.35-2.39-11.84,31.48-32.94,51.3,.76Z"/>
      <path class="cls-1" d="M89.54,959.57s-5.75-22.63,10.48-37.84c16.23-15.21,30.07-5.66,27.21,10.33-2.86,15.99-36.23,5.61-37.69,27.51Z"/>
      <path class="cls-1" d="M94.16,999.6s-4.76-29,13.92-40.04c18.67-11.04,33.75,8.59,19.53,20.02-14.22,11.43-30.71,4.27-33.44,20.02Z"/>
      <path class="cls-1" d="M81.05,924.62s-16.83-14.29-19.21-27.89c-2.39-13.6,15.73-21.27,22.18-3.59,6.46,17.67-2.97,31.48-2.97,31.48Z"/>
      <path class="cls-1" d="M93.62,991.01s-6.01-15.75-22.24-15.28c-16.23,.48-26.25-4.49-24.82-19.43,1.43-14.94,47.83-7.78,47.07,34.7Z"/>
      <path class="cls-2" d="M94.38,995.07c-.18,0-.34-.13-.37-.31-6.86-35-47.07-38.05-47.48-38.07-.21-.01-.37-.19-.35-.4,.01-.21,.22-.37,.4-.35,.41,.03,41.2,3.1,48.17,38.68,.04,.2-.09,.4-.3,.44-.02,0-.05,0-.07,0Z"/>
      <path class="cls-2" d="M94.53,998.33s-.02,0-.03,0c-.21-.02-.36-.2-.35-.41,2.35-32.03,37.33-34.65,37.68-34.68,.2-.02,.39,.15,.4,.35,.01,.21-.15,.39-.35,.4-.35,.02-34.67,2.61-36.97,33.98-.01,.2-.18,.35-.38,.35Z"/>
      <path class="cls-2" d="M33.42,937.2c-.11,0-.22-.05-.3-.14-.13-.16-.1-.4,.06-.53,.28-.22,27.87-21.75,51.08-1.46,.16,.14,.17,.38,.04,.54-.14,.16-.38,.17-.54,.04-22.74-19.87-49.84,1.26-50.11,1.48-.07,.06-.15,.08-.24,.08Z"/>
      <path class="cls-2" d="M89.54,959.94c-.2,0-.37-.16-.38-.36-1.89-32.15,36.74-38.6,37.13-38.67,.2-.03,.4,.11,.43,.32,.03,.21-.11,.4-.32,.43-.38,.06-38.34,6.41-36.49,37.87,.01,.21-.15,.39-.36,.4,0,0-.01,0-.02,0Z"/>
      <path class="cls-2" d="M94.16,1026.24s-.04,0-.06,0c-.21-.03-.35-.22-.32-.43,.05-.37,5.32-37.79-13.11-101.07-.06-.2,.06-.41,.26-.47,.2-.05,.41,.06,.47,.26,18.48,63.46,13.18,101.02,13.13,101.4-.03,.19-.19,.32-.37,.32Z"/>
      <path class="cls-2" d="M81.05,925c-.16,0-.32-.11-.36-.27-.5-1.72-1.02-3.45-1.55-5.21l-10.87-35.87c-.06-.2,.05-.41,.25-.47,.2-.06,.41,.05,.47,.25l10.87,35.87c.54,1.76,1.06,3.5,1.56,5.22,.06,.2-.06,.41-.26,.47-.04,.01-.07,.01-.11,.01Z"/>
    </g>
    <g>
      <path class="cls-1" d="M136.6,928.83s7.92-3.79,19.69,4.91c11.77,8.7,32.75,6.96,35.31-5.73,2.56-12.69-33.75-35.31-55,.82Z"/>
      <path class="cls-1" d="M130.67,954.79s6.17-24.27-11.23-40.57c-17.4-16.3-32.24-6.07-29.17,11.08,3.07,17.14,38.84,6.01,40.4,29.49Z"/>
      <path class="cls-1" d="M125.72,997.71s5.1-31.09-14.92-42.92c-20.02-11.84-36.18,9.21-20.93,21.46,15.25,12.25,32.92,4.57,35.85,21.46Z"/>
      <path class="cls-1" d="M153,875.25s18.04-15.32,20.6-29.9c2.56-14.59-16.86-22.8-23.78-3.85-6.92,18.95,3.18,33.75,3.18,33.75Z"/>
      <path class="cls-1" d="M126.3,988.5s6.45-16.89,23.85-16.38c17.4,.51,28.15-4.81,26.61-20.83-1.54-16.02-51.28-8.34-50.46,37.2Z"/>
      <path class="cls-2" d="M125.48,992.82s-.05,0-.07,0c-.21-.04-.34-.24-.3-.44,3.9-19.93,17.74-30.14,28.66-35.2,11.81-5.47,22.85-6.24,22.96-6.25,.2-.02,.39,.14,.4,.35,.01,.21-.14,.39-.35,.4-.11,0-11.03,.78-22.71,6.19-10.75,4.98-24.37,15.04-28.21,34.65-.03,.18-.19,.31-.37,.31Z"/>
      <path class="cls-2" d="M125.32,996.32c-.2,0-.36-.15-.38-.35-2.47-33.65-39.29-36.43-39.66-36.45-.21-.01-.37-.19-.35-.4,.01-.21,.2-.37,.4-.35,.38,.02,37.85,2.83,40.37,37.15,.01,.21-.14,.39-.35,.41,0,0-.02,0-.03,0Z"/>
      <path class="cls-2" d="M190.84,930.78c-.08,0-.17-.03-.24-.08-.29-.23-29.36-22.91-53.76-1.58-.16,.14-.4,.12-.54-.04-.14-.16-.12-.4,.04-.54,24.87-21.74,54.43,1.33,54.73,1.56,.16,.13,.19,.37,.06,.53-.07,.09-.19,.14-.3,.14Z"/>
      <path class="cls-1" d="M144.54,899.75s3.37-5.35,13.89-4.57c10.52,.78,22.64-8.34,19.33-17.06-3.31-8.72-34.14-8.57-33.22,21.62Z"/>
      <path class="cls-2" d="M144.54,900.12s-.07,0-.11-.02c-.2-.06-.31-.27-.25-.47,6.84-22.89,33.81-20.17,34.08-20.14,.21,.02,.36,.21,.34,.42-.02,.21-.22,.35-.42,.33-.27-.03-26.61-2.67-33.27,19.61-.05,.16-.2,.27-.36,.27Z"/>
      <path class="cls-2" d="M130.67,955.17s-.01,0-.02,0c-.21-.01-.37-.19-.36-.4,1.99-33.75-38.73-40.57-39.15-40.63-.21-.03-.35-.23-.32-.43s.23-.35,.43-.32c.1,.02,10.56,1.71,20.63,7.63,9.32,5.48,20.22,15.79,19.16,33.8-.01,.2-.18,.36-.38,.36Z"/>
      <path class="cls-1" d="M141.38,911.79s9.69-17.73-.64-33.96c-10.33-16.23-23.98-11.21-25.02,2.8-1.04,14.01,29.15,12.49,25.66,31.15Z"/>
      <path class="cls-2" d="M141.38,912.16s-.08,0-.12-.02c-.2-.06-.31-.28-.25-.48,8.3-25.91-22.09-39.38-22.4-39.52-.19-.08-.28-.31-.2-.5,.08-.19,.31-.28,.5-.2,.31,.14,31.33,13.87,22.82,40.44-.05,.16-.2,.26-.36,.26Z"/>
      <path class="cls-2" d="M125.72,1026.24c-.18,0-.35-.13-.37-.32-.06-.42-6.04-42.88,15.74-114.29l11.01-36.34c.06-.2,.27-.31,.47-.25,.2,.06,.31,.27,.25,.47l-11.01,36.34c-21.73,71.25-15.78,113.54-15.72,113.96,.03,.21-.11,.4-.32,.43-.02,0-.04,0-.06,0Z"/>
      <path class="cls-2" d="M152.46,875.77s-.07,0-.11-.02c-.2-.06-.31-.27-.25-.47l.64-2.11,11.06-42.66c.05-.2,.26-.33,.46-.27,.2,.05,.32,.26,.27,.46l-11.06,42.67-.65,2.13c-.05,.16-.2,.27-.36,.27Z"/>
    </g>
    <g>
      <path class="cls-1" d="M91.71,1042.27c-.09,0-.18-.03-.25-.1-6.28-5.56-9.88-13.53-9.88-21.86v-.09c.01-4.64,3.88-8.43,8.61-8.43h41.21c4.73,0,8.6,3.78,8.61,8.43v.09c0,8.34-3.6,16.3-9.88,21.86-.07,.06-.16,.1-.25,.1h-38.18Z"/>
      <path class="cls-2" d="M131.4,1012.17c4.48,0,8.22,3.58,8.23,8.06v.08c0,8.6-3.78,16.29-9.75,21.58h-38.18c-5.97-5.28-9.75-12.98-9.75-21.58v-.08c.01-4.48,3.75-8.06,8.23-8.06h41.21m0-.76h-41.21c-4.94,0-8.98,3.95-8.99,8.81v.09c0,8.44,3.65,16.52,10.01,22.15,.14,.12,.32,.19,.5,.19h38.18c.19,0,.36-.07,.5-.19,6.36-5.63,10.01-13.7,10.01-22.15v-.08c-.01-4.86-4.05-8.81-8.99-8.81h0Z"/>
    </g>
    <g>
      <path class="cls-1" d="M98.66,1079.75c-10.45,0-19.01-8.38-19.08-18.69v-.21c0-8.31,3.22-16.15,9.07-22.07,.07-.07,.17-.11,.27-.11h44.11c.1,0,.2,.04,.27,.11,5.85,5.92,9.07,13.76,9.07,22.07v.21c-.07,10.31-8.63,18.69-19.08,18.69h-24.64Z"/>
      <path class="cls-2" d="M133.03,1039.05c5.54,5.6,8.96,13.3,8.96,21.8,0,.07,0,.14,0,.21-.07,10.18-8.52,18.31-18.7,18.31h-24.64c-10.18,0-18.63-8.13-18.7-18.31,0-.07,0-.14,0-.21,0-8.5,3.43-16.2,8.96-21.8h44.11m0-.76h-44.11c-.2,0-.4,.08-.54,.23-5.92,5.99-9.18,13.92-9.18,22.33v.21c.07,10.51,8.8,19.06,19.46,19.06h24.64c10.66,0,19.39-8.55,19.46-19.06v-.21c0-8.41-3.26-16.34-9.18-22.33-.14-.14-.34-.23-.54-.23h0Z"/>
    </g>
    <path class="cls-6" d="M88.92,1039.05h0c-4.33-5.04-6.97-11.58-6.97-18.75v-.08c.01-4.48,3.75-8.06,8.23-8.06h16.54c-2.65,2.04-14.06,11.26-15.3,26.02-1.43,17.1,11.37,34.78,31.86,41.18-8.21,0-16.43,0-24.64,0-10.18,0-18.63-8.13-18.7-18.31,0-.07,0-.14,0-.21,0-8.5,3.43-16.2,8.96-21.8Z"/>
  </g>
  <g>
    <g>
      <path class="cls-1" d="M944.26,935.35s-7.39-3.53-18.37,4.58c-10.98,8.11-30.55,6.49-32.94-5.35-2.39-11.84,31.48-32.94,51.3,.76Z"/>
      <path class="cls-1" d="M949.79,959.57s-5.75-22.63,10.48-37.84c16.23-15.21,30.07-5.66,27.21,10.33-2.86,15.99-36.23,5.61-37.69,27.51Z"/>
      <path class="cls-1" d="M954.41,999.6s-4.76-29,13.92-40.04c18.67-11.04,33.75,8.59,19.53,20.02-14.22,11.43-30.71,4.27-33.44,20.02Z"/>
      <path class="cls-1" d="M941.29,924.62s-16.83-14.29-19.21-27.89c-2.39-13.6,15.73-21.27,22.18-3.59,6.46,17.67-2.97,31.48-2.97,31.48Z"/>
      <path class="cls-1" d="M953.87,991.01s-6.01-15.75-22.24-15.28c-16.23,.48-26.25-4.49-24.82-19.43,1.43-14.94,47.83-7.78,47.07,34.7Z"/>
      <path class="cls-2" d="M954.63,995.07c-.18,0-.34-.13-.37-.31-6.86-35-47.07-38.05-47.48-38.07-.21-.01-.37-.19-.35-.4,.01-.21,.22-.37,.4-.35,.41,.03,41.2,3.1,48.17,38.68,.04,.2-.09,.4-.3,.44-.02,0-.05,0-.07,0Z"/>
      <path class="cls-2" d="M954.78,998.33s-.02,0-.03,0c-.21-.02-.36-.2-.35-.41,2.35-32.03,37.33-34.65,37.68-34.68,.2-.02,.39,.15,.4,.35,.01,.21-.15,.39-.35,.4-.35,.02-34.67,2.61-36.97,33.98-.01,.2-.18,.35-.38,.35Z"/>
      <path class="cls-2" d="M893.67,937.2c-.11,0-.22-.05-.3-.14-.13-.16-.1-.4,.06-.53,.28-.22,27.87-21.75,51.08-1.46,.16,.14,.17,.38,.04,.54-.14,.16-.38,.17-.54,.04-22.74-19.87-49.84,1.26-50.11,1.48-.07,.06-.15,.08-.24,.08Z"/>
      <path class="cls-2" d="M949.79,959.94c-.2,0-.37-.16-.38-.36-1.89-32.15,36.74-38.6,37.13-38.67,.2-.03,.4,.11,.43,.32,.03,.21-.11,.4-.32,.43-.38,.06-38.34,6.41-36.49,37.87,.01,.21-.15,.39-.36,.4,0,0-.01,0-.02,0Z"/>
      <path class="cls-2" d="M954.41,1026.24s-.04,0-.06,0c-.21-.03-.35-.22-.32-.43,.05-.37,5.32-37.79-13.11-101.07-.06-.2,.06-.41,.26-.47,.2-.05,.41,.06,.47,.26,18.48,63.46,13.18,101.02,13.13,101.4-.03,.19-.19,.32-.37,.32Z"/>
      <path class="cls-2" d="M941.29,925c-.16,0-.32-.11-.36-.27-.5-1.72-1.02-3.45-1.55-5.21l-10.87-35.87c-.06-.2,.05-.41,.25-.47,.2-.06,.41,.05,.47,.25l10.87,35.87c.54,1.76,1.06,3.5,1.56,5.22,.06,.2-.06,.41-.26,.47-.04,.01-.07,.01-.11,.01Z"/>
    </g>
    <g>
      <path class="cls-1" d="M996.84,928.83s7.92-3.79,19.69,4.91c11.77,8.7,32.75,6.96,35.31-5.73,2.56-12.69-33.75-35.31-55,.82Z"/>
      <path class="cls-1" d="M990.92,954.79s6.17-24.27-11.23-40.57c-17.4-16.3-32.24-6.07-29.17,11.08,3.07,17.14,38.84,6.01,40.4,29.49Z"/>
      <path class="cls-1" d="M985.96,997.71s5.1-31.09-14.92-42.92c-20.02-11.84-36.18,9.21-20.93,21.46,15.25,12.25,32.92,4.57,35.85,21.46Z"/>
      <path class="cls-1" d="M1013.24,875.25s18.04-15.32,20.6-29.9c2.56-14.59-16.86-22.8-23.78-3.85-6.92,18.95,3.18,33.75,3.18,33.75Z"/>
      <path class="cls-1" d="M986.54,988.5s6.45-16.89,23.85-16.38c17.4,.51,28.15-4.81,26.61-20.83-1.54-16.02-51.28-8.34-50.46,37.2Z"/>
      <path class="cls-2" d="M985.73,992.82s-.05,0-.07,0c-.21-.04-.34-.24-.3-.44,3.9-19.93,17.74-30.14,28.66-35.2,11.81-5.47,22.85-6.24,22.96-6.25,.2-.02,.39,.14,.4,.35,.01,.21-.14,.39-.35,.4-.11,0-11.03,.78-22.71,6.19-10.75,4.98-24.37,15.04-28.21,34.65-.03,.18-.19,.31-.37,.31Z"/>
      <path class="cls-2" d="M985.57,996.32c-.2,0-.36-.15-.38-.35-2.47-33.65-39.29-36.43-39.66-36.45-.21-.01-.37-.19-.35-.4,.01-.21,.2-.37,.4-.35,.38,.02,37.85,2.83,40.37,37.15,.01,.21-.14,.39-.35,.41,0,0-.02,0-.03,0Z"/>
      <path class="cls-2" d="M1051.09,930.78c-.08,0-.17-.03-.24-.08-.29-.23-29.36-22.91-53.76-1.58-.16,.14-.4,.12-.54-.04-.14-.16-.12-.4,.04-.54,24.87-21.74,54.43,1.33,54.73,1.56,.16,.13,.19,.37,.06,.53-.07,.09-.19,.14-.3,.14Z"/>
      <path class="cls-1" d="M1004.79,899.75s3.37-5.35,13.89-4.57c10.52,.78,22.64-8.34,19.33-17.06-3.31-8.72-34.14-8.57-33.22,21.62Z"/>
      <path class="cls-2" d="M1004.79,900.12s-.07,0-.11-.02c-.2-.06-.31-.27-.25-.47,6.84-22.89,33.81-20.17,34.08-20.14,.21,.02,.36,.21,.34,.42-.02,.21-.22,.35-.42,.33-.27-.03-26.61-2.67-33.27,19.61-.05,.16-.2,.27-.36,.27Z"/>
      <path class="cls-2" d="M990.92,955.17s-.01,0-.02,0c-.21-.01-.37-.19-.36-.4,1.99-33.75-38.73-40.57-39.15-40.63-.21-.03-.35-.23-.32-.43s.23-.35,.43-.32c.1,.02,10.56,1.71,20.63,7.63,9.32,5.48,20.22,15.79,19.16,33.8-.01,.2-.18,.36-.38,.36Z"/>
      <path class="cls-1" d="M1001.62,911.79s9.69-17.73-.64-33.96c-10.33-16.23-23.98-11.21-25.02,2.8-1.04,14.01,29.15,12.49,25.66,31.15Z"/>
      <path class="cls-2" d="M1001.62,912.16s-.08,0-.12-.02c-.2-.06-.31-.28-.25-.48,8.3-25.91-22.09-39.38-22.4-39.52-.19-.08-.28-.31-.2-.5,.08-.19,.31-.28,.5-.2,.31,.14,31.33,13.87,22.82,40.44-.05,.16-.2,.26-.36,.26Z"/>
      <path class="cls-2" d="M985.96,1026.24c-.18,0-.35-.13-.37-.32-.06-.42-6.04-42.88,15.74-114.29l11.01-36.34c.06-.2,.27-.31,.47-.25,.2,.06,.31,.27,.25,.47l-11.01,36.34c-21.73,71.25-15.78,113.54-15.72,113.96,.03,.21-.11,.4-.32,.43-.02,0-.04,0-.06,0Z"/>
      <path class="cls-2" d="M1012.7,875.77s-.07,0-.11-.02c-.2-.06-.31-.27-.25-.47l.64-2.11,11.06-42.66c.05-.2,.26-.33,.46-.27,.2,.05,.32,.26,.27,.46l-11.06,42.67-.65,2.13c-.05,.16-.2,.27-.36,.27Z"/>
    </g>
    <g>
      <path class="cls-1" d="M951.96,1042.27c-.09,0-.18-.03-.25-.1-6.28-5.56-9.88-13.53-9.88-21.86v-.09c.01-4.64,3.88-8.43,8.61-8.43h41.21c4.73,0,8.6,3.78,8.61,8.43v.09c0,8.34-3.6,16.3-9.88,21.86-.07,.06-.16,.1-.25,.1h-38.18Z"/>
      <path class="cls-2" d="M991.65,1012.17c4.48,0,8.22,3.58,8.23,8.06v.08c0,8.6-3.78,16.29-9.75,21.58h-38.18c-5.97-5.28-9.75-12.98-9.75-21.58v-.08c.01-4.48,3.75-8.06,8.23-8.06h41.21m0-.76h-41.21c-4.94,0-8.98,3.95-8.99,8.81v.09c0,8.44,3.65,16.52,10.01,22.15,.14,.12,.32,.19,.5,.19h38.18c.19,0,.36-.07,.5-.19,6.36-5.63,10.01-13.7,10.01-22.15v-.08c-.01-4.86-4.05-8.81-8.99-8.81h0Z"/>
    </g>
    <g>
      <path class="cls-1" d="M958.9,1079.75c-10.45,0-19.01-8.38-19.08-18.69v-.21c0-8.31,3.22-16.15,9.07-22.07,.07-.07,.17-.11,.27-.11h44.11c.1,0,.2,.04,.27,.11,5.85,5.92,9.07,13.76,9.07,22.07v.21c-.07,10.31-8.63,18.69-19.08,18.69h-24.64Z"/>
      <path class="cls-2" d="M993.28,1039.05c5.54,5.6,8.96,13.3,8.96,21.8,0,.07,0,.14,0,.21-.07,10.18-8.52,18.31-18.7,18.31h-24.64c-10.18,0-18.63-8.13-18.7-18.31,0-.07,0-.14,0-.21,0-8.5,3.43-16.2,8.96-21.8h44.11m0-.76h-44.11c-.2,0-.4,.08-.54,.23-5.92,5.99-9.18,13.92-9.18,22.33v.21c.07,10.51,8.8,19.06,19.46,19.06h24.64c10.66,0,19.39-8.55,19.46-19.06v-.21c0-8.41-3.26-16.34-9.18-22.33-.14-.14-.34-.23-.54-.23h0Z"/>
    </g>
    <path class="cls-6" d="M949.17,1039.05h0c-4.33-5.04-6.97-11.58-6.97-18.75v-.08c.01-4.48,3.75-8.06,8.23-8.06h16.54c-2.65,2.04-14.06,11.26-15.3,26.02-1.43,17.1,11.37,34.78,31.86,41.18-8.21,0-16.43,0-24.64,0-10.18,0-18.63-8.13-18.7-18.31,0-.07,0-.14,0-.21,0-8.5,3.43-16.2,8.96-21.8Z"/>
  </g>
  <g>
    <g>
      <g>
        <path class="cls-1" d="M702.98,166.09c-.54-3.86-1.8-8.8-3.5-13.56-5.39,.36-11.49,.45-17.51,.36-1.35,5.12-2.42,10.24-2.69,13.65-.27,2.25-1.35,2.69-2.69,2.69s-2.78-1.53-3.05-3.23c-1.53-9.88,7.54-38.79,17.15-38.79,7,0,16.52,25.05,18.5,38.16,.63,4.04-5.57,5.39-6.2,.72Zm-5.39-18.68c-2.69-6.65-5.57-11.94-7.09-11.94-2.07,0-4.67,5.39-6.83,11.85,4.58,0,9.97,0,13.92,.09Z"/>
        <path class="cls-1" d="M739.44,150.83v7.9c0,13.38-26.31,15.09-26.31,0,0-8.53,11.05-11.13,20.83-8.26,0-5.93-5.21-7.81-16.7-7.27-4.31,.27-4.31-4.94-.72-5.57,11.49-2.07,22.9-.63,22.9,13.2Zm-5.48,5.75v-.99c-8.44-1.8-13.74-1.17-13.74,2.69,0,6.82,13.74,8.35,13.74-1.71Z"/>
      </g>
      <g>
        <path class="cls-1" d="M778.92,164.43c-.27-17.24,0-18.23-.81-33.76-.09-1.44,1.26-1.89,2.51-2.07,26.4-2.42,28.29,13.74,22.72,20.83,6.83,8.98,6.65,21.46-15.98,21.28-5.12,0-8.35-.72-8.44-6.29Zm15.62-16.97c7.54-.81,8.8-12.84-5.93-12.84l-4.4,.09,.54,13.38c.72,0,3.86,0,9.79-.63Zm6.91,11.22c0-5.21-2.96-7.27-16.7-5.66l.45,12.21c12.57-.09,16.25-1.26,16.25-6.56Z"/>
        <path class="cls-1" d="M841.06,155.9c0,8.35-3.95,14.82-14.37,14.82-11.67,0-13.38-3.05-13.38-15.54,0-10.42,.09-14.28,.09-23.71,0-4.4,1.62-5.57,2.87-5.57,2.6,0,3.14,.72,3.23,5.03v8.44c1.71-.72,3.95-1.17,6.02-1.17,7.54,0,15.54,3.77,15.54,17.69Zm-6.29,0c0-9.7-4.49-11.49-9.07-11.49-2.6,.09-4.85,.45-6.2,1.08-.09,5.84-.09,11.31-.09,12.12,0,7.27,1.89,7.27,7.9,7.27,5.3,0,7.45-3.5,7.45-8.98Z"/>
      </g>
      <g>
        <path class="cls-1" d="M884.98,147.65c0-15.36,10.06-21.01,25.05-20.47,4.13,.18,4.4,6.56-.99,6.56-10.96,0-17.15,4.58-17.15,14.01,0,6.2,1.62,14.82,17.15,14.82,5.12,0,4.85,6.82-.54,6.82-17.69,0-23.53-10.96-23.53-21.73Z"/>
        <path class="cls-1" d="M919.37,153.49c0-11.31,8.35-18.41,18.23-16.25,3.86,.81,3.14,7.27-1.71,6.65-7.27-.9-10.24,2.78-10.24,9.61,0,7.99,4.94,10.6,12.03,9.88,4.04-.45,3.86,5.66-.81,6.02-10.69,.9-17.51-4.49-17.51-15.89Z"/>
      </g>
    </g>
    <path class="cls-9" d="M646.12,139.94c-.69,0-1.25-.56-1.25-1.25v-16.98c0-7.94,6.46-14.4,14.4-14.4h14.1c.69,0,1.25,.56,1.25,1.25s-.56,1.25-1.25,1.25h-14.1c-6.55,0-11.89,5.33-11.89,11.89v16.98c0,.69-.56,1.25-1.25,1.25Z"/>
    <path class="cls-9" d="M774.53,196.37h-82.72c-.69,0-1.25-.56-1.25-1.25s.56-1.25,1.25-1.25h82.72c.69,0,1.25,.56,1.25,1.25s-.56,1.25-1.25,1.25Z"/>
    <path class="cls-9" d="M956.72,196.37h-20.32c-.69,0-1.25-.56-1.25-1.25s.56-1.25,1.25-1.25h20.32c6.55,0,11.89-5.33,11.89-11.89v-15.07c0-.69,.56-1.25,1.25-1.25s1.25,.56,1.25,1.25v15.07c0,7.94-6.46,14.4-14.4,14.4Z"/>
    <path class="cls-9" d="M940.57,109.82h-53.19c-.69,0-1.25-.56-1.25-1.25s.56-1.25,1.25-1.25h53.19c.69,0,1.25,.56,1.25,1.25s-.56,1.25-1.25,1.25Z"/>
  </g>
  <g>
    <g>
      <path class="cls-9" d="M156.41,325.98c-.99,0-1.8-.81-1.8-1.8v-38.07c0-18.64,15.16-33.8,33.8-33.8h59.02c.99,0,1.8,.81,1.8,1.8s-.81,1.8-1.8,1.8h-59.02c-16.65,0-30.2,13.55-30.2,30.2v38.07c0,.99-.81,1.8-1.8,1.8Z"/>
      <path class="cls-9" d="M156.41,542.61c-.99,0-1.8-.81-1.8-1.8v-65.09c0-.99,.81-1.8,1.8-1.8s1.8,.81,1.8,1.8v65.09c0,.99-.81,1.8-1.8,1.8Z"/>
      <path class="cls-9" d="M520.4,658.92h-233.29c-.99,0-1.8-.81-1.8-1.8s.81-1.8,1.8-1.8h233.29c.99,0,1.8,.81,1.8,1.8s-.81,1.8-1.8,1.8Z"/>
      <path class="cls-9" d="M691.08,658.92h-35.92c-.99,0-1.8-.81-1.8-1.8s.81-1.8,1.8-1.8h35.92c16.65,0,30.2-13.55,30.2-30.2v-20.76c0-.99,.81-1.8,1.8-1.8s1.8,.81,1.8,1.8v20.76c0,18.64-15.16,33.8-33.8,33.8Z"/>
      <path class="cls-9" d="M723.08,430.86c-.99,0-1.8-.81-1.8-1.8v-45.18c0-.99,.81-1.8,1.8-1.8s1.8,.81,1.8,1.8v45.18c0,.99-.81,1.8-1.8,1.8Z"/>
      <path class="cls-9" d="M605.57,255.91h-85.17c-.99,0-1.8-.81-1.8-1.8s.81-1.8,1.8-1.8h85.17c.99,0,1.8,.81,1.8,1.8s-.81,1.8-1.8,1.8Z"/>
    </g>
    <g>
      <rect class="cls-1" x="176.67" y="268.51" width="526.15" height="374.2" rx="24.89" ry="24.89"/>
      <path class="cls-9" d="M677.94,268.51c13.74,0,24.89,11.14,24.89,24.89v324.43c0,13.74-11.14,24.89-24.89,24.89H201.56c-13.74,0-24.89-11.14-24.89-24.89V293.4c0-13.74,11.14-24.89,24.89-24.89h476.38m0-3.6H201.56c-15.71,0-28.49,12.78-28.49,28.49v324.43c0,15.71,12.78,28.49,28.49,28.49h476.38c15.71,0,28.49-12.78,28.49-28.49V293.4c0-15.71-12.78-28.49-28.49-28.49h0Z"/>
    </g>
    <path class="cls-6" d="M677.94,268.51c-17.05,25.74-39.49,65.82-52.39,118.5-17.01,69.47,.38,88.11-19,112.19-44.1,54.79-155.83-14.72-252.99,39.85-46.51,26.12-71.56,70.5-85.42,103.65,25.9-.04,65.68-.07,114.44,0,83.17,.12,124.76,.17,126.64,.32,0,0,42.93,3.03,168.72-.32,2.27-.06,8.11-.29,13.54-4,7.41-5.07,10.2-13.98,11.34-20.88V293.4c0-13.74-11.14-24.89-24.89-24.89Z"/>
    <g>
      <rect class="cls-2" x="502.77" y="319.7" width="186.94" height="41.5" rx="20.75" ry="20.75"/>
      <g>
        <path class="cls-7" d="M661.52,336.6h4.56v16.33c0,1.26-1.02,2.28-2.28,2.28h0c-1.26,0-2.28-1.02-2.28-2.28v-16.33h0Z" transform="translate(-67.77 504.29) rotate(-39.74)"/>
        <g>
          <circle class="cls-2" cx="654.97" cy="335.91" r="8.82"/>
          <path class="cls-7" d="M654.97,345.71c-5.4,0-9.8-4.4-9.8-9.8s4.4-9.8,9.8-9.8,9.8,4.4,9.8,9.8-4.4,9.8-9.8,9.8Zm0-17.65c-4.33,0-7.85,3.52-7.85,7.84s3.52,7.85,7.85,7.85,7.85-3.52,7.85-7.85-3.52-7.84-7.85-7.84Z"/>
        </g>
      </g>
      <path class="cls-7" d="M278.55,333.79h-69.6c-.99,0-1.8-.81-1.8-1.8s.81-1.8,1.8-1.8h69.6c.99,0,1.8,.81,1.8,1.8s-.81,1.8-1.8,1.8Z"/>
      <path class="cls-7" d="M302.14,368.7h-93.19c-.99,0-1.8-.81-1.8-1.8s.81-1.8,1.8-1.8h93.19c.99,0,1.8,.81,1.8,1.8s-.81,1.8-1.8,1.8Z"/>
      <path class="cls-7" d="M346.89,350.7H208.95c-.99,0-1.8-.81-1.8-1.8s.81-1.8,1.8-1.8h137.94c.99,0,1.8,.81,1.8,1.8s-.81,1.8-1.8,1.8Z"/>
    </g>
    <g>
      <circle class="cls-7" cx="624.93" cy="291.75" r="8.15"/>
      <circle class="cls-7" cx="650.25" cy="291.75" r="8.15"/>
      <circle class="cls-7" cx="675.58" cy="291.75" r="8.15"/>
    </g>
    <g>
      <g>
        <rect class="cls-1" x="203.37" y="405.7" width="466.65" height="166.34" rx="16.81" ry="16.81"/>
        <path class="cls-9" d="M653.21,573.84H220.18c-10.26,0-18.61-8.35-18.61-18.61v-132.71c0-10.26,8.35-18.61,18.61-18.61h433.03c10.26,0,18.61,8.35,18.61,18.61v132.71c0,10.26-8.35,18.61-18.61,18.61ZM220.18,407.5c-8.28,0-15.01,6.73-15.01,15.01v132.71c0,8.28,6.73,15.01,15.01,15.01h433.03c8.28,0,15.01-6.73,15.01-15.01v-132.71c0-8.28-6.73-15.01-15.01-15.01H220.18Z"/>
      </g>
      <g>
        <path class="cls-1" d="M468.52,568.48h-145.3c19.14-36.53,38.28-73.06,57.42-109.6,6.01-11.47,22.77-11.56,28.9-.15,19.66,36.58,39.32,73.16,58.97,109.74Z"/>
        <path class="cls-7" d="M471.5,570.24h-151.22l58.77-112.16c3.14-5.98,9.12-9.58,16-9.61,.03,0,.07,0,.1,0,6.84,0,12.81,3.53,16,9.45l60.36,112.32Zm-145.33-3.52h139.37l-57.59-107.16c-2.55-4.74-7.33-7.57-12.81-7.57-.03,0-.05,0-.08,0-5.51,.03-10.3,2.9-12.81,7.7l-56.08,107.03Z"/>
      </g>
      <g>
        <path class="cls-1" d="M650.3,568.48h-181.78c23.95-45.71,47.9-91.41,71.84-137.12,7.52-14.35,28.48-14.46,36.16-.18,24.59,45.77,49.19,91.53,73.78,137.3Z"/>
        <path class="cls-7" d="M653.28,570.24h-187.71l73.19-139.68c3.84-7.34,11.18-11.74,19.62-11.78,.04,0,.08,0,.12,0,8.39,0,15.71,4.32,19.62,11.59l75.17,139.88Zm-181.82-3.52h175.86l-72.4-134.72c-3.27-6.08-9.4-9.7-16.43-9.7h-.1c-7.07,.04-13.21,3.73-16.43,9.87l-70.5,134.56Z"/>
      </g>
      <circle class="cls-7" cx="278.55" cy="455.08" r="28.51"/>
    </g>
    <g>
      <circle class="cls-5" cx="427.18" cy="590.88" r="6.17"/>
      <circle class="cls-5" cx="408.14" cy="590.88" r="6.17"/>
      <circle class="cls-5" cx="446.22" cy="590.88" r="6.17"/>
      <circle class="cls-5" cx="465.26" cy="590.88" r="6.17"/>
    </g>
  </g>
  <g>
    <path class="cls-1" d="M470.91,863.26h-50.43c-.83,0-1.5-.67-1.5-1.5s.67-1.5,1.5-1.5h50.43c.83,0,1.5,.67,1.5,1.5s-.67,1.5-1.5,1.5Z"/>
    <path class="cls-1" d="M633.94,863.26h-41.11c-.83,0-1.5-.67-1.5-1.5s.67-1.5,1.5-1.5h41.11c1,0,1.82-.82,1.82-1.82v-9.9c0-.83,.67-1.5,1.5-1.5s1.5,.67,1.5,1.5v9.9c0,2.66-2.16,4.82-4.82,4.82Z"/>
    <path class="cls-1" d="M492.67,784.54h-45.45c-.83,0-1.5-.67-1.5-1.5s.67-1.5,1.5-1.5h45.45c.83,0,1.5,.67,1.5,1.5s-.67,1.5-1.5,1.5Z"/>
    <path class="cls-1" d="M331.34,812.12c-.83,0-1.5-.67-1.5-1.5v-24.26c0-2.66,2.16-4.82,4.82-4.82h11.86c.83,0,1.5,.67,1.5,1.5s-.67,1.5-1.5,1.5h-11.86c-1,0-1.82,.82-1.82,1.82v24.26c0,.83-.67,1.5-1.5,1.5Z"/>
    <g>
      <rect class="cls-1" x="341.67" y="793.26" width="284.42" height="59.29" rx="3.32" ry="3.32"/>
      <path class="cls-9" d="M622.76,853.05H344.99c-2.11,0-3.82-1.71-3.82-3.82v-52.65c0-2.11,1.71-3.82,3.82-3.82h277.78c2.11,0,3.82,1.71,3.82,3.82v52.65c0,2.11-1.71,3.82-3.82,3.82Zm-277.78-59.29c-1.55,0-2.82,1.26-2.82,2.82v52.65c0,1.55,1.26,2.82,2.82,2.82h277.78c1.55,0,2.82-1.26,2.82-2.82v-52.65c0-1.55-1.26-2.82-2.82-2.82H344.99Z"/>
    </g>
    <g>
      <rect class="cls-7" x="360.46" y="801.06" width="45.26" height="43.68" rx="3.67" ry="3.67"/>
      <rect class="cls-8" x="427.65" y="801.06" width="45.26" height="43.68" rx="3.67" ry="3.67"/>
      <rect class="cls-9" x="494.84" y="801.06" width="45.26" height="43.68" rx="3.67" ry="3.67"/>
      <rect class="cls-4" x="562.03" y="801.06" width="45.26" height="43.68" rx="3.67" ry="3.67"/>
    </g>
  </g>
</svg>