<svg width="322" height="240" viewBox="0 0 322 240" fill="none" xmlns="http://www.w3.org/2000/svg">
<path d="M79.1387 190.757C79.2312 191.044 79.3321 191.34 79.433 191.627C79.4246 191.652 79.4163 191.669 79.4246 191.694L79.1387 190.757ZM79.4248 191.694L82.7728 202.748C81.7633 199.651 80.7454 196.563 79.7276 193.466C79.5424 192.892 79.3574 192.285 79.4248 191.694ZM127.502 210.941C126.509 212.957 124.313 214.037 122.244 214.898C114.782 217.978 106.933 219.995 99.1183 222.003C96.4767 222.678 93.4988 223.311 91.177 221.876C89.1664 220.636 88.2831 218.206 87.5344 215.961C86.2052 211.97 84.8761 207.971 83.5385 203.98C82.1757 199.862 80.8045 195.744 79.4332 191.627C79.4417 191.508 79.467 191.39 79.509 191.272C79.8118 190.412 80.7204 189.939 81.5448 189.56C90.5125 185.442 99.7746 181.966 109.238 179.181C111.165 178.616 113.327 178.093 115.094 179.038C115.918 179.477 116.541 180.169 117.054 180.962C117.432 181.535 117.76 182.16 118.063 182.776C121.378 189.459 124.331 196.327 126.913 203.33C127.821 205.794 128.663 208.595 127.502 210.941Z" fill="white"/>
<path d="M127.506 211.048C126.52 213.046 124.339 214.116 122.284 214.969C114.873 218.021 107.078 220.019 99.3169 222.009C96.6934 222.678 93.7359 223.305 91.43 221.884C89.4331 220.655 88.5559 218.247 87.8123 216.023C86.4922 212.068 85.1722 208.104 83.8438 204.15C87.9962 207.862 92.2906 211.608 97.4788 213.615C102.792 215.663 109.326 215.529 113.629 211.792C117.606 208.33 118.817 202.67 119.059 197.402C119.201 194.233 119.068 191.056 118.675 187.912C118.399 185.754 117.63 183.522 117.129 181.34C117.505 181.908 117.831 182.527 118.132 183.138C121.424 189.76 124.356 196.566 126.921 203.506C127.823 205.947 128.659 208.723 127.506 211.048Z" fill="#D8D8D8"/>
<path d="M241.65 234.413C237.163 239.336 229.594 239.687 222.88 239.678C199.793 239.662 185.452 239.637 162.356 239.612C159.333 239.612 156.269 239.603 153.339 238.844C150.41 238.085 147.591 236.474 146.025 233.921C144.382 231.235 144.323 227.93 144.306 224.793C144.298 220.98 144.28 217.167 144.264 213.353C144.23 204.884 144.196 214.238 144.162 205.769C144.154 204.05 144.145 202.339 144.145 200.62C144.128 198.101 144.12 195.581 144.111 193.061C144.103 191.108 144.204 189.114 144.17 187.178C144.128 185.193 143.849 183.399 144.416 181.429C144.966 179.519 146.135 177.733 147.845 176.657C149.792 175.43 152.213 175.238 154.525 175.113C164.117 174.596 173.726 174.704 183.318 175.013C191.742 175.288 200.064 175.697 208.488 175.647C217.098 175.589 216.954 175.539 225.564 175.48C231.033 175.447 237.154 175.656 241.006 179.494C244.334 182.806 244.918 187.779 245.053 192.518C245.07 193.061 245.079 193.595 245.087 194.129C245.282 207.93 245.477 203.9 245.671 217.7C245.756 223.566 245.621 230.041 241.65 234.413Z" fill="white"/>
<path d="M241.685 234.426C237.236 239.337 229.731 239.687 223.074 239.678C200.182 239.662 185.962 239.637 163.062 239.612C160.065 239.612 157.027 239.603 154.122 238.846C151.218 238.089 148.422 236.482 146.869 233.935C145.241 231.255 145.182 227.958 145.165 224.828C145.157 221.024 145.14 217.22 145.123 213.416C145.09 204.967 145.056 214.299 145.023 205.85C145.014 204.135 145.006 202.429 145.006 200.714C146.232 203.71 147.608 206.632 149.279 209.412C152.385 214.573 156.607 219.235 162.013 221.948C169.392 225.644 178.13 225.353 186.315 224.229C196.279 222.864 206.092 220.4 215.511 216.896C224.266 213.641 232.921 209.313 239.065 202.312C241.584 199.44 243.599 196.152 245.059 192.631C245.076 193.172 245.084 193.705 245.093 194.238C245.286 208.006 245.479 203.985 245.672 217.753C245.756 223.605 245.621 230.064 241.685 234.426Z" fill="#D8D8D8"/>
<path d="M244.746 186.986C244.235 184.161 243.227 181.524 241.197 179.504C237.336 175.663 231.21 175.452 225.723 175.486C217.101 175.54 217.241 175.594 208.618 175.648C200.173 175.701 191.837 175.29 183.394 175.016C173.782 174.704 164.155 174.595 154.548 175.113C152.231 175.238 149.805 175.434 147.849 176.664C146.141 177.739 144.97 179.526 144.416 181.446C144.031 182.778 144.036 184.032 144.091 185.32C144.131 186.252 144.914 186.986 145.86 186.986H244.746Z" fill="#655CFE"/>
<path d="M257.918 62.4078V62.484L257.867 95.6145C257.194 119.947 254.931 152.046 249.058 157.979C240.905 166.211 228.302 167.234 216.742 167.226C176.987 167.183 137.225 167.149 97.4702 167.107C92.2538 167.107 86.9784 167.09 81.9302 165.755C76.8905 164.428 72.0358 161.597 69.3434 157.117C66.5081 152.401 66.4071 146.595 66.3818 141.101C66.3565 135.185 66.3398 129.261 66.3144 123.353C66.3144 122.575 66.306 121.806 66.306 121.029C66.2471 106.154 66.1966 71.8652 66.1377 56.9987C66.1039 49.561 66.0788 42.1236 66.0452 34.6947C66.0367 31.2633 66.205 27.7728 66.1461 24.3667C66.0788 20.8846 65.5909 17.7322 66.5668 14.2838C67.5175 10.9202 69.5369 7.79299 72.4648 5.90834C75.8302 3.7532 79.9949 3.40657 83.9829 3.18679C100.49 2.28244 117.032 2.47697 133.556 3.01772C148.061 3.49949 162.389 4.2178 176.903 4.12488C191.719 4.03196 206.535 3.93884 221.36 3.84592C230.783 3.78673 241.317 4.15013 247.947 10.8862C254.333 17.3601 256.815 26.6909 256.941 35.8103C256.975 38.3796 257.589 45.9691 257.918 62.4078Z" fill="white"/>
<path d="M119.761 63.6375C118.186 65.0999 115.701 65.4463 113.792 64.4743C111.883 63.5107 110.665 61.2795 110.874 59.124C111.082 56.9688 112.7 55.0246 114.759 54.4414L114.576 54.6442C115.084 54.4497 115.618 54.3315 116.16 54.3146C118.286 54.2469 120.362 55.6753 121.137 57.6869C121.912 59.6987 121.345 62.1752 119.761 63.6375ZM120.42 104.123L119.961 104.182C119.711 104.174 119.453 104.174 119.203 104.165C110.307 103.954 101.411 103.743 92.5069 103.531C89.9306 103.472 87.1042 103.32 85.1951 101.571C83.686 100.184 83.1108 98.1729 82.9023 96.0682V86.0526C86.354 80.9306 89.8473 75.7579 94.5077 71.388C96.3919 69.6215 98.7598 67.8973 101.544 67.9058C103.912 67.9143 106.063 69.2243 107.439 70.881C108.814 72.5377 109.548 74.5154 110.257 76.4595C113.642 85.6806 117.027 94.9018 120.42 104.123Z" fill="#655CFE"/>
<path d="M156.295 86.8276C155.957 92.1997 154.857 97.6563 150.789 100.954C146.745 104.234 141.052 104.268 135.834 104.15C130.344 104.023 124.854 103.897 119.364 103.77L113.012 86.5575C117.089 79.077 122.359 72.0771 128.643 65.7943C130.513 63.922 132.78 61.9823 135.664 61.8475C138.515 61.7126 141.019 63.3824 143.023 65.1112C149.875 71.0064 154.561 78.681 156.295 86.8276Z" fill="#655CFE"/>
<path d="M257.918 62.7809L257.867 95.8176C257.193 120.081 254.925 152.089 249.042 158.006C240.874 166.214 228.248 167.234 216.666 167.226C176.84 167.184 137.004 167.15 97.1775 167.108C91.9515 167.108 86.6665 167.091 81.6091 165.759C76.5602 164.436 71.6967 161.613 68.9994 157.146C66.1588 152.443 66.0577 146.654 66.0323 141.176C66.007 135.276 65.9902 129.368 65.9648 123.477C71.0222 130.102 78.3218 135.251 86.1522 138.285C99.0907 143.299 113.344 143.493 127.21 142.954C147.034 142.187 166.961 140.029 185.875 134.02C204.781 128.02 222.718 117.974 235.968 103.217C241.894 96.618 246.8 89.1427 250.719 81.2038C253.644 75.2708 256.013 69.1017 257.918 62.7809Z" fill="#D8D8D8"/>
<path d="M120.702 138.056C127.088 138.189 133.475 138.322 139.862 138.454C141.902 138.497 144.003 138.551 145.873 139.319C147.744 140.087 149.35 141.753 149.333 143.673C149.317 145.389 148.006 146.912 146.405 147.736C144.805 148.56 142.948 148.805 141.132 148.977C135.095 149.549 128.986 149.459 122.971 148.709C121.129 148.48 119.203 148.151 117.767 147.043C115.913 145.615 115.295 142.943 116.349 140.919C117.404 138.895 120.027 137.718 122.363 138.22M178.477 138.056C184.863 138.189 191.25 138.322 197.637 138.454C199.677 138.497 201.778 138.551 203.648 139.319C205.519 140.087 207.125 141.753 207.107 143.673C207.092 145.389 205.781 146.912 204.18 147.736C202.58 148.56 200.723 148.805 198.907 148.977C192.869 149.549 186.761 149.459 180.746 148.709C178.904 148.48 176.978 148.151 175.541 147.043C173.688 145.615 173.069 142.943 174.124 140.919C175.179 138.895 177.802 137.718 180.138 138.22" fill="white"/>
<path d="M243.027 63.4694C240.983 67.0448 237.691 69.741 234.395 72.2462C237.624 72.9688 242.335 75.7795 244.907 77.8359C246.501 73.0003 247.542 67.175 251.085 63.4793C251.72 62.8167 252.437 62.0088 252.239 61.1181C252.139 60.6673 251.816 60.3014 251.504 59.957C249.476 57.7146 247.097 53.9415 244.524 52.4304C243.725 53.2346 244.898 56.5224 244.805 57.7792C244.654 59.8258 243.948 61.6537 243.027 63.4694Z" fill="#D8D8D8"/>
<path d="M254.154 22.3201C253.166 18.1126 251.471 14.2308 248.514 11.147C241.858 4.20491 231.298 3.82242 221.838 3.8845C206.974 3.98221 192.11 4.07991 177.246 4.17741C162.688 4.27303 148.317 3.52952 133.762 3.03474C117.193 2.47143 100.596 2.27435 84.0359 3.21057C80.0408 3.4364 75.8591 3.79034 72.487 6.01423C69.5434 7.95541 67.5241 11.1857 66.569 14.6552C65.8432 17.2922 65.9245 19.7569 66.0415 22.3199L254.154 22.3201Z" fill="#655CFE"/>
<path d="M213.792 197.753C213.792 196.882 216.93 196.176 220.8 196.176C224.671 196.176 227.809 196.882 227.809 197.753C227.809 198.624 224.671 199.33 220.8 199.33C216.93 199.33 213.792 198.624 213.792 197.753ZM205.333 197.753C205.333 196.882 206.036 196.176 206.904 196.176C207.771 196.176 208.475 196.882 208.475 197.753C208.475 198.624 207.771 199.33 206.904 199.33C206.036 199.33 205.333 198.624 205.333 197.753ZM190.832 197.753C190.832 196.882 193.213 196.176 196.149 196.176C199.086 196.176 201.466 196.882 201.466 197.753C201.466 198.624 199.086 199.33 196.149 199.33C193.212 199.33 190.832 198.624 190.832 197.753ZM157.238 197.031C157.238 196.16 163.839 195.454 171.981 195.454C180.123 195.454 186.723 196.16 186.723 197.031C186.723 197.902 180.123 198.608 171.981 198.608C163.839 198.608 157.238 197.902 157.238 197.031ZM171.256 207.75C171.256 208.621 168.118 209.327 164.247 209.327C160.376 209.327 157.238 208.621 157.238 207.75C157.238 206.879 160.376 206.173 164.247 206.173C168.118 206.173 171.256 206.879 171.256 207.75ZM179.715 207.75C179.715 208.621 179.011 209.327 178.144 209.327C177.276 209.327 176.573 208.621 176.573 207.75C176.573 206.879 177.276 206.173 178.144 206.173C179.011 206.173 179.715 206.879 179.715 207.75ZM194.215 207.75C194.215 208.621 191.835 209.327 188.899 209.327C185.962 209.327 183.582 208.621 183.582 207.75C183.582 206.879 185.962 206.173 188.899 206.173C191.835 206.173 194.215 206.879 194.215 207.75ZM208.475 207.991C208.475 208.862 206.203 209.568 203.4 209.568C200.596 209.568 198.324 208.862 198.324 207.991C198.324 207.12 200.596 206.414 203.4 206.414C206.202 206.414 208.475 207.12 208.475 207.991Z" fill="#0D0D0D"/>
<path d="M220.75 219.919C224.648 219.919 227.808 219.287 227.808 218.507C227.808 217.728 224.648 217.096 220.75 217.096C216.853 217.096 213.693 217.728 213.693 218.507C213.693 219.287 216.853 219.919 220.75 219.919Z" fill="#0D0D0D"/>
<path d="M204.933 218.387C204.933 217.541 205.631 216.856 206.491 216.856C207.352 216.856 208.049 217.541 208.049 218.387C208.049 219.233 207.352 219.919 206.491 219.919C205.631 219.919 204.933 219.233 204.933 218.387ZM190.553 218.387C190.553 217.541 192.914 216.856 195.826 216.856C198.738 216.856 201.099 217.541 201.099 218.387C201.099 219.233 198.738 219.919 195.826 219.919C192.914 219.919 190.553 219.233 190.553 218.387ZM157.238 217.686C157.238 216.84 163.784 216.155 171.858 216.155C179.933 216.155 186.479 216.84 186.479 217.686C186.479 218.532 179.933 219.218 171.858 219.218C163.784 219.218 157.238 218.532 157.238 217.686Z" fill="#0D0D0D"/>
<path d="M164.295 230.269C168.193 230.269 171.352 229.637 171.352 228.858C171.352 228.078 168.193 227.446 164.295 227.446C160.398 227.446 157.238 228.078 157.238 228.858C157.238 229.637 160.398 230.269 164.295 230.269Z" fill="#0D0D0D"/>
<path d="M179.8 228.452C179.8 229.322 179.098 230.028 178.233 230.028C177.368 230.028 176.666 229.322 176.666 228.452C176.666 227.581 177.368 226.875 178.233 226.875C179.098 226.875 179.8 227.581 179.8 228.452ZM194.262 228.452C194.262 229.322 191.888 230.028 188.959 230.028C186.031 230.028 183.656 229.322 183.656 228.452C183.656 227.581 186.031 226.875 188.959 226.875C191.888 226.875 194.262 227.581 194.262 228.452ZM218.763 228.692C218.763 229.563 214.195 230.269 208.562 230.269C202.927 230.269 198.36 229.563 198.36 228.692C198.36 227.821 202.927 227.115 208.562 227.115C214.195 227.115 218.763 227.821 218.763 228.692ZM244.683 186.707C244.683 186.925 241.699 187.132 236.303 187.321C230.908 187.51 223.101 187.68 213.453 187.822C203.805 187.965 192.318 188.08 179.561 188.16C173.183 188.19 166.488 188.22 159.547 188.252C156.077 188.26 152.545 188.268 148.961 188.276L147.614 188.278L146.939 188.279C146.689 188.271 146.58 188.3 146.066 188.251C145.214 188.148 144.413 187.699 143.879 187.029C143.611 186.695 143.406 186.305 143.285 185.891C143.223 185.684 143.182 185.47 143.164 185.257L143.152 185.097L143.148 185.009L143.141 184.833C143.106 183.89 143.107 182.855 143.286 181.794C143.467 180.722 143.812 179.71 144.295 178.749C144.781 177.789 145.415 176.89 146.205 176.116C146.989 175.339 147.965 174.713 148.959 174.294C150.97 173.458 152.971 173.324 154.786 173.213C158.396 173.02 161.946 172.918 165.437 172.884C172.415 172.818 179.134 173.012 185.518 173.274C191.9 173.539 197.941 173.843 203.588 173.974C209.226 174.102 214.513 174.061 219.337 174.082C221.752 174.101 224.052 174.119 226.229 174.137C228.417 174.167 230.513 174.261 232.469 174.554C236.378 175.064 239.751 176.648 241.651 178.809C243.579 180.951 244.184 183.129 244.502 184.513C244.794 185.931 244.78 186.69 244.683 186.707C244.566 186.729 244.367 186.003 243.891 184.69C243.395 183.406 242.617 181.44 240.771 179.667C238.947 177.879 235.949 176.635 232.248 176.304C230.401 176.109 228.39 176.095 226.235 176.143C224.065 176.197 221.771 176.253 219.363 176.312C214.541 176.434 209.26 176.604 203.552 176.589C197.855 176.571 191.783 176.363 185.417 176.179C179.052 175.997 172.38 175.867 165.476 175.974C162.026 176.028 158.514 176.145 154.967 176.346C153.221 176.447 151.553 176.614 150.193 177.193C148.853 177.745 147.814 178.795 147.118 180.169C146.402 181.569 146.209 182.981 146.296 184.72L146.302 184.884L146.306 184.965L146.308 184.975C146.307 184.987 146.31 184.998 146.314 185.007C146.319 185.026 146.329 185.045 146.343 185.063C146.373 185.101 146.417 185.127 146.461 185.132C147.297 185.134 148.131 185.136 148.961 185.139C152.545 185.147 156.077 185.155 159.548 185.163C166.488 185.194 173.184 185.225 179.562 185.254C192.318 185.334 203.806 185.45 213.453 185.592C223.101 185.735 230.908 185.905 236.304 186.093C241.699 186.282 244.683 186.49 244.683 186.707Z" fill="#0D0D0D"/>
<path d="M87.2237 16.9914C90.1164 14.9496 89.8193 11.32 88.5137 9.82708C87.2081 8.33417 84.8968 7.79084 83.0461 8.54176C81.1954 9.29268 79.9456 11.2808 80.0894 13.2452C80.2334 15.2095 81.7601 17.0008 83.701 17.4827C85.642 17.9646 87.8503 17.1011 88.9247 15.4393M103.231 16.9914C106.123 14.9496 105.826 11.32 104.521 9.82708C103.215 8.33417 100.904 7.79084 99.0531 8.54176C97.2024 9.29268 95.9526 11.2808 96.0963 13.2452C96.2403 15.2095 97.7671 17.0008 99.708 17.4827C101.649 17.9646 103.857 17.1011 104.932 15.4393M119.238 16.9914C122.131 14.9496 121.833 11.32 120.528 9.82708C119.222 8.33417 116.911 7.79084 115.06 8.54176C113.21 9.29268 111.96 11.2808 112.104 13.2452C112.248 15.2095 113.774 17.0008 115.715 17.4827C117.656 17.9646 119.864 17.1011 120.939 15.4393" fill="white"/>
<path d="M258.501 95.6147C258.653 95.6189 258.754 97.8407 258.743 102.07C258.723 106.299 258.61 112.537 258.151 120.565C257.92 124.579 257.599 129.04 257.091 133.918C256.554 138.794 255.916 144.093 254.563 149.749C254.223 151.162 253.805 152.596 253.286 154.048C252.742 155.495 252.149 156.978 250.977 158.41C250.671 158.798 250.379 159.048 250.085 159.326L249.196 160.16C248.588 160.702 247.921 161.184 247.276 161.703C246.591 162.163 245.904 162.635 245.19 163.071C244.454 163.463 243.737 163.92 242.966 164.263C239.92 165.741 236.592 166.753 233.149 167.428C229.7 168.101 226.132 168.42 222.5 168.584C218.853 168.748 215.183 168.704 211.438 168.74C207.687 168.76 203.853 168.78 199.941 168.801C192.117 168.835 183.977 168.871 175.549 168.908C158.692 168.957 140.681 169.01 121.727 169.065C116.989 169.074 112.191 169.083 107.338 169.092C104.912 169.096 102.472 169.1 100.018 169.103C97.5677 169.102 95.0951 169.129 92.5543 169.061C90.0185 168.99 87.4244 168.82 84.8085 168.377C82.2017 167.939 79.5451 167.208 77.0427 166.045C74.5426 164.889 72.152 163.315 70.1567 161.22C68.1455 159.143 66.6568 156.465 65.8378 153.736C64.9933 150.995 64.6972 148.216 64.5701 145.523C64.4498 142.815 64.4833 140.214 64.4591 137.592C64.4339 132.344 64.4085 127.053 64.3832 121.724C64.3503 111.065 64.3167 100.251 64.2829 89.3064C64.2571 78.3615 64.2317 67.5462 64.2065 56.8869C64.1906 51.5573 64.1749 46.2667 64.1592 41.0185C64.1566 38.3837 64.154 35.7598 64.1513 33.1466C64.1824 30.5061 64.2784 27.9286 64.2621 25.4135C64.2819 22.9585 63.9525 20.4094 64.1441 17.5396C64.2424 16.124 64.5105 14.6484 64.9578 13.276C65.401 11.9072 65.9913 10.5858 66.7456 9.34979C68.2257 6.88491 70.4498 4.71674 73.1101 3.4455C75.748 2.17365 78.5008 1.71168 81.079 1.46356C83.6751 1.2366 86.1064 1.15941 88.5823 1.04553C91.0471 0.939303 93.4988 0.868152 95.9364 0.808288C100.811 0.690577 105.629 0.661349 110.385 0.687148C129.411 0.763136 147.424 1.90961 164.22 2.34478C168.421 2.45241 172.547 2.51731 176.595 2.52175C180.66 2.51953 184.65 2.51752 188.562 2.5153C196.386 2.51631 203.896 2.51711 211.063 2.51792C214.647 2.52195 218.146 2.52578 221.555 2.52961C224.977 2.53888 228.352 2.5804 231.646 2.91963C234.936 3.24615 238.158 3.84277 241.161 4.95679C244.171 6.02365 246.912 7.71393 249.091 9.83636C251.253 11.9294 252.885 14.3253 254.184 16.7481C255.474 19.1789 256.39 21.6629 257.025 24.0889C257.665 26.5157 258.047 28.8832 258.26 31.1451C258.368 32.2765 258.427 33.3824 258.46 34.4595C258.478 35.5167 258.495 36.5465 258.513 37.548C258.807 45.5593 258.887 51.811 258.852 56.0353C258.82 60.2643 258.702 62.4851 258.55 62.4881C258.39 62.4913 258.204 60.2762 257.942 56.0607C257.682 51.8407 257.321 45.6403 256.756 37.6295C256.724 37.1254 256.692 36.616 256.673 36.0813C256.65 35.5736 256.626 35.059 256.602 34.5373C256.538 33.5001 256.449 32.4383 256.313 31.3563C256.045 29.1932 255.616 26.9456 254.951 24.668C254.291 22.3903 253.373 20.0875 252.126 17.8683C250.877 15.6616 249.32 13.4894 247.342 11.6603C245.401 9.85349 242.993 8.41637 240.25 7.5029C237.523 6.54791 234.519 6.03816 231.384 5.78258C228.246 5.5133 224.969 5.52378 221.574 5.56832C218.165 5.61549 214.667 5.66387 211.083 5.71365C203.916 5.80576 196.407 5.90232 188.583 6.00269C184.67 6.04865 180.678 6.09561 176.61 6.14338C172.525 6.18248 168.367 6.1591 164.141 6.09158C147.231 5.81504 129.263 4.81188 110.374 4.85158C105.652 4.85461 100.874 4.91043 96.0464 5.05233C93.6325 5.12429 91.2054 5.20673 88.7676 5.32363C86.3421 5.44558 83.8391 5.54272 81.4935 5.76001C79.15 5.98999 76.9081 6.42395 75.0176 7.35214C73.147 8.26117 71.6124 9.7503 70.486 11.6192C69.9235 12.5469 69.4743 13.5606 69.1373 14.6131C68.8013 15.6637 68.6126 16.715 68.5339 17.8502C68.3737 20.0925 68.6843 22.6737 68.6867 25.3781C68.7107 28.0237 68.6199 30.6275 68.5971 33.1917C68.606 35.7838 68.6148 38.3867 68.6237 41.0004C68.6489 46.2486 68.6743 51.5391 68.6996 56.8688C68.7325 67.5281 68.7657 78.3434 68.7993 89.2883C68.8253 100.232 68.8509 111.047 68.8763 121.706C68.8922 127.035 68.9079 132.326 68.9236 137.574C68.979 142.841 68.7184 148.011 70.0683 152.437C70.7366 154.645 71.8116 156.576 73.349 158.188C74.877 159.806 76.7972 161.101 78.8819 162.073C83.06 164.039 87.8578 164.594 92.6829 164.745C95.1011 164.821 97.5641 164.808 100.021 164.82C102.475 164.829 104.916 164.837 107.342 164.846C112.195 164.864 116.992 164.882 121.731 164.9C159.615 165.084 193.732 165.25 222.384 165.39C225.911 165.281 229.336 165.022 232.593 164.439C235.847 163.854 238.938 162.962 241.728 161.668C242.439 161.368 243.085 160.965 243.76 160.625C244.41 160.243 245.033 159.829 245.659 159.429C246.241 158.972 246.849 158.554 247.402 158.079L248.21 157.348C248.479 157.106 248.768 156.858 248.931 156.642C249.721 155.736 250.339 154.419 250.839 153.124C251.338 151.812 251.763 150.468 252.117 149.119C253.533 143.714 254.298 138.47 254.952 133.664C255.582 128.846 256.033 124.42 256.397 120.434C257.123 112.46 257.52 106.246 257.833 102.035C258.138 97.8238 258.342 95.6104 258.501 95.6147Z" fill="#0D0D0D"/>
<path d="M254.107 21.9509C254.107 22.2623 248.543 22.5589 238.481 22.8288C228.419 23.0984 213.859 23.3416 195.868 23.5455C177.877 23.7496 156.454 23.9147 132.665 24.0287C120.771 24.0706 108.285 24.1146 95.3419 24.16C88.87 24.1713 82.2838 24.1826 75.5995 24.1942C73.9284 24.1959 72.2513 24.1977 70.5683 24.1993C69.7267 24.1999 68.8839 24.2007 68.0395 24.2013L65.8672 24.2021L63.3541 24.177C63.2514 23.4067 63.2582 22.5243 63.2061 21.7038L63.1585 20.4509L63.1427 19.4394C63.1395 18.532 63.1818 17.5898 63.2934 16.6358C63.4124 15.683 63.5974 14.7113 63.8816 13.7749C64.1551 12.8493 64.4993 11.9421 64.916 11.0625C65.7491 9.30525 66.868 7.65842 68.2901 6.25775C69.6988 4.84762 71.4706 3.73292 73.2782 3.0172C76.936 1.5757 80.5887 1.42426 83.9231 1.23804C90.6383 0.892546 97.2585 0.723025 103.758 0.687832C116.757 0.609805 129.278 1.0307 141.168 1.52722C153.056 2.02435 164.321 2.51122 174.853 2.57376C185.428 2.60835 195.279 2.64073 204.272 2.67029C208.771 2.69804 213.054 2.72439 217.107 2.74932C221.15 2.78854 224.993 2.76582 228.624 3.00674C232.245 3.2555 235.646 3.71642 238.685 4.62439C241.719 5.51608 244.403 6.77761 246.492 8.37677C248.595 9.95441 250.138 11.7446 251.194 13.4351C252.265 15.1231 252.899 16.6837 253.327 17.9538C254.154 20.5119 254.232 21.9226 254.107 21.9509C253.93 21.9978 253.547 20.6518 252.476 18.2871C251.928 17.114 251.192 15.688 250.078 14.1898C248.978 12.6866 247.461 11.1423 245.467 9.8068C243.487 8.45217 240.98 7.41349 238.117 6.69897C235.253 5.97018 232.005 5.6478 228.498 5.52513C224.988 5.4093 221.184 5.54504 217.125 5.61784C213.073 5.69406 208.79 5.7745 204.292 5.85916C195.294 5.99792 185.438 6.15017 174.857 6.31346C164.229 6.41301 152.897 6.06248 141.014 5.67998C129.133 5.29789 116.685 4.96868 103.794 5.10604C97.3501 5.17079 90.7983 5.36164 84.1632 5.71819C80.8562 5.88993 77.6533 6.11236 74.977 7.19227C73.6416 7.73143 72.4849 8.46183 71.4827 9.45849C70.4791 10.4463 69.6468 11.6579 69.0184 12.9852C68.7041 13.6491 68.4413 14.3402 68.2328 15.0463C68.0212 15.7387 67.8888 16.4422 67.7955 17.171C67.7106 17.9016 67.6728 18.6533 67.6752 19.436L67.6756 19.6968L67.675 19.6988C70.3347 19.7016 72.9766 19.7046 75.5995 19.7075C82.2838 19.7189 88.87 19.7304 95.3419 19.7416C108.285 19.7873 120.771 19.8311 132.665 19.873C156.454 19.987 177.877 20.1523 195.868 20.3562C213.859 20.5603 228.419 20.8033 238.481 21.0729C248.543 21.343 254.107 21.6394 254.107 21.9509Z" fill="#0D0D0D"/>
<path d="M89.4905 15.3041C89.5561 15.3398 89.4353 15.8221 88.85 16.4604C88.2797 17.0831 87.1831 17.8722 85.5845 17.9995C84.7968 18.0678 83.8858 17.9154 83.0355 17.4831C82.1912 17.046 81.4063 16.3457 80.8472 15.4178C80.2877 14.5006 79.9663 13.3125 80.1139 12.1096C80.2525 10.9152 80.796 9.74924 81.6677 8.84078C82.5362 7.9305 83.7468 7.36756 84.925 7.28346C86.1036 7.18599 87.2397 7.48062 88.1667 8.02959C88.6309 8.30437 89.0436 8.64503 89.3868 9.03127C89.7351 9.42278 90.0131 9.89433 90.1703 10.3428C90.5074 11.25 90.561 12.1427 90.4836 12.9305C90.3142 14.527 89.5387 15.6365 88.9308 16.2152C88.2953 16.7934 87.846 16.9484 87.806 16.8876C87.7392 16.797 88.0788 16.4912 88.5379 15.8646C88.9758 15.234 89.5051 14.2123 89.5345 12.8655C89.5449 12.2024 89.442 11.46 89.1386 10.773C88.9894 10.42 88.7898 10.1282 88.5241 9.85137C88.2503 9.57071 87.9244 9.32306 87.5586 9.12407C86.1046 8.30356 83.951 8.36922 82.6283 9.79523C81.9654 10.4852 81.5393 11.3833 81.4219 12.274C81.2977 13.1634 81.5055 14.0441 81.916 14.7815C82.325 15.5201 82.9207 16.105 83.5634 16.4872C84.2119 16.8624 84.9024 17.0349 85.5523 17.0357C86.8651 17.0487 87.8934 16.5078 88.5023 16.063C89.128 15.6117 89.3998 15.2429 89.4905 15.3041ZM105.341 15.3041C105.406 15.3398 105.285 15.8221 104.7 16.4604C104.13 17.0831 103.033 17.8722 101.435 17.9995C100.647 18.0678 99.7359 17.9154 98.8858 17.4831C98.0415 17.046 97.2566 16.3457 96.6975 15.4178C96.138 14.5006 95.8166 13.3125 95.9642 12.1096C96.1028 10.9152 96.6463 9.74924 97.518 8.84078C98.3862 7.9305 99.5971 7.36756 100.775 7.28346C101.954 7.18599 103.09 7.48062 104.017 8.02959C104.481 8.30437 104.894 8.64503 105.237 9.03127C105.585 9.42278 105.863 9.89433 106.021 10.3428C106.358 11.25 106.411 12.1427 106.334 12.9305C106.164 14.527 105.389 15.6365 104.781 16.2152C104.146 16.7934 103.696 16.9484 103.656 16.8876C103.589 16.797 103.929 16.4912 104.388 15.8646C104.826 15.234 105.355 14.2123 105.384 12.8655C105.395 12.2024 105.292 11.46 104.989 10.773C104.839 10.42 104.64 10.1282 104.374 9.85137C104.1 9.57071 103.774 9.32306 103.409 9.12407C101.955 8.30356 99.801 8.36922 98.4784 9.79523C97.8155 10.4852 97.3894 11.3833 97.272 12.274C97.1478 13.1634 97.3556 14.0441 97.7661 14.7815C98.1749 15.5201 98.7708 16.105 99.4135 16.4872C100.062 16.8624 100.753 17.0349 101.402 17.0357C102.715 17.0487 103.743 16.5078 104.352 16.063C104.978 15.6117 105.25 15.2429 105.341 15.3041ZM121.191 15.3041C121.256 15.3398 121.136 15.8221 120.55 16.4604C119.98 17.0831 118.883 17.8722 117.285 17.9995C116.497 18.0678 115.586 17.9154 114.736 17.4831C113.892 17.046 113.107 16.3457 112.548 15.4178C111.988 14.5006 111.667 13.3125 111.815 12.1096C111.953 10.9152 112.497 9.74924 113.368 8.84078C114.237 7.9305 115.448 7.36756 116.626 7.28346C117.804 7.18599 118.94 7.48062 119.867 8.02959C120.331 8.30437 120.744 8.64503 121.087 9.03127C121.435 9.42278 121.714 9.89433 121.871 10.3428C122.208 11.25 122.261 12.1427 122.184 12.9305C122.015 14.527 121.239 15.6365 120.631 16.2152C119.996 16.7934 119.547 16.9484 119.506 16.8876C119.44 16.797 119.779 16.4912 120.238 15.8646C120.676 15.234 121.206 14.2123 121.235 12.8655C121.245 12.2024 121.142 11.46 120.839 10.773C120.69 10.42 120.49 10.1282 120.225 9.85137C119.951 9.57071 119.625 9.32306 119.259 9.12407C117.805 8.30356 115.652 8.36922 114.329 9.79523C113.666 10.4852 113.24 11.3833 113.123 12.274C112.998 13.1634 113.206 14.0441 113.617 14.7815C114.026 15.5201 114.621 16.105 115.264 16.4872C115.913 16.8624 116.603 17.0349 117.253 17.0357C118.566 17.0487 119.594 16.5078 120.203 16.063C120.828 15.6117 121.1 15.2429 121.191 15.3041ZM83.5968 73.5572C83.3802 73.5603 83.1201 69.7092 82.8353 62.7425C82.7137 59.2578 82.565 54.9958 82.3922 50.0479C82.375 49.4418 82.341 48.7738 82.4024 48.0555C82.4684 47.3452 82.6125 46.5314 83.1279 45.7638C83.3846 45.3863 83.7328 45.0505 84.1329 44.8063C84.5331 44.5686 84.9614 44.4194 85.3665 44.3378C86.1832 44.1688 86.9323 44.2046 87.6078 44.1977C90.378 44.1965 93.3062 44.1955 96.3807 44.1943C108.679 44.2038 123.323 44.2699 139.582 44.3923C141.605 44.4204 143.673 44.3769 145.859 44.5501C148.022 44.7396 150.315 45.1139 152.509 46.2416C153.596 46.8056 154.636 47.5862 155.476 48.5708C156.328 49.5449 156.959 50.719 157.355 51.9148C158.163 54.3265 158.19 56.7461 158.174 59.0254C158.085 63.5112 157.994 68.0763 157.902 72.7094C157.853 75.024 157.804 77.3554 157.755 79.7024C157.73 80.8759 157.705 82.0533 157.68 83.2343C157.636 84.4348 157.592 85.6391 157.548 86.8469C157.413 89.2731 157.147 91.7397 156.495 94.1688C155.848 96.5853 154.781 99.0061 153.058 100.985C151.341 102.965 149.007 104.329 146.652 105.047C144.284 105.783 141.911 105.979 139.629 106.049C137.337 106.101 135.145 106.004 132.977 105.955C130.805 105.897 128.654 105.839 126.525 105.782C122.27 105.664 118.105 105.548 114.04 105.435C109.978 105.315 106.016 105.199 102.167 105.086C100.242 105.027 98.3457 104.97 96.4787 104.913C94.5956 104.844 92.8141 104.824 90.9175 104.713C89.049 104.578 86.9897 104.262 85.2156 103.029C84.3391 102.419 83.6158 101.596 83.1119 100.701C82.6072 99.8052 82.29 98.8598 82.0964 97.9406C81.8987 97.0164 81.8001 96.1156 81.7931 95.259C81.7661 94.3964 81.7263 93.5292 81.7153 92.6976C81.7295 91.0669 81.7433 89.4719 81.7567 87.9142C81.8711 75.4514 82.0178 65.3656 82.1902 58.3954C82.3626 51.4253 82.5604 47.5705 82.7771 47.5699C82.9939 47.5693 83.2089 51.4232 83.412 58.393C83.6152 65.3627 83.8068 75.4483 83.9764 87.9116C83.9968 89.4695 84.0175 91.0645 84.0389 92.6952C84.0787 93.4798 84.1189 94.2732 84.1597 95.0748C84.1795 95.885 84.2859 96.6621 84.4585 97.3971C84.796 98.8776 85.4873 100.17 86.6344 100.924C87.7754 101.703 89.37 101.995 91.0793 102.08C98.2955 102.213 106.006 102.355 114.119 102.505C118.183 102.583 122.348 102.663 126.603 102.745C128.73 102.788 130.879 102.831 133.049 102.875C135.222 102.912 137.414 102.994 139.546 102.934C141.676 102.861 143.795 102.659 145.737 102.042C147.678 101.434 149.404 100.398 150.718 98.889C152.027 97.3783 152.909 95.44 153.469 93.338C154.034 91.2313 154.288 88.971 154.415 86.6564C154.458 85.4887 154.501 84.3246 154.543 83.164C154.569 81.983 154.595 80.8056 154.621 79.6321C154.675 77.2851 154.727 74.9537 154.78 72.6393C154.888 68.0141 154.994 63.4566 155.099 58.9784C155.136 56.7957 155.075 54.688 154.478 52.9098C153.909 51.1257 152.735 49.7848 151.128 48.9386C149.52 48.0875 147.575 47.7094 145.609 47.528C143.643 47.3521 141.589 47.3705 139.549 47.3237C123.289 47.0404 108.646 46.7413 96.3501 46.4438C93.2764 46.3658 90.349 46.2917 87.5794 46.2215C86.8733 46.2029 86.2456 46.1719 85.7373 46.2659C85.2208 46.3567 84.9014 46.5409 84.661 46.8643C84.4187 47.1859 84.2739 47.6897 84.2105 48.2431C84.1435 48.7998 84.1493 49.3939 84.1475 50.0244C84.1123 54.975 84.0821 59.2392 84.0575 62.7259C83.9663 69.6975 83.8136 73.5542 83.5968 73.5572Z" fill="#0D0D0D"/>
<path d="M120.447 104.178C120.032 104.33 118.282 100.825 115.787 95.0366C114.539 92.1422 113.106 88.6768 111.56 84.8115C110.797 82.875 109.997 80.8425 109.167 78.7356C108.316 76.6124 107.619 74.4045 106.429 72.7281C105.291 71.0583 103.514 69.9226 101.754 69.6762C100.002 69.4236 98.2174 70.1131 96.6559 71.1934C95.1005 72.2658 93.6693 73.6528 92.3738 74.9024C91.0836 76.178 89.9374 77.4348 88.9076 78.6043C86.8522 80.9485 85.256 82.9406 84.0838 84.2716C82.9166 85.6078 82.1889 86.2963 82.0056 86.1723C81.8238 86.0495 82.2016 85.1292 83.0574 83.5724C83.9195 82.0194 85.2429 79.8147 87.1286 77.2198C88.0741 75.9251 89.1622 74.5336 90.4331 73.112C91.073 72.4052 91.746 71.6804 92.4796 70.9687C93.1974 70.2524 94.0092 69.5125 94.929 68.8311C95.8523 68.1514 96.906 67.519 98.1306 67.081C99.3522 66.6489 100.751 66.4299 102.156 66.6054C104.961 66.9501 107.481 68.6323 109.062 70.9258C109.857 72.053 110.417 73.2439 110.878 74.3793C111.338 75.5239 111.714 76.5907 112.109 77.6551C112.879 79.7843 113.62 81.8382 114.328 83.7953C115.721 87.7163 116.935 91.2624 117.911 94.2567C119.862 100.245 120.862 104.026 120.447 104.178Z" fill="#0D0D0D"/>
<path d="M155.958 88.1842C155.457 88.289 154.671 84.4386 151.729 79.066C150.244 76.4004 148.215 73.3668 145.47 70.4328C144.113 68.9693 142.554 67.5001 140.901 66.1478C139.266 64.843 137.41 63.8013 135.565 63.7942C133.724 63.7532 131.965 64.8005 130.4 66.192C129.617 66.8748 128.852 67.6683 128.089 68.4228C127.339 69.186 126.613 69.9411 125.913 70.6869C123.122 73.6781 120.768 76.5246 118.868 78.9814C115.073 83.9 113 87.1954 112.585 86.9697C112.229 86.7855 113.618 83.0754 117.037 77.6903C118.748 75.0049 120.986 71.9265 123.744 68.7328C124.435 67.9363 125.158 67.1325 125.91 66.3235C126.671 65.5276 127.427 64.7004 128.331 63.8774C129.225 63.0619 130.244 62.2652 131.458 61.6375C132.67 61.021 134.113 60.5958 135.596 60.6241C137.075 60.6395 138.48 61.0517 139.674 61.6408C140.88 62.2254 141.915 62.9648 142.848 63.7298C144.665 65.2731 146.239 66.8524 147.647 68.4878C150.461 71.7401 152.428 75.1182 153.736 78.0724C155.045 81.036 155.666 83.5936 155.947 85.3647C156.23 87.1411 156.151 88.1503 155.958 88.1842ZM111.115 58.1156C110.924 58.0767 110.778 57.4363 111.218 56.3924C111.652 55.3915 112.759 53.9467 114.873 53.3623C116.984 52.7697 119.908 53.5717 121.62 56.0289C123.393 58.5139 123.165 62.4777 120.525 64.9021C117.848 67.2828 113.878 67.0893 111.599 65.071C109.337 63.1156 108.836 60.1618 109.55 58.1229C110.261 56.0747 111.709 55.0296 112.708 54.6128C113.745 54.1905 114.378 54.3187 114.423 54.5112C114.485 54.7364 114.003 55.028 113.369 55.6544C112.749 56.2641 111.935 57.3018 111.716 58.6906C111.616 59.3706 111.678 60.11 111.965 60.8527C112.248 61.5887 112.76 62.3072 113.439 62.8042C114.109 63.2978 114.942 63.5686 115.871 63.5309C116.788 63.502 117.734 63.1532 118.407 62.5457C119.078 61.9393 119.525 61.0355 119.647 60.1249C119.781 59.205 119.601 58.3388 119.18 57.6293C118.757 56.9061 118.096 56.3273 117.398 55.9814C116.694 55.632 115.968 55.5052 115.3 55.5633C113.922 55.6859 112.859 56.4651 112.251 57.0677C111.622 57.6857 111.341 58.1748 111.115 58.1156ZM172.184 73.777C171.747 73.7831 171.292 69.5656 170.91 62.742C170.719 59.3302 170.546 55.2669 170.402 50.7542C170.403 49.6703 170.195 48.398 170.718 46.7781C170.976 45.98 171.617 45.0795 172.497 44.6021C173.366 44.1172 174.222 44.0188 174.936 43.9782C175.671 43.9465 176.247 43.9708 176.878 43.9708C177.502 43.9768 178.131 43.9827 178.764 43.9887C180.031 44.0049 181.316 44.0213 182.617 44.038C203.429 44.3482 220.291 45.3095 220.28 46.1848C220.268 47.0601 203.388 47.5183 182.577 47.2081C180.006 47.1647 177.496 47.1223 175.071 47.0813C174.566 47.0938 174.183 47.1768 173.992 47.283C173.807 47.3858 173.684 47.5025 173.558 47.818C173.297 48.4554 173.321 49.5576 173.32 50.7134C173.303 55.2283 173.244 59.2951 173.149 62.7107C172.958 69.5422 172.622 73.7709 172.184 73.777Z" fill="#0D0D0D"/>
<path d="M229.949 51.6759C230.167 51.6808 230.333 53.8717 230.447 57.8294C230.56 61.7873 230.622 67.5119 230.631 74.5843C230.618 78.1351 230.663 81.9613 230.567 86.1842C230.482 88.2998 230.34 90.5161 229.873 92.8048C229.418 95.0826 228.637 97.4681 227.183 99.6372C226.459 100.721 225.535 101.698 224.499 102.555C223.448 103.402 222.253 104.08 221.003 104.58C218.489 105.58 215.82 105.914 213.208 106.023C210.577 106.124 208.007 106.014 205.389 105.959C202.77 105.891 200.106 105.799 197.413 105.665C192.038 105.361 186.86 105.147 181.799 105.017C180.526 104.981 179.193 104.936 177.824 104.691C176.467 104.447 175.019 103.981 173.786 103.037C172.558 102.1 171.678 100.765 171.22 99.4432C170.735 98.1155 170.563 96.8049 170.474 95.5627C170.389 94.3192 170.411 93.1211 170.418 91.9954C170.427 90.8566 170.436 89.7332 170.445 88.6259C170.467 86.4114 170.488 84.2615 170.509 82.1825C170.568 78.0254 170.624 74.1527 170.674 70.6167C170.8 63.5456 170.957 57.8231 171.137 53.8682C171.316 49.9134 171.518 47.7263 171.736 47.7257C171.954 47.7251 172.167 49.9114 172.365 53.8652C172.563 57.8191 172.746 63.5409 172.906 70.6113C172.973 74.1471 173.046 78.0193 173.126 82.1762C173.156 84.255 173.187 86.4047 173.22 88.6192C173.234 89.7265 173.248 90.8499 173.263 91.9887C173.277 93.1398 173.279 94.2528 173.374 95.3406C173.541 97.5093 174.131 99.563 175.594 100.613C177.05 101.714 179.392 101.88 181.871 101.911C186.93 101.997 192.226 102.195 197.568 102.496C200.236 102.629 202.872 102.726 205.478 102.805C208.085 102.871 210.666 102.993 213.094 102.918C215.526 102.84 217.864 102.545 219.902 101.76C221.945 100.99 223.598 99.6592 224.793 97.9724C225.976 96.2739 226.707 94.2663 227.159 92.2223C227.626 90.1787 227.817 88.0902 227.953 86.059C228.158 81.9732 228.246 78.0524 228.4 74.5348C228.677 67.4687 228.955 61.7515 229.219 57.8019C229.482 53.8529 229.731 51.6711 229.949 51.6759Z" fill="#0D0D0D"/>
<path d="M174.194 100.387C173.917 100.061 176.539 97.1152 180.931 92.4759C185.33 87.8499 191.529 81.5869 198.508 74.8069C205.488 68.0265 211.93 62.017 216.721 57.8018C221.5 53.5779 224.681 51.1853 224.965 51.5206C225.242 51.8475 222.619 54.7928 218.228 59.4322C213.829 64.0584 207.629 70.3216 200.65 77.102C193.67 83.8823 187.229 89.8913 182.437 94.1065C177.659 98.3301 174.478 100.723 174.194 100.387Z" fill="#0D0D0D"/>
<path d="M226.847 99.9434C226.558 100.272 223.089 97.7352 217.712 93.3679C215.023 91.1841 211.858 88.5428 208.376 85.5733C204.875 82.6142 201.103 79.1697 197.378 75.3913C189.906 67.8262 183.706 60.4935 179.359 55.0855C175.023 49.6659 172.549 46.146 172.876 45.863C173.21 45.5731 176.287 48.5796 181.043 53.6083C185.809 58.6257 192.241 65.6816 199.621 73.1534C203.314 76.8982 206.918 80.3073 210.302 83.3786C213.679 86.4686 216.691 89.2846 219.19 91.6836C224.188 96.4822 227.136 99.6147 226.847 99.9434ZM121.951 138.088C121.889 138.435 120.706 138.293 119.165 139.173C118.422 139.61 117.591 140.33 117.17 141.339C116.74 142.305 116.735 143.668 117.339 144.852C117.641 145.442 118.068 145.938 118.628 146.287C119.207 146.656 119.963 146.913 120.864 147.086C121.757 147.26 122.824 147.346 123.94 147.45C125.049 147.543 126.19 147.621 127.361 147.679C129.702 147.787 132.162 147.818 134.707 147.723C135.979 147.677 137.272 147.602 138.582 147.497C139.883 147.385 141.263 147.27 142.44 147.063C143.619 146.857 144.653 146.5 145.351 146.006C146.083 145.501 146.588 144.774 146.698 144.201C146.817 143.651 146.674 143.047 146.178 142.407C145.935 142.1 145.631 141.806 145.285 141.568C144.94 141.328 144.582 141.147 144.138 140.979C142.41 140.331 140.147 140.333 137.986 140.186C135.848 140.057 133.856 139.92 132.038 139.777C124.765 139.205 120.274 138.539 120.288 137.913C120.302 137.287 124.818 136.821 132.108 136.572C133.931 136.51 135.927 136.461 138.069 136.427C139.142 136.415 140.23 136.381 141.463 136.415C142.686 136.456 144.041 136.575 145.465 137.019C146.16 137.238 146.921 137.566 147.608 138.004C148.298 138.438 148.936 138.984 149.502 139.646C150.067 140.304 150.548 141.109 150.85 142.041C151.159 142.966 151.228 144.041 151.045 145.041C150.655 147.071 149.417 148.619 147.959 149.679C146.438 150.764 144.782 151.243 143.237 151.525C141.675 151.795 140.313 151.887 138.918 151.995C137.53 152.091 136.159 152.146 134.813 152.164C132.119 152.202 129.521 152.077 127.061 151.846C125.831 151.726 124.635 151.579 123.477 151.41C122.331 151.23 121.192 151.068 120 150.744C118.824 150.422 117.607 149.929 116.576 149.116C115.52 148.296 114.785 147.182 114.392 146.09C113.59 143.886 113.949 141.624 114.973 140.089C115.991 138.546 117.403 137.835 118.525 137.529C119.676 137.233 120.598 137.336 121.168 137.52C121.745 137.703 121.985 137.949 121.951 138.088ZM179.777 138.088C179.716 138.435 178.533 138.293 176.991 139.173C176.248 139.61 175.417 140.33 174.996 141.339C174.566 142.305 174.561 143.668 175.165 144.852C175.467 145.442 175.894 145.938 176.454 146.287C177.033 146.656 177.789 146.913 178.69 147.086C179.583 147.26 180.651 147.346 181.766 147.45C182.874 147.543 184.016 147.621 185.186 147.679C187.528 147.787 189.988 147.818 192.533 147.723C193.805 147.677 195.098 147.602 196.408 147.497C197.709 147.385 199.089 147.27 200.266 147.063C201.445 146.857 202.479 146.5 203.177 146.006C203.909 145.501 204.414 144.774 204.524 144.201C204.643 143.651 204.5 143.047 204.004 142.407C203.761 142.1 203.456 141.806 203.111 141.568C202.766 141.328 202.408 141.147 201.964 140.979C200.236 140.331 197.973 140.333 195.812 140.186C193.673 140.057 191.682 139.92 189.863 139.777C182.591 139.205 178.1 138.539 178.114 137.913C178.128 137.287 182.644 136.821 189.934 136.572C191.757 136.51 193.752 136.461 195.895 136.427C196.968 136.415 198.055 136.381 199.289 136.415C200.512 136.456 201.867 136.575 203.29 137.019C203.986 137.238 204.746 137.566 205.434 138.004C206.123 138.438 206.762 138.984 207.327 139.646C207.893 140.304 208.374 141.109 208.675 142.041C208.985 142.966 209.053 144.041 208.871 145.041C208.481 147.071 207.243 148.619 205.785 149.679C204.264 150.764 202.608 151.243 201.063 151.525C199.501 151.795 198.139 151.887 196.744 151.995C195.355 152.091 193.985 152.146 192.638 152.164C189.945 152.202 187.347 152.077 184.886 151.846C183.656 151.726 182.46 151.579 181.302 151.41C180.156 151.23 179.018 151.068 177.826 150.744C176.649 150.422 175.433 149.929 174.402 149.116C173.346 148.296 172.61 147.182 172.217 146.09C171.415 143.886 171.774 141.624 172.798 140.089C173.817 138.546 175.229 137.835 176.351 137.529C177.501 137.233 178.423 137.336 178.994 137.52C179.571 137.703 179.811 137.949 179.777 138.088Z" fill="#0D0D0D"/>
<path d="M83.3034 203.274C83.0974 203.342 82.2131 201.3 80.7904 197.548C80.44 196.608 80.0508 195.564 79.6247 194.421C79.4286 193.855 79.1302 193.195 79.1389 192.282C79.1461 191.829 79.2925 191.314 79.5597 190.902C79.8247 190.485 80.1727 190.172 80.5201 189.922C81.2367 189.423 81.9119 189.152 82.5837 188.809C83.2683 188.481 83.9746 188.141 84.7016 187.792C86.1613 187.106 87.7116 186.395 89.3544 185.681C92.6358 184.245 96.2781 182.779 100.239 181.34C102.22 180.623 104.281 179.914 106.416 179.222C107.492 178.884 108.583 178.542 109.688 178.195C110.84 177.868 112.1 177.529 113.567 177.581C114.293 177.612 115.075 177.747 115.814 178.082C116.56 178.406 117.219 178.912 117.738 179.465C118.779 180.585 119.367 181.831 119.923 182.933C121.038 185.167 122.134 187.47 123.202 189.836C124.272 192.202 125.312 194.631 126.319 197.118C126.824 198.36 127.315 199.619 127.801 200.889C128.281 202.172 128.77 203.407 129.223 204.806C129.655 206.195 130.025 207.709 129.937 209.382C129.879 211.043 129.113 212.843 127.923 213.999C126.755 215.181 125.414 215.883 124.156 216.457C122.884 217.021 121.695 217.47 120.468 217.94C115.59 219.761 110.784 221.122 106.211 222.312C103.921 222.886 101.688 223.447 99.5181 223.992C98.4068 224.258 97.2603 224.497 96.0642 224.59C94.8725 224.674 93.6033 224.62 92.3836 224.187C91.1591 223.784 90.0772 222.952 89.3288 222.016C88.5653 221.077 88.086 220.061 87.691 219.092C86.9461 217.13 86.4835 215.376 85.9269 213.655C83.8085 206.805 82.1455 201.244 81.0636 197.379C79.9816 193.513 79.4809 191.343 79.6866 191.273C79.8923 191.204 80.785 193.242 82.2235 196.988C83.662 200.733 85.646 206.186 88.034 212.945C88.6444 214.611 89.2241 216.474 89.9263 218.146C90.647 219.822 91.6624 221.247 93.2093 221.695C94.7622 222.198 96.7718 221.847 98.8509 221.288C100.995 220.706 103.202 220.106 105.465 219.491C109.977 218.235 114.674 216.838 119.385 215.035C121.7 214.09 124.285 213.246 125.692 211.792C126.394 211.072 126.742 210.242 126.804 209.201C126.865 208.164 126.613 206.977 126.229 205.767C125.842 204.564 125.336 203.268 124.872 202.022C124.386 200.773 123.903 199.534 123.423 198.303C122.442 195.85 121.431 193.45 120.396 191.111C119.363 188.771 118.306 186.492 117.235 184.276C116.704 183.162 116.201 182.169 115.589 181.504C114.984 180.841 114.339 180.555 113.432 180.497C112.539 180.439 111.503 180.659 110.455 180.943C109.366 181.261 108.292 181.574 107.233 181.883C105.112 182.519 103.062 183.169 101.087 183.824C97.1405 185.138 93.4959 186.466 90.1963 187.754C88.5447 188.394 86.9812 189.028 85.5047 189.637C84.7682 189.945 84.0526 190.245 83.3588 190.536C82.6658 190.837 81.9651 191.098 81.5015 191.39C81.0144 191.704 80.8103 191.974 80.7658 192.371C80.7186 192.794 80.8753 193.361 81.0476 193.948C81.3782 195.122 81.6806 196.196 81.9525 197.162C83.0176 201.033 83.5093 203.206 83.3034 203.274Z" fill="#0D0D0D"/>
<path d="M97.8308 188.306C97.7825 188.245 97.9422 187.906 98.4406 187.528C98.9283 187.152 99.8302 186.826 100.908 187.07C101.176 187.128 101.451 187.227 101.733 187.37C102.013 187.508 102.325 187.747 102.556 188.019C103.044 188.571 103.4 189.334 103.539 190.197C103.829 191.926 103.106 194.038 101.476 194.998C99.864 195.923 97.9001 195.374 96.9274 193.958C95.9462 192.59 95.8764 190.792 96.3879 189.624C96.8881 188.445 97.7081 187.893 98.2638 187.691C98.8367 187.486 99.1698 187.584 99.1749 187.668C99.1885 187.776 98.8916 187.875 98.4642 188.195C98.046 188.506 97.4701 189.09 97.1925 190.014C96.907 190.898 97.0596 192.181 97.7868 193.099C98.4615 194.012 99.8398 194.347 100.926 193.722C102.002 193.106 102.579 191.604 102.418 190.409C102.347 189.798 102.124 189.241 101.817 188.835C101.527 188.43 101.117 188.212 100.697 188.048C99.8625 187.742 99.1245 187.85 98.6456 188.029C98.1599 188.208 97.8916 188.392 97.8308 188.306Z" fill="#0D0D0D"/>
<path d="M100.78 193.145C100.775 193.335 100.476 193.541 99.8882 193.572C99.5963 193.576 99.2104 193.54 98.7938 193.286C98.3772 193.049 98.0024 192.503 97.9656 191.937C97.9137 191.375 98.1034 190.864 98.4048 190.5C98.7004 190.147 99.0578 189.959 99.3547 189.874C99.9636 189.709 100.329 189.885 100.351 190.07C100.383 190.269 100.112 190.473 99.8421 190.764C99.5569 191.061 99.367 191.423 99.4077 191.803C99.4292 191.985 99.4714 192.09 99.5872 192.225C99.699 192.356 99.897 192.476 100.084 192.578C100.468 192.778 100.786 192.944 100.78 193.145Z" fill="white"/>
<path d="M115.687 197.452C115.933 198.034 110.902 200.628 104.449 203.247C97.9956 205.865 92.5651 207.517 92.3192 206.935C92.0732 206.354 97.105 203.76 103.558 201.141C110.011 198.522 115.441 196.871 115.687 197.452ZM118.648 204.674C118.894 205.255 113.863 207.849 107.41 210.468C100.957 213.086 95.5259 214.738 95.28 214.156C95.034 213.575 100.066 210.981 106.519 208.362C112.972 205.744 118.402 204.092 118.648 204.674Z" fill="#0D0D0D"/>
<path d="M106.979 150.816C106.943 150.918 106.246 150.697 104.965 150.575C103.685 150.443 101.819 150.505 99.5374 150.923C97.2539 151.297 94.539 152.112 91.3029 152.186C89.6973 152.219 87.9345 151.957 86.288 151.213C84.6526 150.488 83.0549 149.183 82.2666 147.324C81.4936 145.474 81.5371 143.588 81.5312 141.912C81.5421 140.222 81.5524 138.592 81.5623 137.039C81.5913 133.934 81.6362 131.138 81.6934 128.789C81.8078 124.092 81.9724 121.186 82.1596 121.186C82.3467 121.186 82.5212 124.091 82.6517 128.787C82.717 131.136 82.7714 133.932 82.8111 137.037C82.8264 138.59 82.8423 140.22 82.8588 141.909C82.873 143.584 82.8806 145.305 83.5126 146.792C84.1373 148.265 85.4189 149.354 86.8406 150.006C88.2762 150.669 89.8089 150.934 91.3021 150.937C94.2969 150.942 97.0353 150.243 99.3955 149.975C101.756 149.668 103.734 149.751 105.046 150.054C106.365 150.347 107.01 150.744 106.979 150.816Z" fill="#0D0D0D"/>
<path d="M218.856 232.059C218.867 231.964 219.435 231.95 220.449 231.979C221.46 232.001 222.923 232.078 224.695 231.976C226.449 231.863 228.58 231.545 230.486 230.347C231.432 229.752 232.299 228.944 233.008 227.95C233.725 226.96 234.259 225.777 234.66 224.518C235.464 221.978 235.585 219.384 235.532 217.025C235.476 214.655 235.326 212.487 235.337 210.654C235.307 206.966 236.041 204.74 236.202 204.793C236.404 204.836 236.022 207.037 236.295 210.625C236.405 212.419 236.653 214.557 236.78 216.982C236.903 219.398 236.825 222.166 235.953 224.925C235.516 226.298 234.916 227.61 234.085 228.727C233.264 229.848 232.236 230.768 231.132 231.415C228.896 232.724 226.555 232.936 224.722 232.933C222.865 232.915 221.397 232.687 220.392 232.504C219.389 232.313 218.845 232.15 218.856 232.059Z" fill="#0D0D0D"/>
</svg>
