<svg width="322" height="240" viewBox="0 0 322 240" fill="none" xmlns="http://www.w3.org/2000/svg">
<path d="M104.114 185.307C104.205 198.653 104.292 202.361 104.384 211.994C104.411 214.493 104.432 217.396 104.454 220.969H104.432C103.973 237.321 114.152 237.585 126.58 238.055C126.58 238.055 177.466 238.67 193.958 238.055C199.479 237.844 204.557 237.677 208.459 236.117C211.713 234.817 214.142 232.55 215.324 228.481C215.907 226.457 216.187 223.985 216.101 220.969H216.079C216.311 185.561 216.543 151.67 216.77 117.508C216.932 93.8654 217.094 70.0929 217.251 45.5865C217.288 39.6177 217.024 32.9042 212.658 28.8351C209.215 25.6187 204.153 25.0034 199.458 24.6041C183.375 23.2333 148.831 22.5911 125.684 23.4599C113.256 23.9295 103.078 24.1939 103.536 40.546L103.558 40.5405C103.466 54.7123 104.346 131.221 104.254 144.934" fill="white"/>
<path d="M216.102 220.969C216.188 223.985 215.908 226.457 215.325 228.481C213.177 231.147 210.883 233.7 208.46 236.117C204.558 237.677 199.48 237.844 193.959 238.055C177.467 238.67 126.581 238.055 126.581 238.055C114.153 237.585 103.975 237.321 104.433 220.969H104.455C104.433 217.396 104.412 214.493 104.385 211.994C110.256 216.203 117.439 218.74 124.649 219.776C135.438 221.336 146.414 219.916 157.202 218.346C169.372 216.57 181.984 214.423 192.06 207.374C206.566 197.234 212.994 178.858 215.001 161.276C215.972 152.776 216.113 144.217 216.329 135.674C216.42 132.144 215.449 123.029 216.771 117.509C216.545 151.67 216.312 185.561 216.08 220.969L216.102 220.969Z" fill="#655CFE"/>
<path d="M159.869 219.922C162.387 220.164 164.652 222.107 165.274 224.559C165.896 227.01 164.831 229.798 162.734 231.212C160.871 232.467 158.308 232.591 156.329 231.527C154.29 230.43 152.969 228.117 153.062 225.803C153.154 223.489 154.655 221.288 156.775 220.357C158.896 219.426 161.532 219.811 163.298 221.309M103.763 70.2246C102.298 68.96 99.5456 69.6251 98.4035 71.0656C97.2615 72.506 97.2653 74.3628 97.3078 76.1015C97.4117 80.3583 97.5158 84.615 97.6197 88.8718C97.653 90.2378 97.7138 91.6829 98.6019 92.8458C99.4901 94.0088 102.758 94.5352 104.069 93.7296M104.069 101.648C102.605 100.383 99.8523 101.048 98.7103 102.489C97.5683 103.929 97.5721 105.786 97.6146 107.525C97.7185 111.781 97.8225 116.038 97.9265 120.295C97.9598 121.661 98.0206 123.106 98.9087 124.269C99.7969 125.432 102.758 125.91 104.069 125.105" fill="#655CFE"/>
<path d="M104.255 144.934C104.203 144.934 104.153 144.308 104.105 143.088C104.069 141.868 104.016 140.054 103.947 137.676C103.851 132.918 103.709 125.904 103.527 116.88C103.381 107.855 103.201 96.8179 102.993 84.0149C102.82 71.2072 102.571 56.6504 102.503 40.5336L103.814 41.564L103.793 41.5694L102.522 41.8927L102.482 40.5754C102.422 38.6038 102.49 36.5818 102.864 34.5406C103.03 33.5192 103.329 32.5004 103.686 31.4935C104.069 30.491 104.573 29.5127 105.209 28.6052C106.469 26.7641 108.373 25.3797 110.391 24.5127C112.421 23.6267 114.563 23.201 116.688 22.903C118.819 22.6223 120.956 22.4933 123.094 22.394C125.23 22.2934 127.377 22.2242 129.551 22.1456C133.895 22.015 138.315 21.9117 142.807 21.8698C151.793 21.7635 161.071 21.8185 170.616 21.9999C175.388 22.0985 180.228 22.2352 185.132 22.4275C190.037 22.6256 195.001 22.8679 200.045 23.2938C202.569 23.5176 205.183 23.8037 207.787 24.601C209.085 25.0059 210.376 25.5511 211.582 26.3C212.792 27.0415 213.89 28.0098 214.796 29.1232C215.706 30.2367 216.419 31.4947 216.951 32.7981C217.474 34.1058 217.828 35.4531 218.078 36.8009C218.577 39.5018 218.651 42.2001 218.656 44.853C218.599 55.3501 218.54 66.0609 218.48 76.9586C218.343 98.7484 218.202 121.286 218.058 144.357C217.87 170.699 217.686 196.347 217.51 220.978L216.08 219.539H216.101L217.501 219.54L217.531 220.928C217.598 224.112 217.391 227.407 216.095 230.56C215.443 232.118 214.477 233.604 213.215 234.792C211.954 235.981 210.451 236.845 208.922 237.448C207.387 238.044 205.823 238.42 204.278 238.672C202.732 238.93 201.2 239.076 199.685 239.179C196.651 239.378 193.704 239.452 190.731 239.534C184.815 239.661 178.992 239.672 173.244 239.678C167.497 239.68 161.83 239.657 156.248 239.619C150.666 239.57 145.168 239.521 139.758 239.474C137.054 239.442 134.371 239.41 131.712 239.379C130.382 239.361 129.058 239.344 127.739 239.326C126.406 239.323 125.067 239.245 123.764 239.191C121.138 239.065 118.503 238.906 115.873 238.427C114.559 238.185 113.247 237.858 111.967 237.377C110.689 236.899 109.442 236.249 108.34 235.381C107.234 234.521 106.288 233.448 105.573 232.268C104.854 231.089 104.357 229.817 104.011 228.543C103.657 227.266 103.47 225.979 103.366 224.709C103.246 223.437 103.256 222.181 103.275 220.936L103.292 219.807L104.433 219.811H104.454L103.296 220.975C103.226 210.94 103.283 201.339 103.29 192.237C103.313 183.134 103.334 174.524 103.354 166.452C103.425 150.307 103.487 136.314 103.538 124.832C103.611 113.349 103.696 104.378 103.793 98.277C103.841 95.2265 103.892 92.8936 103.945 91.3232C103.999 89.7529 104.055 88.945 104.114 88.9446C104.173 88.9443 104.233 89.7513 104.293 91.3209C104.354 92.8904 104.415 95.2225 104.476 98.2721C104.599 104.371 104.724 113.341 104.848 124.821C104.949 136.302 105.072 150.293 105.214 166.435C105.269 174.506 105.328 183.115 105.391 192.217C105.46 201.32 105.474 210.911 105.612 220.962L105.628 222.123L104.454 222.127H104.433L105.59 221.001C105.581 222.17 105.579 223.348 105.697 224.506C105.799 225.666 105.976 226.819 106.29 227.918C106.888 230.127 108.034 232.124 109.816 233.477C111.581 234.856 113.899 235.581 116.31 236.013C118.734 236.441 121.283 236.588 123.874 236.698C125.181 236.744 126.464 236.814 127.768 236.81C129.085 236.821 130.408 236.831 131.737 236.842C134.396 236.861 137.077 236.879 139.78 236.898C145.186 236.922 150.681 236.946 156.26 236.971C161.837 236.969 167.498 236.967 173.238 236.965C178.974 236.939 184.794 236.908 190.665 236.765C193.585 236.676 196.569 236.591 199.489 236.391C202.401 236.177 205.318 235.83 207.885 234.827C209.159 234.32 210.319 233.635 211.27 232.737C212.218 231.836 212.949 230.719 213.474 229.464C214.518 226.943 214.751 223.963 214.672 221.01L216.101 222.399H216.08L214.641 222.4L214.65 220.959C214.802 196.327 214.961 170.68 215.124 144.337C215.288 121.267 215.448 98.7294 215.603 76.9399C215.686 66.0479 215.768 55.3428 215.849 44.8512C215.852 42.2629 215.779 39.7161 215.337 37.3034C215.118 36.0989 214.81 34.9305 214.377 33.8366C213.936 32.7485 213.363 31.7424 212.65 30.8656C211.243 29.0864 209.223 27.919 206.971 27.2158C204.711 26.5129 202.273 26.2206 199.805 25.9964C194.845 25.5597 189.898 25.2986 185.02 25.0821C180.138 24.871 175.315 24.714 170.557 24.5942C161.041 24.3701 151.785 24.2683 142.828 24.3237C138.349 24.3403 133.945 24.4173 129.62 24.5202C127.459 24.5895 125.317 24.6583 123.195 24.7263C121.08 24.8104 119 24.924 116.985 25.1758C114.979 25.441 113.018 25.8298 111.28 26.578C109.544 27.3172 108.033 28.4061 107.002 29.8855C106.482 30.6184 106.055 31.4214 105.723 32.2728C105.413 33.1343 105.14 34.0159 104.985 34.9354C104.633 36.7608 104.549 38.6476 104.591 40.5162L103.281 39.5222L103.302 39.5168L104.612 39.1952L104.613 40.5471C104.647 72.7262 104.674 98.8204 104.693 116.871C104.676 125.898 104.628 132.914 104.551 137.673C104.509 140.053 104.468 141.868 104.411 143.089C104.359 144.31 104.306 144.935 104.255 144.934Z" fill="#0D0D0D"/>
<path d="M207.282 64.0029C207.23 64.0026 207.186 63.5633 207.132 62.7089C207.073 61.8554 207.021 60.5828 206.817 58.9397C206.724 58.1173 206.565 57.2068 206.334 56.2228C206.098 55.2406 205.763 54.1849 205.231 53.1344C204.707 52.0825 203.961 51.0465 202.952 50.177C201.946 49.3049 200.671 48.6183 199.215 48.1583C196.303 47.2103 192.757 47.1025 188.92 46.8535C185.075 46.6406 180.888 46.4864 176.388 46.369C167.387 46.1473 157.129 46.0448 145.798 46.1962C140.137 46.2775 134.195 46.426 128.044 46.7413C126.516 46.8288 124.99 46.9587 123.493 47.1949C122.002 47.4406 120.537 47.8047 119.234 48.429C117.927 49.0453 116.833 49.9586 116.038 51.1337C115.649 51.7292 115.335 52.3862 115.078 53.0809C114.832 53.7824 114.648 54.5222 114.518 55.2856C114.247 56.8208 114.232 58.4094 114.264 60.0931C114.265 61.7924 114.266 63.5056 114.267 65.2324C114.264 68.6847 114.261 72.1914 114.258 75.7502C114.227 82.859 114.194 90.1754 114.161 97.6783C113.985 127.689 113.792 160.684 113.589 195.318C113.583 196.979 113.595 198.615 113.746 200.199C113.896 201.781 114.164 203.324 114.68 204.718C115.173 206.125 115.956 207.342 116.962 208.308C117.984 209.257 119.275 209.932 120.698 210.387C123.553 211.287 126.845 211.413 130.066 211.674C133.296 211.901 136.522 212.05 139.727 212.192C152.556 212.696 165.095 212.857 177.208 212.719C180.236 212.678 183.238 212.627 186.21 212.529C189.183 212.427 192.149 212.377 194.941 212.047C197.717 211.71 200.411 211.016 202.185 209.345C203.081 208.527 203.723 207.469 204.179 206.297C204.62 205.115 204.863 203.823 204.983 202.507C205.048 201.848 205.069 201.187 205.078 200.51C205.07 199.833 205.075 199.14 205.085 198.44C205.1 197.048 205.114 195.664 205.129 194.287C205.159 191.534 205.189 188.813 205.218 186.124C205.28 180.747 205.339 175.5 205.397 170.394C205.875 129.557 206.355 97.6633 206.768 79.8997C206.755 79.7494 206.742 79.6002 206.729 79.4521L206.708 79.2166C206.698 79.145 206.691 79.0038 206.697 78.9275C206.704 78.6159 206.711 78.3089 206.718 78.0063C206.732 77.4015 206.745 76.8149 206.758 76.247C206.787 75.1113 206.814 74.0502 206.838 73.0655C206.9 71.0965 206.952 69.4331 206.994 68.0901C207.095 65.4042 207.192 64.0021 207.282 64.0029C207.373 64.0035 207.453 65.4069 207.524 68.0934C207.55 69.4368 207.583 71.1008 207.622 73.0705C207.636 74.0554 207.65 75.1168 207.666 76.2526C207.672 76.8206 207.679 77.4071 207.686 78.0122C207.69 78.3147 207.693 78.6218 207.696 78.9335C207.696 79.0134 207.698 79.028 207.709 79.1123L207.737 79.347C207.757 79.5135 207.777 79.6811 207.797 79.85C207.94 97.7274 207.937 129.534 207.796 170.38C207.777 175.484 207.757 180.729 207.737 186.104C207.725 188.792 207.714 191.512 207.702 194.264C207.696 195.64 207.69 197.023 207.684 198.415C207.678 199.106 207.678 199.809 207.689 200.531C207.684 201.253 207.666 201.996 207.597 202.738C207.469 204.222 207.205 205.738 206.659 207.227C206.101 208.705 205.237 210.163 204.01 211.296C202.799 212.443 201.311 213.229 199.816 213.745C198.314 214.265 196.787 214.548 195.278 214.742C192.249 215.11 189.29 215.166 186.302 215.283C183.308 215.395 180.29 215.458 177.247 215.511C165.075 215.696 152.51 215.57 139.61 215.086C136.384 214.95 133.138 214.805 129.867 214.58C128.226 214.459 126.599 214.353 124.921 214.17C123.247 213.988 121.524 213.712 119.807 213.173C118.097 212.628 116.377 211.762 114.965 210.449C113.572 209.131 112.536 207.459 111.928 205.726C111.288 203.992 110.993 202.215 110.826 200.47C110.66 198.722 110.65 196.999 110.655 195.299C110.861 160.662 111.175 127.672 111.458 97.6624C111.533 90.1601 111.607 82.8443 111.679 75.7362C111.706 72.1862 111.732 68.6881 111.758 65.2443C111.77 63.5232 111.781 61.8158 111.792 60.1222C111.774 58.4177 111.797 56.6229 112.121 54.8691C112.278 53.9895 112.501 53.1137 112.81 52.2567C113.132 51.4031 113.537 50.5699 114.054 49.7965C115.103 48.254 116.613 47.0414 118.226 46.305C119.841 45.5519 121.511 45.1689 123.134 44.9148C124.76 44.6736 126.358 44.5556 127.922 44.4807C134.147 44.2217 140.095 44.1372 145.781 44.1217C157.148 44.1028 167.424 44.351 176.445 44.7296C180.955 44.9257 185.151 45.1609 189.013 45.4582C190.946 45.6134 192.787 45.7615 194.559 45.9808C196.329 46.2052 198.028 46.5224 199.582 47.0768C201.136 47.6152 202.534 48.4155 203.623 49.4244C204.717 50.4297 205.495 51.6035 206.017 52.7558C206.547 53.9088 206.851 55.0348 207.05 56.0658C207.244 57.0988 207.358 58.0413 207.406 58.8837C207.517 60.5685 207.472 61.8487 207.432 62.7069C207.388 63.5649 207.331 64.0031 207.282 64.0029ZM144.663 33.0918C144.663 32.5248 151.196 32.0649 159.253 32.0649C167.311 32.0649 173.843 32.5247 173.843 33.0918C173.843 33.6589 167.311 34.1186 159.253 34.1186C151.196 34.1186 144.663 33.6588 144.663 33.0918ZM163.297 221.308C163.197 221.43 162.69 221.095 161.718 220.786C160.768 220.485 159.248 220.236 157.631 220.817C156.835 221.099 156.05 221.62 155.404 222.367C154.76 223.109 154.258 224.078 154.087 225.141C153.918 226.193 154.095 227.353 154.65 228.395C155.194 229.436 156.095 230.338 157.209 230.808C158.328 231.285 159.618 231.344 160.74 231.032C161.877 230.735 162.805 230.061 163.459 229.193C164.115 228.327 164.485 227.301 164.586 226.328C164.686 225.349 164.506 224.438 164.157 223.662C163.444 222.093 162.215 221.172 161.341 220.695C160.448 220.201 159.85 220.083 159.869 219.921C159.872 219.805 160.518 219.639 161.638 219.953C162.728 220.259 164.348 221.108 165.448 222.998C165.987 223.931 166.336 225.145 166.285 226.435C166.237 227.722 165.831 229.09 164.995 230.298C164.175 231.506 162.842 232.535 161.289 232.967C159.749 233.423 158 233.372 156.404 232.697C154.795 232.015 153.568 230.737 152.858 229.31C152.133 227.885 151.926 226.25 152.226 224.795C152.845 221.874 155.098 219.934 157.208 219.428C158.259 219.155 159.243 219.179 160.062 219.332C160.885 219.48 161.549 219.766 162.046 220.056C163.044 220.654 163.382 221.219 163.297 221.308Z" fill="#0D0D0D"/>
<path d="M156.251 230.091C156.205 230.179 155.527 229.934 154.873 229.027C154.55 228.58 154.261 227.969 154.124 227.24C153.985 226.514 154.017 225.663 154.322 224.841C154.64 224.024 155.182 223.366 155.767 222.916C156.355 222.463 156.976 222.198 157.514 222.078C158.606 221.835 159.275 222.102 159.252 222.199C159.241 222.338 158.595 222.315 157.698 222.673C156.816 223.009 155.656 223.833 155.145 225.154C154.649 226.481 154.969 227.868 155.405 228.704C155.838 229.568 156.336 229.98 156.251 230.091Z" fill="white"/>
<path d="M104.069 93.7294C104.391 94.0598 102.261 95.6991 98.7473 94.2906C98.6337 94.2296 98.5201 94.1726 98.4036 94.1011C98.2852 94.0192 98.1666 93.9365 98.0478 93.8433C97.9303 93.7329 97.797 93.6033 97.6989 93.4897C97.6174 93.3859 97.5279 93.2841 97.4526 93.1719C97.1391 92.7305 96.8852 92.2185 96.7181 91.69C96.3713 90.6256 96.3226 89.5326 96.259 88.5354C96.1351 86.5035 96.0395 84.2686 95.9822 81.9216C95.9283 79.5603 95.9036 77.3695 95.9435 75.2698C95.9773 74.195 96.1014 73.0623 96.5221 72.0198C96.7292 71.5016 97.009 71.0164 97.3393 70.6028C97.4955 70.4008 97.6965 70.1934 97.895 70.0117C98.0979 69.8403 98.3015 69.6868 98.5092 69.5631C100.174 68.5848 101.757 68.7009 102.699 69.0895C103.178 69.2787 103.482 69.5645 103.645 69.7699C103.798 70.0005 103.828 70.1483 103.762 70.2245C103.617 70.3909 103.179 70.1809 102.445 70.2028C102.081 70.2099 101.64 70.27 101.156 70.4308C100.677 70.5914 100.145 70.8647 99.7147 71.2513C99.6048 71.3462 99.5119 71.4515 99.4213 71.5565C99.3424 71.666 99.2678 71.7657 99.1869 71.9108C99.0317 72.1822 98.9091 72.4817 98.8201 72.8182C98.6383 73.4892 98.605 74.3132 98.6467 75.2676C98.7536 77.2361 98.8615 79.517 98.9151 81.8499C98.9724 84.1969 98.9859 86.4338 98.9614 88.4694C98.9459 89.5004 98.9251 90.3616 99.0648 91.0487C99.1288 91.395 99.2329 91.6908 99.365 91.9604C99.3955 92.0297 99.4377 92.0901 99.4717 92.1562C99.5018 92.2029 99.514 92.2166 99.5304 92.2565C99.5651 92.2929 99.6044 92.3321 99.639 92.3739L99.7884 92.4964C100.238 92.8242 100.839 93.0682 101.356 93.2224C101.881 93.381 102.354 93.4704 102.741 93.5252C103.514 93.6329 103.946 93.5562 104.069 93.7294ZM104.069 125.104C104.19 125.253 103.823 125.773 102.866 126.047C102.397 126.183 101.809 126.261 101.121 126.22C100.433 126.164 99.6457 126.057 98.7491 125.529C98.5252 125.385 98.2945 125.208 98.0725 124.96C97.8921 124.755 97.7423 124.553 97.5983 124.323C97.3163 123.87 97.0992 123.358 96.9551 122.837C96.662 121.787 96.6261 120.732 96.5605 119.75C96.4372 117.736 96.3419 115.521 96.2852 113.195C96.2569 112.031 96.2394 110.895 96.2321 109.798C96.2289 108.689 96.2187 107.672 96.25 106.596C96.2879 105.525 96.4264 104.396 96.8563 103.366C97.0687 102.853 97.3534 102.376 97.6864 101.97C98.0222 101.556 98.4551 101.184 98.8605 100.953C100.517 100.005 102.087 100.125 103.02 100.516C103.493 100.706 103.794 100.99 103.954 101.195C104.105 101.424 104.135 101.571 104.069 101.648C103.923 101.814 103.489 101.606 102.761 101.628C102.4 101.635 101.963 101.693 101.483 101.851C101.006 102.003 100.482 102.279 100.047 102.655C99.8196 102.851 99.6716 103.044 99.5175 103.301C99.3602 103.568 99.2354 103.863 99.1438 104.194C98.9587 104.854 98.9155 105.664 98.9532 106.605C99.0017 107.6 99.0526 108.645 99.1053 109.728C99.1516 110.824 99.1897 111.96 99.218 113.123C99.2749 115.449 99.2879 117.666 99.263 119.684C99.25 120.714 99.2148 121.59 99.3266 122.294C99.3793 122.648 99.4665 122.955 99.5821 123.233C99.6386 123.368 99.7132 123.508 99.7788 123.617C99.8114 123.678 99.8736 123.759 99.9564 123.842C100.324 124.182 100.907 124.439 101.401 124.604C101.908 124.772 102.373 124.862 102.752 124.911C103.511 125.014 103.947 124.929 104.069 125.104ZM136.568 226.219C136.562 226.34 134.921 226.371 132.274 226.322C129.626 226.274 125.972 226.147 121.938 225.952C119.934 225.842 117.972 225.817 116.205 225.353C115.326 225.122 114.51 224.787 113.818 224.341C113.117 223.887 112.576 223.325 112.185 222.746C111.383 221.589 111.218 220.388 111.333 219.626C111.458 218.851 111.738 218.504 111.775 218.526C111.846 218.554 111.686 218.943 111.674 219.65C111.672 220.349 111.909 221.388 112.688 222.38C113.067 222.876 113.577 223.351 114.2 223.719C114.833 224.091 115.582 224.373 116.4 224.566C118.042 224.957 119.959 224.964 121.98 225.072C126.014 225.268 129.664 225.493 132.304 225.701C134.944 225.908 136.574 226.097 136.568 226.219Z" fill="#0D0D0D"/>
<path d="M161.235 178.112C163.153 178.297 164.879 179.778 165.353 181.646C165.827 183.515 165.016 185.639 163.418 186.716C161.998 187.673 160.044 187.768 158.537 186.957C156.983 186.121 155.976 184.358 156.046 182.594C156.117 180.831 157.261 179.154 158.877 178.444C160.492 177.735 162.502 178.028 163.847 179.169" fill="#655CFE"/>
<path d="M198.189 111.569C195.89 113.783 193.124 116.166 189.956 115.765C188.004 115.516 186.435 114.257 185.133 112.719C185.073 129.252 185.012 145.786 184.951 162.32C184.945 164.734 184.799 167.464 182.987 169.058C181.406 170.444 179.095 170.48 176.997 170.45C171.762 170.365 166.526 170.286 161.29 170.201C156.049 170.286 150.813 170.365 145.578 170.45C143.48 170.48 141.169 170.444 139.588 169.058C137.776 167.464 137.63 164.734 137.624 162.32C137.563 145.786 137.502 129.252 137.441 112.719C136.14 114.257 134.571 115.516 132.619 115.765C129.451 116.166 126.684 113.783 124.392 111.569C122.446 109.696 120.336 107.307 120.913 104.668C121.224 103.239 122.288 102.114 123.303 101.062C129.645 94.5005 135.988 87.9453 142.336 81.3842L142.281 81.7125C145.346 89.2284 153.288 94.47 161.406 94.3363C169.517 94.2025 177.283 88.6993 180.098 81.0862L180.244 81.3842C186.586 87.9453 192.929 94.5005 199.271 101.062C200.286 102.114 201.35 103.239 201.661 104.668C202.239 107.307 200.129 109.696 198.189 111.569Z" fill="white"/>
<path d="M207.486 61.7974C207.486 62.3645 186.308 62.8242 160.185 62.8242C134.061 62.8242 112.883 62.3645 112.883 61.7974C112.883 61.2304 134.061 60.7705 160.185 60.7705C186.308 60.7706 207.486 61.2304 207.486 61.7974ZM147.316 179.169C147.218 179.287 146.811 179.059 146.073 178.858C145.352 178.661 144.219 178.511 143.048 178.96C142.472 179.177 141.911 179.565 141.448 180.114C140.988 180.66 140.634 181.367 140.518 182.132C140.405 182.885 140.537 183.713 140.939 184.461C141.334 185.208 141.982 185.852 142.772 186.184C143.568 186.524 144.497 186.57 145.302 186.35C146.119 186.139 146.778 185.668 147.257 185.047C147.735 184.428 148.013 183.686 148.096 182.982C148.178 182.273 148.061 181.615 147.818 181.043C147.321 179.885 146.431 179.174 145.789 178.791C145.136 178.393 144.687 178.269 144.703 178.112C144.708 177.99 145.206 177.83 146.087 178.049C146.943 178.261 148.224 178.9 149.109 180.378C149.543 181.108 149.828 182.069 149.795 183.09C149.765 184.108 149.451 185.191 148.792 186.152C148.148 187.113 147.084 187.94 145.851 188.285C144.627 188.649 143.24 188.612 141.967 188.074C139.371 186.95 138.15 184.107 138.657 181.786C139.16 179.469 140.954 177.954 142.625 177.571C144.307 177.175 145.656 177.661 146.401 178.129C147.165 178.618 147.402 179.076 147.316 179.169ZM163.85 179.169C163.752 179.287 163.345 179.059 162.607 178.858C161.886 178.661 160.753 178.511 159.582 178.96C159.006 179.177 158.445 179.565 157.982 180.114C157.522 180.66 157.168 181.367 157.052 182.132C156.939 182.885 157.071 183.713 157.473 184.461C157.867 185.208 158.516 185.852 159.306 186.184C160.102 186.524 161.031 186.57 161.836 186.35C162.653 186.139 163.312 185.668 163.791 185.047C164.269 184.428 164.547 183.686 164.63 182.982C164.712 182.273 164.595 181.615 164.352 181.043C163.855 179.885 162.965 179.174 162.324 178.791C161.67 178.393 161.221 178.269 161.237 178.112C161.242 177.99 161.74 177.83 162.621 178.049C163.477 178.261 164.758 178.9 165.643 180.378C166.077 181.108 166.362 182.069 166.329 183.09C166.299 184.108 165.985 185.191 165.327 186.152C164.682 187.113 163.618 187.94 162.385 188.285C161.161 188.649 159.774 188.612 158.501 188.074C155.906 186.95 154.684 184.107 155.192 181.786C155.694 179.469 157.488 177.954 159.159 177.571C160.841 177.175 162.19 177.661 162.936 178.129C163.699 178.618 163.936 179.076 163.85 179.169ZM180.384 179.169C180.286 179.287 179.879 179.059 179.142 178.858C178.42 178.661 177.287 178.511 176.116 178.96C175.54 179.177 174.979 179.565 174.516 180.114C174.056 180.66 173.702 181.367 173.586 182.132C173.473 182.885 173.605 183.713 174.007 184.461C174.401 185.208 175.05 185.852 175.84 186.184C176.636 186.524 177.565 186.57 178.37 186.35C179.187 186.139 179.846 185.668 180.325 185.047C180.803 184.428 181.081 183.686 181.164 182.982C181.247 182.273 181.129 181.615 180.886 181.043C180.389 179.885 179.499 179.174 178.858 178.791C178.204 178.393 177.755 178.269 177.771 178.112C177.777 177.99 178.274 177.83 179.155 178.049C180.011 178.261 181.292 178.9 182.177 180.378C182.611 181.108 182.896 182.069 182.864 183.09C182.833 184.108 182.519 185.191 181.861 186.152C181.216 187.113 180.152 187.94 178.919 188.285C177.695 188.649 176.308 188.612 175.035 188.074C172.44 186.95 171.218 184.107 171.726 181.786C172.228 179.469 174.022 177.954 175.693 177.571C177.375 177.175 178.724 177.661 179.47 178.129C180.233 178.618 180.47 179.076 180.384 179.169ZM155.123 197.576C154.968 198.18 154.303 198.49 153.746 198.35C153.034 198.149 151.285 198.149 150.666 198.691C150.326 198.969 150.62 199.341 151.858 199.681C153.003 200.022 154.721 200.625 154.675 202.142C154.597 203.21 153.576 203.906 152.647 204.247C152.601 204.789 152.539 205.346 152.492 205.903C152.431 206.537 152.013 207.002 151.378 207.017C150.805 207.048 150.202 206.491 150.264 205.903C150.295 205.469 150.326 205.036 150.372 204.603C150.14 204.618 149.892 204.618 149.66 204.618C149.025 204.603 148.561 204.107 148.546 203.504C148.515 202.885 149.072 202.359 149.66 202.374C149.985 202.374 153.189 202.452 151.022 201.74C149.614 201.275 147.849 200.687 147.912 199.016C147.958 197.886 148.917 197.159 149.893 196.679C149.784 195.951 149.784 195.286 149.923 194.574C150.032 193.955 150.759 193.661 151.301 193.785C151.858 193.909 152.198 194.481 152.105 195.007C152.059 195.27 151.997 195.673 152.044 196.044C152.044 196.06 152.044 196.06 152.044 196.06C152.817 195.967 153.591 196.029 154.334 196.199C154.938 196.338 155.247 197.004 155.123 197.576ZM161.577 202.668C161.143 203.071 160.71 203.473 160.261 203.844C160.973 203.798 161.67 203.736 162.382 203.659C163.357 203.535 163.79 204.928 163.155 205.562C162.939 205.779 162.675 205.841 162.382 205.887C161.561 205.996 160.741 206.058 159.921 206.104C159.132 206.135 158.218 206.259 157.507 205.856C157.011 205.593 156.732 205.052 156.748 204.51C156.764 203.782 157.336 203.241 157.955 202.776C158.977 202.018 160.339 201.012 161.02 199.805C161.701 198.551 160.757 197.793 159.534 198.381C159.147 198.567 158.791 198.846 158.652 199.139C158.342 199.681 157.646 199.82 157.12 199.542C156.578 199.248 156.454 198.536 156.717 197.994C158.188 195.224 163.589 195.1 163.496 199.062C163.465 200.517 162.567 201.693 161.577 202.668ZM171.404 202.993C171.342 204.216 170.46 205.02 169.392 205.439C168.386 205.841 167.179 205.795 166.142 205.562C165.523 205.423 165.229 204.758 165.368 204.185C165.492 203.581 166.157 203.272 166.73 203.396C167.272 203.55 168.541 203.612 168.989 203.117C169.284 202.761 168.928 202.266 168.185 202.204C167.566 202.111 166.931 202.204 166.281 201.956C165.678 201.724 165.198 201.291 165.043 200.641C164.919 200.13 165.027 199.588 165.089 199.062C165.152 198.551 165.213 198.056 165.291 197.545C165.383 196.972 165.708 196.462 166.405 196.431C167.504 196.431 168.603 196.431 169.779 196.307C170.398 196.245 170.878 196.864 170.893 197.421C170.909 197.7 170.769 198.01 170.568 198.211C170.352 198.427 170.073 198.505 169.779 198.536C168.974 198.629 168.169 198.675 167.38 198.675C167.349 199.077 167.272 199.464 167.225 199.898C168.046 199.898 168.881 199.99 169.671 200.346C170.676 200.795 171.466 201.879 171.404 202.993ZM207.486 68.6675C207.486 69.2346 186.308 69.6944 160.185 69.6944C134.061 69.6944 112.883 69.2346 112.883 68.6675C112.883 68.1005 134.061 67.6407 160.185 67.6407C186.308 67.6408 207.486 68.1005 207.486 68.6675ZM138.877 110.512C138.986 110.584 138.692 111.355 137.867 112.608C137.447 113.229 136.883 113.97 136.067 114.716C135.247 115.437 134.127 116.207 132.65 116.463C131.188 116.739 129.499 116.412 128.027 115.64C126.537 114.881 125.196 113.776 123.902 112.584C123.259 111.988 122.593 111.356 121.959 110.635C121.329 109.911 120.71 109.11 120.246 108.13C120.013 107.645 119.819 107.113 119.718 106.538C119.605 105.969 119.585 105.356 119.686 104.76C119.856 103.536 120.513 102.485 121.196 101.653C121.9 100.807 122.604 100.137 123.28 99.4344C123.965 98.7422 124.64 98.0602 125.304 97.39C126.636 96.0559 127.933 94.7816 129.175 93.5756C131.658 91.1635 133.92 89.0214 135.831 87.2352C139.655 83.6666 142.079 81.514 142.285 81.7124C142.488 81.9067 140.428 84.4226 136.859 88.2604C135.077 90.1804 132.92 92.4311 130.514 94.9128C129.31 96.1522 128.047 97.4532 126.737 98.8016C126.084 99.4761 125.419 100.163 124.744 100.859C124.076 101.561 123.357 102.262 122.785 102.954C122.213 103.654 121.802 104.358 121.704 105.077C121.638 105.438 121.645 105.805 121.715 106.175C121.773 106.545 121.9 106.916 122.069 107.28C122.752 108.752 124.003 110.026 125.205 111.211C126.414 112.398 127.604 113.441 128.832 114.14C130.054 114.849 131.304 115.15 132.439 115.027C133.577 114.918 134.552 114.385 135.343 113.825C136.13 113.246 136.749 112.628 137.243 112.11C138.222 111.058 138.751 110.427 138.877 110.512Z" fill="#0D0D0D"/>
<path d="M161.108 170.2C161.113 170.483 156.683 170.81 149.518 171.11C148.622 171.145 147.684 171.182 146.706 171.221C145.731 171.251 144.717 171.315 143.604 171.283C142.502 171.243 141.288 171.118 140.082 170.565C139.485 170.289 138.902 169.894 138.423 169.388C137.94 168.885 137.56 168.284 137.286 167.657C136.736 166.395 136.568 165.065 136.493 163.775C136.431 162.472 136.448 161.232 136.428 159.937C136.411 157.358 136.395 154.688 136.377 151.954C136.337 141.014 136.416 131.11 136.576 123.94C136.736 116.771 136.976 112.336 137.26 112.335C137.543 112.334 137.816 116.767 138.028 123.935C138.24 131.103 138.391 141.007 138.431 151.946C138.434 154.681 138.437 157.351 138.439 159.93C138.469 162.511 138.251 165.033 139.025 166.913C139.403 167.842 140.03 168.531 140.864 168.938C141.696 169.354 142.693 169.516 143.686 169.582C144.678 169.647 145.701 169.625 146.681 169.636C147.659 169.644 148.598 169.651 149.495 169.658C156.666 169.73 161.104 169.916 161.108 170.2ZM183.522 110.512C183.648 110.427 184.18 111.064 185.168 112.123C185.666 112.644 186.289 113.269 187.085 113.848C187.882 114.414 188.871 114.932 190.018 115.037C191.163 115.145 192.421 114.822 193.648 114.095C194.881 113.376 196.075 112.317 197.294 111.117C197.905 110.516 198.509 109.9 199.052 109.24C199.599 108.584 200.076 107.877 200.397 107.14C200.545 106.771 200.662 106.398 200.713 106.026C200.753 105.655 200.748 105.287 200.673 104.924C200.525 104.208 200.084 103.496 199.48 102.795C196.737 99.8824 194.125 97.1082 191.747 94.5843C189.37 92.0329 187.25 89.7156 185.491 87.7487C181.972 83.815 179.898 81.2834 180.102 81.0862C180.306 80.889 182.749 83.0638 186.535 86.739C188.427 88.5767 190.656 90.7895 193.107 93.2686C194.328 94.5131 195.61 95.8193 196.938 97.1734C197.599 97.8542 198.271 98.5469 198.953 99.25C199.63 99.9644 200.325 100.636 201.044 101.463C201.743 102.279 202.425 103.29 202.673 104.508C202.794 105.107 202.799 105.721 202.723 106.307C202.637 106.892 202.458 107.435 202.243 107.942C201.79 108.94 201.185 109.773 200.55 110.505C199.917 111.241 199.249 111.884 198.599 112.486C197.3 113.689 195.959 114.809 194.467 115.587C192.994 116.377 191.303 116.734 189.824 116.476C188.335 116.227 187.192 115.47 186.365 114.742C185.537 113.995 184.969 113.247 184.544 112.623C183.71 111.361 183.413 110.585 183.522 110.512Z" fill="#0D0D0D"/>
<path d="M161.106 170.2C161.111 169.916 165.548 169.73 172.719 169.658C173.616 169.651 174.555 169.644 175.533 169.636C176.513 169.625 177.536 169.647 178.528 169.582C179.521 169.516 180.518 169.354 181.349 168.938C182.184 168.53 182.811 167.842 183.189 166.913C183.963 165.033 183.745 162.511 183.775 159.93C183.777 157.351 183.78 154.681 183.783 151.946C183.823 141.007 183.974 131.103 184.186 123.935C184.398 116.767 184.671 112.334 184.955 112.334C185.238 112.335 185.479 116.77 185.638 123.94C185.798 131.11 185.877 141.014 185.837 151.954C185.82 154.688 185.803 157.358 185.787 159.937C185.766 161.232 185.783 162.472 185.721 163.775C185.646 165.065 185.478 166.394 184.929 167.657C184.654 168.284 184.274 168.884 183.791 169.388C183.312 169.894 182.729 170.288 182.132 170.564C180.927 171.118 179.712 171.243 178.611 171.283C177.497 171.314 176.483 171.25 175.508 171.221C174.53 171.182 173.592 171.145 172.696 171.11C165.531 170.81 161.102 170.483 161.106 170.2ZM180.101 81.0861C180.221 81.1288 180.127 81.8242 179.697 83.0096C179.272 84.1955 178.42 85.8402 177.003 87.6228C176.3 88.5181 175.423 89.4118 174.419 90.3038C173.385 91.1577 172.232 92.0298 170.897 92.7536C168.258 94.2378 164.971 95.2761 161.424 95.3608C157.876 95.3939 154.556 94.4651 151.869 93.0691C150.511 92.3899 149.33 91.5565 148.268 90.7373C147.234 89.879 146.328 89.0149 145.596 88.1434C144.121 86.4086 143.215 84.7929 142.751 83.6218C142.281 82.4514 142.165 81.7595 142.283 81.7128C142.427 81.6534 142.794 82.2381 143.457 83.246C144.113 84.2572 145.152 85.6585 146.658 87.1527C147.406 87.9045 148.302 88.6445 149.299 89.3816C150.323 90.08 151.44 90.7961 152.706 91.3715C155.21 92.5608 158.219 93.334 161.39 93.3072C164.56 93.2287 167.541 92.3563 170.005 91.0847C171.25 90.4677 172.343 89.7149 173.344 88.9831C174.315 88.2133 175.187 87.4441 175.91 86.6678C177.365 85.1246 178.356 83.6897 178.979 82.6572C179.608 81.6282 179.955 81.0317 180.101 81.0861Z" fill="#0D0D0D"/>
<path d="M176.674 87.3804C176.674 87.9475 169.923 88.4072 161.596 88.4072C153.268 88.4072 146.517 87.9475 146.517 87.3804C146.517 86.8134 153.268 86.3535 161.596 86.3535C169.923 86.3535 176.674 86.8134 176.674 87.3804ZM156.131 62.5128C156.014 62.5422 155.65 61.8445 155.58 60.443C155.555 59.7472 155.611 58.8735 155.925 57.8989C156.234 56.9312 156.803 55.8432 157.837 54.9528C158.875 54.0686 160.333 53.488 161.962 53.5326C162.772 53.5638 163.631 53.7645 164.426 54.2078C165.226 54.6491 165.909 55.3638 166.356 56.192C167.258 57.8799 167.292 59.8727 166.788 61.7102C166.272 63.5318 165.254 65.2115 164.013 66.6592C162.77 68.1147 161.39 69.3131 160.064 70.4137C158.736 71.491 157.455 72.5302 156.234 73.5203C153.787 75.4852 151.564 77.2329 149.679 78.6777C145.908 81.5673 143.485 83.2455 143.304 83.0274C143.123 82.8093 145.218 80.7361 148.751 77.5606C150.518 75.9728 152.644 74.1095 155.025 72.0645C156.218 71.048 157.47 69.981 158.768 68.8749C160.051 67.7771 161.339 66.6304 162.449 65.3274C163.561 64.0303 164.412 62.6188 164.855 61.1529C165.28 59.7261 165.245 58.1899 164.682 57.0749C164.402 56.517 164.001 56.0638 163.511 55.7642C163.018 55.4613 162.444 55.287 161.864 55.2324C160.696 55.1337 159.553 55.4966 158.742 56.0876C157.914 56.6894 157.35 57.5214 156.998 58.3068C156.636 59.0976 156.472 59.8559 156.379 60.4815C156.205 61.7414 156.288 62.484 156.131 62.5128Z" fill="#0D0D0D"/>
<path d="M179.32 82.6842C179.028 83.1706 174.245 80.8378 168.636 77.474C163.027 74.1099 158.716 70.9886 159.008 70.5022C159.299 70.0159 164.083 72.3487 169.692 75.7127C175.301 79.0766 179.612 82.1979 179.32 82.6842ZM171.778 108.627C172.213 109.037 166.272 115.862 159.759 124.873C153.212 133.86 148.566 141.625 148.041 141.338C147.564 141.095 151.457 132.784 158.097 123.667C164.705 114.527 171.399 108.248 171.778 108.627ZM172.936 120.224C173.385 120.571 170.165 125.479 165.745 131.187C161.325 136.894 157.379 141.24 156.93 140.892C156.482 140.545 159.702 135.637 164.122 129.929C168.541 124.222 172.488 119.877 172.936 120.224Z" fill="#0D0D0D"/>
<path d="M158.626 185.307C158.538 185.376 158.139 185.094 157.736 184.416C157.54 184.077 157.35 183.633 157.266 183.098C157.177 182.565 157.218 181.939 157.451 181.34C157.685 180.741 158.098 180.233 158.598 179.938C159.095 179.641 159.615 179.56 160.033 179.594C160.454 179.63 160.772 179.776 160.953 179.917C161.137 180.059 161.194 180.183 161.162 180.229C161.088 180.339 160.678 180.126 160.042 180.216C159.728 180.26 159.362 180.381 159.042 180.616C158.724 180.847 158.445 181.216 158.271 181.66C157.91 182.566 158.091 183.508 158.303 184.16C158.519 184.818 158.73 185.231 158.626 185.307Z" fill="white"/>
<g opacity="0.3">
<path d="M170.007 124.759C170.007 124.791 170.051 124.791 170.051 124.759C170.051 124.727 170.007 124.727 170.007 124.759ZM168.746 130.92C168.746 131.12 169.021 131.161 169.021 130.958C169.021 130.758 168.746 130.718 168.746 130.92ZM170.428 123.142C170.428 123.398 170.776 123.378 170.776 123.123C170.776 122.867 170.428 122.888 170.428 123.142ZM170.071 122.302C169.772 122.242 169.473 122.183 169.175 122.124C169.028 122.095 168.882 122.062 168.735 122.036C168.652 122.022 168.568 122.017 168.484 122.009C168.41 122.001 168.345 121.995 168.273 122.024C168.187 122.059 168.156 122.194 168.231 122.263C168.308 122.333 168.394 122.35 168.488 122.377C168.563 122.398 168.637 122.419 168.713 122.433C168.853 122.458 168.992 122.483 169.132 122.509C169.417 122.56 169.702 122.611 169.988 122.663C170.075 122.678 170.164 122.634 170.188 122.53C170.209 122.438 170.159 122.319 170.071 122.302ZM164.538 124.432C164.538 124.507 164.64 124.51 164.64 124.435C164.64 124.36 164.538 124.357 164.538 124.432ZM163.869 121.128C163.72 121.627 163.571 122.125 163.422 122.624C163.28 123.102 163.132 123.584 163.042 124.079C163.016 124.225 163.203 124.311 163.262 124.17C163.459 123.696 163.599 123.191 163.743 122.693C163.883 122.207 164.023 121.72 164.163 121.234C164.225 121.02 163.933 120.915 163.869 121.128ZM161.768 127.977C161.768 128.332 162.257 128.407 162.257 128.046C162.256 127.691 161.768 127.617 161.768 127.977ZM165.504 126.727C165.504 127.065 165.965 127.031 165.965 126.694C165.965 126.357 165.504 126.39 165.504 126.727ZM166.212 126.951C166.357 126.996 166.502 127.042 166.647 127.088C166.695 127.103 166.742 127.118 166.79 127.133C166.814 127.141 166.837 127.148 166.861 127.156C166.933 127.179 166.998 127.169 167.071 127.16C167.048 127.162 167.026 127.164 167.003 127.167C167.088 127.16 167.173 127.16 167.252 127.122C167.356 127.074 167.414 126.929 167.343 126.816C167.31 126.762 167.304 126.751 167.258 126.708C167.232 126.683 167.206 126.658 167.178 126.635C167.146 126.607 167.113 126.576 167.078 126.554C167.04 126.53 166.981 126.517 166.938 126.501C166.909 126.491 166.881 126.48 166.853 126.469C166.716 126.418 166.58 126.367 166.443 126.316C166.365 126.286 166.285 126.28 166.208 126.318C166.141 126.35 166.073 126.423 166.048 126.502C166.021 126.587 166.014 126.686 166.049 126.769C166.081 126.844 166.138 126.929 166.212 126.951ZM167.217 129.987C167.217 130.332 167.687 130.284 167.687 129.94C167.687 129.595 167.217 129.643 167.217 129.987ZM164.998 131.459C164.92 131.591 164.841 131.722 164.765 131.854C164.761 131.865 164.758 131.877 164.755 131.888C164.751 131.906 164.751 131.924 164.755 131.941C164.76 131.971 164.773 132.002 164.795 132.021C164.837 132.059 164.897 132.067 164.944 132.031C164.986 131.999 165.028 131.966 165.07 131.933C165.059 131.942 165.047 131.95 165.036 131.958C165.121 131.895 165.206 131.831 165.289 131.765C165.333 131.731 165.355 131.667 165.361 131.609C165.364 131.57 165.358 131.532 165.344 131.495C165.333 131.467 165.318 131.443 165.297 131.425C165.278 131.402 165.256 131.385 165.229 131.376C165.204 131.364 165.179 131.361 165.153 131.364C165.127 131.363 165.102 131.37 165.079 131.383C165.046 131.4 165.019 131.425 164.998 131.459Z" fill="#0D0D0D"/>
<path d="M165.105 131.459C164.872 131.623 164.64 131.786 164.407 131.95C164.295 132.029 164.183 132.109 164.071 132.188C164.015 132.227 163.959 132.266 163.903 132.306C163.818 132.367 163.752 132.44 163.684 132.523C163.564 132.671 163.703 132.901 163.867 132.846C163.951 132.818 164.035 132.788 164.11 132.736C164.166 132.696 164.222 132.656 164.278 132.617C164.395 132.535 164.511 132.453 164.627 132.371C164.855 132.21 165.084 132.049 165.312 131.888C165.411 131.818 165.455 131.676 165.397 131.556C165.344 131.444 165.204 131.389 165.105 131.459ZM163.103 130.236C162.768 130.652 162.432 131.068 162.097 131.484C161.925 131.697 161.748 131.901 161.567 132.103C161.472 132.209 161.367 132.312 161.281 132.428C161.187 132.554 161.074 132.702 161.033 132.863C161.008 132.961 161.11 133.064 161.192 133.024C161.317 132.963 161.407 132.84 161.502 132.732C161.599 132.622 161.675 132.487 161.758 132.363C161.909 132.138 162.057 131.913 162.217 131.696C162.548 131.244 162.881 130.793 163.213 130.341C163.273 130.26 163.165 130.159 163.103 130.236ZM159.809 134.823C159.809 135.114 160.208 135.155 160.208 134.862C160.208 134.571 159.809 134.53 159.809 134.823ZM158.945 130.275C158.945 130.573 159.354 130.604 159.354 130.303C159.354 130.004 158.945 129.973 158.945 130.275ZM155.731 130.88C155.717 130.568 155.699 130.256 155.681 129.945C155.677 129.879 155.621 129.793 155.574 129.76C155.524 129.724 155.47 129.706 155.411 129.711C155.284 129.72 155.177 129.835 155.169 129.982C155.172 129.929 155.168 129.997 155.168 130.003C155.167 130.02 155.166 130.037 155.165 130.054C155.163 130.092 155.161 130.129 155.159 130.167C155.156 130.239 155.152 130.312 155.149 130.384C155.141 130.558 155.13 130.731 155.121 130.905C155.109 131.115 155.249 131.293 155.438 131.286C155.522 131.282 155.591 131.247 155.649 131.177C155.722 131.09 155.736 130.996 155.731 130.88ZM154.216 128.091C154.172 128.104 154.128 128.119 154.084 128.133C154.1 128.128 154.116 128.122 154.132 128.117C154.076 128.133 154.02 128.149 153.964 128.166C153.93 128.176 153.902 128.194 153.879 128.225C153.858 128.254 153.842 128.29 153.842 128.328C153.842 128.359 153.847 128.388 153.858 128.416C153.873 128.454 153.913 128.493 153.949 128.504C154.043 128.532 154.138 128.56 154.232 128.587C154.305 128.608 154.396 128.579 154.446 128.513C154.486 128.461 154.51 128.397 154.508 128.327C154.505 128.262 154.479 128.195 154.438 128.151C154.407 128.119 154.372 128.097 154.332 128.086C154.293 128.077 154.254 128.078 154.216 128.091Z" fill="#0D0D0D"/>
<path d="M154.323 128.309C154.225 128.094 154.127 127.88 154.029 127.666C154.004 127.613 153.932 127.653 153.955 127.708C154.048 127.927 154.141 128.147 154.234 128.366C154.262 128.433 154.354 128.376 154.323 128.309ZM154.938 124.415C154.938 124.705 155.337 124.747 155.337 124.453C155.337 124.163 154.938 124.121 154.938 124.415ZM154.462 120.654C154.215 120.806 153.967 120.959 153.719 121.111C153.602 121.182 153.486 121.254 153.369 121.326C153.308 121.363 153.248 121.4 153.187 121.438C153.161 121.454 153.135 121.47 153.109 121.486C153.042 121.528 153.007 121.569 152.961 121.642C152.876 121.776 152.966 122.02 153.124 122.006C153.205 122 153.261 121.99 153.331 121.942C153.358 121.923 153.384 121.902 153.41 121.883C153.466 121.84 153.523 121.798 153.579 121.756C153.707 121.66 153.835 121.564 153.964 121.469C154.185 121.306 154.405 121.142 154.625 120.978C154.8 120.847 154.65 120.538 154.462 120.654ZM151.716 123.458C151.716 123.855 152.26 123.857 152.26 123.459C152.26 123.061 151.716 123.059 151.716 123.458ZM150.475 128.024C150.475 128.143 150.638 128.119 150.638 128.001C150.638 127.881 150.475 127.905 150.475 128.024ZM151.496 131.642C151.511 131.685 151.521 131.73 151.534 131.773C151.543 131.802 151.552 131.83 151.562 131.859C151.557 131.844 151.552 131.83 151.548 131.815C151.561 131.861 151.574 131.908 151.588 131.954C151.605 132.009 151.652 132.054 151.706 132.049C151.727 132.047 151.746 132.04 151.765 132.029C151.792 132.011 151.807 131.978 151.817 131.945C151.817 131.942 151.818 131.94 151.819 131.938C151.815 131.949 151.812 131.96 151.808 131.971C151.83 131.903 151.851 131.835 151.87 131.766C151.865 131.782 151.86 131.798 151.854 131.814C151.871 131.763 151.888 131.711 151.903 131.66C151.925 131.584 151.907 131.487 151.857 131.429C151.817 131.384 151.766 131.353 151.709 131.351C151.656 131.349 151.599 131.373 151.56 131.413C151.531 131.443 151.511 131.479 151.5 131.52C151.489 131.561 151.488 131.601 151.496 131.642Z" fill="#0D0D0D"/>
<path d="M151.503 131.952C151.972 132.339 152.44 132.726 152.909 133.113C153.136 133.3 153.363 133.488 153.59 133.675C153.736 133.796 153.889 133.899 154.042 134.008C154.149 134.083 154.267 134.125 154.38 134.187C154.534 134.27 154.709 134.064 154.577 133.907C154.51 133.828 154.457 133.736 154.39 133.657C154.335 133.591 154.266 133.534 154.205 133.475C154.099 133.372 153.992 133.272 153.88 133.178C153.644 132.981 153.409 132.784 153.173 132.586C152.71 132.198 152.246 131.81 151.782 131.422C151.664 131.323 151.479 131.395 151.409 131.528C151.328 131.682 151.384 131.853 151.503 131.952ZM155.909 134.717C155.809 134.838 155.708 134.959 155.607 135.08C155.566 135.129 155.526 135.178 155.485 135.227C155.431 135.292 155.387 135.362 155.34 135.432C155.309 135.478 155.327 135.55 155.363 135.583C155.406 135.622 155.457 135.614 155.498 135.578C155.557 135.527 155.614 135.478 155.668 135.42C155.711 135.374 155.755 135.327 155.799 135.28C155.896 135.176 155.994 135.073 156.091 134.969C156.146 134.911 156.165 134.808 156.111 134.739C156.086 134.708 156.052 134.683 156.014 134.68C155.979 134.678 155.934 134.686 155.909 134.717Z" fill="#0D0D0D"/>
<path d="M155.801 135.101C156.038 135.365 156.276 135.63 156.513 135.895C156.628 136.023 156.739 136.157 156.859 136.28C156.917 136.339 156.98 136.393 157.04 136.449C157.133 136.536 157.212 136.616 157.32 136.678C157.471 136.764 157.625 136.576 157.545 136.409C157.453 136.219 157.314 136.062 157.187 135.9C157.074 135.755 156.943 135.624 156.821 135.488C156.584 135.223 156.346 134.959 156.109 134.694C156.02 134.596 155.851 134.613 155.776 134.722C155.692 134.843 155.706 134.995 155.801 135.101ZM159.219 137.202C159.245 137.273 159.267 137.347 159.294 137.419C159.288 137.404 159.283 137.389 159.277 137.374C159.29 137.414 159.303 137.454 159.317 137.494C159.336 137.549 159.38 137.587 159.432 137.589C159.481 137.592 159.535 137.56 159.554 137.505C159.569 137.463 159.584 137.42 159.597 137.377C159.592 137.392 159.586 137.407 159.581 137.422C159.611 137.339 159.64 137.256 159.664 137.171C159.672 137.126 159.669 137.081 159.657 137.037C159.644 136.994 159.623 136.956 159.593 136.925C159.545 136.88 159.487 136.853 159.423 136.858C159.365 136.862 159.305 136.895 159.266 136.944C159.238 136.98 159.22 137.021 159.211 137.068C159.204 137.113 159.206 137.158 159.219 137.202ZM159.832 137.889C160.012 138.277 160.366 138.534 160.742 138.608C161.112 138.681 161.624 138.542 161.825 138.151C161.899 138.008 161.765 137.816 161.626 137.901C161.485 137.988 161.369 138.065 161.233 138.097C161.216 138.101 161.199 138.104 161.182 138.108C161.181 138.108 161.116 138.116 161.152 138.113C161.117 138.116 161.082 138.117 161.046 138.117C160.975 138.117 160.905 138.108 160.834 138.096C160.7 138.073 160.582 138.026 160.466 137.944C160.449 137.933 160.433 137.92 160.417 137.908C160.444 137.929 160.427 137.916 160.41 137.901C160.383 137.875 160.356 137.848 160.33 137.819C160.283 137.764 160.246 137.705 160.213 137.637C160.156 137.519 160.013 137.479 159.912 137.546C159.805 137.617 159.776 137.769 159.832 137.889ZM164.254 137.769C164.254 137.844 164.357 137.847 164.357 137.771C164.357 137.696 164.254 137.694 164.254 137.769ZM168.341 134.139C168.365 134.133 168.389 134.127 168.413 134.12C168.393 134.125 168.374 134.131 168.354 134.136C168.442 134.116 168.531 134.098 168.618 134.076C168.643 134.074 168.665 134.066 168.686 134.051C168.709 134.04 168.728 134.023 168.743 134C168.752 133.984 168.76 133.968 168.769 133.952C168.78 133.927 168.785 133.901 168.783 133.873C168.784 133.829 168.776 133.781 168.751 133.746C168.72 133.7 168.68 133.671 168.629 133.66C168.598 133.653 168.567 133.646 168.536 133.64C168.553 133.644 168.57 133.648 168.587 133.652C168.508 133.632 168.429 133.613 168.349 133.596C168.287 133.582 168.224 133.606 168.173 133.645C168.137 133.674 168.111 133.711 168.093 133.756C168.079 133.79 168.072 133.825 168.075 133.862C168.071 133.897 168.076 133.932 168.089 133.965C168.099 134 168.116 134.029 168.139 134.053C168.16 134.082 168.185 134.103 168.216 134.117C168.256 134.137 168.298 134.144 168.341 134.139ZM169.863 130.944C169.863 131.192 170.201 131.182 170.201 130.935C170.201 130.687 169.863 130.696 169.863 130.944ZM169.037 134.77C169.022 134.815 169.007 134.86 168.993 134.905C168.998 134.89 169.003 134.874 169.008 134.858C168.941 135.056 168.873 135.254 168.807 135.453C168.787 135.514 168.831 135.584 168.879 135.605C168.935 135.629 168.99 135.601 169.021 135.545C169.004 135.575 169.028 135.534 169.031 135.528C169.037 135.517 169.044 135.505 169.05 135.494C169.064 135.468 169.079 135.443 169.094 135.417C169.127 135.359 169.161 135.3 169.194 135.242C169.251 135.143 169.306 135.044 169.362 134.945C169.384 134.905 169.382 134.834 169.369 134.792C169.355 134.744 169.318 134.693 169.276 134.673C169.193 134.633 169.072 134.663 169.037 134.77ZM167.299 138.244C167.264 138.298 167.226 138.351 167.19 138.404C167.159 138.451 167.13 138.496 167.103 138.545C167.111 138.53 167.12 138.514 167.129 138.498C167.099 138.55 167.068 138.601 167.039 138.652C167.02 138.684 167.014 138.722 167.016 138.76C167.019 138.797 167.031 138.836 167.055 138.863C167.074 138.885 167.097 138.902 167.122 138.913C167.154 138.926 167.209 138.923 167.238 138.902C167.267 138.881 167.296 138.86 167.324 138.839C167.366 138.808 167.406 138.776 167.446 138.742C167.501 138.694 167.556 138.646 167.611 138.598C167.634 138.574 167.649 138.546 167.658 138.513C167.671 138.483 167.677 138.451 167.676 138.417C167.676 138.384 167.67 138.353 167.657 138.324C167.648 138.293 167.632 138.266 167.611 138.243C167.568 138.199 167.512 138.166 167.452 138.17C167.433 138.173 167.415 138.176 167.396 138.179C167.359 138.191 167.326 138.212 167.299 138.244ZM173.975 129.907C173.505 130.452 173.034 130.997 172.564 131.542C172.508 131.607 172.598 131.7 172.654 131.637C173.133 131.104 173.612 130.57 174.091 130.037C174.175 129.944 174.059 129.81 173.975 129.907ZM173.115 126.064C173.115 126.162 173.248 126.154 173.248 126.056C173.248 125.959 173.115 125.967 173.115 126.064ZM173.721 121.554C173.637 121.566 173.553 121.579 173.469 121.591C173.487 121.589 173.506 121.586 173.524 121.583C173.448 121.593 173.373 121.603 173.297 121.613C173.244 121.62 173.195 121.637 173.145 121.656C173.08 121.681 173.021 121.743 173.023 121.827C173.024 121.909 173.068 121.981 173.138 122.005C173.181 122.02 173.227 122.039 173.272 122.047C173.299 122.052 173.327 122.055 173.354 122.058C173.407 122.065 173.46 122.072 173.513 122.079C173.495 122.076 173.476 122.073 173.457 122.07C173.546 122.084 173.635 122.097 173.724 122.109C173.871 122.13 174 121.996 173.999 121.83C173.998 121.662 173.869 121.534 173.721 121.554ZM172.675 127.69C172.675 128.013 173.116 128.006 173.116 127.683C173.116 127.36 172.675 127.367 172.675 127.69Z" fill="#0D0D0D"/>
<path d="M172.871 128.012C172.871 128.044 172.915 128.044 172.915 128.012C172.915 127.98 172.871 127.98 172.871 128.012ZM174.713 131.139C174.541 131.591 174.361 132.042 174.214 132.505C174.16 132.675 174.35 132.78 174.436 132.627C174.662 132.223 174.87 131.805 175.082 131.391C175.139 131.28 175.112 131.118 175.008 131.055C174.917 130.998 174.761 131.013 174.713 131.139ZM173.01 137.124C173.01 137.372 173.349 137.363 173.349 137.115C173.349 136.867 173.01 136.877 173.01 137.124ZM170.086 140.389C170.086 140.727 170.547 140.693 170.547 140.356C170.547 140.018 170.086 140.052 170.086 140.389ZM167.018 140.8C166.959 140.847 166.901 140.896 166.844 140.944C166.859 140.932 166.874 140.919 166.889 140.907C166.76 141.01 166.63 141.11 166.509 141.224C166.463 141.267 166.44 141.345 166.466 141.409C166.49 141.468 166.552 141.52 166.612 141.504C166.738 141.471 166.861 141.427 166.983 141.381C166.967 141.386 166.951 141.392 166.935 141.398C167.044 141.36 167.153 141.322 167.261 141.281C167.322 141.258 167.368 141.194 167.394 141.13C167.427 141.051 167.415 140.958 167.379 140.885C167.304 140.737 167.139 140.703 167.018 140.8ZM163.823 143.601C163.823 143.883 164.211 143.935 164.211 143.649C164.211 143.367 163.823 143.316 163.823 143.601ZM163.18 143.156C162.789 143.097 162.399 143.038 162.008 142.979C161.812 142.95 161.617 142.92 161.421 142.891C161.237 142.863 161.007 142.808 160.828 142.88C160.761 142.907 160.761 143.021 160.815 143.061C160.972 143.178 161.209 143.187 161.391 143.212C161.585 143.237 161.779 143.263 161.973 143.289C162.36 143.341 162.748 143.392 163.136 143.444C163.299 143.465 163.345 143.181 163.18 143.156ZM158.412 144.378C158.281 144.5 158.151 144.623 158.02 144.744C157.885 144.87 157.743 144.99 157.626 145.136C157.585 145.187 157.595 145.289 157.634 145.337C157.68 145.393 157.745 145.409 157.807 145.381C157.747 145.408 157.855 145.36 157.871 145.352C157.889 145.344 157.905 145.335 157.922 145.325C157.957 145.303 157.992 145.282 158.027 145.261C158.108 145.211 158.189 145.164 158.269 145.116C158.408 145.033 158.547 144.947 158.687 144.864C158.822 144.784 158.876 144.595 158.791 144.445C158.709 144.299 158.531 144.266 158.412 144.378ZM151.562 141.658C151.562 141.866 151.848 141.9 151.848 141.689C151.848 141.481 151.562 141.447 151.562 141.658ZM149.078 139.503C148.703 139.61 148.329 139.718 147.955 139.825C147.749 139.884 147.833 140.244 148.038 140.186C148.413 140.078 148.787 139.971 149.161 139.864C149.366 139.805 149.283 139.444 149.078 139.503ZM147.902 136.092C147.9 136.076 147.898 136.061 147.897 136.045C147.896 136.038 147.895 136.031 147.895 136.024C147.893 136.01 147.89 136.004 147.886 135.988C147.883 135.967 147.875 135.948 147.863 135.931C147.854 135.916 147.846 135.901 147.839 135.885C147.845 135.9 147.85 135.915 147.855 135.93C147.839 135.88 147.825 135.829 147.809 135.779C147.792 135.725 147.746 135.68 147.692 135.684C147.671 135.686 147.651 135.693 147.633 135.705C147.605 135.723 147.591 135.756 147.581 135.789C147.57 135.827 147.557 135.864 147.546 135.901C147.551 135.887 147.557 135.873 147.562 135.859C147.548 135.89 147.534 135.922 147.519 135.953C147.528 135.936 147.536 135.919 147.545 135.903C147.536 135.916 147.531 135.928 147.523 135.943C147.509 135.973 147.508 135.973 147.502 136.006C147.498 136.027 147.495 136.047 147.493 136.067C147.491 136.09 147.488 136.112 147.486 136.135C147.48 136.196 147.507 136.259 147.541 136.304C147.567 136.337 147.598 136.359 147.635 136.372C147.662 136.383 147.689 136.385 147.716 136.38C147.743 136.379 147.769 136.371 147.793 136.356C147.819 136.342 147.84 136.322 147.856 136.296C147.876 136.273 147.89 136.245 147.898 136.213C147.908 136.173 147.91 136.132 147.902 136.092ZM143.396 137.152C143.396 137.579 143.979 137.513 143.979 137.087C143.979 136.661 143.396 136.727 143.396 137.152ZM155.206 140.376C155.206 140.698 155.648 140.692 155.648 140.369C155.648 140.046 155.206 140.052 155.206 140.376ZM153.182 144.446C153.156 144.504 153.132 144.563 153.107 144.621C153.117 144.597 153.128 144.573 153.138 144.549C153.004 144.849 152.865 145.147 152.739 145.451C152.707 145.531 152.707 145.616 152.771 145.677C152.824 145.728 152.92 145.739 152.972 145.674C153.174 145.42 153.371 145.158 153.564 144.895C153.549 144.914 153.534 144.933 153.519 144.952C153.553 144.909 153.587 144.865 153.621 144.821C153.73 144.68 153.725 144.469 153.588 144.352C153.463 144.245 153.256 144.275 153.182 144.446ZM157.15 141.038C157.15 141.451 157.713 141.42 157.713 141.008C157.713 140.595 157.15 140.626 157.15 141.038ZM153.262 146.167C153.189 146.507 153.098 146.846 153.05 147.193C153.027 147.359 153.227 147.426 153.293 147.279C153.432 146.968 153.538 146.637 153.652 146.313C153.692 146.2 153.624 146.052 153.522 146.019C153.422 145.986 153.29 146.04 153.262 146.167ZM159.154 146.568C159.154 146.981 159.718 146.95 159.718 146.537C159.718 146.125 159.154 146.156 159.154 146.568ZM160.406 146.842C160.79 147.118 161.264 147.259 161.718 147.194C161.958 147.16 162.192 147.071 162.408 146.95C162.657 146.811 162.845 146.568 162.994 146.306C163.098 146.124 162.882 145.964 162.748 146.082C162.574 146.236 162.345 146.33 162.137 146.406C161.963 146.469 161.789 146.496 161.607 146.498C161.528 146.499 161.45 146.498 161.372 146.49C161.33 146.485 161.288 146.479 161.247 146.471C161.226 146.467 161.206 146.463 161.185 146.458C161.216 146.466 161.213 146.464 161.176 146.454C161.095 146.427 161.016 146.401 160.938 146.364C160.928 146.359 160.824 146.302 160.869 146.329C160.832 146.307 160.796 146.282 160.761 146.256C160.618 146.154 160.424 146.185 160.325 146.348C160.232 146.502 160.262 146.74 160.406 146.842ZM167.679 144.315C167.679 144.824 168.373 144.743 168.373 144.237C168.373 143.727 167.679 143.808 167.679 144.315ZM171.44 141.348C171.44 141.38 171.484 141.38 171.484 141.348C171.484 141.316 171.44 141.316 171.44 141.348ZM175.813 132.24C175.81 132.133 175.806 132.025 175.803 131.918C175.802 131.89 175.785 131.863 175.759 131.863C175.734 131.863 175.711 131.884 175.711 131.913C175.707 132.022 175.704 132.131 175.7 132.241C175.699 132.274 175.727 132.306 175.757 132.305C175.786 132.303 175.814 132.276 175.813 132.24ZM175.864 127.688C175.86 127.592 175.855 127.495 175.85 127.399C175.851 127.408 175.851 127.418 175.851 127.427C175.85 127.399 175.849 127.371 175.848 127.343C175.847 127.319 175.826 127.287 175.809 127.275C175.791 127.263 175.773 127.256 175.753 127.257C175.708 127.26 175.667 127.3 175.664 127.352C175.659 127.463 175.654 127.574 175.649 127.685C175.646 127.749 175.698 127.811 175.755 127.809C175.783 127.808 175.813 127.798 175.833 127.773C175.851 127.751 175.866 127.72 175.864 127.688ZM174.698 121.487C174.698 121.778 175.097 121.819 175.097 121.526C175.097 121.235 174.698 121.194 174.698 121.487ZM172.178 116.032C171.849 116.266 171.52 116.499 171.191 116.732C171.033 116.844 170.889 116.975 170.738 117.098C170.574 117.23 170.408 117.355 170.242 117.484C170.126 117.574 170.226 117.811 170.36 117.74C170.537 117.647 170.713 117.55 170.89 117.458C171.076 117.362 171.265 117.281 171.446 117.173C171.784 116.971 172.125 116.774 172.463 116.572C172.596 116.493 172.632 116.28 172.558 116.14C172.482 115.996 172.305 115.942 172.178 116.032ZM165.606 120.397C165.32 120.783 165.034 121.169 164.748 121.554C164.607 121.745 164.466 121.935 164.325 122.125C164.18 122.321 164.012 122.507 163.924 122.746C163.887 122.846 163.97 122.986 164.07 122.914C164.169 122.843 164.24 122.779 164.317 122.679C164.388 122.587 164.458 122.495 164.529 122.403C164.678 122.208 164.828 122.013 164.978 121.818C165.274 121.433 165.569 121.048 165.864 120.663C166.012 120.471 165.751 120.202 165.606 120.397Z" fill="#0D0D0D"/>
<path d="M165.999 120.443C165.856 119.902 165.712 119.362 165.568 118.822C165.497 118.557 165.427 118.292 165.356 118.027C165.279 117.736 165.22 117.319 165.002 117.131C164.889 117.033 164.718 117.133 164.684 117.273C164.726 117.1 164.664 117.423 164.664 117.444C164.663 117.516 164.681 117.582 164.698 117.651C164.733 117.799 164.768 117.947 164.806 118.094C164.878 118.371 164.951 118.648 165.024 118.925C165.172 119.489 165.319 120.054 165.467 120.619C165.569 121.007 166.103 120.832 165.999 120.443ZM161.289 121.048C161.098 121.374 160.905 121.697 160.716 122.024C160.523 122.358 160.366 122.723 160.194 123.071C160.133 123.194 160.293 123.338 160.375 123.221C160.484 123.064 160.594 122.905 160.703 122.747C160.817 122.579 160.94 122.418 161.043 122.242C161.225 121.932 161.406 121.623 161.588 121.314C161.645 121.217 161.64 121.087 161.555 121.011C161.479 120.943 161.346 120.951 161.289 121.048ZM160.042 124.113C160.041 124.001 160.039 123.89 160.037 123.778C160.036 123.739 159.977 123.74 159.976 123.779C159.974 123.888 159.973 123.996 159.971 124.105C159.97 124.127 159.983 124.147 160.003 124.149C160.021 124.151 160.043 124.135 160.042 124.113ZM161.239 118.458C161.141 118.755 161.043 119.052 160.945 119.35C160.9 119.488 160.854 119.626 160.809 119.765C160.776 119.866 160.753 119.97 160.728 120.074C160.702 120.175 160.681 120.278 160.767 120.352C160.863 120.435 160.962 120.377 161.017 120.275C161.053 120.207 161.085 120.134 161.118 120.063C161.182 119.924 161.232 119.777 161.286 119.633C161.403 119.322 161.52 119.011 161.638 118.7C161.684 118.577 161.661 118.416 161.545 118.353C161.446 118.299 161.284 118.323 161.239 118.458ZM158.626 128.035C158.626 128.38 159.097 128.332 159.097 127.989C159.097 127.644 158.626 127.692 158.626 128.035ZM158.418 128.939C158.329 129.193 158.24 129.447 158.151 129.701C158.047 129.997 157.922 130.299 157.888 130.618C157.869 130.795 158.076 130.85 158.161 130.724C158.327 130.475 158.421 130.165 158.526 129.879C158.624 129.612 158.723 129.345 158.821 129.078C158.864 128.958 158.782 128.814 158.681 128.779C158.564 128.739 158.46 128.818 158.418 128.939ZM157.482 121.17C157.29 121.331 157.1 121.494 156.91 121.657C156.928 121.641 156.947 121.626 156.965 121.61C156.861 121.698 156.75 121.773 156.675 121.895C156.643 121.946 156.621 121.991 156.618 122.055C156.615 122.11 156.624 122.17 156.653 122.215C156.715 122.313 156.819 122.355 156.921 122.321C156.863 122.34 156.955 122.309 156.965 122.306C157.002 122.293 157.039 122.28 157.073 122.257C157.107 122.234 157.14 122.212 157.174 122.189C157.238 122.146 157.303 122.102 157.367 122.058C157.499 121.968 157.631 121.877 157.763 121.786C157.741 121.801 157.719 121.816 157.697 121.83C157.733 121.806 157.769 121.782 157.805 121.758C157.878 121.709 157.93 121.654 157.964 121.566C158.003 121.464 157.986 121.346 157.936 121.256C157.835 121.074 157.63 121.045 157.482 121.17ZM158.325 113.346C158.325 113.71 158.825 113.771 158.825 113.403C158.825 113.039 158.325 112.978 158.325 113.346ZM159.526 110.423C159.526 110.705 159.914 110.757 159.914 110.471C159.914 110.189 159.526 110.137 159.526 110.423ZM163.1 106.544C163.1 106.626 163.213 106.626 163.213 106.544C163.213 106.461 163.1 106.461 163.1 106.544ZM163.543 106.628C163.637 106.922 163.892 107.071 164.155 107.084C164.261 107.089 164.389 107.066 164.481 107C164.627 106.894 164.721 106.744 164.748 106.548C164.758 106.473 164.695 106.387 164.633 106.37C164.564 106.351 164.489 106.38 164.452 106.451C164.448 106.459 164.444 106.466 164.44 106.474C164.435 106.483 164.425 106.488 164.436 106.48C164.452 106.469 164.434 106.482 164.429 106.488C164.425 106.493 164.421 106.498 164.416 106.503C164.412 106.508 164.389 106.533 164.414 106.506C164.439 106.48 164.416 106.503 164.411 106.507C164.403 106.513 164.396 106.519 164.388 106.525C164.381 106.53 164.356 106.548 164.386 106.527C164.417 106.506 164.376 106.531 164.366 106.536C164.357 106.54 164.31 106.56 164.347 106.545C164.384 106.53 164.337 106.546 164.326 106.549C164.311 106.552 164.295 106.555 164.28 106.56C164.267 106.563 164.255 106.567 164.242 106.57C164.237 106.571 164.231 106.572 164.226 106.573C164.201 106.579 164.285 106.565 164.252 106.568C164.226 106.57 164.201 106.573 164.174 106.572C164.167 106.571 164.16 106.57 164.153 106.571C164.131 106.571 164.216 106.58 164.181 106.573C164.168 106.571 164.155 106.569 164.143 106.566C164.116 106.56 164.09 106.552 164.064 106.542C164.083 106.549 164.103 106.557 164.122 106.565C164.088 106.55 164.055 106.532 164.024 106.51C164.042 106.523 164.059 106.536 164.076 106.549C164.06 106.537 164.045 106.523 164.03 106.509C164.022 106.501 164.015 106.491 164.007 106.483C164.064 106.543 164.037 106.523 164.023 106.503C164.018 106.494 164.012 106.485 164.007 106.476C164.001 106.465 163.981 106.424 164.004 106.473C164.027 106.522 164.008 106.48 164.004 106.469C164 106.456 163.996 106.444 163.993 106.431C163.957 106.293 163.795 106.218 163.681 106.274C163.559 106.334 163.497 106.484 163.543 106.628ZM170.391 106.21C170.391 106.517 170.811 106.536 170.811 106.227C170.811 105.92 170.391 105.901 170.391 106.21ZM171.128 107.206C171.229 107.746 171.329 108.286 171.429 108.826C171.438 108.869 171.498 108.86 171.49 108.815C171.4 108.271 171.309 107.727 171.219 107.183C171.208 107.116 171.116 107.14 171.128 107.206ZM172.847 110.366C172.468 110.583 172.089 110.801 171.711 111.019C171.657 111.049 171.7 111.14 171.754 111.112C172.138 110.908 172.521 110.704 172.905 110.501C172.992 110.455 172.934 110.316 172.847 110.366ZM166.315 112.032C166.307 111.982 166.298 111.932 166.29 111.882C166.295 111.91 166.299 111.937 166.304 111.965C166.283 111.817 166.262 111.669 166.238 111.521C166.242 111.543 166.245 111.565 166.249 111.587C166.243 111.544 166.238 111.501 166.228 111.46C166.223 111.435 166.21 111.398 166.205 111.382C166.195 111.366 166.185 111.349 166.175 111.332C166.161 111.318 166.147 111.304 166.133 111.29C166.095 111.262 166.05 111.25 166.005 111.254C165.923 111.261 165.848 111.323 165.823 111.414C165.837 111.364 165.84 111.354 165.832 111.384C165.829 111.394 165.826 111.404 165.823 111.414C165.819 111.429 165.815 111.445 165.811 111.46C165.802 111.491 165.799 111.524 165.794 111.556C165.781 111.643 165.769 111.73 165.757 111.817C165.762 111.791 165.766 111.765 165.77 111.738C165.754 111.833 165.739 111.928 165.725 112.024C165.712 112.114 165.737 112.201 165.781 112.275C165.833 112.363 165.926 112.407 166.016 112.408C166.098 112.41 166.166 112.379 166.225 112.315C166.289 112.244 166.332 112.137 166.315 112.032Z" fill="#0D0D0D"/>
<path d="M166.005 111.828C165.52 111.89 165.034 111.952 164.549 112.014C164.079 112.073 163.597 112.102 163.137 112.222C163.047 112.245 163.034 112.417 163.14 112.418C163.621 112.422 164.104 112.33 164.582 112.272C165.059 112.213 165.537 112.155 166.014 112.096C166.164 112.078 166.156 111.809 166.005 111.828ZM158.289 121.205C158.289 121.625 158.862 121.576 158.862 121.157C158.863 120.738 158.289 120.786 158.289 121.205ZM154.131 120.073C153.791 120.454 153.451 120.835 153.111 121.216C152.782 121.585 152.446 121.942 152.154 122.349C152.015 122.544 152.233 122.773 152.399 122.615C152.501 122.517 152.612 122.429 152.707 122.322C152.786 122.232 152.865 122.14 152.944 122.049C153.102 121.867 153.26 121.685 153.418 121.503C153.755 121.114 154.093 120.726 154.431 120.338C154.503 120.255 154.472 120.101 154.398 120.035C154.308 119.956 154.204 119.99 154.131 120.073ZM148.446 122.985C148.367 123.038 148.288 123.092 148.21 123.146C148.109 123.215 148.013 123.292 147.916 123.367C147.861 123.409 147.849 123.498 147.88 123.561C147.912 123.627 147.98 123.655 148.043 123.63C148.147 123.588 148.25 123.547 148.351 123.5C148.448 123.455 148.546 123.409 148.643 123.363C148.751 123.312 148.791 123.16 148.733 123.048C148.705 122.994 148.665 122.961 148.612 122.946C148.588 122.937 148.563 122.935 148.538 122.94C148.504 122.946 148.473 122.961 148.446 122.985ZM146.001 125.653C145.855 126.143 145.709 126.634 145.563 127.124C145.491 127.365 145.418 127.605 145.348 127.846C145.274 128.104 145.172 128.394 145.184 128.666C145.193 128.865 145.431 129.013 145.561 128.84C145.731 128.612 145.805 128.296 145.891 128.015C145.965 127.769 146.034 127.52 146.105 127.273C146.245 126.788 146.386 126.303 146.526 125.817C146.635 125.439 146.113 125.277 146.001 125.653ZM144.049 130.931C144.049 131.238 144.47 131.257 144.47 130.948C144.47 130.641 144.049 130.622 144.049 130.931ZM141.836 135.184C141.836 135.38 142.101 135.345 142.101 135.151C142.101 134.956 141.836 134.991 141.836 135.184ZM141.569 141.024C141.569 141.19 141.795 141.187 141.795 141.021C141.795 140.856 141.569 140.859 141.569 141.024ZM147.619 145.211C147.619 145.74 148.344 145.824 148.344 145.292C148.344 144.763 147.619 144.679 147.619 145.211ZM148.462 150.772C148.462 150.906 148.646 150.926 148.646 150.79C148.646 150.656 148.462 150.637 148.462 150.772ZM158.477 154.36C158.477 154.923 159.247 154.922 159.247 154.359C159.247 153.795 158.477 153.797 158.477 154.36ZM160.303 149.813C160.303 150.218 160.857 150.204 160.857 149.798C160.857 149.393 160.303 149.407 160.303 149.813ZM154.823 149.056C154.769 149.276 154.716 149.497 154.663 149.718C154.67 149.688 154.677 149.659 154.684 149.629C154.663 149.716 154.643 149.795 154.628 149.881C154.625 149.897 154.622 149.912 154.619 149.928C154.606 150.008 154.611 150.063 154.618 150.146C154.626 150.255 154.704 150.347 154.794 150.376C154.89 150.407 154.982 150.368 155.048 150.285C155.076 150.251 155.106 150.216 155.128 150.175C155.146 150.139 155.165 150.087 155.179 150.054C155.195 150.015 155.211 149.975 155.226 149.934C155.251 149.86 155.276 149.786 155.302 149.712C155.354 149.56 155.405 149.407 155.456 149.254C155.485 149.169 155.462 149.043 155.423 148.967C155.383 148.889 155.305 148.815 155.227 148.795C155.053 148.75 154.873 148.855 154.823 149.056ZM154.523 149.775C154.327 150.206 154.119 150.632 153.945 151.075C153.916 151.149 154.008 151.212 154.044 151.138C154.251 150.715 154.426 150.272 154.611 149.835C154.639 149.769 154.554 149.708 154.523 149.775ZM172.595 141.203C172.504 141.21 172.412 141.218 172.321 141.226C172.292 141.228 172.265 141.237 172.243 141.262C172.225 141.282 172.211 141.317 172.212 141.346C172.214 141.416 172.258 141.466 172.318 141.471C172.386 141.476 172.453 141.481 172.521 141.486C172.51 141.485 172.5 141.484 172.49 141.484C172.521 141.486 172.552 141.489 172.584 141.492C172.606 141.496 172.628 141.494 172.649 141.485C172.659 141.479 172.669 141.473 172.68 141.467C172.713 141.443 172.731 141.398 172.733 141.354C172.736 141.267 172.672 141.197 172.595 141.203ZM173.369 142.206C173.518 142.316 173.667 142.427 173.816 142.537C173.891 142.593 173.965 142.654 174.045 142.702C174.093 142.73 174.142 142.764 174.193 142.785C174.305 142.834 174.456 142.84 174.504 142.686C174.521 142.628 174.517 142.567 174.488 142.515C174.47 142.484 174.447 142.46 174.419 142.444C174.465 142.486 174.475 142.49 174.45 142.456C174.424 142.416 174.402 142.387 174.366 142.355C174.347 142.337 174.328 142.32 174.309 142.303C174.223 142.224 174.128 142.159 174.036 142.09C173.885 141.978 173.734 141.866 173.582 141.753C173.483 141.68 173.326 141.741 173.277 141.859C173.22 141.993 173.263 142.127 173.369 142.206ZM177.802 133.507C177.802 133.862 178.291 133.936 178.291 133.576C178.291 133.221 177.802 133.147 177.802 133.507ZM178.947 128.628C178.947 128.983 179.436 129.057 179.436 128.697C179.436 128.342 178.947 128.268 178.947 128.628ZM180.224 124.11C180.224 124.275 180.45 124.272 180.45 124.107C180.45 123.942 180.224 123.945 180.224 124.11ZM175.393 139.73C175.393 139.843 175.546 139.825 175.546 139.713C175.546 139.601 175.393 139.619 175.393 139.73ZM172.764 148.517C172.764 148.705 173.02 148.678 173.02 148.492C173.02 148.304 172.764 148.33 172.764 148.517ZM168.921 150.688C168.893 150.78 168.866 150.872 168.839 150.964C168.846 150.941 168.852 150.919 168.859 150.897C168.83 150.99 168.8 151.083 168.771 151.177C168.75 151.245 168.736 151.314 168.725 151.384C168.712 151.463 168.735 151.555 168.803 151.594C168.865 151.63 168.95 151.626 169 151.564C169.024 151.533 169.049 151.503 169.073 151.472C169.104 151.431 169.129 151.385 169.155 151.34C169.191 151.278 169.227 151.217 169.262 151.155C169.25 151.175 169.239 151.194 169.227 151.213C169.281 151.124 169.335 151.036 169.388 150.946C169.476 150.797 169.423 150.593 169.284 150.516C169.142 150.438 168.974 150.518 168.921 150.688ZM171.04 143.774C170.805 144.037 170.571 144.3 170.336 144.564C170.078 144.853 169.787 145.129 169.6 145.485C169.517 145.643 169.685 145.831 169.824 145.739C170.13 145.535 170.364 145.213 170.611 144.929C170.844 144.662 171.076 144.394 171.309 144.127C171.386 144.037 171.406 143.898 171.33 143.798C171.261 143.707 171.119 143.685 171.04 143.774ZM164.43 152.078C164.43 152.311 164.748 152.32 164.748 152.087C164.748 151.854 164.43 151.845 164.43 152.078ZM177.213 115.219C177.206 115.256 177.199 115.292 177.192 115.329C177.198 115.298 177.204 115.267 177.21 115.236C177.177 115.398 177.142 115.559 177.11 115.721C177.099 115.774 177.089 115.827 177.079 115.88C177.064 115.956 177.044 116.03 177.034 116.106C177.024 116.173 177.023 116.242 177.017 116.308C177.007 116.408 177.081 116.521 177.166 116.545C177.254 116.571 177.356 116.537 177.405 116.445C177.452 116.355 177.498 116.266 177.534 116.17C177.563 116.093 177.591 116.017 177.619 115.94C177.609 115.965 177.6 115.99 177.59 116.015C177.662 115.831 177.734 115.645 177.803 115.458C177.866 115.287 177.768 115.058 177.613 115.004C177.535 114.976 177.445 114.973 177.37 115.019C177.304 115.06 177.23 115.131 177.213 115.219ZM177.15 118.245C177.15 118.717 177.797 118.736 177.797 118.263C177.797 117.791 177.15 117.771 177.15 118.245ZM180.603 116.955C180.603 116.985 180.644 116.98 180.644 116.95C180.644 116.92 180.603 116.925 180.603 116.955ZM179.999 112.743C179.999 113.238 180.675 113.199 180.675 112.705C180.675 112.209 179.999 112.248 179.999 112.743ZM169.554 113.726C169.554 114.003 169.931 113.948 169.931 113.673C169.931 113.396 169.554 113.452 169.554 113.726ZM164.732 115.635C164.732 115.844 165.018 115.878 165.018 115.667C165.018 115.459 164.732 115.425 164.732 115.635ZM156.361 115.809C156.109 116.156 155.858 116.506 155.613 116.86C155.574 116.917 155.576 116.997 155.619 117.051C155.66 117.101 155.736 117.116 155.786 117.072C156.107 116.787 156.421 116.492 156.736 116.2C156.856 116.089 156.854 115.879 156.743 115.764C156.624 115.639 156.46 115.674 156.361 115.809ZM149.744 116.854C149.586 117.302 149.431 117.751 149.272 118.199C149.21 118.376 149.449 118.511 149.537 118.348C149.757 117.939 149.974 117.528 150.196 117.12C150.277 116.971 150.245 116.78 150.103 116.696C149.963 116.614 149.802 116.691 149.744 116.854ZM143.608 122.789C143.608 123.741 144.911 123.781 144.911 122.826C144.911 121.874 143.608 121.834 143.608 122.789ZM140.859 139.368C140.859 139.732 141.36 139.793 141.36 139.425C141.36 139.061 140.859 139 140.859 139.368ZM141.884 144.392C141.908 144.469 141.933 144.546 141.958 144.623C141.946 144.588 141.935 144.552 141.923 144.516C141.978 144.697 142.029 144.879 142.085 145.06C142.111 145.145 142.138 145.23 142.164 145.315C142.179 145.367 142.193 145.423 142.211 145.474C142.233 145.539 142.267 145.601 142.297 145.662C142.322 145.715 142.348 145.77 142.392 145.807C142.462 145.866 142.563 145.878 142.643 145.838C142.737 145.791 142.794 145.682 142.791 145.568C142.787 145.53 142.787 145.519 142.791 145.536C142.794 145.546 142.794 145.542 142.793 145.524C142.795 145.503 142.793 145.48 142.793 145.458C142.792 145.26 142.758 145.067 142.728 144.872C142.732 144.905 142.736 144.939 142.74 144.972C142.706 144.7 142.668 144.429 142.626 144.159C142.61 144.055 142.523 143.946 142.445 143.895C142.363 143.842 142.244 143.821 142.153 143.854C141.966 143.923 141.812 144.161 141.884 144.392ZM146.053 153.7C146.053 154.007 146.474 154.026 146.474 153.717C146.474 153.41 146.053 153.391 146.053 153.7ZM150.686 152.403C150.686 152.636 151.004 152.645 151.004 152.412C151.004 152.179 150.686 152.17 150.686 152.403ZM145.757 149.158C145.757 149.481 146.198 149.475 146.198 149.151C146.198 148.829 145.757 148.835 145.757 149.158ZM150.936 155.633C150.936 156.337 151.899 156.394 151.899 155.687C151.899 154.983 150.936 154.926 150.936 155.633ZM156.378 155.636C156.378 155.918 156.765 155.97 156.765 155.685C156.765 155.403 156.378 155.351 156.378 155.636ZM163.495 150.154C163.495 150.499 163.965 150.451 163.965 150.107C163.965 149.762 163.495 149.81 163.495 150.154ZM164.808 155.339C164.808 155.437 164.942 155.429 164.942 155.331C164.942 155.234 164.808 155.242 164.808 155.339Z" fill="#0D0D0D"/>
<path d="M164.755 155.644C165.042 155.753 165.328 155.861 165.614 155.97C165.929 156.089 166.249 156.235 166.586 156.225C166.797 156.218 166.878 155.925 166.706 155.784C166.62 155.713 166.532 155.634 166.433 155.589C166.344 155.548 166.254 155.504 166.163 155.468C166.034 155.417 165.903 155.37 165.774 155.32C165.514 155.222 165.255 155.124 164.996 155.026C164.849 154.97 164.665 155.017 164.603 155.198C164.549 155.356 164.597 155.585 164.755 155.644ZM167.007 147.199C167.007 147.431 167.325 147.441 167.325 147.208C167.325 146.975 167.007 146.966 167.007 147.199ZM173.925 145.904C173.925 146.069 174.151 146.066 174.151 145.901C174.151 145.735 173.925 145.738 173.925 145.904ZM176.309 141.314C176.309 141.76 176.922 141.833 176.922 141.382C176.922 140.936 176.309 140.863 176.309 141.314ZM178.583 133.533C178.583 134.005 179.229 134.024 179.229 133.551C179.229 133.079 178.583 133.059 178.583 133.533Z" fill="#0D0D0D"/>
</g>
<path d="M146.881 160.993C146.886 160.872 149.068 160.861 152.592 160.941C156.115 161.021 160.979 161.192 166.35 161.435C169.03 161.521 171.622 161.865 173.724 161.165C174.765 160.828 175.619 160.201 176.193 159.425C176.765 158.646 177.085 157.765 177.264 156.935C177.604 155.259 177.513 153.824 177.489 152.851C177.447 151.871 177.42 151.323 177.484 151.315C177.541 151.307 177.683 151.837 177.83 152.819C177.958 153.798 178.154 155.246 177.876 157.051C177.724 157.945 177.415 158.937 176.784 159.852C176.157 160.764 175.159 161.531 173.988 161.932C172.819 162.346 171.536 162.455 170.249 162.457C168.955 162.451 167.655 162.367 166.31 162.314C160.939 162.071 156.079 161.801 152.563 161.562C149.047 161.323 146.875 161.115 146.881 160.993Z" fill="#0D0D0D"/>
<path d="M224.354 28.2195C223.076 33.0376 220.301 37.5135 216.3 40.4832C208.298 46.4273 195.883 44.9781 189.193 37.5895C182.503 30.1962 182.156 17.9801 188.124 9.99282C189.316 8.39626 190.727 7.03265 192.3 5.90177C197.641 0.888887 207.372 -0.0328151 214.166 2.99386C214.418 3.07461 214.67 3.16019 214.922 3.25519L214.765 3.27414C215.858 3.80633 216.865 4.45246 217.754 5.20325C224.173 10.6485 226.52 20.0803 224.354 28.2195Z" fill="white"/>
<path d="M206.799 19.2134C205.273 18.6462 203.393 19.161 202.418 20.4652C201.442 21.7693 201.499 23.7631 202.592 24.97C203.686 26.1769 205.716 26.4131 207.023 25.4426C207.677 24.9576 208.13 24.2272 208.34 23.4406C208.694 22.112 208.31 20.5721 207.261 19.6834C206.212 18.7947 204.515 18.7067 203.471 19.6009" fill="#655CFE"/>
<path d="M224.356 28.2196C223.078 33.0377 220.303 37.5136 216.303 40.4833C208.301 46.4274 195.885 44.9782 189.195 37.5896C186.24 34.3206 184.52 30.1107 184.035 25.7394C187.998 28.6331 192.83 30.3436 197.739 30.3531C205.065 30.3721 212.354 26.4854 216.174 20.2325C218.569 16.3173 219.534 11.846 219.805 7.23242C224.656 12.801 226.276 21.0163 224.356 28.2196Z" fill="#D8D8D8"/>
<path d="M192.298 5.90375C192.249 5.85236 192.623 5.45033 193.397 4.71986C193.815 4.3997 194.335 3.99322 194.988 3.57212C195.326 3.37978 195.69 3.17283 196.079 2.95151C196.467 2.72288 196.917 2.56298 197.376 2.34872C199.236 1.56251 201.659 0.899789 204.539 0.71909C204.898 0.680573 205.264 0.678088 205.637 0.680689C206.011 0.679946 206.39 0.67921 206.776 0.678467C207.161 0.70559 207.552 0.733205 207.948 0.761196C208.346 0.787452 208.749 0.81755 209.154 0.891737C209.56 0.954653 209.972 1.01856 210.39 1.08321C210.802 1.18068 211.22 1.27964 211.643 1.37971C212.07 1.46765 212.49 1.60908 212.914 1.75486C213.336 1.90682 213.779 2.01705 214.194 2.2219C215.906 2.88141 217.611 3.96808 219.077 5.34567C220.551 6.71696 221.871 8.37285 222.945 10.2527C225.098 14.0088 226.275 18.6552 226.05 23.5216C225.803 28.3805 224.073 33.4477 220.72 37.6128C219.882 38.6498 218.941 39.6242 217.902 40.5056C217.383 40.9477 216.84 41.3657 216.256 41.7374L215.391 42.3122C215.098 42.498 214.782 42.6425 214.477 42.8094C212.021 44.1131 209.261 44.8832 206.439 45.1117C200.788 45.5779 195.156 43.8583 190.937 40.5456C188.822 38.8905 187.104 36.8188 185.853 34.5772C184.597 32.3334 183.786 29.9259 183.358 27.5269C182.484 22.7159 183.191 17.9541 184.896 13.9855C185.129 13.4965 185.315 12.991 185.582 12.5294C185.843 12.0655 186.102 11.6056 186.358 11.15C186.947 10.2854 187.507 9.4236 188.188 8.67666C189.495 7.14734 190.965 5.86362 192.518 4.88718C192.709 4.7606 192.899 4.63477 193.087 4.50968C193.28 4.39165 193.482 4.29083 193.677 4.18197C194.069 3.97018 194.457 3.76112 194.84 3.55466C195.642 3.21902 196.396 2.8279 197.184 2.59023C197.572 2.45808 197.955 2.32792 198.332 2.19961C198.717 2.1004 199.096 2.00268 199.47 1.90657C200.211 1.68971 200.955 1.60413 201.662 1.46839C204.512 1.03181 207.009 1.15467 208.995 1.45068C209.496 1.50133 209.96 1.60747 210.396 1.6985C210.831 1.79647 211.242 1.86038 211.613 1.97284C212.352 2.19911 212.984 2.35962 213.474 2.5584C214.454 2.9515 214.95 3.18806 214.925 3.25444C214.901 3.32083 214.356 3.21457 213.355 2.95473C212.855 2.82245 212.218 2.72882 211.482 2.5693C211.114 2.49028 210.707 2.45957 210.279 2.39467C209.849 2.33671 209.394 2.26326 208.905 2.24493C206.966 2.07736 204.558 2.07724 201.854 2.60038C201.185 2.75743 200.479 2.86221 199.783 3.09468C199.432 3.19772 199.075 3.30238 198.713 3.40877C198.361 3.54191 198.003 3.67715 197.64 3.81437C196.903 4.06034 196.206 4.45395 195.462 4.78785C195.109 4.99146 194.751 5.1978 194.389 5.40674C194.21 5.5135 194.024 5.61196 193.847 5.72702C193.674 5.84864 193.501 5.97087 193.326 6.09398C191.903 7.04008 190.575 8.26163 189.403 9.69422C188.791 10.3914 188.294 11.2009 187.764 12.005C187.536 12.4301 187.306 12.859 187.074 13.2917C186.834 13.7206 186.673 14.194 186.466 14.648C184.956 18.3392 184.363 22.7662 185.219 27.1872C185.638 29.3912 186.404 31.5865 187.561 33.6125C188.715 35.6395 190.267 37.4824 192.176 38.9606C195.984 41.9249 201.142 43.4953 206.277 43.065C208.839 42.8569 211.326 42.1621 213.522 41.0037C213.794 40.855 214.08 40.729 214.341 40.5635L215.111 40.0526C215.632 39.7267 216.124 39.3518 216.593 38.9546C217.534 38.1634 218.391 37.2846 219.159 36.344C222.239 32.5655 223.887 27.8923 224.16 23.4181C224.419 18.9197 223.387 14.5871 221.46 11.0862C220.499 9.33282 219.314 7.78592 217.986 6.49527C216.661 5.20164 215.203 4.21863 213.624 3.55763C213.249 3.35736 212.839 3.24677 212.452 3.09443C212.063 2.94804 211.677 2.80425 211.28 2.71173C210.886 2.60596 210.498 2.50156 210.114 2.39851C209.723 2.32569 209.337 2.25373 208.957 2.18289C208.578 2.09966 208.198 2.05965 207.822 2.02262C207.447 1.98299 207.078 1.94397 206.714 1.90558C206.348 1.89332 205.988 1.88131 205.633 1.86942C205.278 1.85344 204.929 1.84205 204.587 1.8662C201.837 1.93196 199.493 2.45176 197.666 3.09381C197.216 3.27154 196.769 3.39613 196.384 3.58847C195.994 3.7719 195.629 3.94343 195.291 4.10283C194.631 4.45395 194.092 4.7933 193.645 5.05166C192.815 5.65605 192.346 5.95515 192.298 5.90375Z" fill="#0D0D0D"/>
<path d="M203.47 19.601C203.382 19.5122 203.544 19.1038 204.205 18.7415C204.843 18.3981 206.034 18.1642 207.317 18.8318C208.607 19.5033 209.56 21.1882 209.375 23.0606C209.276 24.0012 208.906 24.9515 208.188 25.7452C207.835 26.1348 207.368 26.4851 206.846 26.7124C206.328 26.9408 205.767 27.0566 205.205 27.0673C204.085 27.0865 202.995 26.6994 202.179 25.9698C201.353 25.2297 200.934 24.2233 200.83 23.2924C200.727 22.354 200.901 21.4505 201.291 20.7076C201.674 19.9539 202.27 19.4034 202.856 19.0638C204.056 18.3848 205.187 18.4174 205.867 18.6035C206.563 18.7924 206.847 19.0962 206.798 19.2137C206.746 19.3569 206.38 19.3271 205.798 19.3999C205.227 19.4632 204.394 19.6724 203.671 20.2661C203.315 20.5651 203.011 20.9484 202.836 21.4225C202.651 21.8936 202.6 22.4678 202.703 23.0237C202.806 23.5801 203.083 24.11 203.504 24.4562C203.925 24.811 204.546 25.0279 205.166 25.0142C205.475 25.0085 205.773 24.9472 206.033 24.8386C206.292 24.7308 206.514 24.5774 206.722 24.3676C207.129 23.9575 207.402 23.3754 207.498 22.823C207.696 21.6758 207.221 20.5674 206.545 20.0622C205.849 19.5204 204.996 19.4384 204.457 19.5005C203.899 19.5585 203.568 19.7167 203.47 19.601Z" fill="#0D0D0D"/>
<path d="M205.367 9.30396C205.936 9.35449 206.202 11.5524 206.164 14.221C206.121 16.8897 205.787 19.0783 205.217 19.1115C204.655 19.1453 204.066 16.9425 204.111 14.1895C204.15 11.4368 204.806 9.25306 205.367 9.30396ZM197.546 31.9427C197.129 31.564 198.166 29.7457 200.002 28.024C201.836 26.2988 203.715 25.3779 204.067 25.8177C204.425 26.2627 203.177 27.856 201.408 29.5208C199.636 31.1817 197.968 32.3275 197.546 31.9427ZM205.286 6.98671C204.731 7.0869 204.175 6.57478 204.215 5.84145C204.256 5.108 204.865 4.66003 205.406 4.82067C205.952 4.98044 206.288 5.4803 206.266 5.9544C206.236 6.42776 205.847 6.88787 205.286 6.98671ZM204.731 40.2959C204.164 40.2812 203.718 39.7163 203.736 39.0341C203.754 38.3519 204.228 37.8107 204.795 37.8254C205.361 37.8402 205.807 38.4051 205.789 39.0873C205.771 39.7695 205.297 40.3106 204.731 40.2959ZM216.233 11.702C215.77 11.3802 215.738 10.6247 216.285 10.1345C216.833 9.64455 217.58 9.75849 217.849 10.2545C218.123 10.754 218.006 11.3448 217.656 11.6642C217.3 11.9779 216.7 12.0286 216.233 11.702ZM192.287 34.8619C191.896 34.4507 191.981 33.7364 192.476 33.2665C192.971 32.7966 193.689 32.749 194.079 33.1602C194.469 33.5714 194.385 34.2858 193.89 34.7557C193.395 35.2257 192.677 35.2731 192.287 34.8619ZM220.64 22.7766C220.539 22.2213 221.052 21.6651 221.785 21.7052C222.518 21.7458 222.966 22.3549 222.806 22.8958C222.646 23.4423 222.146 23.778 221.672 23.7557C221.199 23.726 220.738 23.3374 220.64 22.7766ZM187.33 22.2207C187.345 21.6538 187.91 21.2085 188.592 21.2263C189.274 21.244 189.816 21.7178 189.801 22.2847C189.786 22.8516 189.221 23.2968 188.539 23.2791C187.857 23.2614 187.316 22.7875 187.33 22.2207ZM215.924 33.7235C216.246 33.2599 217.002 33.2287 217.492 33.7757C217.982 34.323 217.868 35.0705 217.372 35.3395C216.872 35.6131 216.281 35.4968 215.962 35.1459C215.648 34.7898 215.598 34.1898 215.924 33.7235ZM192.764 9.77707C193.176 9.38657 193.89 9.47128 194.36 9.96607C194.83 10.461 194.877 11.1787 194.466 11.5692C194.055 11.9596 193.34 11.875 192.871 11.3801C192.401 10.8853 192.353 10.1676 192.764 9.77707Z" fill="#0D0D0D"/>
<path d="M203.693 23.7641C203.62 23.8457 203.242 23.6805 202.97 23.108C202.842 22.8264 202.752 22.4474 202.8 22.0177C202.845 21.5865 203.047 21.13 203.385 20.7662C203.723 20.4032 204.163 20.1675 204.59 20.0912C205.015 20.0117 205.399 20.073 205.689 20.1803C206.28 20.4094 206.473 20.7743 206.397 20.8531C206.317 20.9535 206.012 20.8131 205.548 20.7864C205.085 20.754 204.473 20.8771 204.029 21.3652C203.575 21.8432 203.498 22.4627 203.564 22.9227C203.625 23.3831 203.787 23.677 203.693 23.7641Z" fill="white"/>
<path d="M194.199 25.5907C194.097 25.6205 193.78 24.9871 193.612 23.8642C193.524 23.3046 193.501 22.6261 193.553 21.876C193.62 21.1279 193.772 20.3094 194.043 19.483C194.324 18.6601 194.696 17.9153 195.093 17.2778C195.503 16.6474 195.93 16.1195 196.338 15.7259C197.148 14.9308 197.783 14.6164 197.847 14.7016C197.931 14.8078 197.449 15.2876 196.806 16.1357C196.48 16.5568 196.134 17.0859 195.79 17.6923C195.459 18.3063 195.138 19.0021 194.878 19.7626C194.627 20.5263 194.465 21.2753 194.359 21.9649C194.268 22.656 194.226 23.2869 194.232 23.8191C194.235 24.8835 194.331 25.5568 194.199 25.5907Z" fill="#0D0D0D"/>
</svg>
