<?xml version="1.0" encoding="UTF-8"?>
<svg id="MobileTempDark" xmlns="http://www.w3.org/2000/svg" viewBox="0 0 1080 1080">
  <defs>
    <style>
      .cls-1 {
        fill: #fff;
      }

      .cls-2 {
        fill: #d8d8d8;
      }

      .cls-3 {
        fill: #655cfe;
      }

      .cls-4 {
        fill: #f9f9f9;
      }

      .cls-5 {
        fill: #01112d;
      }

      .cls-6 {
        fill: #c6c6c6;
      }

      .cls-7 {
        fill: #ededed;
      }
    </style>
  </defs>
  <g>
    <g>
      <g>
        <rect class="cls-1" x="720.55" y="239.62" width="312.31" height="600.76" rx="25.27" ry="25.27"/>
        <path class="cls-7" d="M1007.59,239.62c13.95,0,25.27,11.31,25.27,25.27V815.11c0,13.95-11.31,25.27-25.27,25.27h-261.78c-13.95,0-25.27-11.31-25.27-25.27V264.89c0-13.95,11.31-25.27,25.27-25.27h261.78m0-3h-261.78c-15.59,0-28.27,12.68-28.27,28.27V815.11c0,15.59,12.68,28.27,28.27,28.27h261.78c15.59,0,28.27-12.68,28.27-28.27V264.89c0-15.59-12.68-28.27-28.27-28.27h0Z"/>
      </g>
      <path class="cls-4" d="M1007.59,239.62h-115.99c140.5,175,151.11,388.48,50.96,504.86-60.72,70.57-148.8,89.91-196.75,95.9,87.26,0,174.52,0,261.78,0,13.95,0,25.27-11.31,25.27-25.27V264.89c0-13.95-11.31-25.27-25.27-25.27Z"/>
      <g>
        <path class="cls-7" d="M702.49,370.49c-.83,0-1.5-.67-1.5-1.5v-122.34c0-15,12.2-27.21,27.21-27.21h45.8c.83,0,1.5,.67,1.5,1.5s-.67,1.5-1.5,1.5h-45.8c-13.35,0-24.21,10.86-24.21,24.21v122.34c0,.83-.67,1.5-1.5,1.5Z"/>
        <path class="cls-7" d="M702.49,640.8c-.83,0-1.5-.67-1.5-1.5v-79.31c0-.83,.67-1.5,1.5-1.5s1.5,.67,1.5,1.5v79.31c0,.83-.67,1.5-1.5,1.5Z"/>
        <path class="cls-7" d="M891.06,862.72h-97.66c-.83,0-1.5-.67-1.5-1.5s.67-1.5,1.5-1.5h97.66c.83,0,1.5,.67,1.5,1.5s-.67,1.5-1.5,1.5Z"/>
        <path class="cls-7" d="M1028.22,862.72h-15.48c-.83,0-1.5-.67-1.5-1.5s.67-1.5,1.5-1.5h15.48c13.35,0,24.21-10.86,24.21-24.21v-31.17c0-.83,.67-1.5,1.5-1.5s1.5,.67,1.5,1.5v31.17c0,15-12.2,27.21-27.21,27.21Z"/>
        <path class="cls-7" d="M1053.92,408.17c-.83,0-1.5-.67-1.5-1.5v-62.92c0-.83,.67-1.5,1.5-1.5s1.5,.67,1.5,1.5v62.92c0,.83-.67,1.5-1.5,1.5Z"/>
        <path class="cls-7" d="M996.6,222.44h-86.81c-.83,0-1.5-.67-1.5-1.5s.67-1.5,1.5-1.5h86.81c.83,0,1.5,.67,1.5,1.5s-.67,1.5-1.5,1.5Z"/>
      </g>
    </g>
    <path class="cls-7" d="M793.35,239.62h166.71c0,15.48-12.57,28.05-28.05,28.05h-110.61c-15.48,0-28.05-12.57-28.05-28.05h0Z"/>
    <g>
      <g>
        <rect class="cls-1" x="751.86" y="365.52" width="249.68" height="207.48" rx="9.81" ry="9.81"/>
        <path class="cls-6" d="M991.73,365.52c5.42,0,9.81,4.39,9.81,9.81v187.85c0,5.42-4.39,9.81-9.81,9.81h-230.05c-5.42,0-9.81-4.39-9.81-9.81v-187.85c0-5.42,4.39-9.81,9.81-9.81h230.05m0-3h-230.05c-7.07,0-12.81,5.75-12.81,12.81v187.85c0,7.07,5.75,12.81,12.81,12.81h230.05c7.07,0,12.81-5.75,12.81-12.81v-187.85c0-7.07-5.75-12.81-12.81-12.81h0Z"/>
      </g>
      <g>
        <path class="cls-1" d="M838.86,572.05l.53-1.16,64.02-140.18c6.61-14.47,25.94-14.16,32.14,.51l59.56,140.83h-156.25Z"/>
        <path class="cls-5" d="M995.11,572.99h-156.25c-.32,0-.61-.16-.79-.43-.17-.27-.19-.61-.06-.9l64.55-141.34c3.21-7.03,9.73-11.34,17.06-11.22,7.33,.11,13.77,4.61,16.79,11.76l59.56,140.82c.12,.29,.09,.63-.08,.89-.17,.26-.47,.42-.78,.42Zm-154.79-1.89h153.38l-59-139.51c-2.73-6.45-8.51-10.52-15.1-10.61-.08,0-.16,0-.23,0-6.47,0-12.24,3.86-15.1,10.13l-63.94,140Z"/>
      </g>
      <g>
        <path class="cls-1" d="M759.97,572.05l.42-.89,51-107.65c5.26-11.11,20.66-10.88,25.6,.39l47.44,108.14h-124.46Z"/>
        <path class="cls-5" d="M884.43,572.99h-124.46c-.32,0-.62-.17-.79-.44-.17-.27-.19-.62-.05-.91l51.42-108.54c2.56-5.4,7.74-8.73,13.54-8.73,.08,0,.15,0,.22,0,5.91,.09,11.09,3.59,13.53,9.15l47.44,108.14c.13,.29,.1,.63-.07,.9-.17,.27-.47,.43-.78,.43Zm-122.98-1.89h121.55l-46.86-106.82c-2.14-4.88-6.68-7.95-11.85-8.03-.07,0-.13,0-.2,0-5.08,0-9.62,2.92-11.86,7.66l-50.78,107.19Z"/>
      </g>
      <circle class="cls-5" cx="796.79" cy="408.27" r="22.68"/>
    </g>
    <g>
      <g>
        <circle class="cls-3" cx="846.21" cy="599.89" r="7.49"/>
        <path class="cls-3" d="M846.21,592.4c4.14,0,7.49,3.35,7.49,7.49s-3.35,7.49-7.49,7.49-7.49-3.35-7.49-7.49,3.35-7.49,7.49-7.49"/>
      </g>
      <g>
        <circle class="cls-3" cx="876.7" cy="599.89" r="7.49"/>
        <path class="cls-3" d="M876.7,592.4c4.14,0,7.49,3.35,7.49,7.49s-3.35,7.49-7.49,7.49-7.49-3.35-7.49-7.49,3.35-7.49,7.49-7.49"/>
      </g>
      <g>
        <circle class="cls-3" cx="907.19" cy="599.89" r="7.49"/>
        <path class="cls-3" d="M907.19,592.4c4.14,0,7.49,3.35,7.49,7.49s-3.35,7.49-7.49,7.49-7.49-3.35-7.49-7.49,3.35-7.49,7.49-7.49"/>
      </g>
    </g>
  </g>
  <g>
    <g>
      <g>
        <rect class="cls-1" x="48.86" y="239.62" width="312.31" height="600.76" rx="25.27" ry="25.27"/>
        <path class="cls-7" d="M335.91,239.62c13.95,0,25.27,11.31,25.27,25.27V815.11c0,13.95-11.31,25.27-25.27,25.27H74.13c-13.95,0-25.27-11.31-25.27-25.27V264.89c0-13.95,11.31-25.27,25.27-25.27H335.91m0-3H74.13c-15.59,0-28.27,12.68-28.27,28.27V815.11c0,15.59,12.68,28.27,28.27,28.27H335.91c15.59,0,28.27-12.68,28.27-28.27V264.89c0-15.59-12.68-28.27-28.27-28.27h0Z"/>
      </g>
      <path class="cls-4" d="M335.91,239.62h-115.99c140.5,175,151.11,388.48,50.96,504.86-60.72,70.57-148.8,89.91-196.75,95.9,87.26,0,174.52,0,261.78,0,13.95,0,25.27-11.31,25.27-25.27V264.89c0-13.95-11.31-25.27-25.27-25.27Z"/>
    </g>
    <path class="cls-7" d="M121.66,239.62h166.71c0,15.48-12.57,28.05-28.05,28.05h-110.61c-15.48,0-28.05-12.57-28.05-28.05h0Z"/>
    <path class="cls-2" d="M217.11,339.46H74.13c-1.38,0-2.5-1.12-2.5-2.5s1.12-2.5,2.5-2.5H217.11c1.38,0,2.5,1.12,2.5,2.5s-1.12,2.5-2.5,2.5Z"/>
    <path class="cls-2" d="M178.42,358.76H74.13c-.83,0-1.5-.67-1.5-1.5s.67-1.5,1.5-1.5h104.29c.83,0,1.5,.67,1.5,1.5s-.67,1.5-1.5,1.5Z"/>
    <path class="cls-2" d="M206.25,366.93H74.13c-.83,0-1.5-.67-1.5-1.5s.67-1.5,1.5-1.5H206.25c.83,0,1.5,.67,1.5,1.5s-.67,1.5-1.5,1.5Z"/>
    <g>
      <path class="cls-2" d="M104.69,434.67h-27.08v-27.08h27.08v27.08Zm-24.08-3h21.08v-21.08h-21.08v21.08Z"/>
      <path class="cls-2" d="M201.4,422.63H109.23c-.83,0-1.5-.67-1.5-1.5s.67-1.5,1.5-1.5h92.17c.83,0,1.5,.67,1.5,1.5s-.67,1.5-1.5,1.5Z"/>
    </g>
    <g>
      <path class="cls-2" d="M104.69,489.17h-27.08v-27.08h27.08v27.08Zm-24.08-3h21.08v-21.08h-21.08v21.08Z"/>
      <path class="cls-2" d="M227.78,477.13H109.23c-.83,0-1.5-.67-1.5-1.5s.67-1.5,1.5-1.5h118.55c.83,0,1.5,.67,1.5,1.5s-.67,1.5-1.5,1.5Z"/>
      <path class="cls-3" d="M88.04,483.85c-.54,0-1.06-.22-1.44-.61l-9.57-9.96c-.77-.8-.74-2.06,.06-2.83,.8-.76,2.06-.74,2.83,.06l8.04,8.37,21.04-24.62c.72-.84,1.98-.94,2.82-.22,.84,.72,.94,1.98,.22,2.82l-22.47,26.3c-.37,.43-.9,.68-1.46,.7-.02,0-.04,0-.06,0Z"/>
    </g>
    <g>
      <path class="cls-2" d="M104.69,543.66h-27.08v-27.08h27.08v27.08Zm-24.08-3h21.08v-21.08h-21.08v21.08Z"/>
      <path class="cls-2" d="M188.63,531.62H109.23c-.83,0-1.5-.67-1.5-1.5s.67-1.5,1.5-1.5h79.4c.83,0,1.5,.67,1.5,1.5s-.67,1.5-1.5,1.5Z"/>
    </g>
    <g>
      <path class="cls-2" d="M104.69,598.16h-27.08v-27.08h27.08v27.08Zm-24.08-3h21.08v-21.08h-21.08v21.08Z"/>
      <path class="cls-2" d="M201.4,586.12H109.23c-.83,0-1.5-.67-1.5-1.5s.67-1.5,1.5-1.5h92.17c.83,0,1.5,.67,1.5,1.5s-.67,1.5-1.5,1.5Z"/>
    </g>
    <g>
      <path class="cls-7" d="M32.03,374.48c-.83,0-1.5-.67-1.5-1.5v-122.34c0-15,12.2-27.21,27.21-27.21h45.8c.83,0,1.5,.67,1.5,1.5s-.67,1.5-1.5,1.5H57.73c-13.35,0-24.21,10.86-24.21,24.21v122.34c0,.83-.67,1.5-1.5,1.5Z"/>
      <path class="cls-7" d="M32.03,644.79c-.83,0-1.5-.67-1.5-1.5v-79.31c0-.83,.67-1.5,1.5-1.5s1.5,.67,1.5,1.5v79.31c0,.83-.67,1.5-1.5,1.5Z"/>
      <path class="cls-7" d="M220.6,866.72H122.94c-.83,0-1.5-.67-1.5-1.5s.67-1.5,1.5-1.5h97.66c.83,0,1.5,.67,1.5,1.5s-.67,1.5-1.5,1.5Z"/>
      <path class="cls-7" d="M357.75,866.72h-15.48c-.83,0-1.5-.67-1.5-1.5s.67-1.5,1.5-1.5h15.48c13.35,0,24.21-10.86,24.21-24.21v-31.17c0-.83,.67-1.5,1.5-1.5s1.5,.67,1.5,1.5v31.17c0,15-12.2,27.21-27.21,27.21Z"/>
      <path class="cls-7" d="M383.46,412.17c-.83,0-1.5-.67-1.5-1.5v-62.92c0-.83,.67-1.5,1.5-1.5s1.5,.67,1.5,1.5v62.92c0,.83-.67,1.5-1.5,1.5Z"/>
      <path class="cls-7" d="M326.14,226.43h-86.81c-.83,0-1.5-.67-1.5-1.5s.67-1.5,1.5-1.5h86.81c.83,0,1.5,.67,1.5,1.5s-.67,1.5-1.5,1.5Z"/>
    </g>
  </g>
  <g>
    <g>
      <rect class="cls-1" x="327.72" y="151.72" width="403.7" height="776.55" rx="32.66" ry="32.66"/>
      <path class="cls-7" d="M698.76,151.72c18.04,0,32.66,14.62,32.66,32.66V895.62c0,18.04-14.62,32.66-32.66,32.66H360.38c-18.04,0-32.66-14.62-32.66-32.66V184.38c0-18.04,14.62-32.66,32.66-32.66h338.38m0-3H360.38c-19.66,0-35.66,16-35.66,35.66V895.62c0,19.66,16,35.66,35.66,35.66h338.38c19.66,0,35.66-16,35.66-35.66V184.38c0-19.66-16-35.66-35.66-35.66h0Z"/>
    </g>
    <g>
      <g>
        <rect class="cls-1" x="367.38" y="449.04" width="324.37" height="65.87" rx="32.94" ry="32.94"/>
        <path class="cls-6" d="M658.82,449.04c18.19,0,32.94,14.75,32.94,32.94h0c0,18.19-14.75,32.94-32.94,32.94H400.32c-18.19,0-32.94-14.75-32.94-32.94h0c0-18.19,14.75-32.94,32.94-32.94h258.5m0-3H400.32c-19.82,0-35.94,16.12-35.94,35.94s16.12,35.94,35.94,35.94h258.5c19.82,0,35.94-16.12,35.94-35.94s-16.12-35.94-35.94-35.94h0Z"/>
      </g>
      <g>
        <rect class="cls-1" x="367.38" y="550.15" width="324.37" height="65.87" rx="32.94" ry="32.94"/>
        <path class="cls-6" d="M658.82,550.15c18.19,0,32.94,14.75,32.94,32.94h0c0,18.19-14.75,32.94-32.94,32.94H400.32c-18.19,0-32.94-14.75-32.94-32.94h0c0-18.19,14.75-32.94,32.94-32.94h258.5m0-3H400.32c-19.82,0-35.94,16.12-35.94,35.94s16.12,35.94,35.94,35.94h258.5c19.82,0,35.94-16.12,35.94-35.94s-16.12-35.94-35.94-35.94h0Z"/>
      </g>
      <g>
        <rect class="cls-5" x="420.8" y="664.79" width="217.53" height="55.15" rx="24.68" ry="24.68"/>
        <path class="cls-5" d="M613.65,664.79c13.63,0,24.68,11.05,24.68,24.68v5.79c0,13.63-11.05,24.68-24.68,24.68h-168.17c-13.63,0-24.68-11.05-24.68-24.68v-5.79c0-13.63,11.05-24.68,24.68-24.68h168.17"/>
      </g>
    </g>
    <path class="cls-4" d="M698.76,151.72h-149.93c181.62,226.21,195.33,502.15,65.87,652.6-78.49,91.22-192.34,116.22-254.33,123.96,112.79,0,225.59,0,338.38,0,18.04,0,32.66-14.62,32.66-32.66V184.38c0-18.04-14.62-32.66-32.66-32.66Z"/>
    <g>
      <g>
        <path class="cls-1" d="M593.91,337.85c0,16.81-6.45,32.13-17.03,43.59-11.75,12.76-28.6,20.75-47.31,20.75s-35.57-7.99-47.32-20.75c-10.57-11.46-17.02-26.78-17.02-43.59,0-35.53,28.8-64.34,64.34-64.34s64.34,28.81,64.34,64.34Z"/>
        <path class="cls-5" d="M529.57,273.51c35.53,0,64.34,28.81,64.34,64.34,0,16.81-6.45,32.13-17.03,43.59-11.75,12.76-28.6,20.75-47.31,20.75s-35.57-7.99-47.32-20.75c-10.57-11.46-17.02-26.78-17.02-43.59,0-35.53,28.8-64.34,64.34-64.34m0-3c-37.13,0-67.34,30.21-67.34,67.34,0,16.97,6.33,33.17,17.81,45.62,12.71,13.8,30.76,21.72,49.53,21.72s36.81-7.92,49.52-21.72c11.49-12.45,17.82-28.65,17.82-45.62,0-37.13-30.21-67.34-67.34-67.34h0Z"/>
      </g>
      <g>
        <path class="cls-3" d="M576.88,381.44c-11.75,12.76-28.6,20.75-47.31,20.75s-35.57-7.99-47.32-20.75c1.43-10.61,6.35-20.11,13.56-27.32,4.81-4.81,10.64-8.6,17.13-11.01,5.18-1.93,10.78-2.98,16.63-2.98s11.45,1.05,16.63,2.98c16.24,6.03,28.3,20.65,30.68,38.33Z"/>
        <circle class="cls-3" cx="529.56" cy="321.35" r="27.39"/>
      </g>
    </g>
    <path class="cls-7" d="M421.82,151.72h215.49c0,20.01-16.25,36.26-36.26,36.26h-142.98c-20.01,0-36.26-16.25-36.26-36.26h0Z"/>
    <g>
      <path class="cls-7" d="M306.32,322.85c-.83,0-1.5-.67-1.5-1.5V165.91c0-18.84,15.32-34.16,34.16-34.16h58.19c.83,0,1.5,.67,1.5,1.5s-.67,1.5-1.5,1.5h-58.19c-17.18,0-31.16,13.98-31.16,31.16v155.44c0,.83-.67,1.5-1.5,1.5Z"/>
      <path class="cls-7" d="M306.32,666.29c-.83,0-1.5-.67-1.5-1.5v-100.76c0-.83,.67-1.5,1.5-1.5s1.5,.67,1.5,1.5v100.76c0,.83-.67,1.5-1.5,1.5Z"/>
      <path class="cls-7" d="M545.9,948.25h-124.07c-.83,0-1.5-.67-1.5-1.5s.67-1.5,1.5-1.5h124.07c.83,0,1.5,.67,1.5,1.5s-.67,1.5-1.5,1.5Z"/>
      <path class="cls-7" d="M720.16,948.25h-19.67c-.83,0-1.5-.67-1.5-1.5s.67-1.5,1.5-1.5h19.67c17.18,0,31.16-13.98,31.16-31.16v-39.61c0-.83,.67-1.5,1.5-1.5s1.5,.67,1.5,1.5v39.61c0,18.83-15.32,34.16-34.16,34.16Z"/>
      <path class="cls-7" d="M752.82,370.73c-.83,0-1.5-.67-1.5-1.5v-79.95c0-.83,.67-1.5,1.5-1.5s1.5,.67,1.5,1.5v79.95c0,.83-.67,1.5-1.5,1.5Z"/>
      <path class="cls-7" d="M687.18,134.75h-110.3c-.83,0-1.5-.67-1.5-1.5s.67-1.5,1.5-1.5h110.3c.83,0,1.5,.67,1.5,1.5s-.67,1.5-1.5,1.5Z"/>
    </g>
  </g>
</svg>